<?xml version="1.0" encoding="UTF-8"?>
<svg id="Calque_1" xmlns="http://www.w3.org/2000/svg" xmlns:xlink="http://www.w3.org/1999/xlink" version="1.1" viewBox="0 0 61.92 98.34">
  <!-- Generator: Adobe Illustrator 30.2.1, SVG Export Plug-In . SVG Version: 2.1.1 Build 1)  -->
  <defs>
    <style>
      .st0 {
        fill: url(#Dégradé_sans_nom_2);
      }

      .st1 {
        fill: url(#Dégradé_sans_nom_3);
      }

      .st2 {
        fill: #0e3a65;
      }

      .st3, .st4 {
        fill: #fff;
      }

      .st5 {
        fill: none;
        stroke-width: .15px;
      }

      .st5, .st4 {
        stroke: #fff;
        stroke-miterlimit: 10;
      }

      .st6 {
        fill: url(#Dégradé_sans_nom);
      }
    </style>
    <linearGradient id="Dégradé_sans_nom" data-name="Dégradé sans nom" x1="59.98" y1="31.17" x2="4.6" y2="31.17" gradientTransform="translate(0 100) scale(1 -1)" gradientUnits="userSpaceOnUse">
      <stop offset="0" stop-color="#fff"/>
      <stop offset="1" stop-color="#0e3a65"/>
      <stop offset="1" stop-color="#fff"/>
    </linearGradient>
    <linearGradient id="Dégradé_sans_nom_2" data-name="Dégradé sans nom 2" x1="59.85" y1="34.35" x2="2.9" y2="34.35" gradientTransform="translate(0 100) scale(1 -1)" gradientUnits="userSpaceOnUse">
      <stop offset="0" stop-color="#fff"/>
      <stop offset="0" stop-color="#0e3a65"/>
      <stop offset="1" stop-color="#fff"/>
    </linearGradient>
    <linearGradient id="Dégradé_sans_nom_3" data-name="Dégradé sans nom 3" x1="31.83" y1="22.49" x2="31.83" y2="63.35" gradientTransform="translate(0 100) scale(1 -1)" gradientUnits="userSpaceOnUse">
      <stop offset="0" stop-color="#fff"/>
      <stop offset="0" stop-color="#0e3a65"/>
      <stop offset="1" stop-color="#fff"/>
    </linearGradient>
  </defs>
  <path class="st2" d="M61.15,65.11c0,16.31-13.23,29.53-29.54,29.53S2.08,81.42,2.08,65.11c0-5.95,1.75-11.48,4.78-16.11h-.04c3.48-5.05,6.06-9.48,8.16-12.82,3.19-5.06,4.69-7.73,5.6-9.39,1.35-2.46,2.57-4.7,3.97-7.85,1.89-4.24,3.11-7.89,3.88-10.46C29.35,5.4,30.01,2.55,30.5,0c.38,2.05.96,4.75,1.9,7.85,1.32,4.4,2.75,7.61,3.79,9.92,1.86,4.16,3.54,7.13,4.87,9.48.92,1.62,3.75,6.53,8.12,12.63,1.15,1.61,2.61,3.31,4.16,5.22,4.84,5.26,7.81,12.29,7.81,20.01Z"/>
  <polygon class="st4" points="2.36 69.06 13.44 51.44 19.41 53.5 26.97 40.61 30.85 33.84 43.5 45.65 46.42 42.68 61.5 66.36 47.45 49.09 44.85 51.34 35.85 41.88 38.22 50.12 34.02 47.55 36.89 55.26 27.93 45.92 19.81 58.24 14.81 56.21 12.37 60 2.36 69.06"/>
  <path class="st6" d="M4.6,76.95c.29.83.58,1.23,1.02,2.04,10.7-6.39,20.91-4.64,25.44-3.35,3.68,1.05,5.55,4.04,10.93,4.84,5.31.79,12.31.14,15.41-.8.53-.69,1.03-1.8,1.39-2.72.4-1.04,1-1.71,1.19-2.77l-14.73-14.71-2.85,1.64-4.74-.55-3.55-2,2.66,6.89-8.68-8.63-6.98,9.73-4.16-1.49-1.93,2.77-10.42,9.13v-.02Z"/>
  <path class="st0" d="M2.9,74.48c.16.97.58,1.22,1.18,2.37.68,1.28.28.15.89.89,10.91-6.9,18.89-4.99,23.51-3.59,3.75,1.13,6.19,3.33,11.67,4.19,5.41.85,16.15-2.34,19.3-3.36.54-.74,0,.05.36-.95.41-1.12-2.44-1.34-2.24-2.48l-14.1-15.87-2.91,1.77-4.83-.59-3.62-2.16,2.71,7.43-8.84-9.31-7.11,10.49-4.24-1.61-1.97,2.99-9.76,9.8h0Z"/>
  <path class="st1" d="M2.36,69.06c.18,1.11.62,3.35,1.06,4.71.5,1.58.87,2.62,1.44,3.74,12.52-7.92,20.75-7.96,26.05-6.36,4.31,1.3,7.11,3.82,13.4,4.8,6.22.97,11.61-.21,15.23-1.38.47-1.22.71-2.61.99-3.47.43-1.33.55-4.19.78-5.49l-14.98-21.2-2.44,5.32-11.64-13.08.18,5.41.27,4.69-4.06-5.14-8.3,15.34-6.59-3.97-2.53,6.5-8.87,9.58h0Z"/>
  <path class="st5" d="M6.44,67.99c.71-.35,2.16-1.06,2.9-1.42,1.19-.59,1.24-.6,1.37-.67,1.03-.5,2.88-1.38,4.33-1.77,1.06-.28,2.82-.52,5.19.12,1.5,1.57,3.63,3.26,5.86,2.82,2.45-.48,3.15-3.2,5.81-4.03,2.26-.71,4.53.35,6.2,1.48.99-1.32,1.99-2.74,3.01-4.27.85-1.29,1.64-2.55,2.37-3.79l4.66-2.26c1.73.63,3.48,1.26,5.21,1.88"/>
  <ellipse class="st3" cx="6.44" cy="67.99" rx=".58" ry=".6"/>
  <ellipse class="st3" cx="10.7" cy="65.91" rx=".54" ry=".67"/>
  <ellipse class="st3" cx="15.03" cy="64.13" rx=".51" ry=".59"/>
  <ellipse class="st3" cx="20.22" cy="64.26" rx=".75" ry=".67" transform="translate(-44.25 83.77) rotate(-89.37)"/>
  <ellipse class="st3" cx="26.08" cy="67.08" rx=".63" ry=".77"/>
  <ellipse class="st3" cx="31.89" cy="63.05" rx=".58" ry=".66"/>
  <path class="st3" d="M38.59,64.52c0,.27-.2.63-.48.63s-.48-.28-.48-.63c0-.31.2-.64.48-.63.2,0,.38.17.46.43.01.05.02.12.02.2Z"/>
  <ellipse class="st3" cx="41.11" cy="60.27" rx=".35" ry=".38"/>
  <ellipse class="st3" cx="43.48" cy="56.48" rx=".63" ry=".71"/>
  <ellipse class="st3" cx="53.36" cy="56.1" rx=".46" ry=".54"/>
  <ellipse class="st3" cx="48.14" cy="54.22" rx=".51" ry=".59"/>
</svg>