<?xml version="1.0" encoding="UTF-8"?>
<svg id="Calque_2" data-name="Calque 2" xmlns="http://www.w3.org/2000/svg" viewBox="0 0 1467.78 1726.65">
  <g id="Calque_1-2" data-name="Calque 1">
    <path d="M1367.21,536.67l-23.06-62.95c-12.36-33.75-50.21-33.35-80.48-49.29,37.05-18.96,68.48-10.72,83.36-57.23l19.44-60.72,20.39,66.17c12.91,41.9,50.6,30.86,80.92,52.32l-51.22,17.84c-12.51,4.36-22.28,12.78-25.66,26.23l-23.71,67.63Z" style="fill: #200e3d;"/>
    <path d="M1366.47,506.71c-16.59-47.77-23.93-67.56-77.6-81.81,55.97-15.6,63.22-36.65,76.84-87.76,8.6,22.28,11.39,43.89,25.26,60.75,12.87,15.64,33.95,18.22,51.63,25.61-17.93,7.13-36.39,9.59-48.75,22.73-15.1,16.04-18.35,37.57-27.39,60.48Z" style="fill: #fcd487;"/>
    <path d="M1290.4,171.45l-23.43,24.01c-4.74,4.86-12.07,5.01-17.35,2.74-5.53-2.37-8.93-8.05-9.27-15.23l-1.58-33.06-30.02-15.67c-5.22-2.73-7.99-8.57-8.58-13.28-1.72-13.89,19.96-22.52,43.01-23.66l9.46-37.28c1.52-5.97,3.13-10.86,8.41-12.96,14.4-5.71,27.33,15.23,37.65,35.38,20.8-5.09,43.82-13.01,50.32-.79,7.84,14.73-6.45,30.83-20.1,47.82l14.45,25.54c5.41,9.56,1.53,25.07-10.91,25.71-14.37.74-27.18-5.59-42.07-9.27Z" style="fill: #251141;"/>
    <path d="M1333.86,170.76c-25.31,2.68-42.65-19.6-52.41-3.8-6.6,10.68-16.11,21.13-29.4,22.61-7.29-13.87-4.54-28.26-3.64-43.9l-26.28-13.4c-5.71-2.91-8.95-8.1-8.42-13.83.5-5.36,5.2-9.26,11.54-10.93l25.1-6.63,12.24-39.01c.87-2.78,3.17-5.39,4.99-5.74,2.43-.46,5.38.92,7,3.45l19.28,30.22c5.37,8.42,27.19-9.94,45.65-5.84,5.83,22.07-18.09,34.56-21.13,43.83-3.07,9.35,20.04,21.73,15.49,42.96Z" style="fill: #fcdf90;"/>
    <path d="M116.97,808.08l-16.47-46.26c-3.82-10.72-10.6-18.23-21.19-22.26l-43.09-16.39c26.78-11.83,55.63-16.6,63.73-43.13l14.23-46.62,16.86,48.48c4.56,13.12,12.4,22.22,26.07,26.34l36.51,11.01c-23.8,18.48-53.57,13.09-62.97,43.95l-13.67,44.87Z" style="fill: #210f37;"/>
    <path d="M173.69,722.16c-36.9,11.8-47.41,19.72-57.11,60.5-12.42-38.19-18.96-47.37-57.8-60.56,32.61-8.75,49.93-29.13,55-61.48,8.78,16.84,10.33,31.39,21.86,42.94,9.78,10.07,23.11,13.02,38.05,18.6Z" style="fill: #fcd488;"/>
    <circle cx="30.28" cy="392.06" r="30.28" style="fill: #1f134b;"/>
    <circle cx="30.55" cy="392.56" r="20.96" style="fill: #abd1e7;"/>
    <circle cx="1429.12" cy="725.87" r="29.89" style="fill: #20134a;"/>
    <circle cx="1429.41" cy="725.42" r="20.89" style="fill: #a1cae6;"/>
    <path d="M168.4,219.5c-5.83,15.95-14.81,28.05-26.87,32.65-13.5,5.15-31.51,2.56-41.18-8.08-13.06-14.39-11.6-33.91-7.4-51.68-15.09-.19-28.65-2.51-38.25-12.38-12.67-13.04-11.87-33.34-2.92-47.22,10.25-15.9,29.28-19.04,48.9-14.59-3.56-14.32-6.04-25.98-2.69-38.32,5.38-19.8,24.74-28.73,43.87-25.66,19.14,3.07,30.65,20.92,30.53,43.41l22.11-10.38c19.26-9.05,43.01,4.51,48.59,23.59,6.16,21.04-3.61,40.92-25.85,48.3,24.87,12.79,33.87,42.27,16.3,61.96-16.98,19.03-45.06,15.61-65.15-1.59Z" style="fill: #2f154f;"/>
    <path d="M165.11,201.12c-7.93,24.85-16.58,46.52-37.22,45.73-8.76-.33-19.26-3.32-23.81-12.64-8.07-16.53-3.45-34.51,5.58-51.74-15.16-.08-29.37,3.15-42.29-3.53-9.76-5.05-12.98-16.14-12.67-25.85s4.97-21.3,16.14-25.45c12.49-4.64,25.03-1.03,38.86,1.78-5.4-32.43-4.23-64.58,21.25-67.2,11.9-1.22,22.71,4.86,28.71,16.2,5.29,10.01,4.54,21.3,6.35,33.49l27.75-14.27c15.18-7.81,33.28.46,39.24,14.88,6.44,15.58-1.36,31.83-17.44,38.78-5.79,2.5-11.96,3.49-17.22,8.06,13.61,7.21,26.72,15.44,31.71,29.65,3.54,10.07,1.01,21.12-4.94,27.8-14.86,16.68-39.11,6.98-59.99-15.7Z" style="fill: #e68eac;"/>
    <path d="M148.5,192.39c-22.87.06-34.44-15.16-34.38-35.34.04-12.94,5.16-23.66,15.49-29.87,9.47-5.69,21.9-7.9,34.12-4.13,17.16,5.29,24.3,23.65,21.8,40.09s-18.02,29.2-37.04,29.25Z" style="fill: #2b0d47;"/>
    <circle cx="149.67" cy="156.28" r="26.46" style="fill: #f8d47d;"/>
    <path d="M1311.4,952.35c-9.43,8.98-23.44,8.12-33.35,3.35-9.77-4.71-15.84-14.49-18.67-27.99-16.03,9.59-39.9,12.37-53.55-2.18s-6.25-39.82,12.08-49.88c-13.93-10.96-25.09-30.6-14.17-47.03,12.54-18.88,39.08-15.94,55.89-3.01,4.59-14.65,11.89-26.01,25.71-30.46,13.38-4.31,29.36,2.84,34.17,16.19,4.03,11.18,1.79,21.88.09,33.66,17.54.84,32.05,9.17,36.64,24.47,3.4,11.32.76,22.6-5.58,30.02-7.87,9.19-19.73,10.77-32.66,9.05,5.11,15.29,5.83,31.97-6.59,43.8Z" style="fill: #2d124c;"/>
    <path d="M1277.14,944.78c-9.6-9.66-9.93-20.76-12.29-35.43-13.85,14.69-30.98,23.74-48.34,14.05-8.55-4.77-10.56-15.16-8.16-24.59,4.1-16.14,26.39-16.97,25.75-23.43-.4-3.97-38.99-18.12-23.16-42.44,6.15-9.45,18.7-10.36,29.52-7.63,7.45,1.88,15.48,9.41,23.19,19.09,8.25-15.73,5.37-39.08,27.66-41.68,9.41-1.1,18.59,6.29,21.27,16.07,4.41,16.06-2.19,27.19-13.66,40.25,14.62-2.8,24.12-7.43,35.53-2.17,10.84,5,16.91,15.81,14.46,26.35-2.51,10.81-12.65,17.79-25.59,17-6.61-.4-12.32-5.69-21.27-3.58,14.93,22.67,12.79,48.84-3.84,54.1-7.09,2.24-15.16-.04-21.05-5.96Z" style="fill: #e88eac;"/>
    <path d="M1274.55,904.03c-12.68,2.48-22.73-4.14-27.19-13.08-5.09-10.18-4.74-20.99,2.37-30.69,7.83-10.68,21.04-15.3,33.44-10.91,11.41,4.04,18.64,15.02,17.77,28.52-.79,12.33-10.66,23.08-26.39,26.16Z" style="fill: #310f3e;"/>
    <circle cx="1272.39" cy="876.11" r="20.3" style="fill: #f8d076;"/>
    <path d="M264.12,1624.92c-45.61-23.86-47.19-80.54-18.63-131.65,20.03-35.85,43.25-68.62,68.47-100.81,23.7-30.26,63.88-37.63,95.05-15.6,23.77,16.79,43.65,35.56,62.08,58.23,15.72-8.65,30.68-6.68,45.04,1.58l21.77,12.52c-.77-39.46,1.36-77.48,10.88-115.56l22.73-61.02c4.02-10.79,10.61-24.11,6.6-35.62-5.61-16.1-14.61-29.03-18.07-47.17-90.89,44.86-192.22,51.11-283.99,6.85-2.25-1.09-4.84-3.56-5.05-4.95-.93-6.34,57.27-25.87,80.24-52.89-85.49,26.54-192.22,10.21-249.95-63.17,32.41-3.85,58.64-12.27,82.93-29.11,31.95-27.56,57.63-60.6,73.1-101.41-35.44,22.45-86.85,44.42-117.94,20.52,54.61-33.87,91.25-81.63,110.52-141.16,16.12-49.79,23.22-99.9,16.86-152.35l-9.57-78.89c-21.23-174.97,17.02-332.13,131.68-466.75,32.57-38.24,68.44-66.62,112.43-89.83,81.34-42.92,151.39-49.69,235.42-12.21,8.46,3.77,16.06,5.26,25.24,2.72,46.69-12.89,93.9-10.1,139.46,5.54,37.3,12.8,70.38,29.31,101.79,53.9,73.01,57.17,126.31,133.94,153.18,223.66,32.92,109.93,39.06,225.11,20.05,338.11-11.41,71.11-30.27,137.22-65.79,199.54-24.14,42.36-54.76,78.03-87.21,116.62,36.68,51,65.83,106.9,85.03,167.29,7.49,23.57,7.96,47.84-.42,69.78-10.04,26.28-32.83,41.29-60.61,40.02-23.75-1.09-43.32-10.08-63.07-24.07l8.26,39.07,14.5,80.43c9.89,75.26,8.96,150.02-2.33,224.99-5.5,36.47-16.63,69.83-33.4,101.69-10.4,19.75-27.18,31.25-46.73,39.9-57.66,25.5-127.06-1.37-174.9-45.96l-30.06,39.38c-22.63,22.26-52.12,32.76-83.93,28.77-81.56-10.22-123.44-55.84-178.55-110.05-29.02,2.04-56.02-23.83-61.92-53.43-11.3,10.57-18,19.09-24.99,30.35-22.47,36.19-66.75,52.85-106.19,32.23Z" style="fill: #230d56;"/>
    <path d="M612.8,1287.23c.93,3.72.67,8.49-.78,14.29-1.97,11.14-6.32,17.26-13.07,18.35-17.46,37.37-22.29,78.34-20.98,120.72.63,20.43.27,39.12,4.42,59.16l1.92,70.46c.16,5.83-2.57,10.25-7.13,15.11,4.33,3.12,8.56.23,10.6-1.67,2.76-2.58,2.94-6.33,2.8-10.37l-1.94-53.92c-4.31-47.77-3.38-95.15-.84-143.73,16.25-2.68,30.95-3.11,45.17-10.1,36.5-17.95,42.26-59.3,50.51-60.32,3.13-.39,6.91.24,6.95,1.97l.25,10.01c.22,8.86,13.45,9.8,21.01,10.03,7.81.24,13.95-5.06,19.28-12.46,30.82,4.91,60.05,5.41,92.94,5.47-1.97,45.1-6.23,90.65-18.73,133.04-9.48,1.66-16.86,5.64-18.58,14.52-8.82,45.57-19.37,89.32-32.95,133.69-8.98,29.35-22.43,55.75-42.06,78.84-65.13,76.62-194.66-14.26-250.41-84.77-11.03-22.87,4.7-54.07,17.96-72.08,32.08,23.87,55.66,54.47,94.34,65.78-32.13-21.82-62.32-41.39-89-71.66,16.45-19.73,34.93-41.89,52.64-34.43,5.12,2.16,7.02,7.16,7.95,13.83l9.1,65.61c.41,2.94,3.62,6.92,5.59,6.81s5.34-4.8,5.05-7.93l-6.71-71.91c-6.94-74.34-4.97-143.24,28.09-210.4l26.63,8.07Z" style="fill: #687a98;"/>
    <path d="M855.12,1115.79c-45.18,37.5-75.09,97.77-158.73,140.08-46.45,23.49-97.22.43-113.52-47.36-12.31-36.09-22.75-71.13-28.07-110.09,32.32-22.79,73.26-28.68,111.11-19.32,8.64,13.05,9.74,28.54,8.75,43.55-10.61,11.58-27.7,14.46-33.8,32.22,49.33-22.94,94.12-48.38,137.53-77.87,6.76-4.6,11.05-10.63,10.42-19.01l-3.88-51.83c-2.11-28.25,6.83-59.31,29.49-57.42-2.49,3.62-3.78,6.6-3.71,9.83.06,2.84,2.16,6.56,5.81,8.08l19.82,8.25c-.27,7.86,2.47,14.49,7.64,17.35,14.3,7.91,28.68-12.14,56.6-15.95,16.02-2.19,30.88,9.08,30.67,24.89-25.07,3.2-47.35-2.74-49.7,23.29l-5.55,61.33c-1.09,12.1-11.91,22.51-20.89,29.96Z" style="fill: #f5c0a5;"/>
    <path d="M1095.25,1193.4c-6.67,26.94-30.31,39.02-55.89,33.03-45.89-10.76-94.25-57.81-119.13-98.9-7.34-12.11-17.32-20.84-31.24-27.84,9.72-31.66,5.53-75.54,10.31-82.01,3.91-5.3,31.48,4.51,39.48-10.84,6.56-12.59-2.66-27.05-11.09-34.87-10.7-9.94-24.3-11.02-38.35-5.91l-40.27,14.65c4.51-25.69,31.21-39.72,56.58-36.75,11.96,1.4,25.5,2.37,33.13,12.54,13.6,18.14,20.36,41.37,18.36,63.83l-4.38,49.13,55.44,21.83,51.06,24.48c-3.97-12.39-13.81-19.82-24.57-25.06l-53.26-25.91c2.69-24.69,36.22-48.23,61.19-38.84,24.86,32.81,38.94,75.12,51.27,114.37,5.42,17.26,5.72,35.54,1.38,53.07Z" style="fill: #f6c0a6;"/>
    <path d="M667.95,1036.96c-3.53,11.89.56,21.19.08,34.2-41.44-10.22-81.66-4.81-116.87,18.64-10.24-60.65-3.32-140.45,44.99-171.86,9.83-6.39,19.68-8.73,31.84-6.83,21.64,3.39,36.74,47.75,47.53,75.77-4.51,14.39-1.01,28.44,9.51,40.41.44,21.78,4.23,43.28-1.14,66.14-5.67-19.19-3.07-37.86-15.93-56.47Z" style="fill: #fefefe;"/>
    <path d="M916.58,1247.76c-58.35,19.32-119.12,16.57-177.39,5.33l37.67-30.86c43.26,9.39,110.64,13.04,138.18-14.54,10.45-10.47,10.56-25.82,12.08-40.85l28.46,29.22c7.37,7.57,15.23,20.08,13.63,31.59-.87,6.28-14.96,15.06-21.27,12.43-11.81-4.92-20.61,4.13-31.36,7.68Z" style="fill: #6c7d9d;"/>
    <path d="M918.6,1171.46c-.08,23.51-11.7,36.98-32.58,42.12-31.98,7.86-64.89,6.63-98.44.24,5.29-11.27,15.12-9.78,27.41-6.77-.49-7.74-6.77-7.35-13.03-6.5l28.02-34.67c12.47-15.43,23.56-28.95,38.05-43.27,3.21-3.18,6.75-15.16,15.17-9.88,10.27,6.44,21.52,19.04,27.71,29.37-2.43,3.8-9.09,12.89-1.28,16.24,2.43.69,4.39-7.98,3.04-11.6,8.9,4.76,5.99,14.95,5.96,24.72Z" style="fill: #647697;"/>
    <path d="M528.68,1461.67c-48.88,32.78-85.96,72.84-84.66,134.44-11.65-7.37-28.65-17.61-31.85-32.34.63-46.33,27.2-89.31,64.45-114.9,20.5-14.08,29.54-3.1,52.06,12.81Z" style="fill: #677a9a;"/>
    <path d="M1013.01,1016.59l-39.79,19.13c2.91-44.35-12.34-86.6-43.43-116.12-6.49-6.17-14.16-9.1-14.01-22.27,51.57,9.01,92.37,65.77,120.78,114.5l-23.55,4.77Z" style="fill: #fcfdfd;"/>
    <path d="M285.78,1493.38c-18.77,35.69-37.06,74.09-21.47,112.54-30.16-22.23-25.21-64.82-8.78-99.8,11.42-24.31,26.86-45.1,41.73-67.26,25.49-37.98,50.32-79.08,95.09-57.18-24.35,5.08-43.36,17.62-56.92,37.8l-49.66,73.9Z" style="fill: #fdfcfd;"/>
    <path d="M354.57,1587.28c-11.03,24.52-38.24,36.26-63.46,31.83-26.76-4.7-33.7-54.32-15.29-85.88,29.81,13.17,52.96,31.97,78.75,54.05Z" style="fill: #fdfdfd;"/>
    <path d="M598.95,1319.86l7.65-20.1c.96-2.52-2.12-7-.6-7.93l6.8-4.6,61.24,16.93c-12.19,39.53-43.46,64.72-84.93,63.52l9.84-47.82Z" style="fill: #6b7d9a;"/>
    <path d="M825.05,1311.67c-30.07,1.96-59.66-.64-90.96-4.6-2.52-14.97.5-28.46,1.26-44.44,30.59,4.02,59.16,7.77,91,7.66l-1.3,41.39Z" style="fill: #67789a;"/>
    <path d="M922.33,1300.62c-30,8.16-59.65,10.73-90.77,11.26l.55-41.36c29.58-.74,56.6-5.89,85.84-14.15l4.39,44.25Z" style="fill: #6e7f9c;"/>
    <path d="M457.26,1442.97c-23.56,19.67-38.57,41.91-49.52,69.89-14.75-15.98-17.89-37.57-5.7-54.18,11.85-16.14,31.73-27.66,55.22-15.71Z" style="fill: #efb7a3;"/>
    <path d="M921.88,933.28c-29.85-8.39-62.91,3.74-77.64,25.08-3.95,5.72-19.6,4.98-17.63-.58,13.58-38.15,66.67-50.92,95.26-24.5Z" style="fill: #ebb7ab;"/>
    <path d="M720.93,1312.18c-.88,8.99-20.03,9.34-20.77,1.59-1.34-13.93,3.02-28.36,5.42-41.68,3.81-5.27,12.64-8.24,20.19-9.4l-4.83,49.49Z" style="fill: #616e93;"/>
    <path d="M690.38,1297.4c-34.79-6.22-67.29-14.67-99.33-27.23-1.5-6-1.92-11.65,1.76-17.15,26.2,27.66,61.36,36.86,98.6,25.25,1.94,5.3,2.28,10.96-1.03,19.13Z" style="fill: #636c97;"/>
    <path d="M941.85,1252.72c9.21,25.47,11.95,67.02-6.21,60.72l-5.82-56.73c-.4-3.91,2.81-4.95,4.36-5.69,1.75-.84,6.51-1.54,7.68,1.7Z" style="fill: #657195;"/>
    <path d="M976.32,1280.81c.57,5.71-12.41,9.07-17.03,9.72l-6.1-41.71,19.25-6.75,3.87,38.74Z" style="fill: #647396;"/>
    <path d="M391.99,1542.44c-3.52,4.3-6.28,6.5-8.34,7.17-4.27,1.38-5.6-4.32-7.79-6.79l-25.96-29.26c-2.16-2.43-3.62-5.22-1.82-8.01,1.69-2.64,6.37-2.68,9.49.61l34.42,36.28Z" style="fill: #f3f1f7;"/>
    <path d="M798.6,1582.3c-7.27-3.45-17.31-11.21-15.97-17.33l10.36-47.54,5.61,64.87Z" style="fill: #66729b;"/>
    <path d="M991.63,1348.11c-9.79-13.89-18.45-28.22-26.07-46.29l14.94-8.2,11.13,54.5Z" style="fill: #69739a;"/>
    <path d="M863.92,912.79c-28.41,2.76-35.62,28.11-49.08,25.44,2.84-11.6,10.06-22.86,20.98-28.22,9.1-4.47,20.41-1.63,28.11,2.78Z" style="fill: #e6b3af;"/>
    <path d="M330.59,1534.24c2.04-9.93,52.82,29.97,40.6,34.55-2.05.77-5.37-.14-7.84-2.29l-30.77-26.69c-2.08-1.81-2.3-4.04-1.99-5.58Z" style="fill: #f0ebf5;"/>
    <path d="M805.7,1597.73c5-13.89,2.8-27.35,1.74-41.35l-6.82-90.7c31.37-8.86,61.99-15.25,87.65-36l-74.97,20.77,7.42-34.49c13.95-4.8,27.61-10.23,33.44-24.33-11.68,5.09-18.11,14.91-32.56,15.95l9.66-88.44c27.07-.5,52.28-3.11,77.93-8.34,9.26-1.89,12.37,3.34,18.25,8.34,9.08,7.72,24.84,2.76,32.01-8.21,9.85,20.87,21.04,39.33,35.57,59.77,5.31,87.74,5.22,230.82-48.15,297.91-13.62,17.13-41.31,28.08-63.2,28.12-48.84.09-91.54-23.33-126.66-54.74,10.47-23.24,16.6-44.3,23.29-69.87,8.04,9.12,11.63,17.46,25.41,25.63Z" style="fill: #687a99;"/>
    <path d="M861.91,1346.26c-3.42-8.81.06-16.71,2.82-27.67,1.38,7.58,4.9,17.48-2.82,27.67Z" style="fill: #230d56;"/>
    <path d="M832.73,894c-15.8,5.43-22.12,22.2-35.1,29.46-18.56,10.39-74.21-7.06-90.79-33.28,12.22-9.09,17.63-20.71,16.06-37.52,33.97,6.25,66.54,10.62,101.34,7.67,1.92,12.08,2.15,20.07,8.49,33.66Z" style="fill: #f5bfa6;"/>
    <path d="M362.3,608.42c9.72-8.97,5.01-20.92,13.61-32.3,2.61,25.95,7.51,49.35,15.11,76.94-56.92-11.48-90.26-67.64-71.7-118.53,7.25-19.89,31.19-32.59,48.68-20.35,9.66,6.77,8.29,22.56,6.55,33.28-7.49-7.75-13.55-12.8-22.46-12.66-7.93.12-17.79,3.34-19.02,14.91,8.93-6.21,17.59-9.33,25.21-4.16,24.91,16.92-8.18,41.12,4.03,62.86Z" style="fill: #f3b9a0;"/>
    <path d="M727.95,975.8c-14.45,7.08-5.34-12.96-17.89-16.68.57,8.45,3.47,11.78,7.81,19.58l-32.92,7.39-21.01-48.39c-6.19-14.25-14.07-26.18-25.22-37.17,13.97-5.36,25.53-8.83,40.67-9.31-3.28,6.18-1.73,13.01,6.49,14.77-1.31-4.78-5.68-8.25-1.99-14.09,20.45,24.09,33.36,54.43,44.07,83.91Z" style="fill: #637396;"/>
    <path d="M768.41,1027.41c-1.66,2.84-15.95,5.31-20.68-1.93-4.18-6.4,16.53-24.09-10.35-51.82l-24.53-57.28c24.88,13.98,47.52,21.55,77.37,23.6-31.1,36.85-17.35,79.79-21.81,87.42Z" style="fill: #fcfcfd;"/>
    <path d="M696.85,1107.47l5.12-59.68c3.37,15.51,9.87,27.66,24.86,29.55,13.77-7.02,19.1-21.15,22.23-36.09,6.11-1.4,15.64-3.95,22.28-.39,4.89,2.62,3.12,15.37.81,21.04-22.86,18.1-45.69,32.73-75.28,45.57Z" style="fill: #67769a;"/>
    <path d="M725.79,1066.12c-8.26,1.96-12.62-7.09-12.85-12.5-.27-6.26,4.05-12.93,12.04-12.44,5.73.35,8.04,6.29,8.65,9.94.82,4.92-.33,13.22-7.83,14.99Z" style="fill: #8690ad;"/>
    <path d="M895.53,895.02c3.13.27,5.73,1.03,6.4,1.92,1.08,1.44,2.09,4.94.21,8.66l-42.34-13.64,35.74,3.05Z" style="fill: #6f6798;"/>
    <path d="M733.65,1031.5l-24.18,2.3c-2.74-9.55,3.31-11.45,9.36-12.27,6.48-.88,12.96-.88,14.82,9.97Z" style="fill: #e0daea;"/>
    <path d="M744.29,1010.51l-55.59,8.51c-5.85-.63-10.5-19.2-5.08-21.67,16.87-7.66,34.69-10.59,53.04-11.24,5.51,3.61,8.37,14.76,7.63,24.41Z" style="fill: #9f9ec1;"/>
    <path d="M736.94,1006.38l-38.09,8.64c-5.49,1.24-9.55-.99-10.89-4.79-1.91-5.4.73-10.15,7.39-11.3l32.67-5.67c4.5-.78,7.87,2.07,9.47,4.48,1.25,1.89,2.53,7.95-.55,8.65Z" style="fill: #352b5e;"/>
    <path d="M1104.72,577.32c12.89,111.11-75.51,197.85-173.62,240.62-75.03,32.7-155.05,38.79-233.68,13.95-59.32-18.74-128.31-43.54-171.22-87.34-13.41-13.69-19.49-35-23.89-53.99-26.72-115.18-35.12-249.47-1.09-363.23,17.21-57.54,51.87-109.12,103.26-140.81,51.52-31.77,115.25-26.04,167.3,1.35l32.19,16.94c31.99-28.67,77.55-46.58,121.18-37.19,54.26,11.68,95.12,49.24,123.75,94.46,21.12,33.36,38.29,65.64,44.59,105.18,4.66,29.25,10.37,59.05,8.44,89.15-2.64,41.31-1.98,79.82,2.78,120.92Z" style="fill: #f6c0a6;"/>
    <path d="M696.76,331.97c-72.98-16.57-116.93,4.16-174.13,50.66,1.38-19.66,12.16-35.44,26.39-47.88,70.98-62.03,167.44-32,158.9-6.63-1.13,3.34-5.8,5.06-11.15,3.84Z" style="fill: #250e52;"/>
    <path d="M1065.64,327.05c-44.47-32.01-94.32-37.51-140.08-12.39-5.26,2.88-17.87.97-17.53-5.52.62-11.93,12.13-21.47,22.58-27.02,35.45-18.82,76.81-13.5,109.72,8.65,11.53,9.04,26.88,16.79,25.31,36.28Z" style="fill: #270f56;"/>
    <path d="M863.03,567.3c-14.52-7.92-27.37,1.69-37,13.47-1.68-20.3,20.95-31.21,38.09-24.44,14.84,5.86,21.58,24.25,9.86,37.52-2.33-10.06-1.06-21.16-10.95-26.56Z" style="fill: #361947;"/>
    <path d="M840.76,796.22c-74.39,8.78-144.06-69.81-135.82-143.77,1.88-16.92,13.92-28.94,31.81-26.8l69.19,8.28c68.26,8.17,120.88-23.79,133.4-13.6,3.15,2.56,6.85,8.39,7.96,14.57,6.97,39.01-5.06,76.89-25.4,110.42-18.26,30.1-49.26,47.13-81.15,50.89Z" style="fill: #230d55;"/>
    <path d="M879.74,773.27c-51.39,32.2-117.82,6.23-146.86-46.15,29.62-14.42,61.55-10.62,91.68-1.82,23.74,7.43,45.26,20.07,55.18,47.98Z" style="fill: #e87f90;"/>
    <path d="M888,668.56c-88.51,29.06-174.74-11.99-165.99-29.02.83-1.62,3.92-4,7.08-3.59l53.85,6.89c47.3,6.05,92.3,1.55,139.82-13.71-5.85,16.58-16.54,33.44-34.78,39.43Z" style="fill: #fcfcfd;"/>
    <path d="M582.2,581.18c-22.38,11.1-26.31-42.23-17-81.33-24.42,10.93-49.6-.6-59.05-26.25,14.97,6.71,28.74,8.98,45.03,2.69-10.59-8.28-21.6-16.62-20.15-30.96,17.39,11.14,34.79,21.71,52.66,13.68,27.17-12.2,57.92-21.28,86.85-7.61,42.82,20.24,67.19,70.05,60.29,116.64-1,6.75-14.93,4.6-18.23,1.92-44.25-16.01-90.91-14-130.4,11.21Z" style="fill: #220d54;"/>
    <circle cx="615.46" cy="509.91" r="21.22" style="fill: #fbfafc;"/>
    <circle cx="667.63" cy="521.33" r="11.25" style="fill: #f5f3f8;"/>
    <path d="M1056.46,528.98c-35.9-17.23-88.13-6.71-115.08,20.2-21.44,21.4-40.7-59.77.04-108.92,19.44-23.46,47.22-34.74,77.13-29.9,20.25,3.27,36.19-3.99,48.23-21.45,2.62,14.14-2.96,23.28-11.91,34.59,15.51,1.11,27.88-5.5,38.26-17.46-.91,22.71-17.64,37.17-38.74,37.72,19.67,37.41,18.36,93.03,2.07,85.22Z" style="fill: #230e56;"/>
    <circle cx="971.43" cy="477.63" r="18.95" style="fill: #faf9fb;"/>
    <circle cx="1019.66" cy="484.02" r="11.37" style="fill: #faf9fc;"/>
  </g>
</svg>