<?xml version="1.0"?>
<svg id="Calque_2" data-name="Calque 2" xmlns="http://www.w3.org/2000/svg" viewBox="0 0 139.6 405.15">
  <g id="Calque_1-2" data-name="Calque 1">
    <g>
      <path d="M133.93,372.42l-2.3-1.71c-4.82-5.52-9.35-11.1-13.5-17.16l-3.7-6.42c1.51-1.41,2.62-3.17,1.93-5.04l-3.96-10.77c-.65-1.76-2.09-2.42-3.61-2.97l-6.8-17.89,1.98-22.57c1.27-14.45,1.38-28.6,1.21-43.11l-1.25-20.61c-.55-9.05-2.97-17.69-5.88-26.24l-3.08-6.27c6.34.14,12.06-1.14,15.23-6.88,3.83-6.94,4.18-14.92,1.48-22.61l-.87-2.02c-3.58-9.02-8.42-16.66-15.57-23.1,3.29-2.54,5.74-5.27,8.4-8.25,5.5-6.98,9.99-14.55,13.18-22.88,2.47-6.26,3.55-12.37,4.41-19.02,2.8-21.71,3.43-39.23-8.31-58.24-6.63-10.74-13.42-17.72-25.65-21.78-4.31-1.43-8.66-1.61-13.08-.67C67.64,1.25,59.39-1,51.43.42c-12.83,2.28-20.29,7.39-28.79,17.13C13.13,28.45,6.92,41.71,4.93,56.11c-.84,6.07-1.48,11.76-.97,17.77l1.98,23.48c.91,10.77-1.17,25.52-5.94,35.05,0,0,5.07-.62,8.75-5.3,0,0-3.15,30.75,8.12,53.67l2.06,4.08c2.12,4.21,5.86,7.06,10.54,7.6l-.76,4.23c-5.89,17.11-4.61,34.65,1.44,51.61l8.29,19.71,9.56,19.21,15.58,30.72,3.14,16.95c-.44.95-1.18,2.26-.93,3.59l1.67,8.98c.25,1.33,1.48,2.14,2.68,2.91l-.19,20.33c-.06,6.79-.72,12.13,4.65,15.15,4.86,2.73,10.16,4.34,15.64,5.62.93,3.72,1.86,7.26,4.5,9.98,2.2,2.26,5.34,3.66,8.53,3.67l9.68.03c7.09-.95,13.98-2.94,20.1-7,1.8-1.19,4.53-2.59,5.34-4.7,2.77-7.25.57-15.43-4.45-21.02ZM116.5,364.29c.04.52-.43,1.25-1.24,1.28-6.14.24-11.8,2.23-16.77,5.81-.63.45-1.31.36-1.68-.21-.32-.5-.2-1.25.51-1.83,7.64-6.37,18.98-7.48,19.18-5.04ZM96.02,364.92c-.6-.48-.78-1.46-.12-2.02,6.52-5.54,17.34-7.51,18-4.83.12.48-.25,1.34-.96,1.33-10.42-.05-15.57,6.58-16.92,5.51ZM103.33,244.77c.24,20.57-.73,40.77-2.97,61.24l-5.78-15.65-7.25-19.6-10.64-28.55,6.22-4.97c.22-.18.2-.72.11-.88-.17-.27-.66-.48-1.1-.18l-4.66,3.25-1.24-10.15c1.26-.5,2.37-1.13,2.4-2.48-1.24-.18-1.74.74-2.61,1.61l-3.09-17.28-2-7.78,5.54-.6c.07,1.12.35,2.14,1.35,2.38.44-1.07-.04-1.79-.17-2.84l8.42-1.84c3.06,6.53,8,11.59,14.67,13.97,1.64,10.18,2.66,19.96,2.78,30.33ZM68.08,201.68l-13.97-.08c-.57-3.18-.39-6.33.4-9.71l12.38.23c-.2,3.28.09,5.96,1.19,9.56ZM49.06,189.4c6.61-2.59,13.16-5.18,19.05-9.21,4.09,3.47,8.3,5.81,13.41,8.29-10.55,2.2-21.35,2.46-32.46.92ZM52.34,201.05c-.66.53-1.53.37-2.22-.03-.75-3.12-.34-6.23.47-9.35.9-.18,1.63-.07,2.44.23-1.02,2.9-1.28,5.76-.69,9.15ZM48.45,200.71c-5.89-.65-11.74-2.33-17.65-4.51-.22-1.2.07-2.23.27-3.51,4.81.44,9.34-.46,13.91-1.95l4.15.57c-.8,2.92-1.17,5.46-.69,9.4ZM46.63,202.45c-1.27,4.94-3.41,9.58-6.71,13.7-2.48,2.99-5.08,5.32-8.86,6.95-.43-7.99.55-15.92,3.3-23.66,4.13,1.38,7.93,2.34,12.27,3.01ZM83.07,189.92c1.33,2.58,1.96,5.12,2.15,8.62-5.04,1.66-10.04,2.45-15.46,3.03-1.12-2.99-1.48-6.09-1.63-9.45,5.21-.32,9.94-.98,14.94-2.2ZM84.55,189.6c.76.04,1.92.24,2.28.81,1.96,3.14,2.81,8.04-.19,7.64-.13-3.05-.71-5.79-2.09-8.45ZM95.17,196.19c2.43,5.3,3.75,10.57,4.85,16.17-5.86-2.62-9.98-7.17-12.43-12.61,2.84-.91,5.15-1.95,7.58-3.56ZM88.86,190.73c1.44.38,2.94.19,4.15.89.79.54.89,2.06,1.24,3.06-1.3.83-2.55,1.48-4.17,1.97-.11-2.25-.57-3.97-1.23-5.92ZM109.47,182.11c-3.07,7.13-9.45,8.49-17.07,7.39-7.69-1.11-14.44-4.33-20.72-8.83-5.84-4.19-11.03-8.75-16.43-13.5-.32-.28-.87-.44-.83-.85.04-.36.54-.75.28-1.72-5.03,1.88-10.03,3.65-15.62,3.59-2.66-.02-5.19-2.52-5.25-5.08-.06-2.47,1.73-4.34,3.64-5.57,3.17-2.04,6.81-2.66,10.58-2.68,3.38-.02,6.47.69,9.69,1.62l7.9,2.29c8.23,1.75,15.96,4.33,23.88,7.13l11.03,3.9c.43.15.88-.18,1-.44.13-.26.11-.82-.4-1.07l-3.04-1.44c2.31-2.51,1.69-5.98-.17-9.36,3.17-1.07,6.22-1.1,9.42-.49,4.47,8.2,5.83,16.45,2.11,25.09ZM77.91,159.93c3.02-2.21,6.15-3.99,9.81-4.57,4.66-.74,9.11,1.95,10.04,6.54.35,1.69-.15,3.38-1.73,4.34l-18.12-6.31ZM106.23,154.99c-3.23-.37-6.45-.37-9.54,1.06l-2.38-1.73c4.74-1.99,11.29-4.05,11.92.67ZM104.11,150.66c-3.76-.14-7.31.49-10.41,2.44-1.22.77-2.58,1.03-3.72-.08l-1.26-5.72c-.08-.38-.53-.82-.8-.81-.42.02-.84.5-.85,1.01l1.32,5.81c-4.8.85-8.83,2.92-12.69,5.99l-13.49-3.38c-4.12-1.03-7.84-2.75-12.26-2.91-1.22-5.92-2.87-11.56-5.69-16.86l-4.13-7.76c.89-.85,2.05-1.2,3.32-1.58,1.95,4.82,3.41,9.55,4.33,14.9,8.8,2.22,22.71,2.81,30.62-.81.87-.4,1.3-1.38,1.2-2.32l-1.09-9.35,4.85,1.7c.8.28,1.47,2.34.95,3.05-3.05,4.12-6.08,7.96-8.46,12.52-1.76,3.36-4.18,9.73-3.04,10.68.19.16.82.14,1.07-.21,3.65-5.07,8.06-9.2,13-13.02l7.11-5.5c3.93,3.62,7.22,7.61,10.13,12.2ZM53.81,115.15c5.54,2.1,11.04,2.95,16.76,2.81-.69,2.85-.52,5.51,1.18,7.77-1.26,2.9-3.86,4.67-7.19,5.08-5.58.69-10.69-1.64-13.54-6.24.03-.82.91-1.1,1.24-1.59,1.58-2.32,1.74-4.96,1.54-7.83ZM65.72,132.54c3.15-.58,5.73-2.42,7.39-5.29.36-.63,1.58-.03,1.4.45-1.9,4.96-6.76,7.69-12.13,7.39-6.21-.35-11.95-3.93-15.08-9.35-.2-.35,1.02-.83,1.37-.75.47.11.67.55,1.05,1.11,3.52,5.13,9.87,7.59,16,6.45ZM64.34,136.7c5.32-.35,9.44-3.13,11.84-8.3.96,3.51,1.5,7.1,1.49,11.07-9.25,2.94-18.93,2.73-28.41.73-.54-5.02-2.48-8.99-3.88-14.07,4.11,6.6,11,11.09,18.96,10.56ZM34.84,41.35c3.4-8.05,9.57-14.72,17.84-17.86,6.7-2.54,14.08-.77,19.79,3.14l4.74,3.73c6.04-3.66,13.34-4.81,19.18-1.16,5.54,3.46,9.05,8.58,11.62,14.47,5.74,13.16,3.42,21.1.58,34.48l-.84,9.68c-.66,7.58-3.85,13.87-9.92,18.53-20.81,16-47.2,11.76-64.59-7.31-1.09-1.19-2.83-2.26-3.26-3.83-3.56-16.93-1.88-37.89,4.87-53.87ZM31.35,134.84c5.8,6.53,12.63,9.76,16.37,18.15-3.1.02-5.76.57-8.66,1.75l-.54-7.24c-.09-.54-.5-.99-.76-1.03-.26-.04-.83.39-.8.78l.47,7.27c-5.42-2.23-11.13-2.4-17-.97,2.5-7.32,5.66-13.23,10.93-18.7ZM19.84,155.3c5.39-1.57,11.17-1.79,16.63.45-.44.71-1.13,1.16-2.05,1.87-5.08-1.39-10.1-1.18-15.12.46l.54-2.78ZM16.38,66.77c-.87-1.66-1.97-2.71-3.71-2.62-1.14.06-2.31.86-1.92,2.22.96-.47,2.09-.97,2.92-.34.99.74,1.6,1.84,2.16,3.15-2.46.98-3.46,3.7-1.8,5.76.63-1.56.06-3.33,2.06-4.26l-.3,10.95c-6.29-4.46-9.6-11.87-5.8-18.42.79-1.35,1.97-2.07,3.31-2.17,1.27-.1,3.06.42,3.5,1.83.4,1.28-.08,2.79-.42,3.9ZM20.88,184.42c-4.36-7.94-3.67-15.42-2.14-24.23,4.6-1.67,9.36-2.3,14.28-1-2.22,4.19-1.24,7.15,2.84,9.81l-6.33,1.96c-.41.13-.66.62-.65.88.02.52.66.83,1.28.53l9-2.22c4.73-.22,9.27-1.04,13.45-3.06l13.84,12.15c-8.16,4.77-16.5,8.18-25.36,10.65-3.61,1.01-7.3,1.25-10.92.85-4.17-.46-7.36-2.8-9.29-6.32ZM46.22,279.65c-4.53-8.85-8.61-17.42-12.3-26.62-7.43-18.51-9.6-35.98-3.71-55.3l2.98,1.21c-3.55,10-4.54,20.72-2.39,31.03.07.32.42.53.53.62.85.61.21-1.67.47-2.22.22-.45,1.6-.36,2.22-1.34.11-.17-.06-.62-.32-.76-.52-.28-1.74.89-2.17.56-.27-.21-.39-1.06-.31-1.68l5.61-3.36c5.93-4.88,9.91-11.65,11.45-19.09,7.18,1.25,14.04,1.28,21.04.82,3.21,12.29,5.1,24.45,6.61,36.9l-3.79,3.93c-.24.25-.29.61-.18.77.22.33.63.38,1.01.07l2.14-1.73,5.4,14.16,17.02,46.09,10.21,27.12c-6.22,8-14.68,11.54-24.66,13.69l-7.52-14.14-11.22-24.09c-.12-.27-.34-.54-.34-.68,0-.31-1.18-.1-1.03.24l13.38,28.78,5.15,9.75c-.49.71-1.77.27-2.23-.59l-4.93-9.13-28.13-54.99ZM66.47,323.94l6.23,11.41c-1.62.2-2.85-.08-4.26-.61l-1.98-10.79ZM69.17,346.87l-1.69-10.42c2.09.55,3.77.96,6.07.74l3.46,6.6c-.45,1.73-1.1,3.38.41,5.71-3.3-.16-7.93-.63-8.25-2.63ZM75.62,384.39c-4.38-2-3.75-7.13-3.84-12.63,5.1,3.99,10.68,6.55,16.97,7.51l.97,10.13c-5.08-1-9.59-2.74-14.1-5.01ZM86.12,359.81c-.03-.37.4-.44.6-.31.16.11.39.18.43.58l1.58,17.08c.03.3-.81.28-1.02,0-.16-.22-.36-.46-.4-1l-1.18-16.33ZM84.57,357.64l-3.64-5.59c-1.25-1.92-2.21-3.64-2.7-6.12,1.99.4,3.82.52,5.87.12,9.78-1.89,20.79-6.66,25.85-15.7l4.87,13.1c-2.1,3.38-4.82,5.81-8.03,7.84-6.59,4.44-14.19,6.87-22.22,6.34ZM105.09,372.05c8.28-3.56,18.15-3.89,26.13.67,2.69,1.54,4.25,4.98,5.16,7.66.42,1.23-.68,2.37-1.29,3.07-2.93,3.39-6.55,5.47-10.77,7.36-8.34,3.73-17.13,4.98-25.89,2.65-2.13-.57-5.6-2.07-5.93-4.46-.93-6.69,6.1-14.14,12.6-16.94ZM137.43,390.45c-.2,2-1.09,3.23-2.71,4.39-8.87,6.36-19.64,9.52-30.64,8.58-6.99-.6-10.09-4.15-11.65-11.06,3.24,2.29,6.73,3.38,10.73,3.81,10.68,1.13,21.33-2.06,29.96-8.38,1.68-1.23,2.85-2.52,4.18-4.37.72,2.27.36,4.63.12,7.03Z" style="fill: #13004d;"></path>
      <path d="M35.98,248.59c-.19-1.28,1.99.1,2.32,4.54-1.58-.98-2.06-2.76-2.32-4.54Z" style="fill: #13004d;"></path>
      <path d="M35.35,245.18c-1.63-1.25-2.57-4.96-1.34-5.01.9,1.29,1.47,3.07,1.34,5.01Z" style="fill: #13004d;"></path>
      <path d="M48.38,211.56c-.17,1.68-1.09,3.44-2.51,4.11-.41-1.68,1.43-3.43,1.45-4.17.01-.48,1.12-.56,1.06.05Z" style="fill: #13004d;"></path>
      <path d="M43.49,218.05c1.84-.33.09,3.34-2.53,3.76.44-1.68,1.73-2.48,2.53-3.76Z" style="fill: #13004d;"></path>
      <path d="M53.72,285.53c-1.69-.81-2.83-2.86-2.64-4.74,1.43,1.21,2.33,2.69,2.64,4.74Z" style="fill: #13004d;"></path>
      <path d="M50.67,204.62c.2,1.52-.39,2.98-1.34,4.03-.76-1.14-.23-2.3.1-3.39l.22-.74c.09-.29.96-.38,1.02.1Z" style="fill: #13004d;"></path>
      <path d="M41.66,261.63c-1.57-1.3-2.41-3.04-2.14-4.96,1.36,1.27,2.29,2.9,2.14,4.96Z" style="fill: #13004d;"></path>
      <path d="M61.92,301.56c-1.43-.99-2.59-3.01-2.4-4.97,1.45,1.29,2.23,2.8,2.4,4.97Z" style="fill: #13004d;"></path>
      <path d="M49.82,277.83c-1.48-.82-2.65-2.85-2.68-4.84,1.57,1.13,2.37,2.71,2.68,4.84Z" style="fill: #13004d;"></path>
      <path d="M58.1,293.74c-1.45-.14-3.24-4.07-2.68-4.52.52-.43,2.11,2.05,2.68,4.52Z" style="fill: #13004d;"></path>
      <path d="M39.23,222.9c.08,1.96-3.14,3.49-3.45,2.54-.19-.58,1.79-2.11,3.45-2.54Z" style="fill: #13004d;"></path>
      <path d="M45.51,269.4c-1.63-.91-2.4-2.74-2.46-4.64,1.49.87,2.35,2.6,2.46,4.64Z" style="fill: #13004d;"></path>
      <path d="M33.14,237.53c-1.28-1.03-1.8-3.02-.95-4.61,1.01,1.27,1.23,2.87.95,4.61Z" style="fill: #13004d;"></path>
      <path d="M73.06,193.27c-1.62,0-2.94,1.32-2.94,2.94s1.32,2.94,2.94,2.94,2.94-1.32,2.94-2.94-1.32-2.94-2.94-2.94ZM73.08,197.65c-.82,0-1.49-.67-1.49-1.49s.67-1.49,1.49-1.49,1.49.67,1.49,1.49-.67,1.49-1.49,1.49Z" style="fill: #13004d;"></path>
      <path d="M86.98,207.27c.95-.73,2.92,1.58,3.06,3.01-1.49-.18-2.61-1.64-3.06-3.01Z" style="fill: #13004d;"></path>
      <path d="M79.22,226.12c-.66-1.43.02-2.96,1.05-4.02.63,1.42.18,2.93-1.05,4.02Z" style="fill: #13004d;"></path>
      <path d="M78.45,210.74c-.95-1.18-1.46-2.76-.54-4,1.1,1.08,1.26,2.45.54,4Z" style="fill: #13004d;"></path>
      <path d="M95.23,214.33c-1.63.49-3.2-1.01-3.1-2.38,1.4.53,2.33,1.06,3.1,2.38Z" style="fill: #13004d;"></path>
      <path d="M86.03,205.27c-1.48-.8-2.01-2.25-1.57-3.64,1.29.88,1.79,2.11,1.57,3.64Z" style="fill: #13004d;"></path>
      <rect x="97.74" y="214.6" width="1.28" height="3" transform="translate(-139 221.29) rotate(-66.77)" style="fill: #13004d;"></rect>
      <path d="M78.48,212.52c.95-.74,1.76,1.59.89,3.29-.85-.74-1.15-2.11-.89-3.29Z" style="fill: #13004d;"></path>
      <path d="M80.04,220.82c-.78-1.2-.81-2.31-.52-3.64,1.19.88,1.43,2.26.52,3.64Z" style="fill: #13004d;"></path>
      <path d="M52.15,43.33c-9.36-1.8-12.99,3.43-14.01,2.74-3.04-2.04,10.88-10.8,21.44-2.29,1.59,1.28,3.26,2.89,3.05,5.06-3.51-2.44-6.41-4.73-10.48-5.51Z" style="fill: #13004d;"></path>
      <path d="M108.96,51.79c.42,1.8-6.17-4.78-14.81-1.26l-5.23,2.13c-.35-.77.03-1.54.65-2.1,6.88-6.23,18.13-4.23,19.39,1.23Z" style="fill: #13004d;"></path>
      <path d="M81.18,90.58c.67,1.67-1.23,2.81-2.76,3.36-9.11,3.31-16.5-5.71-14.62-6.72.33-.18.98-.04,1.32.49,3.41,5.32,10.36,6.98,16.06,2.87Z" style="fill: #13004d;"></path>
      <path d="M57.6,60.52c-4.3-2.98-8.3-4.31-13.5-3.49,4.33-2.88,11.11-1.33,13.5,3.49Z" style="fill: #13004d;"></path>
      <path d="M77.6,80.43c-2.02-2.36-4.59.93-5.19.83-.35-.06-.56-.61-.3-1.02,1.24-1.95,3.88-2.81,5.94-1.58,1.66.99,2.21,3.49.76,4.9l-1.22-3.13Z" style="fill: #13004d;"></path>
      <path d="M99.94,59.42c-3.93.1-7.13.92-10.69,3.64,1.43-3.87,6.78-5.64,10.69-3.64Z" style="fill: #13004d;"></path>
      <path d="M73.57,99.25c-2.17,1.16-5.2.64-6.41-1.8,2.18.91,3.95,1.3,6.41,1.8Z" style="fill: #13004d;"></path>
      <path d="M56.13,63.69c-3.38-4.06-8.44-4.31-13.21-3.12-2.07.42-3.86-2.11-5.5-3.4-.36,1.99,1.33,3.53,2.69,5.08-2.68.58-4.5-.78-6.7-2.42.32,2.14,1.78,3.88,3.59,5.06,2,1.3,4.6-1.57,7.37-1.55-5.36,5.68-4.71,14.7,1.15,18.67,3.89,2.63,9.08,1.04,11.55-2.86,3.02-4.78,2.64-11.13-.95-15.44ZM47.37,71.27c-1.34,0-2.42-1.09-2.42-2.42s1.09-2.42,2.42-2.42,2.42,1.09,2.42,2.42-1.09,2.42-2.42,2.42Z" style="fill: #13004d;"></path>
      <path d="M105.15,64.91c1.48-1.14,2.87-2.37,2.68-4.23-1.42.85-3.08,3.02-4.83,2.56-3.26-.86-6.28-1.33-9.5.29-6.94,3.48-9.39,12.42-4.73,18.77,1.49,2.03,3.85,3.02,6.14,3.05,2.3.03,4.59-1.06,6.2-3.04,3.9-4.79,3.63-11.56.25-16.34,2.62.07,3.31,1.53,4.98,1.92,2.21-.52,3.96-2.11,4.38-4.39-1.84,1.33-3.62,2.09-5.58,1.42ZM92.71,74.35c-1.46-.21-1.89-1.51-1.92-2.46-.03-1.13.37-2.47,1.75-2.79,1.58-.37,2.78,1.08,2.86,2.45.08,1.35-.96,3.05-2.69,2.8Z" style="fill: #13004d;"></path>
      <path d="M88.77,151.7s-1.59-7.76-2.19-10.15" style="fill: #13004d;"></path>
      <path d="M37.89,150.07s-.85-13.72-1.45-16.11" style="fill: #13004d;"></path>
    </g>
  </g>
</svg>