<?xml version="1.0" encoding="UTF-8"?>
<svg id="Calque_1" data-name="Calque 1" xmlns="http://www.w3.org/2000/svg" viewBox="0 0 521.43 1080">
  <g id="Objet_génératif" data-name="Objet génératif">
    <g>
      <g>
        <path d="M305.47,496.81c-2.25-.46-3.76-2.31-5.74-3.75-.72.12-1.8.23-2.02-.24-.88-1.91-4.11-12.21-3.44-13.5.2-.39.58-.68,1.01-.94l.03-2.3c.01-.86,1.78-.53,1.84.28.09,1.18.31,2.4,1.01,3.08.44.43,1.33.57,2.39.33-3.1-3.54-4.1-7.43-4.96-11.46-.58-.53-1.15-.53-1.72,0,.09.35.1.89-.06,1.2-.29.59-1.11.73-1.79.41-.75,0-1.87-.02-2.06-.54-2.98-7.99-4.81-16.89-2.1-25.11-5.01-11.18-7.42-23.36-6.26-35.63,2.71-21.92,4.52-44.08,5.42-66.48-1.94-17.17-2.91-25.76-2.91-25.76-1.44,5.7-12.72,8.45-8.9,1.25,2.88-.01,4.58-1.02,5.1-3.03l-1.34-1.83c1.6-6.91-10.01-4.33-4.23.85l.22,2.18c-.04.84-.22,1.85-.92,2.13-5.46,2.2-6.58.38-7.23-4.7-.29-2.31.23-10.11,2.49-10.85l4.34-.95c1.83-.94,4.73-1.11,5.81.96l1.75-.56c.58-3.6,4.86-5.47,4.71-1.28,6.19,20.41,7.3,42.11,6,63.31,15.71-22.14,11.46-45.58,3.5-68.72l1.43-1.8c-.36-1.86-.08-2.98.84-3.37-.26-.74-.18-1.24.25-1.5,1.15-.18,1.53.78,1.12,2.9l1.24.29c2.91,7.82,5.55,15.84,7.9,24.08,1.38,1.1,25.56-12.07,28.94-14.85,1.35-1.11-6.21-30.16-7.47-33.78-4.25-12.16-9.9-26.82-22.28-32.35.3,6.52-1.22,8.57-4.58,6.16l-.57-8.65c-6.31-2.02-12.51-3.68-18.59-4.96,1.57,3.98,1.51,6.91-.16,8.78,1.58,3.08-1.9,4.36-3.14,1.23l-1.37-1.64c.27-3.3-.22-7.92-1.69-10.91-2.01-4.09-8.83-7.06-13.21-6.71-.69.06,2.3,12.98,2.54,13.64,2.47.43,5.04.78,7.7,1.05,2.82,2.25,1.71,3.6-1.49,2.92-1.78,1.1-4.23,1.42-7.34.96.1,2.72.07,5.3-.32,8.01-.08.56-1.52.49-2.41.08-1.91-.52-2.16-1.81-2.31-3.57,2.08-8.33.94-15.11-.86-23.27-.6.08-1.13-.29-1.6-1.09-1.12,1.01-2.58.96-4.38-.14,4.93,25.32-6.03,47.51-33.71,49.14-31.12,1.82-53.72-21.88-59.48-51.02-2.39.62-4.61,1.46-6.66,2.53l5.22,13.94-1.28,1.89c.11.72.18,1.83-.3,2.02-5.55,2.16-13.43,3.79-19.19,4.6l-1.18-3.12-2.53-1.93-4.48-11.25c.73-.66-.07-.47-2.38.57-16.44,2.51-32.42,6.42-43.02,20.76l-20.15,32.67c-1.31,2.54-2.98,4.46-4.99,5.76,12.02,20.49,29.86,34.31,50.69,44.95,5-7.87,9.64-15.98,13.91-24.32,5.73-3.18,4.88,3.61,2.12,7.41l.87,2.45c-3.06,3.18-5.05,6.45-5.97,9.8l4.94,18.68c7.95,21.31,14.82,42.74,21.12,64.56.56,1.92,4.83-24.82,4.69-27.41l2.26-2.33c-.18-2.94.06-5.65.71-8.12l-1.74-2.19c1.14-19.96,2.29-39.93,3.43-59.89l1.92-1.02.38-1.99c-2.49-1.4,0-3.31,2.42-2.22,1.33,2.85,2.44,3.47,3.34,1.86l1.6-1.19c2.31.91,3.19-1.33,2.64-6.72l-6.72,1.6c-2.33-.63-3.44-.35-3.35.85l.17,2.02c-4.15,1.31-6.63-1.74-7.44-9.14-3.47-12-6.97-24.18-10.5-36.54-1.95-1.14-3.72-2.34-2.07-4.54-.87-3.07.56-3.23,4.29-.46l18.01-4.15,1.71,1.51c.71-.32,1.8-.43,1.96.09,3.62,11.94,7.05,24.38,10.05,36.3,8.19,3.15,7.19,11.62,2.93,17.38l3.26.95,71.72.13,1.12,1.86c1.36-.88,11-.61,11.1.1s-.69,1.75-1.23,2.43c-28.02.85-56.12,1.04-84.32.57l-1.34.36c6.1,13.68-8.57,22.73-16.74,10.37-1.15,23.78-2.6,47.57-4.35,71.38-1.82,18.19-6.81,35.18-14.95,50.98-.1,3.15-.19,6.31-.27,9.48l24.04,1.58c5.12,3.65,10.43,6.93,15.91,9.83l.78,2.12c.49,1.26,1.01,2.56,1.92,3.74,5.86-.44,4.72,9.61-1.5,10.15-3.9-1.76-4.37,9.53-1.18,10.07l.47,2.04c.28,1.5.86,2.83,2.02,3.62,4.06.8,4.59,6.03.39,6.7l-3.98,1.73c2.24,1.6.84,4.17-1.8,3.6-2.54,2.44-6.08,3.13-9.44,2.15-2.15,2.32-6.98-.74-5.58-3.83-3.7-3.26-5.18-3.25-4.45.05,1.92-.74,4.52,1.54,2.76,3.52-.35,2.38-1.1,4.58-2.69,6.93-3.37-4.09-11.2,1.95-14-4.3l-2.23-.25c-3.65-5.31-10.33-8.47-16.78-7.75l-1.49-1.62-3.86.57c-.05,1.29-.91,1.94-2.58,1.96l-3.46,9.38-2.2.55c-1.19.73-3.34,1.52-4.68,1.03-8.73-3.18-18.88-15.31-17.07-26.53l-41.78-30.83c-24.68-18.21-32.58-34.62-47.22-59.77-3.01-5.18-2.68-11.58-.3-17.07,7.36-17.01,15.33-33.14,23.57-49.75,5.23-10.55,11.61-19.69,18.02-29.42.58-7.11.64-15.53,3.06-22.52-10.63-14.74-12.13-29.65,1.25-42.21,12.06-11.33,27.26-19.17,35.63-29.32,6.88-8.35,7.41-18.57,1.85-27.75-5.66-9.35-5.39-19.53.25-28.97,7.43-12.43,16.22-23.63,25.47-34.85,10.38-12.58,12.42-26.52,15.78-41.92,3.35-15.33,10.89-28.64,22.3-39.05,12.62-11.52,27.05-17.75,43.4-22.1l17.73-8.94c16.77-5.29,30.19,2.4,35.9,19.22,9.05-.77,17.22,1.26,24.45,6.78,11.15,8.5,19.98,19.55,26.4,32.06,8.73,17.01,4.97,32.71.01,50.1-5.04,17.7,3.93,30.49,14.17,44.65l12.1,16.72c5.21,7.2,4.44,17.08-2.36,23.06l-8.85,7.78c-11.95,10.51,1.54,25.3,13.13,35.19,9.14,7.8,17.9,15.38,26.26,23.95,14.37,14.74,19.61,33.34,5.36,49.01-.34-7.36.05-14.36-4.48-19.88,1.61,10.84.89,21.24-4.23,31.09,4.3,9.78,5.88,19.43,6.74,31.16l21.38-14.75c12.26-11.04,21.52-24.35,31.27-37.48,3.76-5.07,5.6-9.64,8.09-15.51s9.04-11.26,14.82-14.54c10.05-5.7,18.09-12.29,25.66-20.99,1.13-1.29,3.26-2.16,4.47-2.39,1.46-.28,4,.28,4.5,2.16,1.9,7.22-1.46,14.27-6.65,19.33-2.92,2.86-6.62,4.26-9.16,8.16,7.48,2.66,15.99,3.65,23.16,2.23,3.1-8.41,10.49-10.7,11.51-8.07.22.57-.38,1.97.74,3.22,3.01-8.33,10.92-14.36,15.15-10.93.61.5.92,1.72,1.38,3.39,5.06-3.46,11.35-4.96,13.2-1.96.68,1.09.73,2.71-.26,3.87l-3.92,4.58c6.32-.71,11.49,1.14,11.28,4.95-.06,1.13-.98,2.3-2.31,2.99l-18.96,9.83c-11.7,6.06-21.29,14.58-32.48,21.29-6.41,3.84-15.21,3.63-22.31,4.83l-15.23,2.58-12.89,24.2-17.67,39.99c-5,11.31-11.96,20.87-21.3,29.06-8.73,7.66-17.6,14.82-27.82,20.49-6.99,3.88-17.78-5.5-24.57-12.74,1.18,8.08,3.55,14.84,2.62,22.53-1.46,12.16-10.04,23.65-23.11,24.01,7.58-10.25,10.9-20.81,7-32.59-.83,9.28-4.31,17.45-10.45,24.75-3.76,4.48-4.21,9.75-1.39,14.98l4.84,9c2.42,4.51,1.92,9.46.07,13.79Z" style="fill: #2f211e;"/>
        <g>
          <path d="M295.6,468.3h-1.72c1.03-5.66-3.92-12.52-2.84-16.52,3.93-14.43-7.47-22.26-5.5-37.62l3.32-25.92c.84-6.58,2.67-12.33,6.22-18.4,5.99,16.53,15.74,28.98,24.58,43.1,4.34,6.95,4.83,17.28,5.64,25.21,1.03,10.03-3.41,19.82-12.51,23.84,4.1-10.41,5.38-20.8,1.56-30.72l-6.01-15.63c.45,8.05,2,14.98.7,22.54-2.59,15.09-15.36,21.07-13.44,30.11Z" style="fill: #664128;"/>
          <path d="M103.16,449.21c1.53-7.15,4.8-13.23,4.6-20.5-.26-9.75-2.74-19.86-8.63-27.79s-10.71-15.17-15.96-23.31c3,10,10,17.11,15.54,25.76,1.85,10.77-2.31,21.09-8.75,30.31-3.08-3.26-5.38-7.41-7.47-12.07,3.7-13.4,1.14-26.16-7.37-36.74l-6.41-9.53c2.2-3.11,5.06-4,7.77-6.1,12.47-9.68,22.32-22.93,30.33-36.35,4.14-.36,7.21-1.84,9.49-6.75,5.81,19.69,12,37.99,19.24,56.87,5.97,15.57,12.26,37.18,4.01,50.39-6.06,9.7,1.6,17.66-5.96,21.03l-15.46,6.88c-2.76,1.23-5.66.32-7.05-2.31,1.15-.71,2.15-1.56,1.5-3.16-.78.87-1.44,1.76-2.23,1.96-1.29.33-7.73-6.08-7.19-8.62Z" style="fill: #664027;"/>
          <path d="M80.52,417.27c-5.77-13.68-10.95-26.38-20.57-37.34l6.27-4.03c2.16,4.58,4.93,8.05,7.75,11.95,5.98,8.62,9.82,18.71,6.55,29.42Z" style="fill: #9f9e9b;"/>
          <path d="M100.12,447.64l-8.7-10.99c5.68-7.38,8.74-15.13,10.27-24.86,5.94,11.9,4.41,24.61-1.58,35.86Z" style="fill: #9b9998;"/>
          <path d="M110.12,510.1c-3.63-.5-5.39-3.15-7.77-5.43-4.29-4.1-8.85-8.84-8.07-15.75,6.36,5.15,11.32,10.69,19.52,11.09l-3.67,10.09Z" style="fill: #633f2a;"/>
          <g>
            <g>
              <circle cx="170.19" cy="311.89" r="4.64" style="fill: #7d7c7c;"/>
              <g>
                <path d="M172.76,290.08c-5.47,2.46-10.57,3.46-16.3,4.36l-12.01-41.98,15.96-4.28c5.52,13.61,9,26.91,12.36,41.89Z" style="fill: #44494c;"/>
                <path d="M155.89,232.6l-16.53,4.27-6.9-18.37,13.87-3.25c1.41-.33,2.81,1.95,3.27,3.01l6.29,14.34Z" style="fill: #43484a;"/>
                <path d="M280.33,237.36c-2.42,2.45-6.43,1.58-7.52-1.65.71.01,1.69.11,1.98-1.07-3.56-.07-6.37-.51-9.56-1.89-.87-5.91-2.42-10.77-3.77-17.14,5.49,1.37,11.01,1.86,15.34,4.82,2.37,1.62,5.54,13.25,3.53,16.94Z" style="fill: #43484a;"/>
                <path d="M164.58,303.47c-2.02-1.07-4.41-3.58-5.83-5.46-1.01-.22-2.46.25-3.34-1.17l18.32-4.35c.94,1.59-1,2.41-1.78,2.91-2.44,1.59-1.28,4.83-1.69,7.06s-4.42,2.2-5.69,1.02Z" style="fill: #f2f3f1;"/>
                <path d="M158.76,298.01c2.62-.55,6.15,2.25,5.83,5.46-.3,3.01.36,4.28-.14,4.73-1.99,1.78-2.58-2.85-4.71-5.94l-1.28,3.55c.05-.86.32-2.22-.15-2.71-.53-.54-2.26-.35-3.52-.87-3.92-1.6-5.44-8.1-3.29-11.36,4.8,1.2,1.62,6.43,4.63,7.96,1.15.59,1.85-.67,2.65-.83Z" style="fill: #686564;"/>
                <path d="M280.32,314.62c-1.71,1.24-3.32,1.53-5.35,1.2-2.4-.96-4.46-3.19-3.55-5.88.81-2.39,3.37-4.05,6.22-2.94,1.79.69,3.2,1.94,3.48,3.57.22,1.3-.37,2.83-.79,4.05Z" style="fill: #7f8180;"/>
                <path d="M172.55,306.51c-1.29-1.54-2.06-7.28-.08-9.43,5-5.42,1.64-5.42,1.94-11.39,2.63,1.48,3.32,3.75,3.68,6.11.47,3.07-1.45,4.24-3.37,6.79-1.04,1.38,1.54,5.52-2.17,7.92Z" style="fill: #6f696a;"/>
              </g>
              <path d="M170.52,319.39c-2.91.22-5.97-1.04-5.27-3.96,2.07,2.66,3.94,3.43,6.26,2.55,2.09-.79,3.63-2.38,4.11-5.36,2.31,1.04.79,3.17.25,4.27-.8,1.63-3.33,2.34-5.35,2.49Z" style="fill: #706e6f;"/>
            </g>
            <g>
              <path d="M178.92,504.27c-1.78,3.56-6.32,4-9.44,2.15,3.37.18,6.41-.89,9.44-2.15Z" style="fill: #292627;"/>
              <path d="M184.69,498.94c-.85,1.41-2.3,2.02-3.98,1.73.69-1.39,2.4-1.82,3.98-1.73Z" style="fill: #292627;"/>
            </g>
            <path d="M125.02,499.16c-1.06.24-2.6.9-3.86.57.92-1.17,2.57-1.09,3.86-.57Z" style="fill: #292627;"/>
          </g>
          <g>
            <path d="M63.61,299.74c.79.22,1.81,1.27,2.42,1.86.93,2.64,2.21,3.87,3.84,3.7l.99,2.03c8.18,8.02,16.07,16.27,23.67,24.74-3.59,14.37-15.39,25.2-28.1,32-7.87,4.21-13.26,6.25-22.05,5.18-.07,0,.82.04.46,1.16,10.11,4.85,19.81,18.96,25.01,30.05l9.78,20.82c3.77,8.02,7.92,15.12,13.41,21.97,5.86,7.32,11.42,14.11,19.27,20.39l-3.29,2.58c9.31-1.88,17.55-5.25,25.85-9.57,4.79-2.49,9.48-3.57,15.24-3.14l13.52,1.01c7.93,3.82,14.81,9.62,20.78,16.01-3.72,2.92-7.32,2.02-10.11.28l-10.36-6.46c-2.15-.54-16.28-2.92-16.72-2.2-.16.26,0,.7.23,1.2l17.53,10.37,15.13,17.36c1.4,1.61,2.76,4.37,1.7,5.79-1.78.94-3.87.75-5.72.08l-2-1.75c-1.77-.96-3.55-2.65-5.32-5.06l-6.29-6.1c4.46,3.56,8.03,7.59,10.68,12.09l4.08,6.15c-8.64,6.13-18.71-13.27-35.82-16.25-2.19-.38-3.45-1.52-5.34-2.88.97,3.07,3.4,4.92,5.88,7.03,6.59,5.61,13.17,11.23,17.8,18.83-3.41,3.4-10.52-2.45-16.28-6.3-6.65-9.25-15.99-8.51-25.97-7.03-7.83.02-14.57-3.63-20.22-10.93-17.62-14.48-35.48-29.48-52.4-46-14.74-14.39-29.21-29.43-40.32-46.74-1.31-3.15-2.23-6.46-.53-10.45,8.49-19.93,17.76-39.2,27.88-58.39l5.36-8.89c.7.61,1.48,1.31,1.6,2.21.5,3.93-3.92,11.89-5.91,15.45,12.81-10.69,11.62,5.84.95,12.82-10.12,3.96,3.28,1.37,5.59-2.63,2.64-3.74,3.7-5.09,8.61-5.02,3.43.64,7.22.81,10.2-1.21-4.51-.85-6.86-2.6-7.03-5.23-.71-.96-1.65-1.62-2.82-1.99-2.26.93-2.69.49-1.8-1.8-1.57-2.65-1.3-3.59.81-2.83,2.17-.81,4.87.1,4.75,2.73,3.09.59,6.29.83,9.35-.09l-.24-2.13c-13.29,3.32-20.06-9.57-14.24-20.62,3.14-5.96,11.74-8.33,16.47-4.2Z" style="fill: #d68d65;"/>
            <path d="M309.43,320.28c3.34,11.76-.5,22.93.64,29.53-.69,2.02.01,4.24,2.1,6.68l-.24.98c-1.31,1.3-1.13,3.45-.89,5.6,1.74,15.6,8.32,29.56,17.11,42.33,9.95,14.45,26.49,6.48,39.65-4.28,10.3-8.43,18.26-18.4,24.99-29.95l29.12-50.01c-.19-1.58-1.01-3.91-.06-5.06,1.07-1.31,2.2-2.42,4.27-2.74l35.46-5.58c4.56-.72,7.04-5.49,9.91-8.57,3.24-3.48,5.94-6.28,7.27-10.65-.63,4.14-1.3,8-4.7,11.53-3.12,3.24-5.94,9.56-10.7,10.4l-28.47,5.05c-4.2.74-7.98,1.5-11.45,3.24l2.94,1.07c-9.36,15.88-16.66,31.66-23.56,48.38-9.06,21.96-17.58,36.23-36.95,50.52l-12.85,9.48c-8.37,6.18-18.8-2.67-26.16-11.31-12.85-15.1-23.55-31.24-30.44-50.18l6.75-14.35c8.07-17.15,1.82-30.66,6.27-32.08Z" style="fill: #af6a51;"/>
            <path d="M143.52,502.72c-2.97-1.98-5.96-4.75-9.65-6.16-5.7-2.18-18.56,3.42-26.31-.82-5.5-3.01-9.19-8.25-14.14-11.81l-22.27-16.03c-14.24-10.25-27.84-20.69-39.87-33.54-6.73-7.18-10.95-15.6-16.45-23.63-1.18-1.72-1.55-4.14-2.21-5.52-3.19-4.35-6.03-8.44-8.01-13.2,8.34,10.88,17.75,20.26,27.24,30.51,14.22,15.36,28.87,29.26,44.85,42.61l22.85,19.09c3.53,2.95,6.19,7.15,10.7,8.85,9.29,3.49,18.59-3.68,28.53,4.09,2.05,1.6,4.49,2.82,4.75,5.57Z" style="fill: #b06a53;"/>
            <path d="M44.84,370.41l-.94-.45c-.39-.19-.95-.81-.74-1.05.33-.39,2.13-.57,2.74-.08,12.87-1.51,23.77-7.79,33.51-16.04,6.05-5.56,10.75-12.41,13.47-20.47l-14.66-14.75-7.37-10.22c3.07,1.13,5.21,3.75,7.81,6.08,7.82,7.01,16.55,11.75,26.18,17.34-7.3,14.02-17.45,26.42-29.87,36.18l-17.53,10.86c-5.21-4.37-11.22-9.99-12.61-7.38Z" style="fill: #af6950;"/>
            <path d="M46.7,326.88c.48.47,1.5,1.17,1.8,1.8,1.09.4,2.23.92,2.82,1.99,2.93,2.03,6.2,3.1,10.68,3.92-3.11,5.23-9.46,5.47-15.34,4.11,4.2,5.93,2.26,14.66-4.9,17.28,2.44-6.36,5.54-12.01,2.65-17.57-4.31,8.35-13.43,13.44-21.48,7.41,6.96-.4,12.96-2.89,16.28-9.03,1.21-2.23,1.62-5.31.37-7.63-4.31,3.06-7.2,6.9-12.86,6.87,6.6-5.97,9.77-13.66,10.59-21.75,1-1.67,2.19-3.38,3.66-4.68.52,5.37,2.27,10.31,5.25,14.81l.47,2.47Z" style="fill: #245f79;"/>
            <path d="M62.56,296.92c.48.74,1.64,1.34,1.05,2.82-3.56-.98-7.47-1.34-10.88.65-5.9,3.46-8.26,15.38-2.26,20.45,3.6,3.04,8.59,3.3,12.75.82l6.1-5.49c-.72,5.1-4.2,8-7.71,10.52-3.03.93-6.28.68-9.35.09-1.94-.85-3.57-.88-4.75-2.73-2.41.56-4.28-4.54-4.97-6.83-1.09-3.62-1.07-6.5-.38-10.13,1.85-3.92,5.08-7.02,8.06-10.12,3.92-1.7,9.07-3.76,12.33-.05Z" style="fill: #305b6d;"/>
            <path d="M512,265.67c-8.99,9.88-14.11,22.6-23.39,28.04l6.21-15.06c2.81-6.82,8.97-13.95,17.18-12.98Z" style="fill: #c4805d;"/>
            <path d="M491.46,279.98c-2.19,5.36-5.73,11.44-10.47,14.62-1.02-.36-1.31-1.83-.89-4.42.17-3.36,2.04-6.09,3.79-9.3l6.54-12c1.37-2.52,3.41-4.64,7.31-3.73l-6.28,14.83Z" style="fill: #d7926c;"/>
            <path d="M518.66,277.57l-19.93,10.3c5.15-9.05,10.12-14.78,19.93-10.3Z" style="fill: #d2936e;"/>
            <path d="M480.1,290.18c.19.84-.02,1.77.8,3.16l7.42-8.94,3.14-4.43c-.6,8.49-10.75,19.39-17.53,24.28,2.56-5.47,5.92-9.04,6.17-14.08Z" style="fill: #a46650;"/>
            <path d="M174.12,495.21l-.93.93c-4.02-6.06-9.74-11.19-16.25-15.31-4.19-2.65-9.16-3.31-12.58-7.18,6.51,2.14,12.62,5.11,17.85,9.3l11.9,12.26Z" style="fill: #643023;"/>
            <path d="M62.56,296.92c-6.01-.97-10.14,1.51-12.33.05l7.37-7.68,4.96,7.64Z" style="fill: #c59071;"/>
            <path d="M47.51,324.05c-.74.65-.76,1.82-.81,2.83-4.52-4.45-5.79-11-5.72-17.28l1.19-2.52c1.28.53.31,2.03.18,2.96-.77,5.74,2.55,9.91,5.16,14.01Z" style="fill: #ac8870;"/>
            <path d="M163.96,464.35l-13.83-.89-2.35-1.12c-.26-.12-.48.79-.31,1.01-.93-.55-3.71.16-2.9-3.12,5.27,2.38,13.82.65,19.39,4.12Z" style="fill: #9d634c;"/>
            <path d="M69.87,305.3c-1.98,3.82-5.92,6.08-10.18,5.25,4.59-2.64,7.67-5.52,6.34-8.95l3.84,3.7Z" style="fill: #59534f;"/>
            <path d="M151.61,494.95c-3.13-1.63-5.01-3.32-7.28-5.27,3.56-.15,6.79,1.84,7.28,5.27Z" style="fill: #292627;"/>
            <path d="M163.9,502.59c-1.27-.29-2.26-.75-3.78-2.3-.89.82-.74,1.65-.67,2.36-1.37-1.75-4.3-2.52-3.54-5.86,3.09,1.69,6.26,3.29,7.99,5.81Z" style="fill: #292627;"/>
            <path d="M181.83,496.88c-1.41,1.88-4.26,1.36-5.72.08l5.72-.08Z" style="fill: #643023;"/>
            <path d="M61.61,326.69c-2.57,1.85-6.65,1.27-9.35.09l9.35-.09Z" style="fill: #ac8870;"/>
            <path d="M51.32,330.67c-.85-.59-2.38-1.03-2.82-1.99,1.44-.27,2.68.5,2.82,1.99Z" style="fill: #ac8870;"/>
            <g>
              <path d="M478.74,288.55c-2.24,7.67-9.29,17.92-16.91,20.68-12.45,1.9-24.81,4.09-37.08,6.57-1.88,1.27-2.27,3.13-1.15,5.6l-30.16,52.29c-7.68,15.27-41.18,51.92-61.03,38.59-10.2-6.85-27.02-43.18-22.87-54.5.2-.55,1.53-.45,2.39-.31.8-.63,1.5.63,1.45.57-1.04-1.32-4.32-6.01-4.1-7.35.05-.32.39-.6.8-.87-1.7-.52-2.39-1.24-2.07-2.17.84-9.16,1.31-18.28,1.43-27.36,9.88-3.15,18.51-7.99,27.69-13.67l9.47,19.94c4.22,8.89,4.45,18.77,5.2,28.7-6.31,5.21-10.97,11.05-13.96,18.49-1.02,3.43-.68,3.82,1.02,1.16,5.64-16.66,27.23-24.06,39.36-35.06,13.61-12.35,24.14-26.95,34.02-42.07l.67,3.03c4.48-13.97,5.25-18.98,17.74-27.59l15.96-10.99,15.48-13.71c2.79,7.15-1.2,13.55-6.21,18.53-2.75,2.74-8.21,5.16-8.91,9.27.1,3.15,5.74,4.49,8.21,4.62l16.22.85c1.21,7.2-4.07,8.79-6.8,13.58,12.14-6.05,7.73-19.57,16.69-23.49l-2.55,16.67Z" style="fill: #d78d65;"/>
              <path d="M338.85,374.9l-3.26,9.62c-1.16-4.18.9-7.46,2.23-10.78l1.02,1.16Z" style="fill: #7f4431;"/>
              <path d="M451.7,296.31c-5.87-1.97-11.3-2.35-17.03-3.02s-10.21,1.7-15.05,4.26c4.04-6.01,11.53-6.3,17.96-5.79l19.67,4.5c-1.45,1.12-3.47.75-5.55.05Z" style="fill: #5d2818;"/>
              <path d="M310.07,349.81c1,5.81,5.64,9.27,9.66,14.7-3.44-1.34-5.69-4.46-7.81-7.05-1.66-2.02-2.82-4.66-4.04-7.71.92-1.07,1.61-.28,2.19.05Z" style="fill: #773b2c;"/>
              <path d="M452.98,283.93c-3.42,1.84-6.14,5.01-10.19,5.68.08.09-.28-.36-.66-.77l10.67-6.1c.55.27.72.83.17,1.19Z" style="fill: #7a3c2a;"/>
            </g>
            <path d="M236.37,202.65l-6.14,4.11c-10.12,6.86-21.97,6.14-31.46-1.58l-1.21-.85c-.34-.23-.92-.44-1.1.53-1.38-1.07-2.38-2.97-3.01-5.68l-.68.22c-4.72-4.15-8.68-8.89-12.9-13.55l.2-11.84c9.02,7.98,18.46,15.28,29.16,20.78,8.88,4.56,18.19,4.76,26.83-1.39l.32,9.25Z" style="fill: #ad684f;"/>
            <g>
              <path d="M192.77,199.41c1.68,2.05,2.88,4.56,3.57,7.53-.55-.89-.51-1.58.12-2.07-.22-3.19,2.22-2.69,7.32,1.52,11.62,6.07,20.72,2.92,30.55-4.6l2.04.87c.76-.07,1.51.07,1.78.68,1.68,3.81,4.83,6.61,8.9,8.39l.12,1.47c3.38,3.87,2.72,10.8,3.13,16.19l-10.11.94c3.07,1.11,5.89.47,10.01.15-.29,12.72-7.44,25.23-20.35,28.97-24.46,7.1-49.53-6.55-59.54-29.49,4.64-.39,4.6-.71-.11-.96-3.25-3.92-3.59-9.65-5.45-14.35-.54-3.39,1.75-6.23,6.86-8.51,4.78-5.11,7.12-11.73,7.01-19.85l1.25-.43c5.26,1.55,11.28,8.34,12.9,13.55Z" style="fill: #d78e66;"/>
              <path d="M170.3,229.95c.22-.39.04-.79-.11-.96,4.42-.65,8.72.25,13.29.84l14.17,1.84c2.2.29,4.58.43,5.46,3.14-6.13-2.72-12.1-2.64-18.36-3.39l-14.45-1.47Z" style="fill: #8f4e35;"/>
              <path d="M196.46,204.86l8.46,24.28c-5.66-9.46-8.35-19.9-12.16-29.73.06-.84.18-1.45.72-2.09l2.98,7.55Z" style="fill: #6b3223;"/>
              <path d="M209.74,238c3.7,2.13,5.95,2.77,8.54.55l4.18-3.78c-.69,3.16-2.98,5.37-6.01,6.69-2.78.49-5.8-.17-6.71-3.46Z" style="fill: #5e2a1c;"/>
            </g>
            <path d="M213.02,109.16c.68,2.72-.88,7.13-3.81,8.51-3.82,1.79-12.34,2.25-12.7.35.48-1.4,1.69-2.01,3.61-1.82,16.67-11.91-10.79-25.86-6.39-3.31,1.58,1.39,2.12,2.82,1.6,4.29.29,1.22-.52,1.09-.86.84l-1.88-1.31c-3.76-1.49-6.42-3.88-6.2-7.65.36-6.05,4.8-10.32,10.47-11.6s12.06.9,14.86,6.53l1.29,5.17Z" style="fill: #f6f4f2;"/>
            <g>
              <path d="M196.51,118.01l-1.18-.83c-3.58-2.54-5.17-6.08-4.25-10.4.68-3.21,3.08-7.52,7.4-7.87,5.53-.45,9.05,4.88,8.73,10.04-.38,5.97-5.07,10.45-10.7,9.08Z" style="fill: #543324;"/>
              <circle cx="203.36" cy="105.61" r="2.3" style="fill: #e9e5e3;"/>
            </g>
            <g>
              <path d="M241.89,44.87c2.81,1.68,5.54,1.42,8.45,2.34,9.15,2.9,14.74,10.77,18.62,19.1,2.44,5.25,4.1,10.75,4.85,16.57l.96,3.73v11.21s-.96,3.79-.96,3.79v2.72s-.97,3.75-.97,3.75c-.64,5.69-.64,11.53.21,17.67,2.17,15.74-2.27,30.64-12.37,42.66-8.66,10.31-17.99,19.53-30.02,25.7-6.24,3.2-12.88,2.57-19.2-.54-12.58-6.2-23.76-14.79-33.57-24.9-8.94-9.21-12.16-20.87-13.11-33.08-1.49,1.81-.6,5.57-2.22,6.12-6.82,2.32-13.19-2.96-14.86-9.06l6.82-4.07,2.81,4.09c.83-2.33-.58-3.16-.94-4.92,10.5-5.19,18.32-12.64,26-20.97,1.49,1.25,2.66,2.06,4,2.3,1.33.19,2.23,1.22,2.7,3.09,1.88,2.71,3.96,4.38,6.24,5.03,1.19-1.36,1.77-.91,1.18.83,4.87,1.66,14.85-1.16,14.82-7.44l1.7-1.42c.98-.04,1.44-.87,1.24-1.54l-.56-1.83c-1.44-4.7-3.95-9.05-8.72-10.77s-9.27-.8-14.74,1l8.76-16.87,2.97-1.59,13.51,2.68c1.66.18,1.36-2.22.69-3.44-1.65-2.97-9.65-3.54-12.81-3.32l-1.22-1.84,9.04-22.54c.63-1.56,1.64-2.75,2.87-3.28,2.05-4.47,10.79-5.7,15.57-5.79,3.94-.07,11.95.3,12.3,4.84Z" style="fill: #d78e66;"/>
              <g>
                <path d="M198.99,79.15l3.13-7.51c4.93-.1,10.52-.18,14.69,3.13,2.16,1.72,2,5.58.82,8.01-6.23-1.82-12.11-3.15-18.64-3.63Z" style="fill: #583421;"/>
                <path d="M272.84,108.07c.14-1.23-.46-2.97.98-3.75,0,1.33.32,2.98-.98,3.75Z" style="fill: #4b2e1e;"/>
                <path d="M273.81,101.6c0-1.32-.29-3,.96-3.79,0,1.31.48,3.03-.96,3.79Z" style="fill: #4b2e1e;"/>
                <path d="M274.76,86.61c-1.52-.75-.81-2.56-.96-3.73,1.33.8.96,2.42.96,3.73Z" style="fill: #4b2e1e;"/>
                <path d="M272.51,94.06c-7.04-8.31-17.36-11.74-28.29-7.44-1.27-3.7.6-7.07,4-8.98,5.03-2.83,11.43-2.27,16.41.83,4.63,2.89,8.5,8.21,7.88,15.58Z" style="fill: #563421;"/>
                <path d="M265.55,115.49c-.88.84-2.21,2.55-2.68,3.69-1.47,1.34-4.06,3.29-5.74,2.04-2.59.7-3.84.33-3.76-1.1l-.1-2.07c4.65-3,4.81-10.62.19-13.61l-.05-2.05c-2-.16-3.25-.76-3.76-1.78.17-3.56,6.76-2.46,9.36-1.4,6.15,2.5,10.81,10.45,6.53,16.29Z" style="fill: #f3f2f1;"/>
                <path d="M241.57,135.08c2.7,1.03-.03,4.35-1.54,5.9-1.92,1.07-3.05,2.28-3.41,3.62-3.53,2.93-8.68,1.1-12.61-1.7l-5.31-2.33c-1.45-2.41-1.68-4.04-.68-4.88l9.29.98c5.06.54,9.81.17,14.25-1.59Z" style="fill: #b16d54;"/>
                <path d="M265.55,115.49l-.18-6.55c-1.5-7.03-9.38-10.81-15.71-8.34l-.08.94c-3.1,1.35-5.61,3.57-7.53,6.66-1.37-1.47-.4-3.35.72-5.26,2.96-5.03,8.52-7.17,14.55-6.02,4.22.8,9.22,4.47,10.57,9.53.53,1.98,1.37,3.14,2.97,3.97l-5.32,5.08Z" style="fill: #311e1a;"/>
                <path d="M236.63,144.61c-1.57.28-2.06-1.21-.92-1.7,3.73-1.75,5.84-4.46,5.86-7.82.01-2.3-.11-3.93-1.85-6.07-4-4.9-6.66-11.49-5.58-17.75.9-5.23.71-10.01,3.2-14.48l-1.76,13.96c-2.05,16.25,12.56,19.43,7.57,28.05-1.63,2.82-4.34,4-6.53,5.82Z" style="fill: #59271a;"/>
                <path d="M253.41,102.39l-1.28,1.67c-6.95-.46-10.87,10.4-4.56,14.04l.19,2.03c1.18,2.22-1.28,1.85-2.83.54-.62-.86-3.02-.41-3.68-1.23-.96-1.19-1.22-3.24-.83-4.78l1.62-6.46c.83-3.32,4.34-6.33,7.6-7.6,1.04.81,2.47,1.31,3.76,1.78Z" style="fill: #d9d2cd;"/>
                <path d="M232.93,175.04c-1.51,5.87-17.39,5.5-20.59-1.31,6.81,3.82,13.51,5.07,20.59,1.31Z" style="fill: #592319;"/>
                <path d="M218.03,135.7c.02,6.05,7.76-.79,10.13,6.48-2.84-2.16-6.12-2.07-9.45-1.6-2.67-1.17-3.54-5.33-1.26-8.47.81,1.13.58,2.45.58,3.59Z" style="fill: #572516;"/>
                <path d="M262.86,119.18c-1.66,3.98-6.19,3.81-10.45,3.81-3.18,0-6.03.26-7.47-2.33,1.11.3,2.13.17,2.83-.54.07-2.78,4.15-2.57,4.65,0,.63,1.63,3.02,1.37,4.71,1.1l5.74-2.04Z" style="fill: #603b2e;"/>
                <g>
                  <path d="M249.52,153.76c-7.92,4.66-10.76,22.22-28.48,18.88-13.32-2.51-20.23-13.8-26.05-25.87-1.54.98-2.48,1.55-4.01,1.08,1.97-2.65,4.7-4.09,8.02-4.15.14,1.43-.75,1.67-1.41,2.49,14.89,6.91,35.83,9.45,51.53,5.36.2-.35-.05-1.32-.29-1.48-.48-.33-.21-1.2.37-1.09,1.46.28,2.51,1.62,2.87,3.34s-1.85,1.02-2.55,1.43Z" style="fill: #522520;"/>
                  <path d="M241.42,155.36c-3.68,9.52-23.36,6.44-33.61,1.04-2.51-1.33-4.81-2.84-5.72-5.85,13.11,3.87,25.7,5.62,39.33,4.81Z" style="fill: #fbfbfa;"/>
                  <path d="M230.83,170.2c-8.21,2.65-16.9-.38-23.03-6.76,5.22-3.21,10.69-1.36,15.91,1.19,2.76,1.35,6.09,1.72,7.13,5.57Z" style="fill: #b25d53;"/>
                </g>
                <path d="M257.13,121.22c-2.62,1.02-5.7,1.2-8.52.27,1.75-.49,3-.42,3.81-1.37h.96c.98.97,2.37,1.17,3.76,1.1Z" style="fill: #d9d2cd;"/>
                <g>
                  <path d="M253.41,102.39c3.72,1.39,5.2,4.99,5.26,8.9.05,3.66-1.9,7.2-5.3,8.84-.27.81-.59.8-.96,0h-4.65c-5.35-1.47-6.57-8.27-3.78-13.02,2.25-3.82,5.35-5.62,9.43-4.72Z" style="fill: #543525;"/>
                  <circle cx="254.74" cy="108.54" r="2.44" style="fill: #ece8e3;"/>
                </g>
              </g>
            </g>
          </g>
          <g>
            <path d="M306.29,224.39c-.48.17-.92.27-1.24.11-7.72-3.87-17.39-19.6-14-28.66,4.32-8.9,6.66-18.02,7.02-27.35-5.14-7.15-10.26-14.33-15.36-21.54-5.57-8.74-7.65-17.54-6.23-26.4,1.13-9.58,5.02-23.63,7.97-32.97.11-.35.49-.6.95-.84l-.04-8.56-1.01-1.03c-1.8-6.44-4.04-12.67-6.71-18.67l-2.43-.39c-4.3-6.73-10.24-11.83-18.33-12.91-4.77,1.01-7.51.27-8.22-2.21.23-1.9,1.07-3.39,2.6-4.98-2.66-2.69-1.17-8.33-3.92-14.38,12.44-.84,20.91,5.43,28.72,13.27,7.22,7.25,12.99,14.37,17.53,23.56,12.41,25.17.89,39.73-3.85,66.26-.77,4.33-.93,8.3.48,12.16.58-4.99.34-9.09,1.96-13.47,2.46,8.97,5.52,16.43,10.75,23.39l15.9,21.16c5.45,7.25,5.32,17.19-1.6,23.37-3.72,3.32-8.09,6.18-10.79,10.6-3.62,5.91-2.37,13.36,1.14,19.05l.56,1.77c.07.22-.51.09-.75,0l-1.09-.36Z" style="fill: #664029;"/>
            <path d="M305.39,225.94c.24.59.68.91.63,2.25l-21.44-6.48c-5.05-1.53-7.89-7.8-11.43-11.45-.66,1.94,1.07,3,1.82,5.31-5.13-.39-10.48-1.32-13.88-5.21-.73,2.58-2.49,3.53-4.78,2.8l-8.45-2.69c-.36.52-.73.92-1.11.93-1.13.03-3.78-1.95-4.79-2.8-5.09-4.27-5.44-11.03-3.42-17.27,13.01-9.74,23.45-21.58,31.32-35.52,2.91-7.24,4.78-14.74,5.62-22.51,2.19,2.11,3.75,5.01,4.68,8.69,4.39,8.31,9.69,16,15.9,23.08,2.41,2.89,2.96,6.54,1.64,10.96-1.56,6.44-3.7,12.73-6.43,18.87-3.31,12.81,4.64,22.02,13.96,29.77l.16,1.29Z" style="fill: #664029;"/>
            <path d="M245.98,41.96c.58-.68,1.51.03,2.79,2.12,2.33.62,2.85,1.67,1.57,3.13-1.23,2.64-9.48.93-8.45-2.34-1.57-20.65-19.92-14.16-26.88.25l-.99.7c.29,1.38-.1,2.73-1.17,4.05l-8.27,20.64-2.46,1.13c2.52,1.6-.35,7.79-3.13,7.51l1.17,1.79c-2.27,3.97-4.21,7.96-5.82,11.99,8.66-4.04,22.32,5.4,21.73,14.33-.17,2.57-.75,3.62-3.05,1.9-1.77.4-2.78-1.09-3.01-4.48-6.24-10.25-18.92-8.14-21.65,3.45l-1.97.94c-1.1.96-2.62,1.3-4.58,1.04-6.91,7.27-14.52,13.64-22.82,19.1,1.62,4.92-2.65,6.08-5.05,1.86-8.94,2.8,2.2,11.03,7.53,9.02.57-3.37,1.64-7.15,5.16-3.8.9,23.73,16.96,37.71,35.82,50.1,16.96,11.14,23.92,10.54,39.83-2.11,20.5-16.3,33.85-37.12,28.35-64.03-.97-5.1-.24-9.16,2.2-12.19l.98-3.75c-2.71.09-2.5-2.05,0-2.72l.96-3.79c-2.95-.74-2.86-10.15,0-11.21l-.96-3.73c-3.24-3.82-5.56-11.61-4.85-16.57-1.14-3.01.27-4.46,2.71-2,6.09,6.14,8.21,30.75,5.74,39.44,6.57-15.61,6.06-29.11-2.35-43.42-.17-2.38.57-3.39,2.57-1.85,3.73,6.28,6.57,12.52,7.73,19.7l.04,8.56c-3.6,20.53-13.87,34.35-3.04,57.57,5.47,11.72,15.64,19.85,21.34,29.76l-4.83-3.9c-.1,7.73-2.49,14.13-5.38,20.76-6.28,14.37,1.54,24.38,12.79,33.47.09.26.05.81-.11,1.08-.13.22-.45.42-.79.47-12.75-10.91-20.39-21.3-12.49-37.49,2.9-5.95,5.93-13.99,3.49-20.7-2.29-6.29-16.54-18.16-20.38-33.88-.56,17.24-8.16,31.26-19.82,43.06l-13.1,11.92c-2.95,2.69-4.15,4.4-4.23,8.54-.13,6.34,3.03,11.18,9.01,13.08-.61.78-.78,1.66-.69,2.73-2.75-1.53-6.54-2.61-8.15-6.71l-.95,5.2-1.7-9.03c-1.62-.73-2.5-2.61-2.62-5.64-15.58,8.29-30.48-2.58-43.13-11.87-2.79-2.47-5.71-4.59-8.78-6.37.63,3.63-.03,6-1.98,7.09l-1.3,9.26c-2.07,14.78-14.56,13.88-13.83,19.52-.68-1.71-1.05-3.27-.63-5.44,4.3-1.38,9.96-5.51,11.25-10.54,2.37-9.18,2.65-18.43,2.41-27.76-8.2-7.33-12.43-16.34-14.19-27.43-7.6,2.19-14.9-1.9-17.47-9.55-12.63,6.82-22.19,13.91-22.35,29.23-1.92-4.94-.26-9.64,2.08-14.25,7.96-15.67,28.71-19.65,46.21-34.77,16.33-14.12,25.66-36.59,33.15-57.11,4.41-12.08,13.78-29.14,25.84-28.95,7.82.12,13.52,7.04,14.95,13.88Z" style="fill: #371d14;"/>
            <path d="M346.16,278.48c4.32,13.76,6.17,26.63.12,39.16-2.46-3.82-5.5-7.81-5.87-12.16,1.31-1.68,2.98-3.56,2.13-6.59l-4.53-15.99c-2.15-15.17-7.13-28.25-15.52-42.47l15.36,12.03c14.35,11.24,30.98,31.68,21.62,47.37-3.23-8.76-5.88-16.68-13.31-21.35Z" style="fill: #654028;"/>
            <path d="M248.66,42.98c1.64,1.99,4.55.14,6.64.22,10.33.43,17.6,7.31,22.34,15.28-.72.01-.88.43-.89.78,0,2.6,8.08,12.34,7.21,25.47-.71,10.75-7.54,24.29-8.74,36.39-1.54-7.83.03-14.96,1.06-22.53,1.64-12.13-1.46-23.94-6.6-34.32-.88.8-.56,1.55-.72,2.03-2.3-.61-4.06-2.54-5.28-5.81l-7.52-8.26c-2.97-1.23-4.91-2.9-5.82-5.03l-4.36-5.25,1.61-2.04c-.14,1.03.47,2.32,1.07,3.05Z" style="fill: #4b2e1e;"/>
            <path d="M50.15,268.08c-1.96-9.47,3.33-18.45,11.69-24.18-4.3,7.9-7.99,14.96-11.69,24.18Z" style="fill: #9e9b98;"/>
            <g>
              <path d="M247.59,39.93c.07,2.35-.47,3.03-1.61,2.04l-1.2-.29c-8.57-22.06-22.89-12.84-32.2,3.25-5.61,10.58-10.46,21.71-14.56,33.39-8.6,22.34-21.49,35.96-41.67,48.11-.34.21-.53.66-.68,1.18-8.81,2.11-11.57,6.01-4.5,12.35,3.98,3.56,8.44,3.65,13.33,2.44,1.39,11.77,7.02,21.28,14.97,29.73-.46,4.87-.78,9.87-.96,15-1.19,12.66-2.41,16.96-12.98,23.06-.48.28-1.04-.27-1.42-1-2.7.86-5.38.48-8.44,1.89.57-1.88,1.57-3.19,1.58-5.4-2.19,2.53-3.76,5-6.21,7.26-3.59-.82-6.52-.3-10.44.26,1.57-2.39,3.7-3.78,3.73-6.68-3.35,2.44-5.64,6.22-9.32,8.16l-7.95,4.18-19.57,4.7c-15.52,3.73-28.07,17.72-35.41,31.69-4.86,9.24-10.27,17.79-17,25.85l.74,6.24c-3.14,3.04-5.64,5.96-8.69,9.49-.35-17.7,10.67-43.51,21.31-58.23,2.72-3.77,6.86-5.76,8.7-9.93-11.71,11.05-26.86,16.65-29.23,31.02l-.54,12.21c-8.92-12.11-8.71-26.36,2.86-35.71l7.26-5.87c15.77-12.74,46.45-27.73,30.58-54.69-4.43-7.52-4.78-16.47-.5-24.2,6.95-12.56,15.65-23.49,24.87-34.48,18.16-21.63,13.31-45.85,26.47-66.68,10.31-16.33,26.31-27.71,44.6-33.95l-4.36,5.25,23.98-13.13c7.46-4.08,16.14-6.79,24.46-3.88,6.81,2.38,12.34,8.32,14.84,15.04-9.84-6.87-20.35-10.03-28.3-1.87,3.97-.51,6.61-3.64,10.44-3.68,14.3-.16,24.85,12.34,23.04,25.86Z" style="fill: #673f29;"/>
              <path d="M108.3,184.48l-3.81-23.28c-2.92-17.86,10.19-33.22,25.43-42.62l24.15-14.88c12.21-7.53,20.26-18.61,26.28-31.56l15.76-33.91c.13.21.38.51.85.64l-13.06,31.31c-15.92,38.16-44.17,40.64-65.6,60.17-8.71,7.93-13.49,19.85-11.91,31.68l2.8,20.88c.1.76-.12,1.28-.89,1.58Z" style="fill: #321e16;"/>
            </g>
            <path d="M285.39,86.74l-.04-8.56c.48,3.01.58,5.43.04,8.56Z" style="fill: #4b2e1e;"/>
            <path d="M241.89,44.87c-8.61-5.14-18.99-2.87-27.86.95-.57-1.03-.33-1.75.35-2.78,5.89-9.05,12.92-16.51,22.13-11.97,5.9,2.91,9.64,11.96,5.38,13.8Z" style="fill: #4b2e1e;"/>
          </g>
        </g>
      </g>
      <g>
        <g>
          <path d="M182.28,488.62c-1.32-.24-3.99-1.22-4-3.06l-.08-10.85c2.6.2,5.81.43,7.49-1.67,1.77-2.21.1-5.01-1.2-6.68.48-1.08,2.2-1.33,3.75-1.11,14.26,2.01,28.12,3.85,42.37,2.51,9.71-.92,18.78-1.64,28.87-4.56,1.66,8.02,2.89,15.92,2.5,24.49-26.78,6.26-53.58,6.16-79.7.93Z" style="fill: #464b4d;"/>
          <g>
            <path d="M286.12,293.97c1.2,1.75-.03,3.29-3.69,4.61-.71,2.08-1.71,3.36-2.98,3.85-1.89.52-4.41.8-5.81-.96,1.94-7.75-4.93-7.54-6.48-10.12.26-.43.54-.83.88-1.17.25-.25.53-.45.84-.53.77-.2,14.67,2.24,15.59,2.57l1.64,1.77Z" style="fill: #f8f8f8;"/>
            <path d="M285.91,300.59c-3.75-2.62-1.85,4.09-5.43,4.97-.3-1.13-.48-2.76-1.03-3.14-.25-7.42,5.73-5.81,6.67-8.45-2.24-1.84-1.98-5.93,1.26-6.07,3.15,1.45,3.53,4.39,3.15,7.5-.3,2.46-1.95,5.02-4.62,5.19Z" style="fill: #686565;"/>
            <g>
              <path d="M137.04,236.66c2.16,2.23,2.08,3.18-.24,2.85l1.23,8.3c1.9-1.13,2.2-.47.89,1.98.67,1.49,2.51,2.52,3.63,3.63l9.89,33.77c.5,1.7-.04,2.31-.95,3.69.92,1.37,1.26,3.08,1.01,5.13.68,3.25,3.02,5.21,7.01,5.85l-1.06,3.95-3.62,63.1-.7.26v7.87c-2.17,12.58-2.23,25.41-7.2,38.67-4.98-32.53-20.87-59.27-27.65-91.9-.82-3.94,4.15-7.99,6.24-10.19-.45-.84-1.24-1.32-1.35-2.42,1.21-2.43,3.03-4.8,2.27-7.94-4.37,9.3-9.21,17.79-15.87,26.48-22.31-9.89-41.03-24.73-52.71-46.54,3.68-4.17,6.12-8.34,8.87-12.87l13.65-22.55c4.56-7.52,10.61-12.95,18.16-17.28,12.06-6.93,20.11-5.47,32.27-9.25,2.74,4.92,4.65,9.96,6.22,15.43Z" style="fill: #fdfdfd;"/>
              <path d="M154.83,368.92c-.18,3.1-.28,5.66-.71,8.12l-.48-7.51c-7.31-3.85-13.45-10.23-14.64-18.84,3.94,7.63,7.8,14.76,15.83,18.23Z" style="fill: #747373;"/>
              <path d="M123.78,306.57c-1.01-24.13-2.18-47.07-12.23-69.79-.99-2.24-3.7-3.95-3.03-7.11,12.64,17.61,18.86,54.93,15.26,76.9Z" style="fill: #3f3e3d;"/>
              <path d="M80.5,298.04c9.5,9.86,20.46,16.09,31.35,23.38-19.13-7.72-35.35-21.95-46.79-39.9l15.44,16.51Z" style="fill: #3b3b39;"/>
            </g>
            <g>
              <path d="M257.98,216.84c.48.34.86.68.91,1.08,1.62,11.92-.15,12.38.04.78,0-.26.29-.51.65-.77l3.64,10.55c.95,3.03.25,4.82-.86,7.58s.54,6.15.38,8.71c2.09.27,3.19,1.56,2.48,3.64.52.76,1,1.53,1.37,2.36,1.72,3.83,2.7,27.83,1.18,31.62-.34.84-.8,1.64-1.3,2.41-2.45,5.15-3.49,9.03,3.08,11.87,1.58,1.93,2.61,4.71-.25,5.75l-12.35.02c-1.31,0-2.33.24-3.02.98l-72.92-.13c-2.19,0-5.8-1.5-5.9-3.47,2.7-2.66,4.75-5.23,4.09-8.91-.53-3-2.2-5.42-5.61-6.67l-10.7-37.54c-1.71-1.41-1.17-3.91.87-4.67l1.24-.2c12.87,21.74,35.95,31.79,60.41,29.86,1.26-.68.63-1.03-1.88-1.07-22.19,4.8-47.77-9.44-58.8-29-.21-.38-.04-.97.24-1.62-1.3.98-2.4.91-3.73-.03l-3.56-6.81-6.47-17.29,10.63-3.5c5.56,32.34,31.07,56.64,64.3,50.85,22.22-3.88,30.98-26.4,24.88-48.65,2.55-.11,5.15.78,6.95,2.26Z" style="fill: #fdfdfc;"/>
              <g>
                <path d="M266.48,284.79c3.73-1.28,2.93,5.01.69,6.56,6.41,1.25,9.26,4.38,8.53,9.4l-2.05.72c-.4,1.61-.95,3.26-2.26,4.68-1.16-1.36-.96-3-2.07-3.73-.21-1.38.34-3.93-1.68-4.85-2.87-1.31-4.75-2.96-4.88-5.9s.22-6.35,3.72-6.87Z" style="fill: #6a6866;"/>
                <path d="M259.58,217.92c-.4,8.02,2.01,16.41-1.47,24.23.73-9.02,1.55-17-.13-25.32,1.27-.26,1.63.37,1.6,1.09Z" style="fill: #858684;"/>
                <path d="M223.56,270.62c1.63-.24,2.25.12,1.88,1.07l-6.74.87c-21.13.41-40.68-9.79-52.17-27.37-.95-1.45-1.61-2.5-2.75-3.16-.1-.67.52-1.61,1.2-2.03,11.31,21.16,34.69,33.2,58.57,30.62Z" style="fill: #504f4e;"/>
                <path d="M234.84,268.6c9.84-4.89,17.23-11.93,22.08-22.93-2.09,10.29-10.55,20.43-22.08,22.93Z" style="fill: #676766;"/>
                <path d="M225.44,271.69c-.34-.61-1.11-.91-1.88-1.07,2.09-.23,4.5-1.72,7.52-.21-1.76.63-3.87,1.05-5.64,1.28Z" style="fill: #9f9f9f;"/>
              </g>
            </g>
            <g>
              <path d="M299.05,291.42c.12-1.43.04-4.08-1.12-2.9l-.25,1.5c-.85-.06-1.13,1.06-.84,3.37l6.6,23.32c3.32,15.63.26,31.76-8.39,45.13-1.72,2.66-1.95,5.64-5.29,7.99,1.64-22.96,1.05-45.07-5.07-67.23-.24-.85.89-1.99,1.23-1.99l.65-2.02c2.67-2.53,2.94-6.09.82-10.67l-1.91-.73-2.16-32c-.05-2.64.62-3.86,2.96-5.02-.07-3.08.11-6.09.53-9.03-2.1-.05-4.99-3.08-3.33-5l-2.34-11.85,23.18,6.7.21,9.64c.18.35.5.48.63.5l.49-9.25c2.92,1.65,6.33,2.54,8.76,4.93,9.49,9.35,15.08,21.01,18.12,33.96l7.19,30.65c-10.19,7.14-20.64,12.5-32.89,16.99-1.58-9.65-7.93-22.02-7.75-26.98Z" style="fill: #fdfdfd;"/>
              <path d="M299.05,291.42c.04-1.09,0-2.3-1.12-2.9l3.91-22.77c.06-.34.39-.61.82-.47l-3.61,26.14Z" style="fill: #7b7b7b;"/>
              <path d="M297.68,290.02c-.19,1.11-.24,2.26-.84,3.37-1.19-4.22-3.47-8.27-3.28-13.34l4.12,9.98Z" style="fill: #646463;"/>
              <path d="M334.15,296.17c-7.31,5.29-15.65,10.33-25.69,12.67l25.69-12.67Z" style="fill: #757674;"/>
            </g>
            <g>
              <path d="M164.99,240c.33,1.41.39,2.37-1.2,2.03.22,1.52.34,3.24-.87,4.67l-17.89,4.22c-2.37.64-4.37.35-5.51-2.67-.48.24-.73.83-.6,1.56l-.89-1.98-1.23-8.3c.27-.73.49-2,.24-2.85.21.09,1.09,1.37,1.96,1.74l18.71-5.23c2.76-.77,4.02,3.18,4.56,5.49,1.28.16,2.27.47,2.73,1.34Z" style="fill: #716f6e;"/>
              <path d="M138.03,247.81c-1.11-2.47-2.26-5.57-1.23-8.3,1.63,2.91,2.56,7.66,1.23,8.3Z" style="fill: #2f211e;"/>
              <path d="M160.72,244.63c-6.16,1.64-12.2,3.81-19.08,4.57-1.83-2.57-2-5.71-2.73-9.17l18.52-4.31c1.87,2.69,2.71,5.5,3.29,8.91Z" style="fill: #3f4143;"/>
            </g>
            <g>
              <path d="M272.82,235.71c2.44.78,4.91,1.3,7.52,1.65,1.13.15,2.32.14,3.14-1.23.95,1.32,3.28,2.57,3.33,5-.48,2.88-.65,5.85-.5,8.93-.17.96-1.01,1.87-1.88,2.34-.77.42-15.17-1.93-17.37-2.48l-1.83-1.52c-1.37-.63-2.58-1.98-2.48-3.64.53-.05.9-.75.9-1.74l-.03-8.43c3.34-.29,6.42.23,9.21,1.12Z" style="fill: #747070;"/>
              <path d="M284.85,248.94c-6.64-1.03-13.08-1.78-19.17-3.95-.37-3.46-1.38-5.87-.85-9.32l18.7,4.12c1.25,2.79,1.54,5.5,1.32,9.15Z" style="fill: #3e4042;"/>
            </g>
            <g>
              <path d="M287.38,287.9c-.95,1.67-.51,3.95-1.26,6.07-6.73.66-12.69-2.23-18.95-2.62-1.46-2.42,1.13-4.28-.69-6.56.36-12.13-.62-24.26-1.26-36.39,4.3-1.55,12.35,2.55,20.68,2.1l-.04-7.64c0-1.01.37-1.71.95-1.74l.17,8.43c-1.11,2.69-2.48,4.53-1.45,7.59l1.86,30.75Z" style="fill: #2b2929;"/>
              <path d="M284.52,272.72c.47,6.8,1.45,13.61-.78,20.17l-14.52-3.54-2.07-40.38,15.91,2.75,1.46,21.01Z" style="fill: #44494c;"/>
            </g>
          </g>
          <g>
            <path d="M269.31,302.41c.25,8.52-2.57,14.31,2.03,15.15-.68-1.92-1.82-3.51-.85-5,.79,1.71,1.3,2.51,2.46,3.4.5.39,1.37.12,2.01-.14,1.19-1.92,3.7-2.94,5.35-1.2.27.29.89.92.81,1.35-.39,2-3.51,2.68-6.48,3.78,2.68,1.03,5.07-.3,6.55-1.94,3.58-3.96-.96-9.81,2.44-12.42,4.52,18.53,6.54,37.2,4.56,56.64l-4.6,45.21c-1.26,12.35.45,23.95,5.64,35.2,1.75,3.79-1.58,8.21-1.43,11.09l4.21,16.38c.37,1.46,2.2,4.75.79,5.81-5.93,4.49-12.86,6.4-19.73,8.61l-1.16-12.57-2-10.16c.24-1.61,3.86-1.82,4.81-2.26-1.91-1.14-3.71.09-5.29.59-2.14-2.8-4.1-2.38-6.99-1.89-1.85.31-3.16,1.77-3.98,4.12-7.53,2.03-15.3,3.67-23.25,3.66h-30.75c-7.7-.01-14.89-1.74-21.91-3.23-8.46-1.8-13.97-10.14-18.3-10.39l-24.52-1.4.64-11.84c6.95-11.84,10.34-24.27,12.54-37.77,1.06-6.55,2.62-12.73,3-19.47l2.02-35.75,2.07-37.29c1.63.16,2.95,1.09,3.82,1.9-1.07,2.89-1.31,5.8.39,7.92,3.26,4.09,10.99,2.8,12.72-.85,2.55-5.36-2.92-11.83.48-12.65,6.41-1.56,13.05-.13,19.64-.15l43.69-.1,23.83-.73c-3.84-1.12-7.32-.63-10.66-.64-.11-.5-.18-.99-.13-1.47.21-1.86,12.06-1.67,14.2-1.39l1.29,1.86Z" style="fill: #464a4d;"/>
            <g>
              <path d="M264.77,407.6c-12.3,8.9-25.35,15.03-39.55,20.99-15.53-5.6-29.84-12.8-44.02-21.31l-1.06-45.21c-.21-8.89-.67-17.34.42-26.11,30.04,2.13,58.87,2.14,88.86-.27.78,12.66-.12,24.4-1.29,36.61l-3.37,35.31Z" style="fill: #262224;"/>
              <path d="M225.24,425.74c-14.57-5.39-28.15-11.99-41.45-20.2-1.3-13.76-1.15-26.89-1.65-40.59-.33-9.11-.85-17.78-.12-26.93,28.03,2.85,55.76,2.82,85.16.17.34,23-1.69,45.56-5.32,68.35-11.61,8.07-23.41,13.9-36.64,19.2Z" style="fill: #45494b;"/>
              <g>
                <path d="M226.25,350.91c1.2,1.03,1.26,1.62.16,1.77-.15.86-.41.82-.79-.04l-.65,1.95-19.78,11.52c-.78,2.64-.64,4.99.43,7.04l-1.91,1.14c-.3.51-2.16,1.89-2.75,1.27-1.08-3.88-.82-7.86.21-11.64l19.61-11.2c1.54-.88,4.06-2.39,5.47-1.8Z" style="fill: #1ba5af;"/>
                <path d="M227.29,356.37c-6.51,3.8-13.05,7.73-19.61,11.77-.52,3.17.98,2.46,4.47-2.14,7.47-1.63,7.94,3.94,1.86,7.21l.59.9c-2.78,2.79-5.29,2.38-8.55.07l-2.33.1.41-9.02c7.54-4.41,14.9-7.96,21.5-12.62,1.28.99,2.77,2.3,1.66,3.73Z" style="fill: #126d6f;"/>
                <path d="M249.66,375.36l-9.96-2.31c-.17-1.35.14-2.05.42-2.88-1.63-2.05-.77-3.01,1.5-1.71,4.77,8.18,8.52-1.91,1.78-4.89-5.95-2.77-11.57-6.03-16.89-9.78l-.09-1.11-.16-1.77c7.58,4.44,15.02,9.15,23.33,13.04l.07,11.4Z" style="fill: #d7c762;"/>
                <path d="M227.29,356.37c.29-.37.6-.7.98-.87.54-.24,9.86,4.7,8.93,6.47,3.48,1.42,5.61,4.64,1.52,6.67-3.3,1.64-7.24-1.61-9.47-3.96-1.15-.56-2.26-1.64-3.51-2.47-1.05,1.23-1.79,2.31-2.06,3.47-1.51,2.27-3.51,4.16-5.67,5.81-1.27.39-2.48,1.7-3.41,2.63-1.04.34-2.3.38-3.03-.47l5.05-3.58c1.55-1.1-2.51-3.9-3.35-2.66-1.98,2.93-4.17,5.21-7.35,5.45-.23-2.26-.61-5.44.73-6.25l15.67-9.55c1.71-1.04,3.4-1.56,4.97-.67Z" style="fill: #0ec0ca;"/>
                <path d="M241.61,368.46c-.75.35-1.28.94-1.5,1.71-1.51-.84-3.14-.02-4.54,1.1-2.57.84-6.13-2.05-6.28-4.61l-.06-1.97,6.29,3.08c1.44.71,3.35-1.34,3.74-2.57.34-1.08-1.17-2.39-2.08-3.22.7-2.02,5.03.73,6.68,1.89,2.21,1.55,5.01,6.88,2.74,8.21-1.84,1.08-4.55-1.86-5-3.6Z" style="fill: #2b8c80;"/>
                <path d="M241.61,368.46c.59-.5,1.43-.63,1.65-.15s.61,2.77,1.24,2.83c2.12.19,1.64-2.37,1.21-3.7-1.06-3.27-7.32-4.8-8.52-5.47l-9.91-5.6c-.98-1.01-1.67-2.25-1.66-3.73.25.1.59.06.79.04l21.3,12.17c.44,3.09.28,5.33-.11,8.47l-5.78-1.58c-.32-1.33-.29-2.32-.21-3.29Z" style="fill: #43522f;"/>
                <g>
                  <path d="M229.24,364.68c1.61,1.24,1.63,1.9.06,1.97,2.97,1.42,1.09,3.86-.73,5.87,2.91.54,5.25.12,7.01-1.25-1.72-2.54,4.86-4.54,4.54-1.1,1.26,2.32,3.49,3.56,6.69,3.74,1.27-1.73,2.73-.66,2.85,1.45,2.13-.73.15-6.14,1.13-11.47.19,0,.51.12.67.5l.61,15.59c.07,1.65,2.15,3.32,2.03,4.7-.12,1.48-2.08,2.99-2.49,4.01.93,1.72,1.96.75,2.17.19.29-.78.78-1.67.67-3.17.86-.14,1.57.59,1.7,1.19s-.14,1.93-.69,2.38l-5.73,4.65c-.79.64-1.66.19-1.99-.31-.75-.78-.49-1.12.78-1.01-7.38,3.76-14.68,7.84-21.89,12.24l-1.16-.77-.76.7c-7.54-5.18-15.41-9.68-23.61-13.52-1.68-1.14-3.28-3.13-1.82-5.01l4.35-9.71c.46-1.04,1.74-1.8,2.4-2.37,2.02-.76,4.17-.57,6.45.58l2.09-.65c-1.13-1.38,2.02-3.72,3.41-2.63,2.15-1.67,4.12-3.55,5.67-5.81-3.1-5.23,5.5-7.19,5.57-1Z" style="fill: #403d37;"/>
                  <g>
                    <path d="M225.48,404.09c2.39.29,1.8,1.58-.25,2.17l-24.12-14.99c2.66-.36,5.14.99,7.56,2.44l16.81,10.38Z" style="fill: #688c4f;"/>
                    <path d="M247.75,393.63l-19.14,11.66c-.96.59-2.45,1.57-3.39.98l.25-2.17,21.41-12.13c.36-.21,1.56-.16,2.13-.17.29,0,.72.58.21.9l-1.48.93Z" style="fill: #e1c966;"/>
                    <path d="M199.29,386.26c1.02,1.43,2.02,2.95,1.82,5.01-1.23-.38-2.88-.62-3.63-1.75-.71-1.07-.76-2.37-.4-4.19.86.01,1.63.4,2.22.93Z" style="fill: #739564;"/>
                    <path d="M239.03,393.89l-13.49,8.1-14.41-9.12c5.85.08,9.85,3.73,14.51,6.38,4.25-1.5,6.94-4.9,13.38-5.36Z" style="fill: #dfcc62;"/>
                    <path d="M235.58,371.27c.95.98,1.61,1.65,3.16,2.85-5.48.28-9.77.69-14.5-.26,2.96-2.39,5.18-4.32,5.06-7.2,1.34-.2,4.04,2.31,6.28,4.61Z" style="fill: #c6d238;"/>
                    <path d="M217.97,381.93l-4.19,2.38c2.39.4,3.61.18,4.41,2.33-1.99.41-3.48.32-5.84.16-.14-2.34-.57-5.41.04-8.19.86-1.27,4.61-1.23,6.13-.04-1.23,1.7-2.57,1.19-4.43,1.38.98,1.14,2.06.68,3.88,1.98Z" style="fill: #d3b756;"/>
                    <path d="M234,386.28c-2.09.41-2.68-1.31-3.98-2.08-.43.31-.65,1.98-.94,2.36s-1.71.25-1.74-.23c-.09-2.52-.74-6.03.05-8.35.36-1.05,1.99-.46,1.8.39-.11.5-.33,1.47.65,2.43.37-1.46,2.26-4.16,4.06-2.77-.08,1.04-1.85,2.44-2.05,3.3-.31,1.37.66,2.74,2.15,4.95Z" style="fill: #dfc154;"/>
                    <path d="M226.3,386.62c-1.55.68-2.73-.93-3.49-1.16-1.28-.39-2.6,1.01-4.22,1.93.25-4.25,2.54-6.84,4.49-9.71,1.49,3.06,3.09,5.71,3.22,8.93Z" style="fill: #d3b756;"/>
                    <path d="M243.85,385.41v-7.41c4.87.52-1.28,6.32,5.53,7.48.64,1.9-1.73,2.08-2.9,1.51-.72-.36-1.99-.24-2.63-1.57Z" style="fill: #854980;"/>
                    <path d="M218,371.48c1.44-2.34,3.43-4.26,5.67-5.81-.66,2.85-2.92,4.96-5.67,5.81Z" style="fill: #126d6f;"/>
                    <g>
                      <path d="M243.87,378c1.45,1.37,1.92,6.86-.01,7.41-1.96,1.81-4.1,2-6.08,1.05-1.77-.85-3.39-3.1-2.58-5.32,1.41-3.87,5.74-3.45,8.67-3.14Z" style="fill: #80457c;"/>
                      <path d="M242.03,383.32c-.93.86-1.92,1.64-3.05,1.16-.85-.37-1.57-1.39-1.45-2.41s.49-1.93,1.94-2.55c1.2-.51,2.89-.45,3.47.69.42.83.14,2.14-.91,3.11Z" style="fill: #403d37;"/>
                    </g>
                    <g>
                      <path d="M208.81,377.93c1.29.08,2.21.68,2.49,1.54,1.25,3.9-3.17,3.19-6.22,7.94-1.28-3.53-.67-6.76-.34-9.73,1.26-.53,2.94-.65,4.08.24Z" style="fill: #cdb94d;"/>
                      <path d="M208.81,377.93l-4.08-.24c.4-.8,1.17-.74,1.68-.83,1-.18,2.3.04,2.4,1.07Z" style="fill: #45494b;"/>
                      <rect x="206.38" y="379.6" width="3.13" height="2.61" transform="translate(-43.9 27.49) rotate(-6.84)" style="fill: #786217;"/>
                    </g>
                  </g>
                </g>
              </g>
            </g>
          </g>
        </g>
        <g>
          <path d="M162.21,506.16l-2.76-3.52c-3.05-5.2,1.62-2.53,4.45-.05,1.39,2.03,3.59,2.64,5.58,3.83,3.41.96,6.8.3,9.44-2.15l1.8-3.6,3.98-1.73c1.29-2.14,1.23-4.74-.39-6.7l18.77,2.2c-1.07,19.24-2.61,37.95-2.42,57.26.09,9.26,3.95,16.49,12.21,21.94l-12.74.72c1.88,1.38,3.91,1.65,6.36,2.35.5,13.38-1.48,25.88-3.43,39.51l-18.25,127.35c-1.55,10.82-4.08,19.84-9.32,29.78,2.59-.6,2.33-2.96,4.46-3.95,1.65,8.31.42,16.18-.14,24.39-1.27,18.43,8.05,42.41,2.95,83.69l-2.12,31.72c-17.92,7.08-38.07,7.79-56.05.33l-7.51-53.95c-2.83-20.34-2.84-40.27-1.11-60.74l-.12-23.57,4.57,7.81-8.08-33,.65-14.83c3.35,2,2.02,5.94,6.06,7.8-4.24-8.14-4.93-15.11-6.33-23.39l-5.27-31.03c-4.47-26.36-8.48-51.96-10.38-78.74-1.54-21.76-.19-42.53,6.46-63.23,21.48,2.88,40.72-8.97,48.92-28.45,3.47-1.74,6.95,1.15,9.69-2.78,1.13-1.63,1.39-3.61.06-5.3Z" style="fill: #46494e;"/>
          <path d="M145.52,508.78l-6.43,9.81c-8.2,10.18-20.53,15.06-33.8,15.5l7.63-22.46,4.01-10.68c.52-1.39,3.16-1.5,4.23-1.22l3.86-.57c8.56-1.93,17.98,3.97,20.5,9.62Z" style="fill: #464a4d;"/>
          <path d="M295.28,478.38l4.44,14.68,9.99,35.68c-12.82-1.11-21.93-14.32-26.38-25.39l-7.19-17.88,16.3-7.18c1.02-.45,2.14-.38,2.83.09Z" style="fill: #474b4d;"/>
          <g>
            <path d="M292.03,469.92c.11-.97.91-1.34,1.85-1.62.35-2.46.92-2.39,1.72,0,1.58.59,2.56,2.29,2.96,5.08,2.28,3.61,5.34,10.48-1.32,7.24-1.18-3.97-1.48-4.88-.9-2.72l-1.06.48-1.12,1.49c-1.75.62-15.32,5.9-15.56,6.71-.49,1.59,10.89,25.1,12.56,27.43,3.89,5.45,9.15,10.94,15.92,12.19l-8.85-31.59,1.5-1.55c2.65-1.17,5.39,1.1,5.74,3.75-.28.66-.85,1.54-.53,2.65l16.32,57.1c9.03,36.13,14.27,72.01,18.25,108.99l5.27,49.02c.62,5.72,2.11,11.74,4.26,17.01l4.92,29.99c6.71,19.05,15.79,36.26,20.8,56.06,6.35,25.08,11.15,49.75,14.47,75.56,3.95.82,6.13,3.44,6.82,7.25l3.45,19.06c.86,4.74-4.61,8.09-8.46,10.19l7.07,30.65c4.27-.28,8.17.95,10.23,4.11,2.11,3.24,1.93,7.31,2.86,10.99,4.95,1.11,7.98,4.34,8.48,9.21,3.29,2.03,4.89,5.15,6.34,8.52,4.55.59,7.11,3.47,8.27,7.56,4.22.94,7.34,3.5,7.64,8.24,6.95-.38,7.39,5.73,10.44,9.06,7.12,7.77,26.34,13.93,30.03,23.04,2.13,5.25.97,11.3.61,16.89-.23,3.51-1.81,6.4-4.93,8.07-19.46,10.39-50.17,7.84-71.03.26l-18.96-10.8-31.37-9.65c-4.83-1.49-10.95-3.21-13.19-7.98-3.86-8.18-1.4-17.08-.2-25.34l3.12-21.54.48-13.31c1.24-4,3.42-6.86,7.74-8.24-1.7-10.13-5.26-19.33-9.1-28.97-8.44-.15-16.6-.29-18.72-7.18l-5.24-17.06c-1.09-3.54.52-6.34,1.44-8.75l-5.48-15.13-9.8-19.86c-6.02-12.2-10.78-24.32-13.6-37.64l-10.25-48.47-8.23-13.98-4.21-20.28c-23.25-52.02-44.26-104.32-61.7-158.94l-13.99,103.84-8.9,59.5,2.24,15.85c.92,6.5-1.52,12.3-1.87,18.66-.99,17.62,7.98,39.15,4.24,78.54l-3.15,33.22c2.26,2.89,5.42,6.27,4.47,11.12-2.42,12.28,1.77,20.32-5.16,23.54l-8.66,4.02c-.55,9.51-2.72,20.41,1.64,29.66,2.17,3.08,7.3,4.87,7.65,9.98l.86,12.64,3.81,23.44c1.18,7.27,1.77,15.34-.84,22.54-2.44,6.72-18.81,10.13-26.78,17.81-4.37,4.2-7.15,10.28-12.83,13.32-18.09,9.68-39.57,11.74-59.21,5.87-3.92-1.17-8.92-3.37-10.27-7.41-2.27-6.77-2.57-16.05.93-22.44,4.9-8.95,13.13-14.73,20.2-21.77,1.56-4.14,3.36-7.96,7.56-10.12.46-3.46,2.34-5.9,5.57-7.3-.87-4.5,3.01-5.8,4.55-8.39,1.26-2.13,3.4-5.49,4.11-7.66,1.37-4.2,1.38-8.22,6.19-10.33,2.48-1.09-1.59-9.4,7.11-14.92-.36-6.61-.93-15.21-3.44-21.78-4.17-2.99-13-2.64-15.58-8.33-2.81-6.2-1.84-14.09-3.27-20.7-.82-3.81,1.3-6.57,3.55-9.2l-6.77-45.56c-3.3-22.22-3.57-43.71-1.68-66.06l.22-23.17c.04-4.39.43-8.19-1.11-12.36-5.58-15.1.11-26.98-1.64-37.64l-7.71-47.03c-5.82-35.52-13.56-81.28-6.8-115.38,3.2-16.18,7.97-31.34,13.23-46.5.38-2.21,3.34-2.82,4.68-1.03l1.41,1.62-6.16,18.12c14.94.81,28.21-9.39,35.09-22.56l2.25-.04,1.23-.28c3.49,1.34,7.5,1.93,12.02,1.77.76-2.36,1.9-3.74,3.44-4.12,2.16-.75,2.37.12,2.72,2.04,1.08,5.86-6.56,8.31-11.22,7.28-5,16.8-30.92,33.63-48,29.33-.52-.13-.92-.43-1.2-.89-4.47,18.2-7.05,36.56-5.95,55.42,2.64,45,11.08,89.54,19.44,132.52,3.04,5.55,2.68,8.26-1.07,8.11-2.14-4.22-3.05-2.23-2.75,5.96l7.9,32.41c-1.06,1.7-3.5,1.69-4.3-.07-1.06,23.57-.91,47.42.45,71.57l8.05,58.34c15.18,6.5,35.82,6.21,52.57-.18,2.98-35.22,5.35-70.81-.91-106.54.41-9.31.66-18.61.74-27.92-1.88,1.85-4.64.93-4.25-2.08,4.02-8.01,6.74-16.57,8.12-25.41l20.77-145.25c1.11-7.58,1.5-15.14,1.18-22.7-9.89-2.44-4.44-6.71,3.11-6.18-5.02-4.52-8.57-11.32-8.73-18.14-.19-8.15.05-16.31.35-24.49.41-11.07,1.18-22.16,2.05-33.2l-15.3-1.79-1.67-2.07c-3.02,1.18-4.46-1.49-2.02-3.62l5.08-.94c24.39,4.62,49.22,3.24,73.47-1.09-.66-6.71-1.53-13.45-2.61-20.22,1.04-2.23.62-2.42-1.28-.56-23.65,5.51-48.87,5.34-72.44.55-2.86,1.03-3.7-1.48-1.92-3.74l2.74-1.32c5.5,1.39,11.08,2.08,16.72,2.62,12.25,1.16,45.44.57,55.44-3.12,1.22-5.45,8.59-6.21,12.82-3.15,5.86-2.08,7.71,2.63,1.67,4.62,0,0,.92,6.49,2.76,19.46,5.92-1.57,11.87-3.7,16.8-7.42-1.06-2.01-.89-3.47.51-4.39Z" style="fill: #292627;"/>
            <g>
              <g>
                <path d="M270.78,491.92c-.19,1.74-4.87,2.02-6.43,1.14-.67-11.34-.58-22.4-4.62-33.05l7.11-1.33c3.33,10.45,5.25,21.3,3.94,33.24Z" style="fill: #464a4b;"/>
                <g>
                  <path d="M294.52,818.27l-4.99-24.76c1.97,1.95,2.25,4.78,5.05,5.91l-14.48-27.65c-2.5-4.77-3.02-9.82-3.77-15.36l3.15,2.17-5.81-11.39c-17.15-38.34-32.94-76.67-47.11-116.27l-11.94-35.68-4.25-17.11c2.24-.69,3.71-.81,5.99-.55,8.74,28.64,17.94,56.48,29.19,84.39l32.99,79.79-25.92-65.57c-11.33-28.68-21.9-56.72-30.67-86.27l-3.85-12.98c8.68-2.45,17.26-4.01,25.21-8.12l-22.1,3.02c1.85-7.66,2.16-14.53,2.6-21.92l3.24-54.73c12.16-.37,23.17-2.19,34.29-4.88-.12,2.58-.23,4.41.46,6.51l9.45-1.22c5.89,23.01,17.53,41.1,41.54,44.94,12.15,44.97,20.02,89.69,23.75,135.66l3.98,49.11c1.04-.45,1.16-1.43,2.24-2.16,3.96,11.41,5.84,23.03,6.55,35.25l.89,15.28,2.34-4.39c12.41,26.41,20.95,53.99,26.48,82.98l7.26,45.75c-15.1,8.52-32.24,12.09-49.55,11.69-.96-.35-1.71-1.92-1.95-2.43-1.22,2.2-2.67,2.26-4.55,1.86-3.73-.79-6.53-9.23-6.52-11.36.02-2.96-.42-4.97-2.06-7.66-13.52-22.18-21.92-45.95-27.14-71.87Z" style="fill: #46494e;"/>
                  <path d="M185.5,935.19c-19.88,10.1-43.01,10.87-62.88.35l-2.23-19.89c-.22-1.97-.23-3.88,1.12-5.61,1.46,1.44,2.67,2.74,4.77,3.41,19.35,6.56,39.8,5.15,59.45-2.84l-.23,24.57Z" style="fill: #46494d;"/>
                  <path d="M386.41,928.74c-14.13,7-29.35,10.01-44.99,8.04-3.81-7.6-5.93-15.21-7.07-24.02,15.76-.05,30.74-1.83,44.87-7.89,8.42-3.61,9.86-8.09,11.35-8.22.59-.05,1.8.74,1.98,1.74l4.08,22.09c-2.48,3.79-6.15,6.24-10.23,8.26Z" style="fill: #464c4c;"/>
                  <path d="M219.68,560.17c-.23,4.36-1,8.27-2.79,12.65-8.15-3.8-12.98-11.82-12.96-21,.04-19.1,1.09-37.64,2.54-56.84l16.65.21-3.44,64.98Z" style="fill: #474b4e;"/>
                  <path d="M184.7,896.17l-.04,9.29c0,1.68-1.02,2.8-3.03,2.6l3.36-40.88c2.73-33.18-5.14-55.64-3.92-74.14.55-8.4,1.49-16.29.04-24.63-.23-1.31,1.21-3.15,2.44-3.7,2.48,6.9,1.95,13.62.83,20.61l-2.26,14.17c1.21,1.32,2.03,3.13,2.32,5.47l3.51,28.92c1.59,13.15.91,25.8-.59,38.99l-2.65,23.29Z" style="fill: #46494e;"/>
                  <path d="M289.64,519.28c10.08,14.31,24.15,9.28,22.37,19.31-21.71-4.91-31.28-18.86-37.89-39.15-1.43-4.4-2.34-8.55-.51-13.25,2.43,1.78,2.87,4.07,3.65,6.41,3.15,9.45,6.63,18.53,12.38,26.69Z" style="fill: #48494c;"/>
                  <path d="M331.26,921.99l4.36,14.01c-4.43.2-5.42-2.81-6.32-6.1l-5.28-19.3c.96-.89,4.77.37,5.46,1.66.28,3.23.67,6.15,1.78,9.72Z" style="fill: #464c4c;"/>
                  <path d="M188.88,929.12c-.12,1.83.06,3.87-2.08,4.48l.28-20.68c.02-1.41-1.79-4.64.7-5.3,1.42-.35,2.25,3.38,2.14,5.09l-1.03,16.41Z" style="fill: #46494d;"/>
                  <path d="M339.63,937c-2.35-.25-3.34-1.82-3.74-3.34l-2.94-11.06c-2.66-10.04-1.02-13.15.44-10.19.18.36-.71,1.41-.65,1.8,1.33,8.05,4.05,15.54,6.88,22.79Z" style="fill: #464c4c;"/>
                </g>
              </g>
              <g>
                <g>
                  <path d="M187.08,998.54c-.02,4-.02,7.95,0,11.85l-1.26.47-1.29-1.22c-2.8-.75-2.84-4.14.13-4.5-1.62-.9-3.65-1.25-6.08-1.06-8-2.58-11.61-1.36-15.29,6.76,2.05,1.29,1.54,1.91-.82,1.77l-2.19,2.75c3.55,3.4-3.24,10.37-6.65,12.67-7.86,2.32-8.08,3.62-.68,3.89,4.87-2.8,8.64-7.47,11.3-14.01l2.24-.12c1.14-.08,1.97-.79,2.62-2.16,2.72-5.74,7.04-1.54,14.53-2.16.09,3.44.31,6.32-.56,9.67-.89.06-1.5,1.12,0,1.61l-.67,1.58c-10.64,5.92-20.39,13.05-29.24,21.4-14.8,9.75-49.18,13.65-63.47,2.53-.77-.6-.71-1.33-.01-2.17,1.47-8.43,8.2-13.98,16.88-16.7,2.11-.66,2.78-1.89,3.39-3.41-1.14-.95-.61-2.03,1.59-3.24l11.51-.25c.67-.01,1.01-.5.98-1.04l1.53-1.49c14.75,5.08,16.75,4.73,6.01-1.03-1.55-4.83,4.36-5.2,7.97-5.08,3.13,1.31,4.76.78,4.89-1.58.29.11.92,0,1.24-.1,6.58.6,2.63,10.74-4.05,7.42,1.33,1.54,2.35,3.42,1.84,5.55,0,0,8.6-13.15,25.8-39.44l2.3-.17c1.02,2.1,5.74,2.21,7.65,1,5.67-3.59-.55-10.44,1.31-13.76,3.58,2.43,4.77,5.86,5.15,9.58l1.43,14.18Z" style="fill: #46494c;"/>
                  <path d="M134.49,1058.05c12.12-5.1,18.18-7.65,18.18-7.65l6.39-4.69c8.36-8.73,18.04-15.46,29.03-20.19.63-.63,1.63-1.11,2.9-1.77-.54,4.64.76,9.98-1.45,14.32-3.81,7.49-19.31,8.39-28.99,20.31-2.9,3.57-5.84,8-10.2,10.22-16.37,8.35-35.09,10.31-52.91,5.78-3.59-.91-9.22-2.41-10.94-5.66-2.84-5.6-1.61-12.49-1.03-18.6,10.8,11.38,34.12,11.15,49.03,7.93Z" style="fill: #f7f7f5;"/>
                  <path d="M171.54,987.55l-14.25,22.83-16.92,24.51c5.6,5.11,11.22,11.32,7.04,12.86-1.39-3.27-3.82-6.21-6.26-8.64l-7.42-7.38c-.91-.9-.49-2.9.17-3.34,1.34-.9,5.57,2.35,7.17-.25,2.47-4.03-2.56-5.67-3.27-8.88,2.51-.58,4.68.98,6.67,1.22,1.73.2,2.66-1.67,2.62-2.85-.05-1.27-.54-2.43-1.42-3.42-.41-.47-.64-1.13-.91-1.83-.61-.97.1-1.58,2.14-1.83,5.25,2.81,7.06-2.3,2.53-5.32-4.61-1.83-3.23-3.99,1.4-3.53,6.75,3.29,9.01-.82,3.65-5.64-4.2-1.26-2.56-3.57,1.84-3.56,8.71,4.36,9.2-3.4,1.45-6.54,1.14-1.94,2.36-2.91,3.66-2.91,4.06-1.08,8.19.55,10.12,4.51Z" style="fill: #1baed2;"/>
                  <path d="M161.11,981.33l.31,1.7c-.91.35-2.73,2.74-1.47,3.52,2.09,1.29,3.86,2.11,3.88,4.17.02,1.59-.56,4.13-2.51,4.31-2.31.22-6.59-3.64-7.32-.61-.11.45.12,1.14.48,1.62.58.73.34.99-.63.82l-.99,1.9c-3.05.48-14.55.96-17.06-.14-1.8-.79-3.24-1.43-2.58-3.61l-.03-.88c4.9-3.27,9.5-2.1,14.84-.17-.84-6.05,7.98-4.6,12.15-3.42-4.98-2.45-10.55-2.47-16.72-.05-1.64-.05-9.48-3.28-8.48-5.67.46-.29,1.13.41,2.36-.41-3.43-2.02-2.46-5.17-1.24-7.52.87-.02.5,1.7.5,1.61.58-8.84,7.74-9.82,15.2-8.38,5.88,1.14,9.12,3.51,7.47,10.18l1.83,1.03Z" style="fill: #434b4e;"/>
                  <path d="M184.65,1005.14c-.46,1.17-.11,3.22-.13,4.5-.08,3.89-5.61,3.1-11.9,1.15-3.31.59-4.86,4.91-6.12,7.01l-6.25,10.37c-1.77,2.93-3.56,4.75-6.47,5.48-2.34.59-7.36-.04-7.95-2.53-.78-3.29,4.12-3.28,5.75-4.08,4.61-2.25,7.75-7.41,8.7-11.68l2.19-2.75c.16-.51.5-1.37.82-1.77,3.63-7.82,7.11-9.57,15.53-6.73,2.59-.26,4.54.09,5.83,1.03Z" style="fill: #ee9222;"/>
                  <path d="M187.08,1024.77l.1.72c-6.2,3.74-12.44,7.48-18.72,11.23-10.05,10.16-21.46,20.31-36.55,20.11-14.04,2.17-39.07,2.15-44.56-7.56-.77-1.36.3-3.32.89-4.1,1.48.69,1.09,2.24,1.45,2.92,5.02,9.48,50.2,12.13,67.58-5.21,7.65-7.63,16.7-12.46,25.82-18.13l7.77-4.84c-.07,2.41-1.95,3.79-3.77,4.85Z" style="fill: #eeedeb;"/>
                  <path d="M144.42,1014.28c1.24,1.05,1.89,4.16.18,5.04-3.94-2.01-8.88-2.53-12.33.18l6.88,3.82c1.84,1.02,1.11,4.99-.11,4.62l-15.01-4.49c-4.33-1.29-8.98-.37-14.31.13-2.21-4.4,4.8-5.45,13.51-4.64-1.99-2.97-4.98-3.92-8.19-5.24,2.14-4.4,6.74-3.33,9.67-.99,6.15,4.91,11.44-1.59,19.7,1.56Z" style="fill: #f8f8f7;"/>
                  <path d="M134.98,984.83l8.54,3.89c7.25-2.23,14.27-3.24,18.66,1.13.86.86-.04,3.39-.85,3.28-4.02-1.82-7.81-2.35-12.38-.9l2.57,2.8c-4.08,2.09-6.74-.42-10.9-1.34-1.85-.41-5.53,2.65-7.43.46-.05-1.57.91-2.63,2.82-4.06l-6.1-1.47c.45-2.92,3.25-4.61,5.07-3.78Z" style="fill: #f6f7f7;"/>
                  <path d="M128.77,1003.48c1.67,1.17,13.31,1.44,14.53.88.34-.16.49-.73.59-1.42.21.02.41,0,.56-.07,3.39-1.78,11.4,8.27,5.43,8.56-1.21.06-3.4-.65-2.91-1.92-2.39-1.07-5.48-1.43-8.01-.57-.45.76.6,2.32,1.81,3.06-3.11.94-5.64.19-8.85-1.17-1.91-.81-4.78,1.05-6.94.69-1.32-.22-1.04-2.24.03-2.33.79-.07,1.58-.25,2.84-.91-1.61-1.72-4.38-1.85-7.24-1.79-.21-2.42,1.64-3.84,3.18-4.01,1.65-.19,3.52.05,4.98,1.02Z" style="fill: #eeeeec;"/>
                  <path d="M133.22,995.02c1.56.7,3.35,2.53,5.74,2.44l14.88-.59c2.86-.61,5.2,4.58,1.98,6.23-3.91-1.39-8.11-2.37-10.87.76-2.57.76-14.06,1.48-15.48-.62-.41-.61-.24-1.43.18-1.97,1-.45,2.13-.47,3.1-1.77l-7.07-1.47c1.31-3.78,4.85-4.19,7.53-2.99Z" style="fill: #f1f0ef;"/>
                  <path d="M161.11,981.33c-1.67,1.22-2.85,3.99-5.74,4,1.15-2.94,4.21-8.45,1.27-11.37-3.67-3.63-12.84-3.53-17.04-1.17-3.01,2.02-2.08,6.55-2.88,8.9-1.14-1.54-.47-3.39-.6-4.8.83-1.6.49-4.48,1.83-5.87,3.71-3.88,17.76-3.46,23.49,1.25,2.92,2.4.74,6.54-.32,9.05Z" style="fill: #219eba;"/>
                  <path d="M188.09,1025.53c-6.24,6.28-16.45,7.3-24.31,16.46-7.79,9.08-17.64,13.54-29.29,16.06-.58-.71-1.35-1.01-2.59-1.22,12.54-1.93,22.96-6.87,31.33-16.33,3.71-4.19,8.73-6.95,13.48-9.71l10.37-6.02,1.01.75Z" style="fill: #42403f;"/>
                  <path d="M144.75,1012.36c-.93-.41-2.92-.12-2.85-2.38,2.22.34,4.36.95,5.06-.48.87.39,2.93,1.59,3.72.9,2.58-5.55-6.23-6.88-15.77-4.82-2.36.51-4.35-.91-6.15-2.1-.24-1.03.11-1.88.88-2.23.01,4.89,5.85,1.11,13.75,2.82l-.37-2.37c-.09-.57,6.85-2.51,12.71.75,1.08-.31,1.13-2.99.42-3.74-.58-.61-1.29-1.63-2.32-1.86.3-.29.52-.52.63-.82,1.68.4,2.95,1.88,3.58,3.43.53,1.29-.28,3.59-1.87,4.17-2.31.85-5.77-2.37-7.64-.73-1.72,1.51,3.26,1.17,4.21,5.51.37,1.66-.93,4.23-3.46,3.78-1.43-.25-3.82-1.57-4.55.16Z" style="fill: #3f6471;"/>
                  <path d="M185.81,1010.85c.21-5.11.42-11.42,1.26-12.32l2.69,18.46c.3,2.05-2.99,4.15-4.37,4.36l.42-10.5Z" style="fill: #1fa2bf;"/>
                  <path d="M111.55,1024.75c.12,1.13-1.15,2.14-1.59,3.24-2.05.7-3.79,2.1-6.42,1.93,2.37-2,5.05-5.1,8.01-5.17Z" style="fill: #3e859a;"/>
                  <path d="M184.65,1005.14c-4.51.26-8.85-.08-13.34-2.37-3.78,1.77-5.67,5.22-8.03,8.07.78-3.29,3.79-8.76,8-8.63,4.64.15,8.55,1.92,13,.69.12-1.09-.03-2.2.65-3.58,1.13,2.01.58,4.04-.28,5.81Z" style="fill: #292627;"/>
                  <path d="M160.28,1015.35c.34-1.52.3-2.67,2.19-2.75-.37,1.19-.94,2.22-2.19,2.75Z" style="fill: #292627;"/>
                </g>
                <g>
                  <path d="M375.15,987.19c11.7,12.07,23.75,23.92,36.15,35.53l1.21.14c.53-.49,1.35-1.19,1.81-.92,2.86,1.68,9.78,7.23,9.33,10.33-2.6,3.05-4.5,6.43-5.7,10.13l1.22,1.73c2.8-5.02,5.77-9.96,8.92-14.82.97-2.31,1.02-4.74-.58-6.78-.29.93-.66.94-1.09.06-.68-.29-.66-.6.02-.93-1.28-3.7,8.96-7.35,11.08-4.71.93.71,1.18.7.75-.04-.9-3.23,2.99-3.8,3.88-.79-.08.74.05,1.2.45,2.02.28.57,1.02,1.14,1.39.29.13-.29.64-1.31,1.32-1.35,2.29-.13,5.04,1.92,5.09,4.83-1.8-.45-3.38-3.06-5.85-1.3,9.3,3.78,30.34,13.23,29.47,18.29-.4,2.31-4.33,3.63-2.08,4.36,1.24,1.71-.56,2.48-1.79.92-.74-.45-1.9-.03-2.73,1.17-.01.71-.1,1.3-.43,1.52-3.24,2.1-13.51,3.05-17.72,3.27-24.24,1.3-44.69-5.26-65.95-16.81l-19.47-6.83-1.84-1.86c.65.22,1.95.37,2-.99-2.11-.11-5.77-.58-6.52-2.58-1.13-3.02-1.29-5.95-1.44-8.97,5.62,3.16,10.55,2.75,15.59.42,5.67-2.63,7.15.52,11.09,1.63l2.04-.6c4.98,5.57,10.37,10.52,16.18,14.86,7.34,3.25,20.39-2.4,3.43-2.52-7.52-3.28-15.71-11.79-21.22-18.09l.36-2.26c-7.21-10.54-17.79,4.3-30.36-5.32-.55,1.11-.41,1.8-.58,2.36-3.19.56-3.95-4.95-2.48-7,.36-.19.94-.76.71-1.52-2.24-7.23-3.16-16.31,3.51-22.21-.43,5.07-.79,9.88,2.38,13.12,2.95,3.01,7.44,5.1,11.83,3.94l6.62-1.72Z" style="fill: #46494c;"/>
                  <path d="M464.69,1050.96c5.77-1.27,10.92-3.93,15.4-8.56.19,5.25,2.14,13.54-1.54,18.45-5.05,5.66-14.18,7.11-21.52,8.11-18.91,2.58-44.03-.87-59.81-11.47-9.73-6.54-19.98-9.89-31.49-12.44-6.7-1.48-14.7-3.17-19.37-8.09-2.36-4.57-.9-10.63-1.67-15.08,2.47.18,5.01,1.15,7.62,2.91,12.16,3.75,24.13,8.02,35.93,12.82,22.74,13.17,48.67,18.21,74.58,12.81l1.89.54Z" style="fill: #f6f7f4;"/>
                  <path d="M388.31,982.64c1.07,1.08.59,2.47-1.45,4.16-2.98,5.64-.17,6.62,8.41,2.95,2.63,1.5,2.34,4.21-.85,8.13-.12,3.51,2.28,3.69,7.19.54,5.24-.83,5.52,1.54.86,7.13-.44,4.19,2.19,4.52,7.9,1.01,4.88-.96,5.06,1.1.55,6.18-.74,4.76,1.55,5.34,6.85,1.75,7.29-1.54,4.77,1.83,1.56,5.63-.9,5.74,3.5,4.36,7.08,2.47.26.03.68.11,1.09-.06,1.63,2.06,1.55,4.55.52,6.92-3.14,4.79-6.09,9.69-8.86,14.68-.42.6-2.97.99-2.98-.23-.06-4.79,3.26-8.66,6.32-12.79l-10-8.24c-.21.15-.43.27-.64.26-2.56-.08-35.44-33.8-36.12-36.27-.27-1.01-.2-1.78.8-2.31,3.13-3.22,7.82-4.8,11.75-1.92Z" style="fill: #19b5da;"/>
                  <path d="M383.52,1005.55l15.14,15.07c7.37,7.33,15.24.73,16.63,7.44-7.13,5.92-16.88,3.56-22.18-3.7l-10.39-10.2c-3.09-3.03-6.34-4.79-11.03-3.11-4.8,1.72-11.32,2.77-15.73-.71-1.82-1.44-2.11-4.86-1.97-7.65,11.77,6.69,22.38-4.25,29.52,2.86Z" style="fill: #ef9020;"/>
                  <path d="M362,1024.65c12.59,3.78,24.6,8.36,36.63,14.54,19.24,9.9,52.67,13.08,68.79,6.16-.4-.98,1.82-1.79,2.73-1.17l1.79-.92c2.06-1.06,3.43-2.77,3.91-5.83,1.63.75,2.18,2.02,2.1,3.43-.23,4.03-8.86,7.24-15.29,8.65-6.05,3.02-14.86,3.09-21.93,2.98-18.98-.29-35.79-5.37-52.27-14.78-10.9-4.69-22.06-8.62-33.49-11.76-3.05-1.17-6.32-2.81-9.07-4.57-.35-.22-.45-.83-.47-1.55.23-.65-.19-1.86.51-2.46,4.76,4.13,10.61,5.64,16.07,7.28Z" style="fill: #eeedec;"/>
                  <path d="M409.32,980.01c1.63,1.33.21,3.01-1.24,3.98-2.56,1.71-11.76,2.84-13.15-.31l-5.78-3.71c-8.04-12.21,6.09-16.05,15.93-14.92,1.7.69,1.99,3.33,2.29,4.92l1.95,10.05Z" style="fill: #484b4c;"/>
                  <path d="M442.15,1016.12c-1.22.11-2.78-.4-3.88.79-.08.73-.33.72-.75.04-3.79,1.29-8.05,2.04-11.08,4.71-8.04,6.96-9.48-1.55-3.29-6.92-3.69-.94-7.2-.17-10.55,2.31-4.47-1.8.51-10.3,3.34-8.44,3.56-.7,7.05-.65,10.46.15,3.52-.01,4.2-4.98,9.42-4.5,1.18.11,2.96,2.69,2.06,3.6-1.73.69-3.6,2.73-2.48,3.62,4.89.03,9.75-.95,12.35,3.82-2.03,1.13-4,.67-5.61.81Z" style="fill: #f4f4f4;"/>
                  <path d="M390.4,984.64c.73,1.15-.04,2.79-2.31,4.91,3.31-1.9,11.84-6.12,13.72-1.07.63,1.68-1.22,2.42-2.59,2.67,1.58.68,3.32.64,4.87-.11-.08-2.66,2.01-2.65,2.76-.14l.34,1.4-1.06,1.82c-3.93-.1-6.76,1.01-8.49,3.32,4-2.13,11.39-5.23,13.51.16.41.33,9.8-1.02,9.53-2.6,1.3-.15,2.35.58,3.08,1.7,1.82,5.45-5.57,5.92-9.78,5.55-5.11-.28-14.09,6.19-3.84,1.68,4.15-1.64,6.83-.98,8.05,1.98,1.72-.2,2.83-.21,3.34,1.78,1.65-.04,3.72-.29,4.89,1.09-5.7.02-9.66-.94-14.18,3.07-1.19,1.06-1.26,3.67.38,4.57,4.21-2.53,9.54-5.43,14.36-2.07-4.22,3.37-8.58,5.68-6.72,8.47.54.8,1.59,1.01,2.99.35l3.19-1.49-.02.93c-1.08.99-2.83,2.51-4.69,2.59-1.99.09-3.55-2.28-3.47-3.86.09-1.79,1.3-3.41,3.23-5.33-2.99-2.3-5.33.04-7.79,1.45-1.72.99-3.37-1.08-3.57-2.24-.79-4.49,3.75-5.75,2.06-7.64-1.79-2.01-6.58,4.07-9.42,1.61-2.66-2.31-.31-5.72,1.54-7.83.35-.91-1.64-2.6-2.52-2.17l-2.98,1.46c-1.62.8-3.67.99-4.53-.25-1.89-2.73,2.69-6.25.98-8.43-2.44-3.11-6.87,2.45-8.92.5-3.27-3.1,1.05-6.58,1.98-9.83.74.54,1.55,1.1,2.09,2.01Z" style="fill: #33515c;"/>
                  <path d="M462.66,1049.51c.34.96,1.21,1.28,2.03,1.44-21.63,4.75-45.36,2.8-65.77-7.16-11.29-5.5-21.61-11-33.82-13.75-7.47-1.68-14.12-4.63-20.42-8.17l.74-2.04c4.73,3.26,10.05,5.78,15.99,7.4,12.94,3.52,25.03,7.91,36.75,14.37,18.06,9.95,44.93,12.2,64.5,7.91Z" style="fill: #43403f;"/>
                  <path d="M406.85,990.9l-2.76.14c-1.5.78-3.33.81-4.87.11l1.14-3.03c-4.72-.79-8.47,1.51-12.42,3.62-.83.4-2.26-1.93-1.54-3.05.4-.63.62-1.5,1.87-2.45l2.13-1.61,4.53-.97,9.94-.2c1.99-.04,3.33-2.6,4.45-3.46,1.32-1.02,3.02-.82,4.37-.01,1.16.69,2.31,1.38,2.2,3.43l-4.41,1.55c.94,1.4,2.76,1.25,3.45,1.64.82,1.39-.72,2.64-1.56,3.03-1.99.92-3.9-1.33-5.57-.28-.43.27-.7,1.11-.96,1.53Z" style="fill: #f7f7f7;"/>
                  <path d="M421.53,1007.68l-6.03.15c.37-1.11.72-1.66.69-2.93-4.48.03-8.32,1.5-11.79,3.73-.92-.45-1.5-1.62-1.4-2.23.65-4.13,7.94-6.58,14.09-5.95,3.47.36,5.11-1.48,6.67-3.75.61-.89,2.72-.81,3.64-.5,1.23.43,3.01,2.08,2.24,3.93-.61.73-2.77.69-4.33,1.58l4.22,2.09c.81.4.54.94.22,1.3-1.52,1.69-5.46-2.57-8.22,2.58Z" style="fill: #f3f4f3;"/>
                  <path d="M420.68,995c.85.55,1.24,1.57,1.07,2.06-.81,2.27-6.27.57-13.17,3.32-.95-.8-.04-2.59,1.16-3.5-5.19-1.16-9.08.87-13.28,3.41-.8.48-2.19-1.81-1.35-2.87l2.36-2.98c2.64-1.27,6.59-2.41,9.72-2.13,8.93.79,8.74-6.65,12.72-3.62,1.05.8,2.15,2.25.3,3.64-.55.42-1.32.81-1.78,1.42-.41.55,0,1.31.86,1.08.35-.09,1.1-.01,1.4.17Z" style="fill: #efeeed;"/>
                  <path d="M350.1,995.59l2.48,7,3.25,18.4c-3.83-.86-6.58-2.62-9.28-5.05-.44-7.07.51-13.81,2.26-20.6.18-.65,1.42-.52,1.28.25Z" style="fill: #16b6d4;"/>
                  <path d="M405.07,965.05c-5.32.93-11.46,1.28-15.81,5.66-1.66,1.67-.21,4.98.34,6.82l.55,1.83c.08.27-.31.67-1,.62-2.31-1.41-7.22-5.18-4.97-8.89,4.11-6.77,14.36-8.69,20.89-6.02Z" style="fill: #2198b3;"/>
                  <path d="M412.51,1022.87c-.01.7-1,1.01-1.58.52l-5.61-4.76-25.62-25.47c-1.94-1.93-3.55-3.77-4.55-5.96-.28-.62-.32-1.42.07-2.02.22-.34.93-.61,1.34-.62-.84,1.94.24,3.04,1.67,4.47l23.2,23.26,11.08,10.58Z" style="fill: #123c49;"/>
                  <path d="M419.17,1044.14c2.35-9.95,11.9-14.25,8.34-21.6,3.19,2.56,1.57,7.32-.78,10.7l-7.56,10.9Z" style="fill: #33515c;"/>
                  <path d="M470.15,1044.18l-2.73,1.17c-1.66-.69-.3-1.97.45-1.29.65-.88,1.25-.88,1.74-.88.33,0,.74.47.54,1Z" style="fill: #292627;"/>
                  <path d="M437.52,1016.95c.22-.08.62.01.75-.04l2.17.57c-.41.67-1.5.77-2.3.55-.36-.1-.73-.46-.62-1.08Z" style="fill: #292627;"/>
                  <path d="M404.09,991.05c-.96,1.47-3.86,1.53-4.87.11l4.87-.11Z" style="fill: #efeeed;"/>
                </g>
                <g>
                  <path d="M165.13,979.94c0-5.05-.17-8.75-4.86-11.37-5.22-2.92-11.29-3.56-17.63-2.52l-2.81-21.22c11.92,2.25,23.86,1.35,35.7-1.97-.17,7.95-1.46,14.89.21,21.8,1.82,7.54,2.37,14.46-.46,22.13-2.68-3.27-6.66-5.2-10.15-6.83Z" style="fill: #d38e69;"/>
                  <g>
                    <path d="M382.91,977.94c-8.62,3.16-12.17,10.81-20.19,7.56-7.76-3.14-2.06-13.16-7.03-27.01l-6.42-17.9c13.3-.17,25.77-3.08,38.46-8.81l7.21,29.45c-3.85,1.47-7.17,2.53-10.15,4.93-3.53,2.83-4.97,7.03-1.87,11.78Z" style="fill: #d48e68;"/>
                    <path d="M365.28,980.53c-4.83-1.69-6.17-7.02-5.03-12.07.52-2.28-1.58-5.89,1.89-7.6-1.75,7.03-1.14,13.02,3.14,19.67Z" style="fill: #6c3d2b;"/>
                  </g>
                </g>
              </g>
            </g>
          </g>
        </g>
      </g>
    </g>
  </g>
</svg>