<?xml version="1.0" encoding="UTF-8"?>
<svg id="Calque_2" data-name="Calque 2" xmlns="http://www.w3.org/2000/svg" viewBox="0 0 402.5 651.54">
  <defs>
    <style>
      .cls-1 {
        fill: #fff;
      }
    </style>
  </defs>
  <g id="Calque_1" data-name="Calque 1">
    <path class="cls-1" d="M402.5,651.54H0V0s402.49,0,402.49,0v651.54ZM346.98,147.71c1.65,0,2.16-2.2,2.14-3.3-.71-33.97-17.31-67.39-43.65-90.08l-.26,49.64c-.03,5.31-3.74,9.61-7.86,11.54-4.92,2.31-10.41,1.64-14.58-1.66-2.97-2.35-5.58-5.82-5.59-9.92l-.06-69.21c-9.27-6.58-19.11-11.87-30.62-14.86l-.35,84.58c-.03,7.48-7.53,12.41-14.18,12.39-6.49-.02-14.08-4.99-14.09-12.37l-.18-88.34c0-1.86-1.32-2.85-2.97-2.96-8.91-.61-17.36-.65-26.24.17-1.17.11-2.1,1.51-2.1,2.79l-.3,88.77c-.03,7.61-8.34,12.43-14.87,11.89s-13.3-5.89-13.32-13.34l-.18-83.59c-11.65,3.17-21.45,8.26-30.83,14.86l.04,67.2c0,7.78-4.7,14.08-12.49,14.98-6.89.8-14.98-4.16-15.04-11.96l-.42-50.57c-11.81,9.98-20.77,21.72-27.99,34.7-9.54,17.15-14.55,36.07-15.35,55.6-.07,1.75,1.16,2.72,2.9,2.72l202.09.15,86.34.16ZM222.17,216.13c2.03-4.23,3.47-8.48,5.02-12.72,2.76-7.55,4.81-14.97,6.16-23.03.32-1.88-.5-4.58-1.47-6.21-3.18-5.37-6.51-10.22-10.37-15.09s-10.28-6.58-16.38-4.78c4.93,6.31,11.11,2.88,14.07,8.18,3.13,5.6,5.53,11.25,7.81,17.49-.34,5.3-9.06,25.79-14.86,23.77-.89-.31-1.98-1.84-2.27-2.77-2.86-9.24,7.07-6.15,4.59-21.2-.86-5.23-5.06-7.85-10.04-7.7-4.14.12-7.6,2.06-8.75,6.41-.76,2.88-.84,6.23-.42,9.29.78,5.75,7.01,5.15,4.1,14.23-.6,1.86-2.62,2.41-4.2,1.44-2-1.23-4.05-3.09-5.26-5.27-3.11-5.65-5.72-11.41-7.05-17.86.47-4.31,6.72-16.43,9.21-20.06,1.04-1.52,9.31-1.02,12.14-5.98-3.67-.95-8.57-1.16-11.87,1.23-4.67,3.39-7.81,8.18-10.93,13.04-1.78,2.78-4.7,6.01-4.86,9.47-.53,11.43,10.73,37.1,15.5,48.44,1.53,3.65,1.77,8.54,1.14,12.39-1.54,9.49-12.16,17.75-7.29,34.85,2.82,9.88,8.51,23.16,9.68,31.74,1.44,10.55.31,21.74,2.86,30.63,5.02,17.48-2.18,21.08,1.04,31.4,1.28,4.09,1.43,8,1.29,12.27-.09,2.93,2.48,6.17,5.38,4.94,2.48-1.05,3.3-4.38,2.97-6.91-.57-4.5-.31-8.8,1.71-12.78,3.58-7.06-4.91-7.34-.2-24.73,4.02-14.86,1.64-25.95,3.69-35.39s5.74-18.94,8.94-28.38c3.16-9.33,2.14-18.68-2.6-27.14-1.87-3.34-3.32-7.01-4.17-10.74s.16-7.66,1.06-11.33c.99-4.01,2.76-7.31,4.59-11.12ZM56.35,203.99v23.27s96.38.01,96.38.01v-23.27s-96.38-.01-96.38-.01ZM253.39,205.47v23.39s95.33.02,95.33.02v-23.39s-95.33-.02-95.33-.02ZM80.31,280.02h72.35s.05-23.23.05-23.23H56.4s0,99.2,0,99.2l23.9-.08v-75.9ZM348.71,258.83h-95.34v23.53h95.34v-23.53ZM391.15,443.86l.12-167.52c0-4.62-2.05-8.47-5.14-10.9-3.53-2.78-7.73-3.74-12.17-2.63-5.51,1.38-10.6,5.98-10.61,12.21l-.28,170.61c-.08,46.67-28.55,89.58-70.53,109.3-14.23,6.68-29.58,10.98-45.34,11.01l-81.91.15c-18.41.03-36.04-3.24-52.67-11.49-40-19.85-68.32-61.21-68.45-106.46l-.49-173.69c-.02-7.51-7.22-12.82-14.02-12.76s-13.63,5.28-13.62,12.73l.07,170.29c.01,28.28,9.25,56.22,24.31,79.84,15.59,24.45,37.68,43.91,64.01,55.83,16.69,7.55,34.46,12.5,52.87,12.51l90.36.05c15.45,0,30.19-3.75,44.62-8.66,12.39-4.21,23.26-10.58,33.8-18.19,16.17-11.68,30.06-25.75,41.07-42.39,9.35-14.12,15.64-29.33,19.51-45.82,2.62-11.15,4.47-22.03,4.48-34.03ZM253.38,312.52v24.17h95.33v-24.17h-95.33ZM215.02,525.31c1.51-.1,2.59-1.46,2.6-2.82l.17-87.28c.01-7.6,7.83-12.85,14.63-12.64s13.79,5.6,13.81,13.16l.21,82.86c10.73-3.42,19.98-8.37,29.03-14,.98-.61,1.63-1.5,1.99-2.62l.02-66.55c0-7.4,7.11-12.72,13.91-12.84s14.03,5.26,14.11,12.66l.5,46.42c26.45-23.79,42.05-56.83,42.61-91.93.01-.71-1.38-1.28-2.25-1.27l-175.55.15H58.53c-1.4.01-2.56.89-2.48,2.27,1.12,20.41,6.73,40.04,16.94,57.8,6.93,12.05,14.82,23.17,25.54,32.94l.17-45.43c.03-7.4,6.35-13.2,13.36-13.59s13.4,4.75,14.79,12.21l.02,68.53c9.5,6.31,19.52,11.6,30.87,15.1v-82.71c.78-7.62,6.92-13.06,14.41-13.18,6.47-.11,14.04,5.23,14.05,12.69l.17,87.27c0,1.57,1.53,2.63,2.84,2.72,8.69.58,16.84.65,25.81.08ZM28.82,607.97c.48,4.26,20.53,12.55,24.32,13.96,35.4,13.22,85.68,20.01,123.54,22.25,28.81,1.71,57.34.61,86.04-2.57,31.08-3.45,78.87-11.4,106.64-24.82,4.9-2.37,10.01-4.44,13.76-9.18l-89.28.02-265.03.34Z"/>
    <path d="M391.15,443.86c0,12-1.86,22.88-4.48,34.03-3.87,16.49-10.16,31.7-19.51,45.82-11.01,16.64-24.9,30.7-41.07,42.39-10.54,7.62-21.41,13.98-33.8,18.19-14.43,4.91-29.17,8.67-44.62,8.66l-90.36-.05c-18.41,0-36.18-4.96-52.87-12.51-26.34-11.92-48.43-31.39-64.01-55.83-15.06-23.63-24.3-51.57-24.31-79.84l-.07-170.29c0-7.45,7.15-12.68,13.62-12.73,6.8-.06,14,5.25,14.02,12.76l.49,173.69c.13,45.25,28.44,86.61,68.45,106.46,16.62,8.25,34.26,11.52,52.67,11.49l81.91-.15c15.76-.03,31.11-4.33,45.34-11.01,41.98-19.73,70.45-62.63,70.53-109.3l.28-170.61c.01-6.23,5.1-10.83,10.61-12.21,4.45-1.11,8.64-.15,12.17,2.63,3.09,2.43,5.14,6.28,5.14,10.9l-.12,167.52Z"/>
    <path d="M215.02,525.31c-8.97.57-17.12.5-25.81-.08-1.32-.09-2.84-1.16-2.84-2.72l-.17-87.27c-.01-7.47-7.58-12.8-14.05-12.69-7.49.12-13.63,5.55-14.4,13.18v82.71c-11.37-3.49-21.38-8.78-30.88-15.1l-.02-68.53c-1.4-7.46-7.57-12.61-14.79-12.21s-13.33,6.19-13.36,13.59l-.17,45.43c-10.72-9.77-18.61-20.88-25.54-32.94-10.22-17.76-15.82-37.39-16.94-57.8-.08-1.37,1.08-2.25,2.48-2.25h112.28s175.55-.16,175.55-.16c.87,0,2.26.57,2.25,1.27-.56,35.1-16.16,68.14-42.61,91.93l-.5-46.42c-.08-7.4-7.35-12.78-14.11-12.66s-13.9,5.43-13.91,12.84l-.02,66.55c-.36,1.13-1.02,2.02-1.99,2.62-9.05,5.63-18.3,10.58-29.03,14l-.21-82.86c-.02-7.56-6.99-12.96-13.81-13.16s-14.62,5.04-14.63,12.64l-.17,87.28c0,1.36-1.09,2.72-2.6,2.82Z"/>
    <path d="M346.98,147.71l-86.34-.16-202.09-.15c-1.75,0-2.98-.97-2.9-2.72.8-19.54,5.82-38.45,15.35-55.6,7.22-12.98,16.18-24.72,27.99-34.7l.42,50.57c.06,7.8,8.15,12.76,15.04,11.96,7.79-.9,12.5-7.21,12.49-14.98l-.04-67.2c9.38-6.61,19.19-11.69,30.83-14.86l.18,83.59c.02,7.45,6.5,12.78,13.32,13.34s14.84-4.28,14.87-11.89l.3-88.77c0-1.29.93-2.69,2.1-2.79,8.89-.82,17.33-.78,26.24-.17,1.65.11,2.96,1.1,2.97,2.96l.18,88.34c.02,7.38,7.61,12.34,14.09,12.37,6.65.02,14.15-4.91,14.18-12.39l.35-84.58c11.5,3,21.35,8.28,30.62,14.86l.06,69.21c0,4.1,2.62,7.57,5.59,9.92,4.17,3.3,9.66,3.98,14.58,1.66,4.12-1.93,7.83-6.23,7.86-11.54l.26-49.64c26.34,22.7,42.95,56.11,43.65,90.08.02,1.11-.49,3.31-2.14,3.3Z"/>
    <path d="M293.84,607.62l-265.03.34c.48,4.26,20.53,12.55,24.32,13.96,35.4,13.22,85.68,20.01,123.54,22.25,28.81,1.71,57.34.61,86.04-2.57,31.08-3.45,78.87-11.4,106.64-24.82,4.9-2.37,10.01-4.44,13.76-9.18l-89.28.02Z"/>
    <path d="M222.17,216.13c-1.83,3.81-3.6,7.1-4.59,11.12-.9,3.67-1.92,7.53-1.06,11.33s2.29,7.4,4.17,10.74c4.74,8.46,5.76,17.81,2.6,27.14-3.2,9.44-6.79,18.55-8.94,28.38s.33,20.54-3.69,35.39c-4.71,17.39,3.78,17.67.2,24.73-2.02,3.99-2.28,8.28-1.71,12.78.32,2.53-.5,5.86-2.97,6.91-2.9,1.23-5.47-2.01-5.38-4.94.14-4.27,0-8.18-1.29-12.27-3.23-10.32,3.97-13.92-1.04-31.4-2.55-8.89-1.42-20.08-2.86-30.63-1.17-8.58-6.86-21.86-9.68-31.74-4.87-17.1,5.74-25.36,7.29-34.85.63-3.84.39-8.74-1.14-12.39-4.77-11.34-16.03-37-15.5-48.44.16-3.46,3.08-6.68,4.86-9.47,3.12-4.86,6.26-9.65,10.93-13.04,3.29-2.39,8.2-2.19,11.87-1.23-2.84,4.96-11.1,4.47-12.14,5.98-2.49,3.63-8.74,15.75-9.21,20.06,1.33,6.45,3.94,12.21,7.05,17.86,1.2,2.18,3.25,4.04,5.26,5.27,1.58.97,3.6.43,4.2-1.44,2.91-9.08-3.32-8.48-4.1-14.23-.42-3.06-.34-6.41.42-9.29,1.15-4.34,4.61-6.29,8.75-6.41,4.97-.14,9.17,2.47,10.04,7.7,2.48,15.05-7.45,11.95-4.59,21.2.29.92,1.38,2.46,2.27,2.77,5.8,2.01,14.52-18.47,14.86-23.77-2.29-6.25-4.68-11.9-7.81-17.49-2.96-5.29-9.15-1.87-14.07-8.18,6.1-1.79,12.46-.17,16.38,4.78s7.19,9.72,10.37,15.09c.96,1.62,1.78,4.32,1.47,6.21-1.35,8.06-3.4,15.48-6.16,23.03-1.55,4.24-2.99,8.49-5.02,12.72Z"/>
    <polygon points="80.31 280.02 80.31 355.92 56.41 356 56.4 256.81 152.71 256.8 152.66 280.01 80.31 280.02"/>
    <rect x="253.38" y="312.52" width="95.33" height="24.17"/>
    <rect x="92.91" y="167.44" width="23.27" height="96.38" transform="translate(-111.1 320.15) rotate(-89.99)"/>
    <rect x="253.37" y="258.83" width="95.34" height="23.53"/>
    <rect x="289.35" y="169.51" width="23.39" height="95.33" transform="translate(83.81 518.18) rotate(-89.99)"/>
  </g>
</svg>