<svg xmlns="http://www.w3.org/2000/svg" data-name="Calque 2" viewBox="0 0 716.91 698.48"><defs><clipPath id="a"><path d="M18.48 348.63c-.15-9.32.22-21.8 1.42-31.05 1.09-8.35 2.18-19.54 3.64-27.84 1.58-8.99 4.14-20.91 6.46-29.74 2.09-7.94 5.28-18.44 8.02-26.18 3.04-8.57 7.84-19.71 11.26-28.14s9.32-19.74 14.08-27.79c8.05-13.6 19.91-31.08 29.29-43.8 5.74-7.79 14.17-17.63 21.04-24.44 5.42-5.37 12.41-12.77 18.11-17.84 8-7.11 19.04-16.17 27.49-22.73 5.62-4.36 13.5-9.65 19.47-13.5s14.17-8.56 20.3-12.12c10.38-6.04 24.9-12.97 36.09-17.33 7.29-2.84 17.06-6.55 24.5-8.96s17.84-5.27 25.57-7.23c7.25-1.84 17.04-3.77 24.4-5.06 7.68-1.35 13.98-2.09 20.64-2.86 2.45-.29 11.84-1.16 16.91-1.41 2.38-.12 5.55-.32 7.93-.38 4.56-.12 10.65-.24 15.22-.21 7.69.05 16.12.41 23.02.94 5.88.45 12.54.97 25.24 2.78 7.75 1.11 16.75 2.84 20.9 3.73 7.1 1.52 16.49 3.92 23.5 5.8 5.25 1.41 12.17 3.6 17.3 5.41 7.22 2.55 16.77 6.17 23.83 9.13 11.03 4.63 25.17 12.08 35.74 17.69 85.25 48.44 141.43 144.16 141.21 261.55-.34 185.21-140.95 354.23-314.05 377.51 173.11-23.28 313.71-192.29 314.05-377.51.22-117.39-55.96-213.12-141.21-261.55 8.28 4.83 19.33 11.31 27.02 17.03 5.79 4.3 13.67 9.83 19.25 14.39 7.03 5.74 16.43 13.42 22.76 19.93 5.38 5.53 12.79 12.67 17.93 18.42 5.97 6.69 13.67 15.86 19.09 23.01 4.79 6.31 10.9 14.94 15.17 21.61 4.79 7.49 10.94 17.65 15.03 25.55 5.54 10.71 13.9 26.9 22.43 51.97 5.32 15.66 10.25 37.24 13.43 53.47 1.76 9.01 2.99 21.23 3.75 30.38.7 8.53.82 19.96 1.1 28.51.34 10.41-.51 24.34-1.77 34.68-1.01 8.35-2.38 19.49-3.92 27.75-1.67 8.97-4.36 20.85-6.77 29.65-2.17 7.91-5.46 18.36-8.28 26.06-3.13 8.54-8.03 19.64-11.55 28.03-3.11 7.41-8.23 16.86-12.21 23.85-4.58 8.04-11.32 18.39-16.27 26.2-5.3 8.37-13.54 18.76-19.91 26.35-9.82 11.69-23.83 26.59-35.31 36.65-8.12 7.11-19.37 16.13-27.99 22.64-5.64 4.25-13.56 9.35-19.49 13.2-3.15 2.05-22.78 14.01-39.28 21.34-7.81 3.47-18.3 7.94-26.32 10.9-7.52 2.77-17.72 6.02-25.44 8.18-15.29 4.3-28.42 6.87-36.74 8.28-9.26 1.56-14.49 2.16-20.56 2.85-3.57.41-12.24 1.18-16.91 1.41-7.32.37-10.99.55-15.58.57-2.27 0-5.3.04-7.58.02s-5.29-.1-7.56-.14-5.33-.17-7.62-.31c-4.74-.28-11.04-.76-15.77-1.17-2.59-.22-6.03-.65-8.61-.94-1.31-.15-8.39-.99-18.7-2.79-3.28-.57-7.64-1.42-10.89-2.11-3.49-.74-8.11-1.83-11.59-2.64-4.47-1.05-10.37-2.67-14.77-3.98s-10.16-3.05-14.44-4.58c-7.21-2.58-16.78-6.16-23.83-9.13-11.02-4.64-25.31-11.83-35.74-17.69-9.58-5.39-22.12-13.1-30.88-19.74-7.39-5.6-17.49-12.79-24.31-19.07-5.6-5.15-13.27-11.8-18.63-17.19-6.36-6.4-14.55-15.22-20.42-22.07-10.26-11.97-22.19-29.38-30.9-42.52-4.98-7.51-10.54-18.19-14.66-26.21s-9.2-18.67-12.21-27.04c-5.55-15.45-12.52-36.26-16.28-52.23-3.46-14.67-5.9-34.69-7.55-49.68-.94-8.51-.96-19.95-1.1-28.51Z" style="fill:none"/></clipPath><clipPath id="b"><path d="M195.42 652.91c-6.05-3.51-14.12-8.22-19.88-12.19-9.18-6.32-21.18-15.09-29.88-22.06-11.89-9.52-26.2-24.04-36.75-35.02-6.94-7.22-15.53-17.54-21.24-25.76-5.29-7.62-12.48-17.7-17.4-25.57-4.25-6.79-9.41-16.17-13.15-23.25-4.24-8.03-9.21-19.09-12.69-27.47-3.13-7.54-6.53-17.9-9.33-25.57-3.11-8.53-6.21-20.28-7.98-29.19-3.27-16.48-6.79-38.67-7.96-55.42-1.07-15.35-1.36-36 .51-51.27 1.12-9.12 1.95-21.39 3.86-30.38 1.73-8.13 3.7-19.06 5.78-27.1 2.26-8.74 5.41-20.41 8.71-28.81 2.97-7.56 6.64-17.77 9.94-25.19 3.67-8.23 8.96-19.04 13.29-26.95 3.82-6.97 9.23-16.1 13.61-22.74 5.05-7.65 11.94-17.78 17.78-24.85 9.78-11.83 23.23-27.33 34.4-37.85 6.69-6.3 15.97-14.32 23.1-20.12 5.55-4.52 13.2-10.25 19.15-14.23 7.99-5.35 18.87-12.14 27.17-17 5.26-3.08 12.47-6.88 18-9.47s12.59-5.89 18.08-8.22c4.57-1.94 10.77-4.27 15.41-6.03 7.58-2.88 17.94-6.05 25.75-8.23 3.79-1.06 8.85-2.43 12.68-3.29 7.27-1.62 16.99-3.64 24.32-4.96 5.46-.98 18.33-2.75 28.3-3.51 2.61-.2 10.56-.81 16.08-.95 11.24-.3 11.68-.29 22.78-.07.6.01 14.77.31 31.88 2.4 16.61 2.03 28.77 4.71 28.77 4.71 7.06 1.58 16.45 3.84 23.45 5.71 4.65 1.25 10.78 3.19 15.36 4.7 5.35 1.77 12.42 4.33 17.66 6.39s12.5 5.22 17.81 7.58c8.32 3.7 19.05 9.46 27.03 13.84-49.25-27.98-108.21-40.18-171.59-31.66 63.39-8.52 122.34 3.67 171.59 31.66 12.14 7.45 28.41 17.38 39.6 26.2 7.72 6.08 17.79 14.47 25.08 21.06 5.71 5.16 13.03 12.38 18.2 18.08 6.45 7.09 14.8 16.77 20.74 24.29 4.91 6.21 11.02 14.82 15.4 21.41 5.08 7.65 11.36 18.18 15.78 26.23 3.89 7.07 8.44 16.82 11.91 24.1 3.9 8.17 8.11 19.53 11.11 28.08 2.72 7.76 5.56 18.36 7.93 26.24 2.64 8.72 5.18 20.67 6.34 29.71 1.07 8.36 2.85 19.47 3.54 27.87.76 9.29 1.29 21.71 1.3 31.03.03 16.98-2.19 39.61-4.64 56.41-1.47 10.03-4.16 23.33-7.1 33.02-2.38 7.86-5.32 18.42-8.08 26.15-3 8.41-7.17 19.6-11.1 27.61-3.54 7.22-8.09 16.95-11.99 23.99-4.32 7.79-10.46 17.98-15.39 25.4-14.45 21.74-28.69 37.63-34.8 44.13-5.22 5.55-12.33 12.84-17.95 17.99-6.78 6.23-16.08 14.26-23.34 19.93-5.61 4.38-13.23 10.04-19.17 13.96-8.06 5.32-19.09 11.97-27.45 16.81-13.68 7.92-35.05 16.95-39.57 18.67-7.55 2.87-17.69 6.52-25.4 8.91s-17.55 5-25.16 6.75c-14.17 3.27-25.78 5.01-31.44 5.76-14.41 1.91-24.41 2.51-34.01 2.9-9.33.37-20.98.28-30.4-.24-8.93-.49-19.1-1.23-32.98-3.26-7.45-1.09-10.54-1.69-19.73-3.48-3.59-.7-8.34-1.83-11.9-2.67-13.76-3.26-27.13-7.77-27.25-7.81-13.41-4.61-19.14-6.7-35.47-13.97-8.32-3.7-19.15-9.27-27.03-13.84Z" style="fill:none"/></clipPath></defs><g data-name="Calque 2"><g style="isolation:isolate"><g style="isolation:isolate"><g style="clip-path:url(#a)"><g style="isolation:isolate"><path d="M18.48 348.63c.28 16.98 1.9 39.64 4.44 56.44 2.22 14.73 6.78 34.15 11.36 48.32 5.25 16.23 13.68 37.47 21.34 52.71s19.85 34.15 29.37 48.13c9.33 13.7 16.76 21.59 36.62 42.67 6.67 7.09 16.36 15.81 24.06 21.76 21.7 16.78 26.85 20.77 49.76 34.25 6.67 3.93 21.38 11.93 44.84 21.42 27.86 11.26 63.73 19.86 93.61 22.43 15.36 1.32 30.05 2.31 54.23 1.04 17.91-.94 37.69-3.94 49.35-6.49 26.74-5.85 108.13-23.67 181.6-99.9 26.47-27.47 43.36-54.24 51.07-67.75 4.64-8.13 10.78-19.06 14.4-27.69 6.67-15.94 14.67-37.6 19.83-54.09s8.18-40.07 10.69-57.4c1.22-8.44 1.24-19.87 1.7-28.38.56-10.43-.3-24.39-1.03-34.81-.59-8.42-2.13-19.57-3.34-27.92-2.48-17.1-7.63-39.79-13.83-55.92-3.2-8.33-6.84-19.71-10.72-27.75-7.37-15.26-17.05-35.86-26.74-49.77-5.21-7.48-11.79-17.75-17.6-24.77-9.87-11.92-23.33-27.65-34.58-38.27-28.31-26.71-50.48-40.51-69.04-51.35C625.12 93.98 681.3 189.7 681.08 307.09c-.34 185.21-140.95 354.23-314.05 377.51 173.11-23.28 313.71-192.29 314.05-377.51.22-117.39-55.96-213.12-141.21-261.55-21.73-11.53-26.89-14.26-44.84-21.42-16.71-6.66-28.13-9.72-43.94-13.97C447.34 9.14 413.21.31 370.35.06c-37.13-.22-66.77 5.27-85.1 9.92-24.31 6.16-34.56 10.15-50.07 16.19-11.19 4.35-25.71 11.29-36.09 17.33-12.27 7.13-28.55 16.93-39.77 25.63q-21.4 16.6-45.6 40.57c-6.87 6.81-15.3 16.65-21.04 24.44-9.38 12.72-21.24 30.2-29.29 43.8-3.54 5.98-21.78 38.05-33.36 82.1-11.63 44.23-11.64 81.59-11.53 88.63" style="fill:#052624"/><path d="M681.07 307.06c-.34 185.21-140.95 354.23-314.05 377.51h-1.14C62.42 699.76-53.17 371.83 81.32 218.14 227.87 50.66 537.56 190.41 554.7 431.76c13.15 185.18-122.5 230.86-187.69 252.81 173.11-23.28 313.71-192.29 314.05-377.51.22-117.39-55.96-213.12-141.21-261.55-22.41-11.89-25.29-13.41-44.84-21.42l-14.73-5.4c-5.18-1.64-12.07-3.9-17.3-5.41l-11.92-3.16c-3.76-.86-8.76-2.05-12.53-2.84l-9.95-1.91c-3-.49-7-1.18-10.01-1.62l-8.69-1.17c-2.58-.28-6.03-.69-8.61-.94l-7.94-.68c-2.36-.15-5.51-.37-7.87-.49l-7.58-.31c-2.27-.04-5.3-.12-7.57-.14l-7.57.02c-2.3.06-5.36.11-7.65.19l-7.93.38c-2.45.17-5.71.37-8.15.58l-8.76.83c-2.76.33-6.44.74-9.2 1.11l-11.44 1.75c-33.18 6.27-49.13 11.4-74.47 21.25l-18.07 8.04c-23.39 12.05-24.79 12.78-38.32 21.41l-19.47 13.5c-8.36 6.68-19.48 15.63-27.49 22.73l-18.11 17.84c-6.38 7.27-15 16.88-21.04 24.44l-15.41 21.26c-4.84 7.87-11.49 18.25-15.98 26.32l-11.98 24c-3.42 8.42-8.21 19.57-11.26 28.14l-8.02 26.18c-1.97 8.91-4.88 20.75-6.46 29.74l-3.64 27.84c-.46 9.31-1.37 21.72-1.42 31.05l1.1 28.51c1.79 14.97 4.69 34.88 7.55 49.68l7.15 26.57c3.01 8.47 6.78 19.86 10.16 28.19l11.19 24.52c4.36 7.88 9.96 18.52 14.66 26.21l14.71 21.92c5.69 7.24 13.12 17.03 19.13 24.01l17.49 18.66c7.15 6.6 16.61 15.5 24.06 21.76l18.88 14.5c9.15 6.1 21.42 14.13 30.88 19.74l17.85 9.47c8.05 3.7 18.79 8.59 26.99 11.95l14.73 5.4c5.18 1.64 12.07 3.9 17.3 5.41l11.92 3.16c3.76.86 8.76 2.05 12.53 2.84l9.95 1.91c3 .49 7 1.18 10.01 1.62l8.69 1.17c2.58.28 6.03.69 8.61.94l7.94.68c2.36.15 5.51.37 7.87.49l7.58.31c2.27.04 5.3.12 7.57.14l7.57-.02c2.3-.06 5.36-.11 7.65-.19l7.93-.38c2.45-.17 5.71-.37 8.15-.58l8.76-.83c2.76-.33 6.44-.74 9.2-1.11l11.36-1.73c25.91-4.88 42.26-8.88 70.65-19.69l17.84-7.67c22.95-11.43 24.82-12.37 39.28-21.34l19.49-13.2c8.51-6.65 19.83-15.57 27.99-22.64l18.24-17.6c6.48-7.23 15.23-16.8 21.38-24.32l15.6-21.07c4.93-7.83 11.69-18.16 16.27-26.2l12.21-23.85c3.5-8.39 8.41-19.49 11.55-28.03l8.28-26.06c2.07-8.89 5.09-20.68 6.77-29.65l3.92-27.75c.62-10.4 1.66-24.26 1.77-34.68l-1.1-28.51c-1.09-9.12-2.26-21.32-3.75-30.38l-5.69-27.14c-2.54-8.65-5.67-20.27-8.59-28.8l-9.87-25.27c-3.91-8.09-8.9-18.99-13.15-26.91l-13.58-22.87c-5.24-7.46-12.04-17.55-17.6-24.77l-16.66-19.85c-6.63-6.81-15.36-16.01-22.29-22.52l-18.4-15.83c-24.37-18.21-26.91-20.12-46.28-31.42 85.25 48.44 141.43 144.16 141.21 261.55" style="fill:#052624"/><path d="M681.07 307.06c-.29 153.68-97.14 296.21-229 353.59C220.34 782.67-34.71 509.61 34.1 290.47c67.13-213.78 364.91-210.65 490.18 5.16 79.89 137.62 48.17 297.96-72.21 365.02 131.86-57.37 228.72-199.9 229-353.59.22-117.39-55.96-213.12-141.21-261.55-22.41-11.89-25.29-13.41-44.84-21.42l-14.73-5.4c-5.18-1.64-12.07-3.9-17.3-5.41l-11.92-3.16c-3.76-.86-8.76-2.05-12.53-2.84l-9.95-1.91c-3-.49-7-1.18-10.01-1.62l-8.69-1.17c-2.58-.28-6.03-.69-8.61-.94l-7.94-.68c-2.36-.15-5.51-.37-7.87-.49l-7.58-.31c-2.27-.04-5.3-.12-7.57-.14l-7.57.02c-2.3.06-5.36.11-7.65.19l-7.93.38c-2.45.17-5.71.37-8.15.58l-8.76.83c-2.76.33-6.44.74-9.2 1.11l-11.44 1.75c-33.18 6.27-49.13 11.4-74.47 21.25l-18.07 8.04c-23.39 12.05-24.79 12.78-38.32 21.41l-19.47 13.5c-8.36 6.68-19.48 15.63-27.49 22.73l-18.11 17.84c-6.38 7.27-15 16.88-21.04 24.44l-15.41 21.26c-4.84 7.87-11.49 18.25-15.98 26.32l-11.98 24c-3.42 8.42-8.21 19.57-11.26 28.14L30 259.99c-1.97 8.91-4.88 20.75-6.46 29.74l-3.64 27.84c-.46 9.31-1.37 21.72-1.42 31.05l1.1 28.51c1.79 14.97 4.69 34.88 7.55 49.68l7.15 26.57c3.01 8.47 6.78 19.86 10.16 28.19l11.19 24.52c4.36 7.88 9.96 18.52 14.66 26.21L85 554.22c5.69 7.24 13.12 17.03 19.13 24.01l17.49 18.66c7.15 6.6 16.61 15.5 24.06 21.76l18.88 14.5c9.15 6.1 21.42 14.13 30.88 19.74l17.85 9.47c8.05 3.7 18.79 8.59 26.99 11.95l14.73 5.4c5.18 1.64 12.07 3.9 17.3 5.41l11.92 3.16c3.76.86 8.76 2.05 12.53 2.84l9.95 1.91c3 .49 7 1.18 10.01 1.62l8.69 1.17c2.58.28 6.03.69 8.61.94l7.94.68c2.36.15 5.51.37 7.87.49l7.58.31c2.27.04 5.3.12 7.57.14l7.57-.02c2.3-.06 5.36-.11 7.65-.19l7.93-.38c2.45-.17 5.71-.37 8.15-.58l8.76-.83c2.76-.33 6.44-.74 9.2-1.11l11.36-1.73c25.91-4.88 42.26-8.88 70.65-19.69l17.84-7.67c22.95-11.43 24.82-12.37 39.28-21.34l19.49-13.2c8.51-6.65 19.83-15.57 27.99-22.64l18.24-17.6c6.48-7.23 15.23-16.8 21.38-24.32l15.6-21.07c4.93-7.83 11.69-18.16 16.27-26.2l12.21-23.85c3.5-8.39 8.41-19.49 11.55-28.03l8.28-26.06c2.07-8.89 5.09-20.68 6.77-29.65l3.92-27.75c.62-10.4 1.66-24.26 1.77-34.68l-1.1-28.51c-1.09-9.12-2.26-21.32-3.75-30.38l-5.69-27.14c-2.54-8.65-5.67-20.27-8.59-28.8l-9.87-25.27c-3.91-8.09-8.9-18.99-13.15-26.91l-13.58-22.87c-5.24-7.46-12.04-17.55-17.6-24.77l-16.66-19.85c-6.63-6.81-15.36-16.01-22.29-22.52l-18.4-15.83c-24.37-18.21-26.91-20.12-46.28-31.42 85.25 48.44 141.43 144.16 141.21 261.55" style="fill:#042523"/><path d="M32.95 448.85c-67.91-242.4 154.96-410.8 378.54-286.01 164.2 91.65 237.91 336.3 91.19 470.57 105.31-68.25 178.14-193.11 178.39-326.35.22-117.39-55.96-213.12-141.21-261.55-22.41-11.89-25.29-13.41-44.84-21.42l-14.73-5.4c-5.18-1.64-12.07-3.9-17.3-5.41l-11.92-3.16c-3.76-.86-8.76-2.05-12.53-2.84l-9.95-1.91c-3-.49-7-1.18-10.01-1.62l-8.69-1.17c-2.58-.28-6.03-.69-8.61-.94l-7.94-.68c-2.36-.15-5.51-.37-7.87-.49l-7.58-.31c-2.27-.04-5.3-.12-7.57-.14l-7.57.02c-2.3.06-5.36.11-7.65.19l-7.93.38c-2.45.17-5.71.37-8.15.58l-8.76.83c-2.76.33-6.44.74-9.2 1.11l-11.44 1.75c-33.18 6.27-49.13 11.4-74.47 21.25l-18.07 8.04c-23.39 12.05-24.79 12.78-38.32 21.41l-19.47 13.5c-8.36 6.68-19.48 15.63-27.49 22.73l-18.11 17.84c-6.38 7.27-15 16.88-21.04 24.44l-15.41 21.26c-4.84 7.87-11.49 18.25-15.98 26.32l-11.98 24c-3.42 8.42-8.21 19.57-11.26 28.14L30 259.99c-1.97 8.91-4.88 20.75-6.46 29.74l-3.64 27.84c-.46 9.31-1.37 21.72-1.42 31.05l1.1 28.51c1.79 14.97 4.69 34.88 7.55 49.68l7.15 26.57 7.59 21.74-8.53-24.95c-.11-.4-.28-.93-.39-1.33" style="fill:#042422"/><path d="M681.07 307.06c-.25 133.24-73.08 258.1-178.39 326.35-41.26 35.6-154.99 108.05-319.62 12.14 8.92 5.31 21.05 11.97 30.22 16.84 8.05 3.7 18.79 8.59 26.99 11.95l14.73 5.4c5.18 1.64 12.07 3.9 17.3 5.41l11.92 3.16c3.76.86 8.76 2.05 12.53 2.84l9.95 1.91c3 .49 7 1.18 10.01 1.62l8.69 1.17c2.58.28 6.03.69 8.61.94l7.94.68c2.36.15 5.51.37 7.87.49l7.58.31c2.27.04 5.3.12 7.57.14l7.57-.02c2.3-.06 5.36-.11 7.65-.19l7.93-.38c2.45-.17 5.71-.37 8.15-.58l8.76-.83c2.76-.33 6.44-.74 9.2-1.11l11.36-1.73c25.91-4.88 42.26-8.88 70.65-19.69l17.84-7.67c22.95-11.43 24.82-12.37 39.28-21.34l19.49-13.2c8.51-6.65 19.83-15.57 27.99-22.64l18.24-17.6c6.48-7.23 15.23-16.8 21.38-24.32l15.6-21.07c4.93-7.83 11.69-18.16 16.27-26.2l12.21-23.85c3.5-8.39 8.41-19.49 11.55-28.03l8.28-26.06c2.07-8.89 5.09-20.68 6.77-29.65l3.92-27.75c.62-10.4 1.66-24.26 1.77-34.68l-1.1-28.51c-1.09-9.12-2.26-21.32-3.75-30.38l-5.69-27.14c-2.54-8.65-5.67-20.27-8.59-28.8l-9.87-25.27c-3.91-8.09-8.9-18.99-13.15-26.91l-13.58-22.87c-5.24-7.46-12.04-17.55-17.6-24.77l-16.66-19.85c-6.63-6.81-15.36-16.01-22.29-22.52l-18.4-15.83c-24.37-18.21-26.91-20.12-46.28-31.42C625.12 93.99 681.3 189.71 681.08 307.1" style="fill:#042422"/><path d="M22.71 403.76c-33-278.36 251.14-377.68 444.36-220.08 99.24 80.94 187.81 265.11 74.02 421.13 84.2-71.45 139.76-181.41 139.98-297.75.22-117.39-55.96-213.12-141.21-261.55-5.36-2.84-12.5-6.63-17.85-9.47-8.05-3.7-18.79-8.59-26.99-11.95l-14.73-5.4c-5.18-1.64-12.07-3.9-17.3-5.41l-11.92-3.16c-3.76-.86-8.76-2.05-12.53-2.84l-9.95-1.91c-3-.49-7-1.18-10.01-1.62l-8.69-1.17c-2.58-.28-6.03-.69-8.61-.94l-7.94-.68c-2.36-.15-5.51-.37-7.87-.49l-7.58-.31c-2.27-.04-5.3-.12-7.57-.14l-7.57.02c-2.3.06-5.36.11-7.65.19l-7.93.38c-2.45.17-5.71.37-8.15.58l-8.76.83c-2.76.33-6.44.74-9.2 1.11l-11.44 1.75c-33.18 6.27-49.13 11.4-74.47 21.25l-18.07 8.04c-23.39 12.05-24.79 12.78-38.32 21.41l-19.47 13.5c-8.36 6.68-19.48 15.63-27.49 22.73l-18.11 17.84c-6.38 7.27-15 16.88-21.04 24.44l-15.41 21.26c-4.84 7.87-11.49 18.25-15.98 26.32l-11.98 24c-3.42 8.42-8.21 19.57-11.26 28.14L30 259.99c-1.97 8.91-4.88 20.75-6.46 29.74l-3.64 27.84c-.46 9.31-1.37 21.72-1.42 31.05l1.1 28.51c1.15 9.57 2.42 22.37 4 31.88l-.86-5.27" style="fill:#042321"/><path d="M681.07 307.06c-.22 116.35-55.78 226.3-139.98 297.75-64.01 84.33-178.47 112.98-291.59 72.99l14.57 4.89 8.23 2.45 11.92 3.16c3.76.86 8.76 2.05 12.53 2.84l9.95 1.91c3 .49 7 1.18 10.01 1.62l8.69 1.17c2.58.28 6.03.69 8.61.94l7.94.68c2.36.15 5.51.37 7.87.49l7.58.31c2.27.04 5.3.12 7.57.14l7.57-.02c2.3-.06 5.36-.11 7.65-.19l7.93-.38c2.45-.17 5.71-.37 8.15-.58l8.76-.83c2.76-.33 6.44-.74 9.2-1.11l11.36-1.73c25.91-4.88 42.26-8.88 70.65-19.69l17.84-7.67c22.95-11.43 24.82-12.37 39.28-21.34l19.49-13.2c8.51-6.65 19.83-15.57 27.99-22.64l18.24-17.6c6.48-7.23 15.23-16.8 21.38-24.32l15.6-21.07c4.93-7.83 11.69-18.16 16.27-26.2l12.21-23.85c3.5-8.39 8.41-19.49 11.55-28.03l8.28-26.06c2.07-8.89 5.09-20.68 6.77-29.65l3.92-27.75c.62-10.4 1.66-24.26 1.77-34.68l-1.1-28.51c-1.09-9.12-2.26-21.32-3.75-30.38l-5.69-27.14c-2.54-8.65-5.67-20.27-8.59-28.8l-9.87-25.27c-3.91-8.09-8.9-18.99-13.15-26.91l-13.58-22.87c-5.24-7.46-12.04-17.55-17.6-24.77l-16.66-19.85c-6.63-6.81-15.36-16.01-22.29-22.52l-18.4-15.83c-24.37-18.21-26.91-20.12-46.28-31.42C625.12 93.98 681.3 189.7 681.08 307.09" style="fill:#042321"/><path d="M18.48 348.35C32.47 51.25 354.3 34.01 510.95 203.92 611.92 313.44 637.1 462.08 573.6 573.79c65.7-70.29 107.28-166.12 107.46-266.74.22-117.39-55.96-213.12-141.21-261.55-22.41-11.89-25.29-13.41-44.84-21.42l-14.73-5.4c-5.18-1.64-12.07-3.9-17.3-5.41l-11.92-3.16c-3.76-.86-8.76-2.05-12.53-2.84l-9.95-1.91c-3-.49-7-1.18-10.01-1.62l-8.69-1.17c-2.58-.28-6.03-.69-8.61-.94l-7.94-.68c-2.36-.15-5.51-.37-7.87-.49l-7.58-.31c-2.27-.04-5.3-.12-7.57-.14l-7.57.02c-2.3.06-5.36.11-7.65.19l-7.93.38c-2.45.17-5.71.37-8.15.58l-8.76.83c-2.76.33-6.44.74-9.2 1.11l-11.44 1.75c-33.18 6.27-49.13 11.4-74.47 21.25l-18.07 8.04c-23.39 12.05-24.79 12.78-38.32 21.41l-19.47 13.5c-8.36 6.68-19.48 15.63-27.49 22.73l-18.11 17.84c-6.38 7.27-15 16.88-21.04 24.44l-15.41 21.26c-4.84 7.87-11.49 18.25-15.98 26.32l-11.98 24c-3.42 8.42-8.21 19.57-11.26 28.14l-8.02 26.18c-1.97 8.91-4.88 20.75-6.46 29.74l-3.64 27.84c-.46 9.31-1.37 21.72-1.42 31.05v-.28" style="fill:#042220"/><path d="M681.07 307.06c-.19 100.62-41.77 196.45-107.46 266.74-54.28 94.9-154.91 139.32-269.21 118.83l9.75 1.65 2.55.38 8.69 1.17c2.58.28 6.03.69 8.61.94l7.94.68c2.36.15 5.51.37 7.87.49l7.58.31c2.27.04 5.3.12 7.57.14l7.57-.02c2.3-.06 5.36-.11 7.65-.19l7.93-.38c2.45-.17 5.71-.37 8.15-.58l8.76-.83c2.76-.33 6.44-.74 9.2-1.11l11.36-1.73c25.91-4.88 42.26-8.88 70.65-19.69l17.84-7.67c22.95-11.43 24.82-12.37 39.28-21.34l19.49-13.2c8.51-6.65 19.83-15.57 27.99-22.64l18.24-17.6c6.48-7.23 15.23-16.8 21.38-24.32l15.6-21.07c4.93-7.83 11.69-18.16 16.27-26.2l12.21-23.85c3.5-8.39 8.41-19.49 11.55-28.03l8.28-26.06c2.07-8.89 5.09-20.68 6.77-29.65l3.92-27.75c.62-10.4 1.66-24.26 1.77-34.68l-1.1-28.51c-1.09-9.12-2.26-21.32-3.75-30.38l-5.69-27.14c-2.54-8.65-5.67-20.27-8.59-28.8l-9.87-25.27c-3.91-8.09-8.9-18.99-13.15-26.91l-13.58-22.87c-5.24-7.46-12.04-17.55-17.6-24.77l-16.66-19.85c-6.63-6.81-15.36-16.01-22.29-22.52l-18.4-15.83c-24.37-18.21-26.91-20.12-46.28-31.42 85.25 48.44 141.43 144.16 141.21 261.55" style="fill:#042220"/><path d="M26.23 276.57c59.62-253.8 397.39-263.95 547.6-16.47 53.29 87.8 64.29 194.71 28.7 279.01 48.74-65.62 78.38-147.14 78.54-232.06.22-117.39-55.96-213.12-141.21-261.55-22.41-11.89-25.29-13.41-44.84-21.42l-14.73-5.4c-5.18-1.64-12.07-3.9-17.3-5.41l-11.92-3.16c-3.76-.86-8.76-2.05-12.53-2.84l-9.95-1.91c-3-.49-7-1.18-10.01-1.62l-8.69-1.17c-2.58-.28-6.03-.69-8.61-.94l-7.94-.68c-2.36-.15-5.51-.37-7.87-.49l-7.58-.31c-2.27-.04-5.3-.12-7.57-.14l-7.57.02c-2.3.06-5.36.11-7.65.19l-7.93.38c-2.45.17-5.71.37-8.15.58l-8.76.83c-2.76.33-6.44.74-9.2 1.11l-11.44 1.75c-33.18 6.27-49.13 11.4-74.47 21.25l-18.07 8.04c-23.39 12.05-24.79 12.78-38.32 21.41l-19.47 13.5c-8.36 6.68-19.48 15.63-27.49 22.73l-18.11 17.84c-6.38 7.27-15 16.88-21.04 24.44l-15.41 21.26c-4.84 7.87-11.49 18.25-15.98 26.32l-11.98 24c-3.42 8.42-8.21 19.57-11.26 28.14L30 259.98c-1.97 8.91-4.88 20.75-6.46 29.74-.43 2.69-.99 6.27-1.42 8.96 1.23-6.64 2.72-15.52 4.11-22.13" style="fill:#04201f"/><path d="M681.07 307.06c-.16 84.92-29.8 166.43-78.54 232.06-20.55 60.29-95.06 161.65-243.98 159.16 4.19.07 9.78.1 13.98.09 2.3-.06 5.36-.11 7.65-.19l7.93-.38c2.45-.17 5.71-.37 8.15-.58l8.76-.83c2.76-.33 6.44-.74 9.2-1.11l11.36-1.73c25.91-4.88 42.26-8.88 70.65-19.69l17.84-7.67c22.95-11.43 24.82-12.37 39.28-21.34l19.49-13.2c8.51-6.65 19.83-15.57 27.99-22.64l18.24-17.6c6.48-7.23 15.23-16.8 21.38-24.32l15.6-21.07c4.93-7.83 11.69-18.16 16.27-26.2l12.21-23.85c3.5-8.39 8.41-19.49 11.55-28.03l8.28-26.06c2.07-8.89 5.09-20.68 6.77-29.65l3.92-27.75c.62-10.4 1.66-24.26 1.77-34.68l-1.1-28.51c-1.09-9.12-2.26-21.32-3.75-30.38l-5.69-27.14c-2.54-8.65-5.67-20.27-8.59-28.8l-9.87-25.27c-3.91-8.09-8.9-18.99-13.15-26.91l-13.58-22.87c-5.24-7.46-12.04-17.55-17.6-24.77l-16.66-19.85c-6.63-6.81-15.36-16.01-22.29-22.52l-18.4-15.83c-24.37-18.21-26.91-20.12-46.28-31.42 85.25 48.44 141.43 144.16 141.21 261.55" style="fill:#04201f"/><path d="M35.59 241.05C138.05-29.99 486.51 32.27 604.6 278.38c24.18 50.39 48.04 129.51 24.39 220.26 32.8-57.35 51.95-123.37 52.08-191.58.22-117.39-55.96-213.12-141.21-261.55-22.41-11.89-25.29-13.41-44.84-21.42l-14.73-5.4c-5.18-1.64-12.07-3.9-17.3-5.41l-11.92-3.16c-3.76-.86-8.76-2.05-12.53-2.84l-9.95-1.91c-3-.49-7-1.18-10.01-1.62l-8.69-1.17c-2.58-.28-6.03-.69-8.61-.94l-7.94-.68c-2.36-.15-5.51-.37-7.87-.49l-7.58-.31c-2.27-.04-5.3-.12-7.57-.14l-7.57.02c-2.3.06-5.36.11-7.65.19l-7.93.38c-2.45.17-5.71.37-8.15.58l-8.76.83c-2.76.33-6.44.74-9.2 1.11l-11.44 1.75c-33.18 6.27-49.13 11.4-74.47 21.25l-18.07 8.04c-23.39 12.05-24.79 12.78-38.32 21.41l-19.47 13.5c-8.36 6.68-19.48 15.63-27.49 22.73l-18.11 17.84c-6.38 7.27-15 16.88-21.04 24.44l-15.41 21.26c-4.84 7.87-11.49 18.25-15.98 26.32l-11.98 24c-3.42 8.42-8.21 19.57-11.26 28.14-1.08 3.27-2.53 7.62-3.61 10.89.35-1.1.8-2.57 1.18-3.66" style="fill:#041f1e"/><path d="M681.07 307.06c-.13 68.22-19.28 134.23-52.08 191.58C606.1 603.57 524.56 678.81 416.2 695l11.46-1.82c17.41-3.39 37.14-7.23 68.55-19.33l17.84-7.67c22.95-11.43 24.82-12.37 39.28-21.34l19.49-13.2c8.51-6.65 19.83-15.57 27.99-22.64l18.24-17.6c6.48-7.23 15.23-16.8 21.38-24.32l15.6-21.07c4.93-7.83 11.69-18.16 16.27-26.2l12.21-23.85c3.5-8.39 8.41-19.49 11.55-28.03l8.28-26.06c2.07-8.89 5.09-20.68 6.77-29.65l3.92-27.75c.62-10.4 1.66-24.26 1.77-34.68l-1.1-28.51c-1.09-9.12-2.26-21.32-3.75-30.38l-5.69-27.14c-2.54-8.65-5.67-20.27-8.59-28.8l-9.87-25.27c-3.91-8.09-8.9-18.99-13.15-26.91l-13.58-22.87c-5.24-7.46-12.04-17.55-17.6-24.77l-16.66-19.85c-6.63-6.81-15.36-16.01-22.29-22.52l-18.4-15.83c-24.37-18.21-26.91-20.12-46.28-31.42 85.25 48.44 141.43 144.16 141.21 261.55" style="fill:#041f1e"/><path d="M74.69 159.97C239.94-76.21 603.5 86.41 650.39 350.8c6.54 36.85 8.74 49.26 3.59 95.83 17.32-43.88 26.99-91.17 27.08-139.57.22-117.39-55.96-213.12-141.21-261.55-22.41-11.89-25.29-13.41-44.84-21.42l-14.73-5.4c-5.18-1.64-12.07-3.9-17.3-5.41l-11.92-3.16c-3.76-.86-8.76-2.05-12.53-2.84l-9.95-1.91c-3-.49-7-1.18-10.01-1.62l-8.69-1.17c-2.58-.28-6.03-.69-8.61-.94l-7.94-.68c-2.36-.15-5.51-.37-7.87-.49l-7.58-.31c-2.27-.04-5.3-.12-7.57-.14l-7.57.02c-2.3.06-5.36.11-7.65.19l-7.93.38c-2.45.17-5.71.37-8.15.58l-8.76.83c-2.76.33-6.44.74-9.2 1.11l-11.44 1.75c-33.18 6.27-49.13 11.4-74.47 21.25l-18.07 8.04c-23.39 12.05-24.79 12.78-38.32 21.41l-19.47 13.5c-8.36 6.68-19.48 15.63-27.49 22.73l-18.11 17.84c-6.38 7.27-15 16.88-21.04 24.44l-15.41 21.26c-4.84 7.87-11.49 18.25-15.98 26.32l9.55-15.91c1.16-1.74 2.67-4.09 3.87-5.81" style="fill:#041e1d"/><path d="M681.07 307.06c-.09 48.4-9.76 95.7-27.08 139.57-2.12 107.47-75.51 202.3-182.64 235.96l12.74-4.21 12.13-4.54 17.84-7.67c22.95-11.43 24.82-12.37 39.28-21.34l19.49-13.2c8.51-6.65 19.83-15.57 27.99-22.64l18.24-17.6c6.48-7.23 15.23-16.8 21.38-24.32l15.6-21.07c4.93-7.83 11.69-18.16 16.27-26.2l12.21-23.85c3.5-8.39 8.41-19.49 11.55-28.03l8.28-26.06c2.07-8.89 5.09-20.68 6.77-29.65l3.92-27.75c.62-10.4 1.66-24.26 1.77-34.68l-1.1-28.51c-1.09-9.12-2.26-21.32-3.75-30.38l-5.69-27.14c-2.54-8.65-5.67-20.27-8.59-28.8l-9.87-25.27c-3.91-8.09-8.9-18.99-13.15-26.91l-13.58-22.87c-5.24-7.46-12.04-17.55-17.6-24.77l-16.66-19.85c-6.63-6.81-15.36-16.01-22.29-22.52l-18.4-15.83c-24.37-18.21-26.91-20.12-46.28-31.42 85.25 48.44 141.43 144.16 141.21 261.55" style="fill:#041e1d"/><path d="M271.15 676.65c218.67 43.05 351.24-191.02 218.22-385.32C352.19 90.94 65.29 123.55 31.18 343.41 8.65 488.65 123.02 647.48 271.15 676.64" style="fill:#052725"/><path d="M239.32 664.78c227.69 70.37 358.45-156.52 255.59-340.02-125.14-223.24-404.53-195.1-453.59-6.05-40.95 157.76 69.32 306.3 198 346.07" style="fill:#052927"/><path d="M195.58 642.89c196.26 101.6 365.4-70.73 312.73-251.28-70.03-240.1-356.59-276.36-446.56-106.79-64.03 120.69-1.49 288.01 133.83 358.07" style="fill:#052a28"/><path d="M181.94 631.55C365.6 735.38 550.33 593.16 495.69 390c-51.61-191.85-341.54-284.35-434.16-88.16C3.21 425.38 76.71 572.06 181.94 631.55" style="fill:#052b29"/><path d="M161.26 613.59c167.72 114.02 355.57 4.42 329.51-192.24-26.56-200.46-291.4-294.73-404.82-144.09C4.68 385.2 58.68 543.85 161.26 613.59" style="fill:#052c2a"/><path d="M158.63 606.47c172.79 123.85 350.65-10.77 321.36-186.36-34.83-208.8-305.86-264.94-394.31-126.63-70.61 110.41-17.11 248.43 72.95 312.98" style="fill:#052d2b"/><path d="M161.41 602.57c178.18 125.85 336.82-30.49 307.64-183.6-39.42-206.82-294.76-250.8-382.97-108.41-56.34 90.96-23.26 219.22 75.33 292.01" style="fill:#062e2c"/><path d="M140.8 578.45c155.04 140.48 323.66 19.64 320.45-129.08-4.42-204.15-245.6-261.17-345.16-159.89-82.91 84.34-54.15 217.51 24.72 288.97" style="fill:#06302d"/><path d="M145.38 574.49C292.16 707.2 471.26 585.1 450.76 417.37 430.87 254.68 199.49 187.29 106.9 317.21c-62.63 87.88-26.91 198.15 38.49 257.28" style="fill:#06312e"/><path d="M151.24 570.37c149.27 130.65 311.77-11.26 292.14-153.56-21.1-152.94-234.18-215.32-325.71-95.36-69.27 90.79-22.07 200.22 33.57 248.92" style="fill:#06322f"/><path d="M136.01 543.36c121 141.49 292.63 38.58 300.93-95.98 9.58-155.32-190.43-230.47-287.82-141.33-95.86 87.74-50.49 193.6-13.11 237.31" style="fill:#063330"/><path d="M144.08 539.17c113.02 128.49 276.31 31.57 285.48-92.28 9.8-132.34-158.84-235.57-275.7-130.86-79.48 71.22-53.57 173.36-9.79 223.14" style="fill:#063432"/><path d="M153.82 534.86c104.54 116.44 258.46 25.37 268.31-88.4 10.27-118.54-144.35-231.72-267.74-116.91-47.65 44.34-59.61 139.56-.57 205.31" style="fill:#063533"/><path d="M165.09 530.6c94.17 96.33 238.03 29.64 249.74-84.51 13.33-129.97-140.22-206.84-241.61-120.97-68.39 57.92-59.42 153.01-8.12 205.48" style="fill:#073734"/><path d="M157.03 501.24c49.7 74.74 130.75 62.33 131.53 62.15 27.12-5.94 109.64-24.03 121.13-117.52 13.77-112.09-117.32-190.09-215.79-128.4-58.77 36.81-76.34 124.4-36.87 183.77" style="fill:#073835"/><path d="M168.73 497.73c67.15 97.55 219.21 63.97 235.82-52.07 7.55-52.74-19.34-100.77-73.76-131.78-14.76-8.41-68.22-32.39-136.18 12.16-40.57 26.6-73.13 103.04-25.88 171.68" style="fill:#073936"/><path d="M178.43 495.13c67.6 85.6 203.89 54.98 220.96-49.65 3.82-23.4 4.79-82.49-68.49-125.72-22.07-13.02-68.12-29.09-128.6 9.46-52.95 33.76-64.55 114.38-23.86 165.9" style="fill:#073a37"/><path d="M188.64 492.65c69.79 83.08 189.29 41.64 205.57-47.32 16.97-92.71-95.4-167.86-176.81-118.24-84.7 51.62-50.73 139.42-28.76 165.57" style="fill:#25524f"/><path d="M189.83 477.82c18.72 28.79 54.61 60.88 119.32 50.28 31.51-5.16 71.12-39.71 79.87-82.91 8.21-40.52-9.67-78.01-53.14-111.43-23.35-17.95-79.19-22.62-103.02-8.62-48.11 28.26-50.39 36.34-61.34 75.2-1.62 5.74-8.35 36.48 18.31 77.47" style="fill:#315b59"/><path d="M205.41 489.08c29.93 30.73 85.97 40.29 102.6 33.36 41.8-17.41 42.6-17.75 63.79-47.51 9.03-12.68 16.49-37.61 13.28-60.71-4.72-33.97-27.59-57.49-34.48-63.89q-18-16.7-65.99-29.36c-30.36-8.01-82.74 28.66-91.61 42.59-42.91 67.42 10.13 123.16 12.41 125.5" style="fill:#3b6361"/><path d="M193.02 460.4c12.35 23.53 43.57 62.13 113.87 56.3 20.2-1.67 63.91-34.33 71.71-71.69 11.82-56.55-32.45-93.06-34.34-94.59-23.17-18.72-57.99-24.77-59.46-25.02-13.55-2.29-32.61 1.87-45.23 7.32s-28.55 18.5-37.91 29.44c-3.3 3.86-17.81 35.5-17.91 35.76s-6.15 33.11 9.26 62.48" style="fill:#436967"/><path d="M198.9 459.26c7.66 13.54 38.01 57.3 106.9 51.66l33.27-14.36c17.07-16.62 28.35-27.59 34.49-51.59 10.3-40.28-11.65-75.18-35.63-94.41-15.84-12.7-52.58-20.68-52.9-20.72-13.61-1.76-32.49 2.47-45.03 8.03-5.89 2.61-35.99 17.74-49.93 58.9-2.02 5.97-5.03 37.97 8.84 62.49" style="fill:#4a6f6d"/><path d="M204.9 458.15c.1.17 21.44 24.91 24.03 26.78 10.95 7.9 28.23 13.99 40.45 19.74 9.6 4.52 24.79 1.39 35.37.54s25.84-6.9 33.88-14.48c20.4-19.22 27.6-36.94 30.08-45.8 4.46-15.92 9.77-56.96-37.09-94.19-11.56-9.19-31.66-15.24-46.37-16.49-13.65-1.16-32.35 3.07-44.82 8.74-28.68 13.04-66.16 64.09-35.54 115.15" style="fill:#507472"/><path d="M211.03 457.07c10.93 18.09 37.53 47.77 92.87 43.38 11.27-.9 26.01-7.9 34.31-15.58 15.94-14.76 25.6-39.71 25.67-39.93 9.4-30.93-3.2-65.61-32.08-88.35-4.39-3.46-40.31-17.35-46.3-17.91-13.61-1.27-32.18 3.71-44.59 9.45-.75.35-68.63 44.85-29.88 108.95" style="fill:#567976"/><path d="M217.27 456.04c12.37 20.33 39.6 32.9 48.55 37.03 10.16 4.69 26.07 3.45 37.23 2.58 11.53-.9 26.16-8.94 34.73-16.7 7.18-6.51 21.16-33.79 21.23-34 10-30.6-5.72-65.8-26.69-82.15-11.97-9.33-31.49-18.13-46.58-19.72-13.57-1.43-32 4.34-44.35 10.15-.47.22-59.95 43.97-24.13 102.8" style="fill:#5b7d7b"/><path d="M223.08 455.13c.14.2 18.4 21.91 41.73 32.44 10.27 4.63 26.18 4.13 37.42 3.26.16-.01 31.57-15.1 35.12-18.23 7.27-6.41 13.67-18.42 16.81-27.59 13.33-38.92-14.42-70.94-22-76.77-6.46-4.98-40.1-20.09-46.14-20.73-2.47-.26-42 9.72-44.06 11.13-10.8 7.36-24.56 21.31-27.07 34.13-3.47 17.74-7.79 39.82 8.19 62.38" style="fill:#60817f"/><path d="M228.87 454.26c.14.19 30.39 25.7 34.49 27.5 10.53 4.6 26.61 5.07 38.06 4.19 3.91-.3 28.43-14.43 35.46-20.44 5.46-4.66 10.12-13.66 12.42-20.46 14.52-42.98-16.62-70.8-16.95-71.04-.27-.2-43.41-21.85-46.06-22.13-1.62-.17-42.04 11.64-43.68 12.77-22.62 15.47-37.93 57.54-13.75 89.61" style="fill:#658583"/><path d="M234.75 453.43c6.36 8.26 17.42 17.8 27.03 21.83 10.87 4.56 27.1 6.68 38.85 5.79 4.06-.31 35.54-22.44 35.81-22.66 3.59-2.94 6.51-8.86 8.01-13.25 11.09-32.35-7.45-62.09-11.88-65.35-12.4-9.13-30.61-21.36-45.93-22.93-13.57-1.39-32.13 6.01-43.32 13.81-18.74 13.06-31.71 52.73-8.56 82.76" style="fill:#6a8887"/><path d="M240.72 452.64c4.63 5.95 12.47 13.1 19.48 15.87 11.25 4.45 27.8 10.01 39.63 7.49 12.87-2.74 25.76-16.74 36.17-24.79 1.65-1.28 2.97-3.96 3.59-5.96 11.77-38.1-3.79-56.22-11.02-62.25-10.74-8.94-27.64-19.96-41.57-21s-30.29 9.67-42.96 14.68c-15.45 6.11-16.78 46-16.73 46.38 1.33 9.65 7.42 21.89 13.4 29.58" style="fill:#6e8c8a"/><path d="M246.72 451.88c2.87 3.65 7.57 8.26 11.95 9.81 11.66 4.13 28.2 11.24 40.31 8.7 12.6-2.64 24.88-16.89 34.89-24.99 1.11-.9 1.21-3.1 1.54-4.49 1.86-7.83 5.8-18.8 3.69-26.56-2.88-10.59-10.9-24.06-19.38-31.03-8.38-6.89-21.5-15.56-32.33-16.19-13.57-.78-30.25 9.79-42.57 15.53-2.4 1.12-4.4 4.49-5.55 6.88-15.14 31.55 1.79 55.14 7.45 62.34" style="fill:#728f8e"/><path d="M252.75 451.16c1.07 1.35 2.77 3.17 4.42 3.66 12.11 3.63 28.55 12.35 40.96 9.93 9.56-1.86 20.42-11.28 26.31-19.03 5.45-7.17 8.33-19.5 9.72-28.39.2-1.28.53-3.24-.21-4.3-6.38-9.21-14.37-22.31-23.1-29.33-6.02-4.85-15.37-11.06-23.09-11.46-13.55-.69-33.34 6.07-42.16 16.38-6.59 7.71-8.58 22.92-7.43 33s8.42 21.8 14.56 29.53" style="fill:#769291"/><path d="M254.79 443.24c1.95 2.49 5.05 5.73 8.01 6.83 10.03 3.74 24 10.96 34.53 9.02 6.48-1.19 14.1-7.45 17.73-12.95 5.52-8.38 13.03-21.5 11.51-31.42-1.78-11.62-16.1-22.36-24.52-30.56-3.32-3.23-9.22-6.59-13.85-6.81-11.84-.57-67.49 22.32-33.4 65.89" style="fill:#7a9694"/><path d="M251.3 424.72c6.63 8.64 18.16 18.02 27.35 23.85 4.69 2.97 12.41 5.84 17.87 4.81 3.35-.63 7.47-3.77 9.14-6.75 4.99-8.87 13.87-21.51 12.4-31.58-.05-.31-22.91-32.28-29.45-32.61-4.67-.23-8.04-.4-38.7 34.33-1.6 1.81-.1 6.03 1.38 7.95" style="fill:#7e9997"/><path d="M294.65 447.33c.3.16.76.37 1.1.3 1.6-.3 13.88-31.9 13.84-32.19-1.31-9.39-10.72-23.85-20.19-24.31-11.83-.58-28.56 16.07-27.94 27.9.68 13.07 21.66 22.11 33.19 28.3" style="fill:#829b9a"/><path d="M293.9 433.12c5.45-1.28 8.07-11.68 7.23-17.22-.74-4.87-5.63-12.33-10.55-12.56-6.12-.29-14.75 8.22-14.55 14.35.23 7.08 10.97 17.05 17.86 15.43" style="fill:#859e9d"/><path d="M292.11 417.81c.43-.1.64-.93.57-1.37-.06-.38-.45-.96-.83-.98-.48-.02-1.16.64-1.15 1.12.01.56.86 1.36 1.4 1.23" style="fill:#89a1a0"/></g></g></g><g style="isolation:isolate"><g style="clip-path:url(#b)"><g style="isolation:isolate"><path d="M195.42 652.91c-11.9-6.91-25.39-14.73-49.76-34.25-11.89-9.52-26.2-24.04-36.75-35.02-6.94-7.22-15.53-17.54-21.24-25.76q-19.91-28.67-30.55-48.82c-16.3-30.87-27-67.54-29.37-79.53-3.43-17.29-7.29-40.55-8.59-58.13-1.13-15.34-1.36-36 .51-51.27 2.12-17.36 5.34-40.54 9.64-57.49 4.22-16.61 12.39-38.05 18.65-54.01 6.24-15.9 26.75-52.84 44.68-74.53 9.78-11.83 23.23-27.33 34.4-37.85 2.28-2.15 22.84-21.36 42.25-34.35 16.5-11.04 50.83-34.01 104.41-48.95C318.42.49 364.2-3 409.77 2.57c66.67 8.15 111.11 32.53 130.08 42.93C490.6 17.52 431.64 5.32 368.26 13.84c63.39-8.52 122.34 3.67 171.59 31.66 12.14 7.45 28.41 17.38 39.6 26.2 10.17 8.01 27.18 21.43 43.29 39.14 11.01 12.11 21.41 23.55 36.14 45.7 12.99 19.55 17.3 28.56 27.7 50.32 7.44 15.58 14.72 37.6 19.05 54.31s7.65 40.19 9.88 57.57c1.09 8.48 1.63 19.92 1.3 28.47-.68 17.73-2.07 41.41-4.64 58.97-4.72 32.3-18.47 70.88-26.28 86.79-7.46 15.21-18.01 35.28-27.39 49.39-13.38 20.12-26.31 35.11-34.8 44.13-12.41 13.19-23.64 24.14-41.28 37.92-18.69 14.6-29.2 20.69-46.62 30.77-13.46 7.79-35.79 17.23-39.57 18.67-10.61 4.04-26.63 10.14-50.57 15.66-120.88 27.87-215.26-16.31-250.23-36.61" style="fill:#052624"/><path d="M539.85 45.51c23.06 14.16 38.3 23.51 64.68 47.26l18.2 18.08c6.28 7.23 14.79 16.78 20.74 24.29l15.4 21.41c4.78 7.84 11.35 18.18 15.78 26.23l11.91 24.1c3.37 8.41 8.11 19.53 11.11 28.08l7.93 26.24c1.94 8.9 4.8 20.73 6.34 29.71l3.54 27.87c.43 9.31 1.29 21.71 1.3 31.03l-1.2 28.51c-1.26 10.19-2.73 23.81-4.49 33.93l-6.05 27c-2.67 8.62-5.96 20.21-9 28.71l-10.19 25.06c-4.03 8.07-9.19 18.94-13.57 26.82l-13.82 22.56c-5.37 7.45-12.37 17.51-18.06 24.71l-16.74 19.42c-6.8 6.82-15.78 16.01-22.88 22.51l-18.4 15.41c-8.62 6.27-20.15 14.6-29.07 20.43l-17.55 10.34c-23.02 11.83-24.4 12.54-39.57 18.67l-12.67 4.73c-17.65 5.8-35.91 11.8-69.34 16.7l-9.08 1.1c-2.66.25-6.21.63-8.87.85l-8.12.57c-2.39.11-5.57.29-7.96.38l-7.65.19c-2.27 0-5.3.04-7.57.02l-7.56-.14c-2.28-.09-5.31-.19-7.59-.31l-7.83-.49c-2.39-.2-5.59-.45-7.98-.68l-8.49-.93c-2.64-.35-6.17-.79-8.81-1.18l-9.66-1.56c-3.09-.59-7.21-1.33-10.29-1.97l-11.55-2.6c-3.87-1.01-9.04-2.31-12.89-3.39l-14.36-4.42c-5.31-1.89-12.41-4.35-17.66-6.39l-17.81-7.58c-8.17-4.03-19.05-9.46-27.03-13.84l-19.88-12.19c-9.09-6.44-21.14-15.14-29.88-22.06l-18.92-16.77c-6.86-7.03-16.1-16.32-22.63-23.65l-16.44-20.37c-5.27-7.64-12.47-17.71-17.4-25.57l-13.15-23.25c-3.85-8.22-9.21-19.09-12.69-27.47l-9.33-25.57c-2.43-8.75-5.93-20.34-7.98-29.19l-5.07-27.37c-1.57-15.2-3.12-35.54-3.58-50.82l1.2-28.51c1.13-9.12 2.34-21.32 3.86-30.38l5.78-27.1c2.58-8.65 5.76-20.28 8.71-28.81l9.94-25.19c3.95-8.1 9-19.02 13.29-26.95l13.61-22.74c5.29-7.49 12.17-17.6 17.78-24.85l16.59-19.64c6.7-6.85 15.55-16.1 22.56-22.64l18.36-15.69c8.48-6.3 19.82-14.68 28.61-20.54l17.71-10.68c23.48-12.35 24.4-12.83 38.68-18.77l12.81-4.95c22.99-7.83 39.38-12.95 73.11-18.05l9.08-1.1c2.66-.25 6.21-.63 8.87-.85l8.12-.57c2.39-.11 5.57-.29 7.96-.38l7.65-.19c2.27 0 5.3-.04 7.57-.02l7.56.14c2.28.09 5.31.19 7.59.31l7.83.49c2.39.2 5.59.45 7.98.68l8.49.93c2.64.35 6.17.79 8.81 1.18l9.66 1.56c3.09.59 7.21 1.33 10.29 1.97l11.55 2.6c3.87 1.01 9.04 2.31 12.89 3.39l14.36 4.42c5.31 1.89 12.41 4.35 17.66 6.39l17.81 7.58c8.17 4.03 19.05 9.46 27.03 13.84-49.25-27.98-108.21-40.18-171.59-31.66-303.91 90.02-196.48 417.8-10.34 509.66 211.8 104.52 407.5-62.95 337.75-289.03-25.63-83.05-102.23-222.15-327.4-220.63 63.39-8.52 122.34 3.67 171.59 31.66" style="fill:#052624"/><path d="M539.85 45.51c23.06 14.16 38.3 23.51 64.68 47.26l18.2 18.08c6.28 7.23 14.79 16.78 20.74 24.29l15.4 21.41c4.78 7.84 11.35 18.18 15.78 26.23l11.91 24.1c3.37 8.41 8.11 19.53 11.11 28.08l7.93 26.24c1.94 8.9 4.8 20.73 6.34 29.71l3.54 27.87c.43 9.31 1.29 21.71 1.3 31.03l-1.2 28.51c-1.26 10.19-2.73 23.81-4.49 33.93l-6.05 27c-2.67 8.62-5.96 20.21-9 28.71l-10.19 25.06c-4.03 8.07-9.19 18.94-13.57 26.82l-13.82 22.56c-5.37 7.45-12.37 17.51-18.06 24.71l-16.74 19.42c-6.8 6.82-15.78 16.01-22.88 22.51l-18.4 15.41c-8.62 6.27-20.15 14.6-29.07 20.43l-17.55 10.34c-23.02 11.83-24.4 12.54-39.57 18.67l-12.67 4.73c-17.65 5.8-35.91 11.8-69.34 16.7l-9.08 1.1c-2.66.25-6.21.63-8.87.85l-8.12.57c-2.39.11-5.57.29-7.96.38l-7.65.19c-2.27 0-5.3.04-7.57.02l-7.56-.14c-2.28-.09-5.31-.19-7.59-.31l-7.83-.49c-2.39-.2-5.59-.45-7.98-.68l-8.49-.93c-2.64-.35-6.17-.79-8.81-1.18l-9.66-1.56c-3.09-.59-7.21-1.33-10.29-1.97l-11.55-2.6c-3.87-1.01-9.04-2.31-12.89-3.39l-14.36-4.42c-5.31-1.89-12.41-4.35-17.66-6.39l-17.81-7.58c-8.17-4.03-19.05-9.46-27.03-13.84l-19.88-12.19c-9.09-6.44-21.14-15.14-29.88-22.06l-18.92-16.77c-6.86-7.03-16.1-16.32-22.63-23.65l-16.44-20.37c-5.27-7.64-12.47-17.71-17.4-25.57l-13.15-23.25c-3.85-8.22-9.21-19.09-12.69-27.47l-9.33-25.57c-2.43-8.75-5.93-20.34-7.98-29.19l-5.07-27.37c-1.57-15.2-3.12-35.54-3.58-50.82l1.2-28.51c1.13-9.12 2.34-21.32 3.86-30.38l5.78-27.1c2.58-8.65 5.76-20.28 8.71-28.81l9.94-25.19c3.95-8.1 9-19.02 13.29-26.95l13.61-22.74c5.29-7.49 12.17-17.6 17.78-24.85l16.59-19.64c6.7-6.85 15.55-16.1 22.56-22.64l18.36-15.69c8.48-6.3 19.82-14.68 28.61-20.54l17.71-10.68c23.48-12.35 24.4-12.83 38.68-18.77l12.81-4.95c22.99-7.83 39.38-12.95 73.11-18.05l9.08-1.1c2.66-.25 6.21-.63 8.87-.85l8.12-.57c2.39-.11 5.57-.29 7.96-.38l7.65-.19c2.27 0 5.3-.04 7.57-.02l7.56.14c2.28.09 5.31.19 7.59.31l7.83.49c2.39.2 5.59.45 7.98.68l8.49.93c2.64.35 6.17.79 8.81 1.18l9.66 1.56c3.09.59 7.21 1.33 10.29 1.97l11.55 2.6c3.87 1.01 9.04 2.31 12.89 3.39l14.36 4.42c5.31 1.89 12.41 4.35 17.66 6.39l17.81 7.58c8.17 4.03 19.05 9.46 27.03 13.84a260.3 260.3 0 0 0-54.49-23.2C227.62-50.51 91.26 199.04 211 402.79c133.73 227.55 444.31 216.79 496-17.18 32.82-148.57-66.6-311.55-221.63-363.3a260.3 260.3 0 0 1 54.49 23.2" style="fill:#042523"/><path d="M697.68 234.95c3.81 11.4 9.58 28.64 14.27 55.94l3.54 27.87c.43 9.31 1.29 21.71 1.3 31.03l-1.2 28.51c-1.26 10.19-2.73 23.81-4.49 33.93l-6.05 27c-2.67 8.62-5.96 20.21-9 28.71L685.86 493c-4.03 8.07-9.19 18.94-13.57 26.82l-13.82 22.56c-5.37 7.45-12.37 17.51-18.06 24.71l-16.74 19.42c-6.8 6.82-15.78 16.01-22.88 22.51l-18.4 15.41c-8.62 6.27-20.15 14.6-29.07 20.43l-17.55 10.34c-23.02 11.83-24.4 12.54-39.57 18.67l-12.67 4.73c-17.65 5.8-35.91 11.8-69.34 16.7l-9.08 1.1c-2.66.25-6.21.63-8.87.85l-8.12.57c-2.39.11-5.57.29-7.96.38l-7.65.19c-2.27 0-5.3.04-7.57.02l-7.56-.14c-2.28-.09-5.31-.19-7.59-.31l-7.83-.49c-2.39-.2-5.59-.45-7.98-.68l-8.49-.93c-2.64-.35-6.17-.79-8.81-1.18l-9.66-1.56c-3.09-.59-7.21-1.33-10.29-1.97l-11.55-2.6c-3.87-1.01-9.04-2.31-12.89-3.39l-14.36-4.42c-5.31-1.89-12.41-4.35-17.66-6.39l-17.81-7.58c-8.17-4.03-19.05-9.46-27.03-13.84l-19.88-12.19c-9.09-6.44-21.14-15.14-29.88-22.06l-18.92-16.77c-6.86-7.03-16.1-16.32-22.63-23.65l-16.44-20.37c-5.27-7.64-12.47-17.71-17.4-25.57l-13.15-23.25c-3.85-8.22-9.21-19.09-12.69-27.47l-9.33-25.57c-2.43-8.75-5.93-20.34-7.98-29.19l-5.07-27.37c-1.57-15.2-3.12-35.54-3.58-50.82l1.2-28.51c1.13-9.12 2.34-21.32 3.86-30.38l5.78-27.1c2.58-8.65 5.76-20.28 8.71-28.81l9.94-25.19c3.95-8.1 9-19.02 13.29-26.95l13.61-22.74c5.29-7.49 12.17-17.6 17.78-24.85l16.59-19.64c6.7-6.85 15.55-16.1 22.56-22.64l18.36-15.69c8.48-6.3 19.82-14.68 28.61-20.54l17.71-10.68c23.48-12.35 24.4-12.83 38.68-18.77l12.81-4.95c22.99-7.83 39.38-12.95 73.11-18.05l9.08-1.1c2.66-.25 6.21-.63 8.87-.85l8.12-.57c2.39-.11 5.57-.29 7.96-.38l7.65-.19c2.27 0 5.3-.04 7.57-.02l7.56.14c2.28.09 5.31.19 7.59.31l7.83.49c2.39.2 5.59.45 7.98.68l8.49.93c2.64.35 6.17.79 8.81 1.18l9.66 1.56c3.09.59 7.21 1.33 10.29 1.97l11.55 2.6c3.87 1.01 9.04 2.31 12.89 3.39l14.36 4.42c5.31 1.89 12.41 4.35 17.66 6.39l17.81 7.58c8.17 4.03 19.05 9.46 27.03 13.84-2.01-1.14-4.05-2.26-6.09-3.35-6.26-3.1-14.62-7.23-20.88-10.33C264.58-76.11 87.84 148.1 176.43 364.17c107.33 261.78 430.15 276.4 515.92 79.73 39.75-91.15 17.64-177.59.92-221 1.33 3.61 3.2 8.39 4.42 12.04" style="fill:#042422"/><path d="m539.85 45.51 17.46 10.61-20.97-12.56-2.58-1.41c2.05 1.09 4.08 2.21 6.09 3.35" style="fill:#042422"/><path d="M711.96 290.89c2.47 16.61 4.8 32.31 4.84 58.9l-1.2 28.51c-1.26 10.19-2.73 23.81-4.49 33.93l-6.05 27c-2.67 8.62-5.96 20.21-9 28.71L685.87 493c-4.03 8.07-9.19 18.94-13.57 26.82l-13.82 22.56c-5.37 7.45-12.37 17.51-18.06 24.71l-16.74 19.42c-6.8 6.82-15.78 16.01-22.88 22.51l-18.4 15.41c-8.62 6.27-20.15 14.6-29.07 20.43l-17.55 10.34c-23.02 11.83-24.4 12.54-39.57 18.67l-12.67 4.73c-17.65 5.8-35.91 11.8-69.34 16.7l-9.08 1.1c-2.66.25-6.21.63-8.87.85l-8.12.57c-2.39.11-5.57.29-7.96.38l-7.65.19c-2.27 0-5.3.04-7.57.02l-7.56-.14c-2.28-.09-5.31-.19-7.59-.31l-7.83-.49c-2.39-.2-5.59-.45-7.98-.68l-8.49-.93c-2.64-.35-6.17-.79-8.81-1.18l-9.66-1.56c-3.09-.59-7.21-1.33-10.29-1.97l-11.55-2.6c-3.87-1.01-9.04-2.31-12.89-3.39l-14.36-4.42c-5.31-1.89-12.41-4.35-17.66-6.39l-17.81-7.58c-8.17-4.03-19.05-9.46-27.03-13.84l-19.88-12.19c-9.09-6.44-21.14-15.14-29.88-22.06l-18.92-16.77c-6.86-7.03-16.1-16.32-22.63-23.65l-16.44-20.37c-5.27-7.64-12.47-17.71-17.4-25.57l-13.15-23.25c-3.85-8.22-9.21-19.09-12.69-27.47l-9.33-25.57c-2.43-8.75-5.93-20.34-7.98-29.19l-5.07-27.37c-1.57-15.2-3.12-35.54-3.58-50.82l1.2-28.51c1.13-9.12 2.34-21.32 3.86-30.38l5.78-27.1c2.58-8.65 5.76-20.28 8.71-28.81l9.94-25.19c3.95-8.1 9-19.02 13.29-26.95l13.61-22.74c5.29-7.49 12.17-17.6 17.78-24.85l16.59-19.64c6.7-6.85 15.55-16.1 22.56-22.64l18.36-15.69c8.48-6.3 19.82-14.68 28.61-20.54l17.71-10.68c23.48-12.35 24.4-12.83 38.68-18.77l12.81-4.95c22.99-7.83 39.38-12.95 73.11-18.05l9.08-1.1c2.66-.25 6.21-.63 8.87-.85l8.12-.57c2.39-.11 5.57-.29 7.96-.38l7.65-.19c2.27 0 5.3-.04 7.57-.02l7.56.14c2.28.09 5.31.19 7.59.31l7.83.49c2.39.2 5.59.45 7.98.68l8.49.93c2.64.35 6.17.79 8.81 1.18l9.66 1.56c3.09.59 7.21 1.33 10.29 1.97l11.55 2.6c3.87 1.01 9.04 2.31 12.89 3.39l14.36 4.42 8.44 2.92-18.28-5.97C208.5-58.93 65.04 199.22 181.57 408.62c138.38 248.66 455.53 226.42 520.9 20.56 18.99-59.8 14.38-108.32 9.26-139.62.05.4.17.93.23 1.32" style="fill:#042321"/><path d="M716.8 349.78c-.36 18-.68 33.55-5.69 62.43l-6.05 27c-2.67 8.62-5.96 20.21-9 28.71l-10.19 25.06c-4.03 8.07-9.19 18.94-13.57 26.82l-13.82 22.56c-5.37 7.45-12.37 17.51-18.06 24.71l-16.74 19.42c-6.8 6.82-15.78 16.01-22.88 22.51l-18.4 15.41c-8.62 6.27-20.15 14.6-29.07 20.43l-17.55 10.34c-23.02 11.83-24.4 12.54-39.57 18.67l-12.67 4.73c-17.65 5.8-35.91 11.8-69.34 16.7l-9.08 1.1c-2.66.25-6.21.63-8.87.85l-8.12.57c-2.39.11-5.57.29-7.96.38l-7.65.19c-2.27 0-5.3.04-7.57.02l-7.56-.14c-2.28-.09-5.31-.19-7.59-.31l-7.83-.49c-2.39-.2-5.59-.45-7.98-.68l-8.49-.93c-2.64-.35-6.17-.79-8.81-1.18l-9.66-1.56c-3.09-.59-7.21-1.33-10.29-1.97l-11.55-2.6c-3.87-1.01-9.04-2.31-12.89-3.39l-14.36-4.42c-5.31-1.89-12.41-4.35-17.66-6.39l-17.81-7.58c-8.17-4.03-19.05-9.46-27.03-13.84l-19.88-12.19c-9.09-6.44-21.14-15.14-29.88-22.06l-18.92-16.77c-6.86-7.03-16.1-16.32-22.63-23.65l-16.44-20.37c-5.27-7.64-12.47-17.71-17.4-25.57l-13.15-23.25c-3.85-8.22-9.21-19.09-12.69-27.47l-9.33-25.57c-2.43-8.75-5.93-20.34-7.98-29.19l-5.07-27.37c-1.57-15.2-3.12-35.54-3.58-50.82l1.2-28.51c1.13-9.12 2.34-21.32 3.86-30.38l5.78-27.1c2.58-8.65 5.76-20.28 8.71-28.81l9.94-25.19c3.95-8.1 9-19.02 13.29-26.95l13.61-22.74c5.29-7.49 12.17-17.6 17.78-24.85l16.59-19.64c6.7-6.85 15.55-16.1 22.56-22.64l18.36-15.69c8.48-6.3 19.82-14.68 28.61-20.54l17.71-10.68c23.48-12.35 24.4-12.83 38.68-18.77l12.81-4.95c22.99-7.83 39.38-12.95 73.11-18.05l9.08-1.1c2.66-.25 6.21-.63 8.87-.85l8.12-.57c2.39-.11 5.57-.29 7.96-.38l7.65-.19c2.27 0 5.3-.04 7.57-.02l7.56.14c2.28.09 5.31.19 7.59.31l7.83.49c2.39.2 5.59.45 7.98.68l8.49.93c2.64.35 6.17.79 8.81 1.18l9.66 1.56 2.63.47-2.8-.5C152.73-37.65 44.14 266.27 199.36 465.67c166.89 214.4 484.31 167.71 514.6-75.7 2.85-22.94 2.84-33.92 2.84-42.74-.03.77.02 1.79 0 2.55" style="fill:#042220"/><path d="M711.11 412.21c-2.29 11.83-5.76 29.71-15.05 55.71l-10.19 25.06c-4.03 8.07-9.19 18.94-13.57 26.82l-13.82 22.56c-5.37 7.45-12.37 17.51-18.06 24.71l-16.74 19.42c-6.8 6.82-15.78 16.01-22.88 22.51l-18.4 15.41c-8.62 6.27-20.15 14.6-29.07 20.43l-17.55 10.34c-23.02 11.83-24.4 12.54-39.57 18.67l-12.67 4.73c-17.65 5.8-35.91 11.8-69.34 16.7l-9.08 1.1c-2.66.25-6.21.63-8.87.85l-8.12.57c-2.39.11-5.57.29-7.96.38l-7.65.19c-2.27 0-5.3.04-7.57.02l-7.56-.14c-2.28-.09-5.31-.19-7.59-.31l-7.83-.49c-2.39-.2-5.59-.45-7.98-.68l-8.49-.93c-2.64-.35-6.17-.79-8.81-1.18l-9.66-1.56c-3.09-.59-7.21-1.33-10.29-1.97l-11.55-2.6c-3.87-1.01-9.04-2.31-12.89-3.39l-14.36-4.42c-5.31-1.89-12.41-4.35-17.66-6.39l-17.81-7.58c-8.17-4.03-19.05-9.46-27.03-13.84l-19.88-12.19c-9.09-6.44-21.14-15.14-29.88-22.06l-18.92-16.77c-6.86-7.03-16.1-16.32-22.63-23.65l-16.44-20.37c-5.27-7.64-12.47-17.71-17.4-25.57l-13.15-23.25c-3.85-8.22-9.21-19.09-12.69-27.47l-9.33-25.57c-2.43-8.75-5.93-20.34-7.98-29.19l-5.07-27.37c-1.57-15.2-3.12-35.54-3.58-50.82l1.2-28.51c1.13-9.12 2.34-21.32 3.86-30.38l5.78-27.1c2.58-8.65 5.76-20.28 8.71-28.81l9.94-25.19c3.95-8.1 9-19.02 13.29-26.95l13.61-22.74c5.29-7.49 12.17-17.6 17.78-24.85l16.59-19.64c6.7-6.85 15.55-16.1 22.56-22.64l18.36-15.69c8.48-6.3 19.82-14.68 28.61-20.54l17.71-10.68c23.48-12.35 24.4-12.83 38.68-18.77l12.81-4.95c22.99-7.83 39.38-12.95 73.11-18.05l9.08-1.1c2.66-.25 6.21-.63 8.87-.85l8.12-.57c2.39-.11 5.57-.29 7.96-.38l7.65-.19c2.27 0 5.3-.04 7.57-.02 1.92.03 4.49.08 6.41.11l-5.81-.1C111.38 1.28 20.86 314.39 221.92 515.47c164.48 164.5 442.65 136.81 491.23-115.74-.61 3.74-1.32 8.75-2.04 12.48" style="fill:#04201f"/><path d="M696.06 467.92c-3.82 10.29-10.22 27.51-23.76 51.88l-13.82 22.56c-5.37 7.45-12.37 17.51-18.06 24.71l-16.74 19.42c-6.8 6.82-15.78 16.01-22.88 22.51l-18.4 15.41c-8.62 6.27-20.15 14.6-29.07 20.43l-17.55 10.34c-23.02 11.83-24.4 12.54-39.57 18.67l-12.67 4.73c-17.65 5.8-35.91 11.8-69.34 16.7l-9.08 1.1c-2.66.25-6.21.63-8.87.85l-8.12.57c-2.39.11-5.57.29-7.96.38l-7.65.19c-2.27 0-5.3.04-7.57.02l-7.56-.14c-2.28-.09-5.31-.19-7.59-.31l-7.83-.49c-2.39-.2-5.59-.45-7.98-.68l-8.49-.93c-2.64-.35-6.17-.79-8.81-1.18l-9.66-1.56c-3.09-.59-7.21-1.33-10.29-1.97l-11.55-2.6c-3.87-1.01-9.04-2.31-12.89-3.39l-14.36-4.42c-5.31-1.89-12.41-4.35-17.66-6.39l-17.81-7.58c-8.17-4.03-19.05-9.46-27.03-13.84l-19.88-12.19c-9.09-6.44-21.14-15.14-29.88-22.06l-18.92-16.77c-6.86-7.03-16.1-16.32-22.63-23.65l-16.44-20.37c-5.27-7.64-12.47-17.71-17.4-25.57l-13.15-23.25c-3.85-8.22-9.21-19.09-12.69-27.47l-9.33-25.57c-2.43-8.75-5.93-20.34-7.98-29.19l-5.07-27.37c-1.57-15.2-3.12-35.54-3.58-50.82l1.2-28.51c1.13-9.12 2.34-21.32 3.86-30.38l5.78-27.1c2.58-8.65 5.76-20.28 8.71-28.81l9.94-25.19c3.95-8.1 9-19.02 13.29-26.95l13.61-22.74c5.29-7.49 12.17-17.6 17.78-24.85l16.59-19.64c6.7-6.85 15.55-16.1 22.56-22.64l18.36-15.69c8.48-6.3 19.82-14.68 28.61-20.54l17.71-10.68c23.48-12.35 24.4-12.83 38.68-18.77l12.81-4.95c18.78-6.4 36.51-12.44 71.15-17.78l-5.41.81C47.03 50.51 14.37 399.55 260.75 570.08c172.38 119.31 382.14 63.86 440.1-116.33-1.44 4.25-3.22 9.97-4.79 14.18" style="fill:#041f1e"/><path d="M672.31 519.8c-7.11 12.24-15.16 26.12-31.88 47.28l-16.74 19.42c-6.8 6.82-15.78 16.01-22.88 22.51l-18.4 15.41c-8.62 6.27-20.15 14.6-29.07 20.43l-17.55 10.34c-23.02 11.83-24.4 12.54-39.57 18.67l-12.67 4.73c-17.65 5.8-35.91 11.8-69.34 16.7l-9.08 1.1c-2.66.25-6.21.63-8.87.85l-8.12.57c-2.39.11-5.57.29-7.96.38l-7.65.19c-2.27 0-5.3.04-7.57.02l-7.56-.14c-2.28-.09-5.31-.19-7.59-.31l-7.83-.49c-2.39-.2-5.59-.45-7.98-.68l-8.49-.93c-2.64-.35-6.17-.79-8.81-1.18l-9.66-1.56c-3.09-.59-7.21-1.33-10.29-1.97l-11.55-2.6c-3.87-1.01-9.04-2.31-12.89-3.39l-14.36-4.42c-5.31-1.89-12.41-4.35-17.66-6.39l-17.81-7.58c-8.17-4.03-19.05-9.46-27.03-13.84l-19.88-12.19c-9.09-6.44-21.14-15.14-29.88-22.06l-18.92-16.77c-6.86-7.03-16.1-16.32-22.63-23.65L87.7 557.88c-5.27-7.64-12.47-17.71-17.4-25.57l-13.15-23.25c-3.85-8.22-9.21-19.09-12.69-27.47l-9.33-25.57c-2.43-8.75-5.93-20.34-7.98-29.19l-5.07-27.37c-1.57-15.2-3.12-35.54-3.58-50.82l1.2-28.51c1.13-9.12 2.34-21.32 3.86-30.38l5.78-27.1c2.58-8.65 5.76-20.28 8.71-28.81l9.94-25.19c3.95-8.1 9-19.02 13.29-26.95l13.61-22.74c5.29-7.49 12.17-17.6 17.78-24.85l16.59-19.64c6.7-6.85 15.55-16.1 22.56-22.64l18.36-15.69c8.48-6.3 19.82-14.68 28.61-20.54l17.71-10.68c23.48-12.35 24.4-12.83 38.68-18.77l12.81-4.95c5.34-1.82 12.46-4.26 17.85-5.93l-.41.12C3.71 98.16 13.74 469.02 281.41 607.64c182.48 94.5 332.1 17.87 393.9-93.32-.9 1.64-2.07 3.85-3.01 5.47" style="fill:#041e1d"/><path d="M522.18 40.8c219.24 103.25 250.9 407.66 50.57 486.14-210.12 82.32-450.96-167.96-362.96-377.17C266.07 15.97 412.82-10.71 522.18 40.8" style="fill:#052725"/><path d="M552.09 59c211.17 128.52 200.83 425.27-16.27 466.94-229.06 43.98-422.87-240.08-288.01-422.13C324.9-.26 459.24 2.49 552.09 59" style="fill:#052927"/><path d="M579.25 80.19c190.22 146.36 137.38 398.58-41.52 433.67-198.97 39.03-409.07-208.13-281.07-404.2 57.02-87.34 200.25-120.02 322.59-29.47" style="fill:#052a28"/><path d="M603.46 104.23c172.69 165.61 78.31 401.76-107.76 401.69-218.35-.08-353.78-273.78-207.02-418.37 90.6-89.26 233.94-60.84 314.77 16.68" style="fill:#052b29"/><path d="M602.54 108.14c156.62 146.56 91.3 384.52-105.89 385.79-212.56 1.36-338.44-259.49-195.19-404.5 74.45-75.37 209.52-66.97 301.08 18.72" style="fill:#052c2a"/><path d="M622.44 135.01c128.01 157.02 37.84 363.23-150.76 344.75-219.02-21.45-286.6-289.39-145.63-397.63 96.22-73.88 228.76-30.07 296.39 52.88" style="fill:#052d2b"/><path d="M619.72 138.92c127.37 157.32 22.26 362.8-167.86 328.16C246.92 429.74 205.8 178.62 345.4 80.97c80.06-55.99 203.12-30 274.32 57.95" style="fill:#062e2c"/><path d="M634.61 168.59c100.22 165.58-26.98 317.76-182.59 288.25-206.98-39.25-223.37-278.18-105.06-363.61 109.9-79.35 237.67-7.22 287.65 75.36" style="fill:#06302d"/><path d="M629.94 172.57c93.21 156.65-30.02 301.32-177.84 273.86-192.58-35.78-221.15-251.8-88.45-351.42 70.37-52.82 202.02-30.45 266.29 77.56" style="fill:#06312e"/><path d="M624.22 176.66c83.86 144.23-32.74 281.05-172.11 261.44-174.64-24.57-208.51-239.03-88.95-328.15 99.85-74.43 217.75-7.8 261.07 66.71" style="fill:#06322f"/><path d="M631.35 209.21c56.62 150.75-97.95 263.32-226.46 207.35-152.38-66.37-128.46-265.96 3.05-318.98 82.49-33.26 188.98 19.95 223.41 111.63" style="fill:#063330"/><path d="M622.96 213.44c46.82 135.09-85.69 254.1-218.13 195.91-143.94-63.24-119.48-248.27 6.02-300.03C499 72.96 595.53 134.31 622.96 213.44" style="fill:#063432"/><path d="M613.31 217.68c44.66 134.03-96.62 234.83-208.55 185.46-135.88-59.93-110.03-236.9 9.63-283.06 86.89-33.52 174.57 24.53 198.92 97.6" style="fill:#063533"/><path d="M602.95 221.66c42.31 127.03-91.98 222.24-198.27 175.27-117.33-51.85-109.55-218.63 12.44-266.35 57.44-22.47 155.93 1.31 185.83 91.08" style="fill:#073734"/><path d="M598.8 256.35c6.58 94.85-59.45 125.43-81.15 135.48-75.41 34.92-131.21-12.93-149.54-28.66-86.67-74.33-38.92-212.93 78.6-228.15 81.49-10.56 147.51 55.35 152.09 121.33" style="fill:#073835"/><path d="M588.82 259.25c8.75 68.24-47.57 112.75-48.15 113.12-36.35 23.08-37.34 23.13-89.21 26.05-.27.01-41.72-9.5-53.48-18.02-131.43-95.2-46.34-210.65 23.45-231.87 68.19-20.74 156.16 23.11 167.39 110.73" style="fill:#073936"/><path d="M580.78 261.4c10.08 90.7-96.98 180.27-197.66 100.76-102.96-81.31-25-209.85 69.95-209.66 40.32.08 119.18 32.1 127.71 108.89" style="fill:#073a37"/><path d="M572.42 263.48c2.93 31.2-2.98 88.12-75.57 118.79-21.43 9.06-80.14 12.64-124.83-34.1-63.66-66.58-24.13-189.46 84.02-186.85 66.3 1.6 112.47 60.58 116.38 102.17" style="fill:#25524f"/><path d="M563.76 265.48c11.41 118.25-124.72 145.69-185.41 82.66-74.6-77.48-10.04-187.48 79.88-180.09 73.21 6.01 102.71 68.24 105.53 97.43" style="fill:#315b59"/><path d="M557.3 266.87c8.93 59.9-28.33 83.31-61.21 103.96-4.62 2.9-45.85 16.59-92.04-7.7-6.36-3.35-61.89-34.86-52.59-109.81 2.18-17.55 27.92-66.32 75.81-77.34 39.7-9.13 119.23 18.44 130.03 90.9" style="fill:#3b6361"/><path d="M551.52 300.49c-.05.21-13.72 30.87-17.91 35.76-9.37 10.94-26.21 21.05-37.91 29.44-11.17 8.01-31.53 6.18-45.23 7.32-4.25.35-59.17-8.1-85.03-57.02-32.19-60.9 16.71-146.06 96.84-134.82 55.64 7.8 101.52 69.14 89.24 119.32" style="fill:#436967"/><path d="M545.22 301.65c-16.08 60.46-73.39 65.16-94.96 66.93-14.67 1.2-34.16-7.67-46.46-15.77-10.96-7.21-33.31-36.59-33.44-36.82-29.99-54.42 9.16-141.5 93.87-128.15 3.49.55 40.86 17.58 41.06 17.73 8.13 5.78 14.55 10.35 31.09 33.58 15.98 22.46 8.93 62.12 8.84 62.49" style="fill:#4a6f6d"/><path d="M538.79 302.77c-7.77 27.63-32.2 44.53-43.95 52.65-11.27 7.79-31.16 7.64-44.82 8.74-14.7 1.19-33.92-8.47-46.31-16.46-10.74-6.92-22.04-20.65-28.43-31.71-8.18-14.16-23.92-51.53 6.49-92.55 25.67-34.63 69.43-33.18 84.13-29.69 13.14 3.11 29.5 11.84 40.45 19.74 2.37 1.71 23.91 26.6 24.03 26.78 17.78 26.59 9.42 58.9 8.41 62.5" style="fill:#507472"/><path d="M532.23 303.85c-.08.26-9.49 27.21-37.86 46.44-11.32 7.67-30.96 8.36-44.59 9.45-.16.01-33.96-10.15-46.3-17.91-8.84-5.56-17.98-16.88-23.27-25.88-27.1-46.15-.93-81.12 7.67-92.61 11.01-14.72 36.08-23.15 43.5-25.38 10.37-3.12 25.56-1.19 36.07 1.43.89.22 87.37 28.38 64.78 104.45" style="fill:#567976"/><path d="M528.09 288c-.5 5.04.6 12.32-1.8 16.78-6.38 11.85-16.43 27.33-26.64 36.09-5.82 4.98-6.87 5.88-50.13 14.46-.36.07-44.22-6.51-64.03-39.04-27.49-45.14-2.27-78.73 8.5-93.08 6.44-8.57 37.95-20.38 38.23-20.45 10.74-2.59 26.06-.46 36.75 2.34 24.24 6.35 48.81 36.98 49.03 37.28 12.81 17.97 11.43 32.03 10.09 45.63" style="fill:#5b7d7b"/><path d="M520.39 305.67c-5 12.07-16.04 27.12-27.07 34.13-2.06 1.31-39.53 10.77-44.06 11.13-.36.03-43.51-9.59-59.18-35.11-27.17-44.26-1.73-77.48 7.85-89.99 1.03-1.34 32.54-17.7 35.12-18.23 11.03-2.28 26.56.25 37.42 3.26 21.89 6.06 68.76 49.36 49.92 94.81" style="fill:#60817f"/><path d="M514.38 306.52c-4.17 9.59-12.81 21.79-21.73 27.24-2.3 1.41-41.91 12.98-43.68 12.77-2.53-.31-45.84-21.94-46.06-22.13-8.58-7.49-13.6-22.94-17.75-33.55-8.84-22.62 4.09-50.15 13.22-57.96 6.31-5.4 30.51-19.34 35.46-20.44 11.22-2.48 27.04.97 38.06 4.19 3.41 1 34.4 27.29 34.49 27.5 4.11 8.7 10.96 20.12 12.18 29.67s-.27 23.63-4.21 32.7" style="fill:#658583"/><path d="M508.3 307.34c-3.19 7.02-9.36 16.22-16.05 20.06-11.93 6.84-30.1 16.73-43.61 14.15-15.13-2.88-34.67-12.43-45.93-22.93-7.08-6.6-15.53-34.16-15.55-34.38-.04-.33-.35-35.7 11.69-44.21 1.24-.87 30.32-21.42 35.81-22.66 11.49-2.6 28.12.91 38.85 5.79 9.49 4.32 20.65 13.59 27.03 21.83 5.92 7.65 9.09 20.67 12.79 29.62s-.91 23.69-5.02 32.74" style="fill:#6a8887"/><path d="M502.17 308.13c-2.22 4.74-6.3 11.17-10.94 13.61-12.06 6.33-29.65 17.56-42.96 14.68s-31.3-11.52-41.57-21c-8-7.39-15.01-31.06-15.04-31.25-.03-.22-.44-25.59 7.61-36.95 7.61-10.73 23.31-22.03 36.17-24.79 11.83-2.54 28.38 3.04 39.63 7.49 7.01 2.77 14.85 9.92 19.48 15.87 5.98 7.69 12.22 19.91 13.4 29.58 1.21 9.91-1.56 23.73-5.8 32.77" style="fill:#6e8c8a"/><path d="M496.01 308.87c-1.15 2.39-3.14 5.76-5.55 6.88-12.32 5.74-29 16.38-42.57 15.53-10.83-.67-23.58-9.77-32.33-16.19-5.39-3.95-10.29-11.81-13.7-17.55-12.71-21.41-.59-44.34-.45-44.53 7.77-10.27 22.29-22.33 34.89-24.99 12.1-2.56 28.65 4.57 40.31 8.7 4.37 1.55 9.19 6.08 11.95 9.81 5.83 7.89 12.82 19.81 13.99 29.55s-2.18 23.75-6.53 32.79" style="fill:#728f8e"/><path d="M489.83 309.58c-8.91 10.33-28.71 17.3-42.33 16.59-7.72-.4-17.3-6.34-23.09-11.46-8.4-7.41-18.1-19.31-23.1-29.33-2.28-4.57 9.36-32.48 9.52-32.69 5.76-7.85 16.76-17.11 26.31-19.03 12.4-2.49 28.85 6.3 40.96 9.93 1.65.49 3.44 2.25 4.42 3.66 5.63 8.12 13.42 19.72 14.56 29.53s-2.79 23.77-7.26 32.8" style="fill:#769291"/><path d="M487.62 295.77c-10.89 20.51-40.28 25.31-40.54 25.29-4.62-.25-10.53-3.58-13.85-6.81-8.42-8.2-22.7-18.95-24.52-30.56-1.55-9.92 5.99-23.04 11.51-31.42 3.62-5.5 11.25-11.74 17.73-12.95 10.52-1.97 24.49 5.28 34.53 9.02 2.96 1.1 5.92 4.46 8.01 6.83 8.17 9.28 12.93 29.68 7.13 40.6" style="fill:#7a9694"/><path d="M485.35 281.64c-6.03 11.52-20.4 22.54-30.12 31.17-2.05 1.82-5.84 3.3-8.57 3.16-6.9-.34-29.4-32.3-29.45-32.61-1.51-10.07 7.42-22.71 12.4-31.58 1.67-2.97 5.79-6.11 9.14-6.75 5.46-1.03 13.5 1.38 17.87 4.81 8.56 6.73 20.06 15.77 27.35 23.85 1.62 1.8 2.5 5.8 1.38 7.95" style="fill:#7e9997"/><path d="M445.88 307.28c-9.47-.52-18.86-14.93-20.19-24.31-.04-.29 12.81-31.99 13.84-32.19.34-.06.83.09 1.1.3 10.05 8.38 32.55 15.23 33.19 28.3.58 11.83-16.11 28.55-27.94 27.9" style="fill:#829b9a"/><path d="M444.7 295.07c-4.92-.23-9.81-7.7-10.55-12.56-.84-5.54 1.78-15.94 7.23-17.22 6.89-1.62 17.63 8.35 17.86 15.43.2 6.13-8.42 14.64-14.55 14.35" style="fill:#859e9d"/><path d="M443.43 282.96c-.39-.02-.77-.6-.83-.98-.07-.44.14-1.27.57-1.37.55-.13 1.39.67 1.4 1.23.01.48-.67 1.14-1.15 1.12" style="fill:#89a1a0"/></g></g></g></g><path d="M499.26 218.12c-9.62-9.3-19.16-18.67-28.63-28.12a2492 2492 0 0 0-53.39-51.45c-8.43-8.3-21.21-12.02-31.54-4.74-15.93 11.03-31.79 22.16-47.52 33.48-65.99 47.3-135.08 84.86-213.57 106.85a6163 6163 0 0 1-35.14 8.22c16.28-5.22 32.53-10.53 48.72-16.02 66.1-25.76 125.99-62.22 180.94-106.94a4783 4783 0 0 1 67.95-55.19c7.25-5.77 15.97-4.69 22.97 2.87 16.29 17.5 32.81 34.77 49.57 51.83q18.945 20.04 38.25 39.72c4.46 4.52 9.69 5.3 13.82 2.34 10.31-7.4 20.69-14.71 31.14-21.91 3.75-2.58 8.89-2.02 14.2 1.41 32.91 25.29 66.62 49.48 100.28 73.76-33.49-19.03-66.38-38.96-98.88-59.62-4.42-2.82-8.6-1.47-11.42.7-10.79 8.37-21.49 16.84-32.16 25.35-4.34 3.47-10.69 2.22-15.61-2.54Z" style="fill:#fff;stroke:#fff;stroke-miterlimit:10"/><path d="M458.12 124.15a2156 2156 0 0 1-48.25-56.75c-4.91-7.76-17.93-11.51-24.88-4.09-11.21 10.49-22.45 20.95-33.68 31.42-20.01 18.33-39.89 36.81-59.93 55.1-33.05 29.33-68.85 54.17-107.04 76.31-54.71 30.32-112.26 51.05-173.46 63.79 7.06-2.76 14.02-4.07 21.66-6.13 60.59-18.21 116.88-44.13 169.56-79.23 18.67-12.92 36.76-26.41 54.27-40.88 27.71-23.81 53.66-49.38 79.58-75.11 14.39-14.22 28.96-28.24 43.42-42.39 8.02-7.94 20.38-7.86 28.36.14 6.8 6.6 12.9 14.45 18.38 22.16 22.26 29.98 45.39 59.22 69.25 87.95 4.06 4.85 8.81 6.2 12.56 3.58 8.71-6.04 17.42-12.07 26.21-17.99 4.04-2.72 11.16-2.59 17.15 3.03 47.68 44.32 97.41 86.09 149.6 125.01-51.19-34.76-100.18-72.27-147.55-112.05-5.62-4.74-10.86-6.3-15.14-3.71-8.93 5.4-17.8 10.93-26.6 16.54-5.23 3.33-11.58 1.42-16.7-4.32-12.41-14-24.66-28.12-36.77-42.38M153.94 410.97c-24.01-.96-48.01-2.08-72.01-3.37 3.12-6.21 4.75-9.38 8.12-15.83 21.94.62 43.89 1.14 65.83 1.59 8.25.16 13.81-7.17 14.02-13.9.22-7.46-5.65-14.12-14.08-14.23-14.42-.19-28.85-.39-43.27-.57-11.69-.24-23.08-6.38-28.39-17.02-5.9-11.15-.11-21.02 5.83-30.11 6.56-7.26 18.23-13.28 28.06-13.83 23.7-1.44 47.4-2.76 71.11-3.92-3.86 7.15-5.78 10.71-9.56 17.8q-31.605 1.26-63.21 2.73c-8.69.41-15.2 8.35-15.44 14.9-.26 7.03 6.42 13.01 14.94 12.91 13.45-.14 26.89-.26 40.34-.37 14.04.31 30.01 9.37 32.45 24.46 2.43 8.99-.93 21.37-7.41 28.01-5.96 7.31-18.1 11.66-27.33 10.75m423.14-36.86c7.88 11.61 21.54 19.32 35.74 19.33 14.23.13 29.39-5.31 38.79-16.44 6.2 3.82 9.26 5.68 15.27 9.3-12.82 14.59-32.89 24.18-52.41 24.51-19 .73-39.52-7.25-51.06-22.86-21.26-25.89-12.06-66.01 18.41-79.9 27.49-11.93 63.32-3.65 83.21 18.87-5.7 3.73-8.57 5.64-14.35 9.54-14.63-15.48-39.45-22.24-59.07-12.45-18.1 9.14-26.22 32.64-14.53 50.09Zm-162.81 39.44c-7.92.13-11.88.19-19.79.29.08-32.98-.08-65.97-.29-98.95a9303 9303 0 0 0-44.2-.14l.15-18.72c35.3 0 70.59.38 105.88 1.24.14 7.34.2 11.01.29 18.37q-21.27-.39-42.54-.66c.31 32.85.57 65.71.51 98.56Zm78.3-115.17c7.99.28 11.99.43 19.98.75 1.31 37.6 2.14 75.33 2.28 112.95-8.09.23-12.14.33-20.25.52-.12-38.05-.86-76.18-2.01-114.22" style="fill:#fff"/><path d="M312.66 364.25h-56.23c3.07-7.08 4.35-10.52 7.3-17.53 16.26-.11 32.52-.2 48.78-.24.04 7.1.15 10.63.15 17.77" style="fill:#d32902"/><path d="M240.43 394.77c24.2.25 48.4.4 72.6.46.02 7.51.03 11.26.08 18.75-30.89-.13-61.77-.52-92.65-1.17-.01-38.17.46-76.41 2.49-114.53 30.14-1.06 60.27-1.81 90.43-2.19-.1 7.47-.14 11.21-.2 18.68-23.86.18-47.71.53-71.56 1.02-.77 26.31-.93 52.65-1.19 78.97Zm-97.95 116.08a831 831 0 0 1-6.24-58.91c2.73.24 4.1.35 6.83.58 1.31 19.85 3.31 39.67 5.97 59.38-2.63-.41-3.95-.62-6.57-1.05Zm-.82-52.92c-.16-2.22-.24-3.33-.39-5.56 10.3.88 20.62 1.68 30.93 2.4.12 2.3.18 3.44.32 5.74-10.29-.77-20.58-1.63-30.86-2.57Zm2.37 26.43c-.24-2.24-.35-3.36-.57-5.6 9.59 1.1 19.2 2.1 28.81 3 .18 2.31.28 3.46.47 5.77-9.58-.96-19.16-2.02-28.72-3.18Zm68.13 35.16c-1.67-21.02-2.98-42.03-3.91-63.1 2.78.15 4.18.23 6.96.37.88 21.17 2.14 42.29 3.73 63.42-2.72-.27-4.07-.41-6.79-.69Zm5.01.51c-.19-2.39-.28-3.58-.47-5.97 10.25.99 20.53 1.86 30.8 2.6.14 2.44.22 3.66.37 6.1-10.24-.78-20.49-1.69-30.71-2.73Zm92.87 10.64c-5.91-.2-10.87-1.56-14.88-4.02-4.02-2.46-7.09-5.81-9.23-10.01-2.14-4.21-3.32-8.97-3.51-14.31-.48-13.36-.88-26.73-1.18-40.1 2.79.07 4.18.1 6.97.17.29 13.67.66 27.35 1.12 41.01.13 4.03 1 7.58 2.57 10.65 1.58 3.07 3.87 5.51 6.88 7.31s6.7 2.79 11.1 2.93 7.92-.6 10.79-2.2c2.86-1.6 5.01-3.92 6.45-6.97s2.12-6.61 2.06-10.7c-.2-13.82-.36-27.65-.49-41.47 2.76.02 4.15.02 6.9.03.1 13.57.22 27.14.36 40.7.06 5.42-.87 10.22-2.76 14.36q-2.835 6.225-8.55 9.57c-3.82 2.22-8.66 3.24-14.57 3.04Zm56.28-2.61c.17-22.29.32-44.57.43-66.86 2.76 0 4.14 0 6.91-.02q-.255 33.405-.66 66.81c-2.68.04-4.01.05-6.68.07m37.9-1.3c.67-22.33 1.22-44.67 1.61-67.01 2.79-.05 4.18-.07 6.98-.13-.44 22.3-1.05 44.59-1.8 66.88-2.72.11-4.08.16-6.79.26m5-.19c.09-2.54.13-3.81.21-6.35 7.14-.26 10.72-.42 17.89-.76 4.44-.22 8.36-1.14 11.78-2.76 3.4-1.62 6.32-3.74 8.74-6.35 2.41-2.61 4.28-5.55 5.59-8.83a31.6 31.6 0 0 0 2.2-10.35c.16-3.63-.29-7.2-1.35-10.35-1.06-3.16-2.72-5.91-4.97-8.27-2.24-2.36-5.05-4.13-8.41-5.35-3.36-1.2-7.29-1.75-11.75-1.62-7.31.2-10.97.29-18.27.44.05-2.54.07-3.82.12-6.36 7.02-.13 10.53-.21 17.56-.39 6.01-.15 11.21.6 15.58 2.25s7.98 3.96 10.82 6.9c2.84 2.95 4.88 6.29 6.14 10.02s1.79 7.55 1.61 11.45c-.03.67-.05 1.01-.08 1.69-.18 3.86-1.07 7.71-2.66 11.59s-3.89 7.46-6.89 10.76-6.73 6.03-11.17 8.17c-4.44 2.15-9.62 3.38-15.55 3.68-6.86.35-10.28.5-17.11.77v.03Zm91-6.65c1.73-21.1 3.09-42.19 4.04-63.34 2.79-.15 4.18-.23 6.96-.39-.99 21.05-2.42 42.04-4.23 63.03-2.7.29-4.06.42-6.77.7m9.09-57.65c.11-2.39.16-3.59.26-5.99 10.76-.63 21.52-1.3 32.28-2.02-.13 2.34-.19 3.5-.33 5.84-10.73.77-21.47 1.49-32.21 2.16Zm-1.62 28.03c.16-2.35.24-3.53.39-5.88 9.96-.76 19.91-1.6 29.86-2.53-.18 2.3-.28 3.44-.48 5.74-9.91.98-19.84 1.87-29.77 2.67m-2.3 29.09c.21-2.38.32-3.57.52-5.96 10.8-1.12 21.58-2.31 32.36-3.58-.25 2.32-.38 3.48-.64 5.8-10.74 1.33-21.48 2.57-32.24 3.74m93.58-11.56c-5.06.92-9.23.9-12.5-.08-3.27-.97-5.63-2.74-7.07-5.28s-1.93-5.6-1.46-9.15c2.62-.36 3.93-.54 6.54-.91-.31 2.25-.02 4.26.85 6.03s2.5 3.05 4.86 3.82 5.63.8 9.78.08c3.83-.66 7.07-1.75 9.76-3.23s4.82-3.2 6.4-5.16c1.57-1.96 2.56-4 2.96-6.14.51-2.7-.23-4.76-2.24-6.23-2.01-1.46-5.32-2.04-9.98-1.73-2.82.16-4.23.23-7.07.38-5.31.31-9.41-.68-12.29-2.98-2.89-2.31-4.12-5.72-3.66-10.19a18.64 18.64 0 0 1 3.51-9.23c2-2.75 4.71-5.03 8.11-6.83s7.4-2.9 11.98-3.33c4.57-.43 8.51-.08 11.63 1.06 3.11 1.14 5.37 2.89 6.75 5.26s1.82 5.21 1.31 8.58c-2.58.34-3.88.51-6.48.84.29-2.05.04-3.92-.76-5.61-.8-1.68-2.26-2.96-4.39-3.83s-5-1.13-8.62-.76-6.36 1.16-8.71 2.45c-2.36 1.29-4.18 2.87-5.44 4.75s-2 3.86-2.23 5.94c-.28 2.62.49 4.72 2.3 6.29s4.6 2.23 8.34 2.01c2.86-.12 4.28-.19 7.11-.33 4.17-.25 7.62.08 10.35 1.01s4.67 2.34 5.83 4.25 1.45 4.29.88 7.17c-.64 3.23-2.17 6.28-4.57 9.16-2.4 2.89-5.44 5.38-9.16 7.47-3.71 2.09-7.91 3.6-12.65 4.46h.02Zm-59.7 51.83c-103.17 18.32-206.71 21.48-310.69 8.46 4.72.03 7.08.02 11.82-.02 47.11 2.47 94.2 2.03 141.34.56 48.62-1.58 97.18-3.45 145.59-8.37 4.8-.22 7.19-.34 11.92-.63Z" style="fill:#fff"/><path d="M529.44 617.75c-10.2 7.4-20.43 14.75-30.69 22.06-52.31 34.23-105.6 56.71-168.78 45.24-41.06-11.01-77.08-31.01-111.91-55.02-35.27-26.52-68.56-54.93-99.32-86.61 52.26 48.04 109.2 96.24 176.63 121.3 47.55 16.61 90.67 18.02 138.87 2.95 27.12-9.5 51.7-21.93 75.94-37.32 7.51-5.3 11.27-7.97 18.77-13.32.2.29.3.43.5.72Z" style="fill:#fff"/></g></svg>