<?xml version="1.0" encoding="UTF-8"?>
<svg id="Calque_1" xmlns="http://www.w3.org/2000/svg" version="1.1" viewBox="0 0 300 300">
  <!-- Generator: Adobe Illustrator 30.0.0, SVG Export Plug-In . SVG Version: 2.1.1 Build 123)  -->
  <defs>
    <style>
      .st0 {
        fill: #665956;
      }
    </style>
  </defs>
  <path class="st0" d="M258.28,221.66c1.79.62,6.05,4.4,8.04,8.73-3.5-3.92-8.04-8.73-8.04-8.73Z"/>
  <path class="st0" d="M273.4,228.94s-4.54-8.31-7.42-8.93-.69.21-.69.21c0,0,4.6,3.85,8.11,8.73Z"/>
  <path class="st0" d="M276.63,230.73s-3.78-7.28-7.97-10.1c1.86.27,2.34.62,2.34.62,0,0,5.08,5.7,5.63,9.48Z"/>
  <path class="st0" d="M271.82,221.73s4.47,3.57,7.08,8.86c-1.99-5.15-4.33-7.63-5.63-8.45s-1.44-.41-1.44-.41Z"/>
  <path class="st0" d="M274.57,222.69s2.82,1.92,4.12,4.19c-.69-2.75-3.37-4.4-3.37-4.4l-.76.21Z"/>
  <path class="st0" d="M279.1,224.55s3.37,5.5,3.99,6.6c-1.1-3.92-2.61-5.98-2.61-5.98l-1.37-.62Z"/>
  <path class="st0" d="M282.06,226.06s2.06,2.4,2.4,3.09c-.69-2.34-1.31-2.75-1.31-2.75l-1.1-.34Z"/>
  <path class="st0" d="M285.01,227.57s2.4,2.75,2.82,3.37c-.76-2.4-2.13-3.44-2.13-3.44l-.69.07Z"/>
  <path class="st0" d="M268.86,227.5s-2.75-6.46-5.43-7.63c-2.4.07-1.65.14-1.65.14,0,0,5.02,3.44,7.08,7.49Z"/>
  <path class="st0" d="M259.52,219.8s2.68,1.03,3.71,3.64c-1.92-1.24-3.85-3.23-5.7-3.37s1.99-.27,1.99-.27Z"/>
  <path class="st0" d="M254.3,220.35s3.02.96,6.12,6.12c-3.71-3.23-6.46-5.43-7.97-5.84s1.51.76,3.78,5.02c-2.95-3.16-5.36-4.6-6.25-4.6s4.33-.69,4.33-.69Z"/>
  <path class="st0" d="M253.89,225.92s-3.09-4.6-4.81-4.81-4.6,1.72-4.6,1.72c0,0,3.02.62,4.33,1.72-1.37-1.99-1.86-2.2-1.86-2.2,0,0,1.24-.21,2.89.76s4.05,2.82,4.05,2.82Z"/>
  <path class="st0" d="M289.04,229.23c1.04.51,1.9.88,2.5,1.01,0,0-.97-.38-2.5-1.01Z"/>
  <path class="st0" d="M297.76,230.57c-1.79-.82-15.23-9.26-23.22-12.62-7.99-3.36-15.23-2.02-19.94-.82-3.42.87-7.38,2.32-9.29,3.06,3.04-2.89,7.04-8.17,8.32-9.33,1.57-1.42,5.23-2.61,9.71-3.58s10.75-4.41,13.29-7.77c2.54-3.36,9.18-12.4,10.45-14.41s3.66-4.33,2.54-5.68c-1.12-1.34-11.2.67-16.58,3.36-5.38,2.69-12.84,10.16-15.91,14.26-3.06,4.11-2.76,8.44-3.73,11.13s-5.75,7.99-10.53,12.84c-4.78,4.85-14.71,8.14-14.71,8.14,0,0-1.72,1.19,1.27.45,2.99-.75,8.14-4.18,10.16-4.78,2.02-.6,3.88.07,7.09,1.42,3.21,1.34,16.5,6.05,20.83,7.09,4.33,1.05,12.4.67,16.58.52,4.18-.15,14.56-.37,15.53-.97s-.07-1.49-1.87-2.31ZM255.8,202.87c.75-2.91,5.6-9.18,9.86-13.29,4.26-4.11,12.38-8.61,18.74-9.41,4.78-.6,4.11.22,4.11.22.67.75-6.72,9.63-9.48,13.52-2.76,3.88-8.29,9.86-12.47,11.13-4.18,1.27-3.81,1.64-4.18,1.27s5.75-4.11,9.26-7.39c3.51-3.29,10.53-12.32,11.87-14.11,1.34-1.79,1.19-1.94.45-1.42-.75.52-5.75,6.65-7.77,8.51-2.02,1.87-10.23,9.71-13.44,12.02-3.21,2.31-5.75,3.66-5.75,2.69s1.79-6.2,1.79-6.2c0,0-1.94,2.69-2.46,4.48l-.52,1.79s-.75-.9,0-3.81ZM296.64,232.51c-1.05,0-19.86.75-25.24.6-5.38-.15-16.58-5-20.98-6.87-4.41-1.87-7.02-2.61-6.57-3.14,15.94-5.36,27.69-2.06,34.01,1.1,4.03,2.02,8.48,3.92,11.17,5.03-5.22-2.57-15.28-8.9-23.75-9.64-9.27-.8-15.02.37-19.02,1.64,4.74-3.26,15.22-4.25,19.46-4.04,4.48.22,11.28,2.54,15.61,5.15,4.33,2.61,14.86,8.59,15.91,9.33,1.05.75.45.82-.6.82Z"/>
  <path class="st0" d="M271.78,196.44s1.57-4.78,2.54-10.08c.67,4.33-.82,8.44-1.34,9.48s-1.19.6-1.19.6Z"/>
  <path class="st0" d="M275.36,193.16s.82-2.24.97-4.18c.67,1.34-.37,4.48-.37,4.48l-.6-.3Z"/>
  <path class="st0" d="M277.6,190.54s1.19-3.21,1.49-7.17c.75,2.02-.15,5.9-.45,6.87s-1.05.3-1.05.3Z"/>
  <path class="st0" d="M270.81,195.7s1.27-2.84,1.64-6.2c-1.34,1.57-1.64,6.2-1.64,6.2Z"/>
  <path class="st0" d="M267.52,200.85s2.31-4.48,2.46-7.84.15-4.03.15-4.03c0,0-1.49,6.35-2.09,7.84s-.9,3.81-2.17,5.08l-1.27,1.27s1.34-3.06,1.64-4.7-1.57,2.54-1.79,3.66-1.34,2.31-1.34,2.31l-1.05.37s1.34-2.61,1.94-7.02.45-4.78.45-4.78c0,0-1.49,4.56-1.72,6.12s-2.02,5.53-2.02,5.53c0,0-.22-1.94.45-4.63s0-1.79-.6.15-2.17,6.2-2.17,6.94,3.58-1.42,3.58-1.42l5.53-4.85Z"/>
  <path class="st0" d="M227.42,238.33c2.4,1.66,11.8,7.39,16.05,8.36s9.18.07,9.33-.67-1.57-1.72-5.3-3.88c-3.73-2.17-6.87-5.23-11.5-9.48s-9.11-3.21-9.11-3.21l-1.05.9s.67-.07,1.87,0c4.56.07,7.54,3.73,10.45,6.27,2.91,2.54,6.94,5.38,9.04,6.5s4.93,2.69,3.14,2.84-5.97-.45-5.97-.45c0,0,.6-.22,1.34-.97-.97.45-3.88.22-3.88.22,0,0,.75-.37,1.72-1.42-1.64.75-3.51.97-5.82-.07,1.72-.37,4.33-2.76,4.33-2.76,0,0-.82.6-4.26,1.19s-4.18-.6-4.18-.6c0,0,.3-.22,1.05-.9-2.24.3-3.29-.75-3.29-.75,0,0,3.51-.67,4.85-2.91-1.05.9-5.15,1.64-6.5,1.72s-3.06-1.87-3.06-1.87c0,0,3.43-.82,5.15-3.21-1.72,1.34-6.87,2.09-6.87,2.09-1.84-.92-3.02-1.18-3.02-1.18l-2.01,1.65s3.09-.46,7.5,2.59Z"/>
  <path class="st0" d="M229.61,236.67s2.83-.05,3.97-1.24c-1.75.26-3.97,1.24-3.97,1.24Z"/>
  <path class="st0" d="M240.54,190.96c-.88-1.19-8.14,2.99-13.3,7.21-5.15,4.23-8.61,10.51-9.89,18.6-1.29,8.09-.41,14.69-.41,14.69,0,0-5.15,3.87-15,9.74-9.84,5.87-15.56,10.15-16.65,14.17-.01.05-.03.1-.04.15-1.89.86-3.61,1.59-4.7,1.86-2.53.62-4.43,2.11-4.43,2.11l-6.85,3.61s14.53-4.74,21.7-8.09c7.16-3.35,20.77-11.9,24.58-15.1,3.81-3.2,13.97-12.94,15.46-14.58l-5.86,3.22c1.3-1.24,4.91-4.93,6.38-8.99,1.8-5,2.53-10.1,5.51-17.78,2.99-7.68,4.38-9.64,3.5-10.82ZM192.46,252.18c-1.27.55-2.87,1.31-4.51,2.09.44-.72,3.08-4.66,10.08-8.94,7.73-4.74,10.31-7.63,16.03-7.16-3.76,3.71-18.14,12.52-21.59,14.02ZM217.71,235.54c-.62.62-5.41,2.27-3.2.36,1.73-1.49,3.81-.98,3.2-.36ZM222.09,231.78c-1.96,1.6-3.09,2.37-4.17,2.27-1.08-.1,1.03-2.37,4.23-3.66,1.31-.53,1.91-.21-.05,1.39ZM237.5,197.87c-2.42,5.2-4.07,10.72-5.31,14.69-1.24,3.97-2.27,7.52-3.97,10.36-1.7,2.83-4.54,5.41-4.54,5.41l-.52-.77s4.95-7.94,6.85-15.82c1.91-7.88,5.31-14.33,5.31-14.33,0,0-3.04,4.43-3.35,5.82.05-3.56.15-4.38.15-4.38,0,0-1.13,5.2-1.19,6.39-.05,1.19-.82-2.06-.82-3.14-1.03,2.11-.36,7.42-.36,7.42l-.67,2.73s-.41-5.87-2.47-8.76c.67,3.76.82,5.15.93,7.78.1,2.63.05,4.9.05,4.9l-1.19,3.04s-.15-2.27-.67-3.14c-.36,2.01-.31,5.15-.31,5.15l-.62,1.08s-.72-5.82-1.7-8.5c-.62,3.3.77,10.41.77,10.41l-1.03,1.75s-1.08-4.17-1.19-6.08c-.62,2.89,0,7.58,0,7.58,0,0-1.34-2.47-1.6-4.33-.82,3.25-.36,6.29-.36,6.29l-1.44,1.08s-.72-8.86,1.55-17.88c2.27-9.02,7.88-12.99,11.44-15.72,3.56-2.73,7.42-5.26,7.83-4.95.41.31.82.72-1.6,5.93Z"/>
  <path class="st0" d="M226.68,214.51c.21-2.34-1.17-5.7-1.17-5.7,0,0,0,4.74.69,5.36s.48.34.48.34Z"/>
  <path class="st0" d="M197.2,239.32c-.48-.34-6.32,0-11.34.62-5.02.62-14.15,3.99-18,10.31-3.85,6.32-7.97,12.71-7.97,12.71l9.38.15,6.85-3.61s3.42-2.8,4.45-3.56c1.03-.76,5.91-5.77,7.63-7.35,1.72-1.58,5.43-4.47,7.35-6.25,1.92-1.79,2.13-2.68,1.65-3.02ZM194.38,242.2c-1.92,1.51-12.37,10.99-16.08,14.57-3.34,3.22-7.61,3.76-8.44,3.84-.61.38-.15.01-.15.01,0,0,.06,0,.15-.01.27-.17.75-.47,1.57-1.02,2.68-1.79,7.76-6.94,9.55-8.66,1.79-1.72,9.69-7.97,9.69-7.97h-.41c-.41,0-4.19,2.4-4.19,2.4v-2.61s-.48.82-.76,2.06c-.27,1.24-1.51,1.92-1.51,1.92l.27-.48c.27-.48-.41-2.2-.41-2.2,0,0-.48,1.92-1.1,3.37s-3.3,3.71-3.3,3.71c0,0,.48-1.17.76-2.61s-.14-4.81-.14-4.81c0,0-.14,1.44-.41,3.37s-1.37,4.4-2.61,6.32-3.16,2.95-3.16,2.95c0,0,.55-.96-.07-2.4-1.03,3.99-2.89,4.88-2.89,4.88,0,0,.82-2.06,1.37-3.85.55-1.79.34-4.88.34-4.88,0,0-.48,2.75-1.58,6.05s-4.4,5.57-3.16,3.92c1.24-1.65,1.37-5.84,1.37-5.84,0,0-.14.41-.69,2.4s-3.16,4.88-2.4,3.78.89-4.67.89-4.67l-1.1,2.82c-1.1,2.82-3.78,3.85-3.78,3.85,0,0,3.37-6.05,4.47-8.11,1.1-2.06,7.56-9.96,13.61-12.02,6.05-2.06,14.98-2.4,15.8-2.13s.41.55-1.51,2.06Z"/>
  <path class="st0" d="M175.9,253.06s1.44-1.99,1.31-4.88c-1.44,2.4-1.31,4.88-1.31,4.88Z"/>
  <path class="st0" d="M239.18,250.18c-3.3-1.58-11.41-3.02-16.83-2.06-5.43.96-13.61,3.09-17.87,7.08-4.26,3.99-5.15,5.15-9.07,7.08-3.92,1.92-11.27,3.85-11.27,3.85l3.64.48s6.6-3.3,9.55-4.33c2.95-1.03,5.84.14,9.76.89,3.92.76,9.28.69,12.92.27,3.64-.41,7.35-2.27,10.99-4.33,3.64-2.06,8.73-4.33,10.72-5.43,1.99-1.1.76-1.92-2.54-3.5ZM240.69,253.13c-1.1.55-8.11,4.19-10.51,5.15-2.4.96-6.45,3.45-9.41,3.92-6.05.96-13.61-.34-13.61-.34,3.02-.07,14.22-1.72,19.51-4.19,5.29-2.47,7.15-3.3,8.86-3.92,1.72-.62-.07-.76-2.61.07l-2.54.82s1.51-2.34,2.13-3.16c.62-.82-.76-.14-1.65.82-.89.96-2.2,2.75-3.23,3.44l-1.03.69.69-1.79s-2.27,2.4-3.37,2.89c-.26.11-.42.19-.54.24-.05.06-.08.1-.08.1,0,0-.28.08.08-.1.5-.59,3.29-4,4.04-6.5-2.4,3.02-5.98,7.01-9.48,7.97-3.5.96,1.92-4.19,3.3-5.84s1.51-1.99,1.51-1.99c0,0-3.16,2.75-4.6,3.92s-3.44,4.33-4.33,4.33,1.86-3.23,1.86-3.23c0,0-3.16,3.09-4.19,3.37-1.03.27-1.72.48-1.17-.48.55-.96,5.7-6.6,5.7-6.6,0,0-2.68,1.92-5.08,4.47s-3.92,3.09-2.95,1.65c.96-1.44,2.68-2.82,2.68-2.82,0,0-1.37.34-3.16,1.92-1.79,1.58-2.47,2.54-3.3,2.2-.82-.34,3.71-4.6,3.71-4.6,0,0-1.03.14-2.68,1.65-1.65,1.51-1.86,2.27-2.13,1.65s2.54-3.92,4.6-4.95c2.06-1.03,7.97-3.23,12.71-4.33,4.74-1.1,9.14-1.03,12.16-.27,3.02.76,6.25,2.13,7.28,2.47,1.03.34,1.92.82.82,1.37Z"/>
  <path class="st0" d="M220.15,286.32c-4.47-7.7-9.41-12.78-16.28-16.35-6.17-3.21-14.23-3.37-15.8-3.37-.18,0-.27,0-.27,0l-1.58.21-3.16.41s11.13,13.19,14.43,16.49c3.3,3.3,8.04,6.8,12.57,9.07,4.54,2.27,9.41,4.6,11.96,5.91,2.54,1.31,5.15,1.79,5.57.76.41-1.03-2.95-5.43-7.42-13.12ZM225.92,298.89c-.48.34-1.92-.55-4.67-2.06-2.75-1.51-9.69-4.33-15.32-7.63-5.63-3.3-9.62-8.52-12.85-12.09-3.23-3.57-7.42-9.07-7.42-9.07h1.99s.41,1.58,1.79,2.82c0-.69-.76-2.27-.76-2.27l1.24.27s1.99,4.88,3.5,6.05c-.07-1.92-2.2-5.7-2.2-5.7l1.72.69s.89,2.95,2.47,4.26c0-.62-1.1-4.33-1.1-4.33,0,0,.48.07,1.24,1.58.76,1.51.82,4.12,2.4,5.36,0-1.79-1.1-5.98-1.1-5.98,0,0,1.03,1.03,1.17,1.86.14.82,1.51,5.77,2.95,10.24.27-3.09-.96-7.28-1.51-8.66s-.48-2.4-.48-2.4c0,0,1.58,2.75,2.68,4.88.07-.89-.48-3.78-.48-3.78l.82,1.31c.82,1.31,2.54,8.8,2.54,8.8,0,0,.62-3.09-.14-7.56,1.65,1.79,1.72,6.67,2.89,10.79-.27-2.06.96-7.08.96-7.08,0,0,.21,5.91,1.37,9.96,0-2.06.34-7.01.41-8.11s.27-1.24.27.76.69,8.04.69,8.04l.48-3.5c.48-3.5,1.17-2.95,1.17-2.95,0,0,.48,4.12.55,2.95.07-1.17.69-4.6.69-1.86s.76,6.87.76,6.87v-2.82c0-2.4.62-2.54.62-2.54l1.58,4.95s.21-2.2.48-1.37,1.65,3.92,1.65,3.92c0,0-.62-2.27.21-1.31.82.96,3.64,3.3,2.54,2.2s-7.83-13.33-13.54-17.93-13.33-7.28-16.28-8.31c0,0,6.87.34,12.64,3.44,4.09,2.19,8.52,6.32,10.65,9.62s5.22,8.86,7.21,11.75c1.99,2.89,3.99,5.63,3.5,5.98Z"/>
  <path class="st0" d="M170.94,273.84c-.15,0-.3-.01-.45-.04-.87-.14-1.81-.7-2.2-1.3l-.53-.83.95.25c1.11.3,2.94.74,3.41.74h1.06l-.82.67c-.39.32-.88.49-1.42.49Z"/>
  <path class="st0" d="M181.26,285.7c-2.2-3.64-4.05-9.28-5.29-12.51-1.24-3.23-3.57-6.8-5.29-7.63-1.72-.82-2.54-1.51-2.61-1.86-.07-.34,1.2-.6,1.2-.6l-9.38-.15-2.27,2.1s3.3,2.16,4.67,3.12c1.37.96,3.99,5.77,6.67,10.65,2.68,4.88,7.35,8.86,9.62,10.1,2.27,1.24,4.88,1.31,5.15.89.27-.41-.27-.48-2.47-4.12ZM175.28,284.74c2.27-.21,2.61-.27,2.61-.27,0,0-4.4-1.37-5.7-2.61l-1.31-1.24s3.71,1.24,4.6,1.03-3.44-1.37-4.6-2.2-1.24-1.79-1.24-1.79l2.68.34s-2.68-1.03-3.16-1.58c-.48-.55-.48-1.03-.48-1.03l5.29.55s-5.5-1.65-6.12-2.13-1.51-2.54-1.51-2.54c0,0,4.6-.14,5.5-.55-3.64-.41-6.8-1.24-6.8-1.24l-.89-1.03,2.68-.21-2.95-1.1v-.55h3.71s-2.75-.82-3.5-.82-3.09-1.37-3.09-1.37c0,0,5.36-.96,9,1.99,3.64,2.95,5.36,8.8,5.91,10.99s4.88,10.44,6.12,11.47c1.24,1.03-4.88-1.92-6.73-4.12Z"/>
  <path class="st0" d="M183.04,267.22l-11.34-.55-2.54-1.44s7.9.48,11.54.69c3.64.21,5.77-.41,5.77-.41l1.31,1.1-2.54.96-2.2-.34"/>
  <path class="st0" d="M224.1,234.82c-.93-.52-.31-2.99-.31-2.99l-2.01,1.86-.1,1.03,2.42.1Z"/>
  <path class="st0" d="M62.04,153.27c-2.97,0-5.79-.77-8.41-2.46-.58-.37-1.48-1.33-1.07-3.56,1.05-5.79,10.95-17.85,26.9-21.27,7.37-1.58,13.34-1.23,18.16,1.14,7.39-8.42,15.31-18.9,23.66-31.31,4.53-6.73,6.07-12.05,4.35-14.99-1.1-1.87-3.6-2.75-7.06-2.47-9.3.75-26.38,10.46-33.52,28.92-.16.42-.63.62-1.05.46-.42-.16-.62-.63-.46-1.05,4.08-10.56,11-17.52,16.08-21.51,6.18-4.84,13.21-8,18.82-8.45,4.11-.33,7.16.83,8.59,3.27,1.45,2.48,1.86,7.39-4.41,16.71-7.17,10.66-15.26,21.72-23.56,31.2,3.09,1.88,5.66,4.68,7.78,8.43.22.39.08.88-.31,1.1-.39.22-.88.08-1.1-.31-2.02-3.58-4.5-6.22-7.49-7.96-12.37,13.89-25.13,24.09-35.91,24.09ZM87.64,126.65c-2.4,0-5.01.31-7.84.91-15.25,3.27-24.66,14.57-25.65,19.98-.1.56-.19,1.56.36,1.91,8.14,5.23,19.4,1.12,33.47-12.23,2.74-2.6,5.57-5.54,8.49-8.8-2.58-1.18-5.51-1.77-8.83-1.77Z"/>
  <path class="st0" d="M120.58,115.76c-.38,0-.72-.27-.79-.66-.08-.44.2-.86.64-.95,19.99-3.82,41.34-4.26,81.56-1.66.45.03.78.41.76.86-.03.45-.41.79-.86.76-40.07-2.59-61.31-2.16-81.15,1.64-.05.01-.1.01-.15.01Z"/>
  <path class="st0" d="M162.36,136.1c-.37,0-.71-.26-.79-.63-.61-2.76.24-7.59,18.3-30.09,15.29-19.05,20.4-25.42,20.28-27.25-3.46-.21-28.03,10.78-76.29,51.46-.34.29-.85.24-1.14-.1-.29-.34-.24-.85.1-1.14,49.62-41.83,74.49-52.58,77.91-51.77.55.13.78.48.86.67,1.02,2.38-1.42,5.43-20.45,29.14-16.81,20.95-18.53,26.28-17.98,28.73.1.44-.18.87-.62.97-.06.01-.12.02-.18.02Z"/>
  <g>
    <path class="st0" d="M81.39,203.14c-.12-.29-.37-.43-.74-.43h-8.76c-.37,0-.62.14-.74.43l-2.19,5.7c-.16.31-.06.46.31.46h1.85c.31,0,.46.15.46.46s-.15.46-.46.46h-5.86c-.31,0-.46-.15-.46-.46s.15-.46.46-.46h2c.25,0,.45-.15.62-.46l7.71-20.04c.08-.31.31-.46.68-.46s.6.15.68.46l7.71,20.04c.14.31.35.46.62.46h2c.31,0,.46.15.46.46s-.15.46-.46.46h-5.86c-.31,0-.46-.15-.46-.46s.15-.46.46-.46h1.85c.35,0,.45-.15.31-.46l-2.19-5.7ZM76.46,190.34c-.04-.12-.1-.18-.18-.18s-.14.06-.19.18l-4.22,10.98c-.16.31-.05.46.34.46h8.14c.37,0,.48-.15.34-.46l-4.22-10.98Z"/>
    <path class="st0" d="M87.62,188.65h5.86c.31,0,.46.15.46.46s-.15.46-.46.46h-1.85c-.35,0-.45.15-.31.46l7.12,18.5c.04.12.1.19.19.19s.14-.06.18-.19l7.12-18.5c.14-.31.04-.46-.31-.46h-1.85c-.31,0-.46-.15-.46-.46s.15-.46.46-.46h5.86c.31,0,.46.15.46.46s-.15.46-.46.46h-2c-.25,0-.45.15-.62.46l-7.71,20.04c-.08.31-.31.46-.68.46s-.6-.15-.68-.46l-7.71-20.04c-.17-.31-.37-.46-.62-.46h-2c-.31,0-.46-.15-.46-.46s.15-.46.46-.46Z"/>
    <path class="st0" d="M115.96,207.41c-1.89-2.09-2.84-4.74-2.84-7.97s.95-5.88,2.84-7.97c1.89-2.09,4.39-3.13,7.49-3.13s5.6,1.04,7.49,3.13c1.89,2.09,2.84,4.74,2.84,7.97s-.95,5.88-2.84,7.97c-1.89,2.09-4.39,3.13-7.49,3.13s-5.6-1.04-7.49-3.13ZM116.64,192.13c-1.73,1.91-2.59,4.35-2.59,7.31s.86,5.4,2.59,7.31c1.73,1.91,4,2.87,6.81,2.87s5.09-.96,6.81-2.87c1.73-1.91,2.59-4.35,2.59-7.31s-.86-5.4-2.59-7.31c-1.73-1.91-4-2.87-6.81-2.87s-5.09.96-6.81,2.87Z"/>
    <path class="st0" d="M139.67,199.44c0-3.21.9-5.86,2.71-7.96,1.81-2.1,4.14-3.14,7-3.14,2.49,0,4.74.87,6.75,2.62.33.27.49.17.49-.31v-1.54c0-.31.15-.46.46-.46s.46.15.46.46v5.86c0,.31-.15.46-.46.46s-.46-.15-.46-.46v-2.16c-.56-.64-1.2-1.22-1.94-1.76-1.69-1.19-3.45-1.79-5.3-1.79-2.53,0-4.63.97-6.29,2.91-1.66,1.94-2.5,4.38-2.5,7.31s.86,5.35,2.59,7.26c1.73,1.91,4.03,2.87,6.91,2.87s5.2-.94,6.97-2.81c.21-.21.39-.23.55-.06.16.17.25.3.25.4s-.05.21-.15.31c-2.1,2.06-4.68,3.08-7.75,3.08s-5.56-1.05-7.45-3.15c-1.89-2.1-2.84-4.75-2.84-7.95Z"/>
    <path class="st0" d="M177.75,203.14c-.12-.29-.37-.43-.74-.43h-8.76c-.37,0-.62.14-.74.43l-2.19,5.7c-.16.31-.06.46.31.46h1.85c.31,0,.46.15.46.46s-.15.46-.46.46h-5.86c-.31,0-.46-.15-.46-.46s.15-.46.46-.46h2c.25,0,.45-.15.62-.46l7.71-20.04c.08-.31.31-.46.68-.46s.6.15.68.46l7.71,20.04c.14.31.35.46.62.46h2c.31,0,.46.15.46.46s-.15.46-.46.46h-5.86c-.31,0-.46-.15-.46-.46s.15-.46.46-.46h1.85c.35,0,.45-.15.31-.46l-2.19-5.7ZM172.81,190.34c-.04-.12-.1-.18-.19-.18s-.14.06-.19.18l-4.22,10.98c-.16.31-.05.46.34.46h8.14c.37,0,.48-.15.34-.46l-4.22-10.98Z"/>
    <path class="st0" d="M185.46,193.58v-4.47c0-.31.15-.46.46-.46h16.65c.31,0,.46.15.46.46v4.47c0,.31-.15.46-.46.46s-.46-.15-.46-.46v-3.55c0-.31-.15-.46-.46-.46h-6.48c-.31,0-.46.15-.46.46v18.81c0,.31.15.46.46.46h2.16c.31,0,.46.15.46.46s-.15.46-.46.46h-6.17c-.31,0-.46-.15-.46-.46s.15-.46.46-.46h2.16c.31,0,.46-.15.46-.46v-18.81c0-.31-.15-.46-.46-.46h-6.47c-.31,0-.46.15-.46.46v3.55c0,.31-.15.46-.46.46s-.46-.15-.46-.46Z"/>
  </g>
  <path class="st0" d="M133.64,267.27C59.95,267.27,0,207.32,0,133.64S59.95,0,133.64,0s133.64,59.95,133.64,133.64-59.95,133.64-133.64,133.64ZM133.64,1.69C60.88,1.69,1.69,60.88,1.69,133.64s59.19,131.94,131.94,131.94,131.94-59.19,131.94-131.94S206.39,1.69,133.64,1.69Z"/>
</svg>