<?xml version="1.0" encoding="UTF-8"?>
<svg id="Calque_1" data-name="Calque 1" xmlns="http://www.w3.org/2000/svg" viewBox="0 0 701.12 1070.32">
  <g id="Objet_génératif" data-name="Objet génératif">
    <g>
      <path d="M422.77,405.88l.19-6.38c.45,2.07,1.49,4.36-.19,6.38Z" style="fill: #422f28;"/>
      <g>
        <g>
          <path d="M380.92,402.99c2-2.29,3.49-1.54,4.75,1.08,3.03-2.95,6.42,2.27,7.99,5,1.79,6.46,4.82,11.21,9.09,14.27,2.29-3.15,2.95-.36,2.17,2.43-.1.22-.14.5-.11.77-.95.97-.56,1.81-.02,2.93,6.05,5.1,2.33,12.13,5.07,15.73,4.98,6.55,10.11,12.79,13.18,20.75,7.81,7.79,13.27,16.7,19.18,26.28,21.26,34.47,38.7,69.93,54.16,107.41l28.37,68.79c4.69,11.37,9.38,22.3,16.06,32.56,3.39,2.36,8.77,3.25,10.27,7.72l3.95,11.74c5.56,9.5,12.45,17.65,20.19,25.47,14.87,15.02,26.63,30.98,36.65,49.77,13.18,24.73,23.94,50.47,34.32,76.57,10.1-.01,8.06,7.81,14.9,18.82,2.5,4.02,2.48,8.86-.34,12.63l-5.01,6.69,7.05,19.63c5.58,15.53,17.43,20.15,15.47,34.27,6.03,3.16,8.84,8.83,10.26,15.51l2.77,13.02c1.31,6.16,3.76,12.34,3.86,18.74.13,7.98,2.78,14.54,4.94,21.95,1.98,6.8.54,14.58.11,21.59-1.07,17.52-73.39,19.95-82.23,7.14-3.61-5.23-2.2-12.91-2.8-18.7-.49-4.68,2.25-6.63,3.76-10.21,5.72-13.55,10.03-28.48,9.56-43.37-.22-7.04-2.33-13.45,3.26-19.3l-4.12-17.39c-3.12-7.44-7.93-13.8-12.44-20.53-5.54,1.3-10.31,2.15-15.3.78-3.79-1.04-4.33-4.85-6.3-7.7l-7.66-11.05c-2.47-3.56-1.26-7.36.17-10.51-3.14-7.37-8.68-13.23-13.84-19.65-20.93-26.04-39.38-53.05-55.12-82.52-2.4-4.5-5.3-7.75-9.32-10.69-5.24-3.84-6.53-11.43-10.89-15.95-6.79-5.15-14.55-9.29-17.26-18.33-1.64-5.47-5.48-8.44-9.41-12.62-41.08-43.66-78.96-89.18-115.42-137.88-8.16,6.56-14.98,13.93-21.86,21.96-23.42,27.32-47.86,52.7-73.01,78.51l-33,33.85c.27,6.84-2.14,13.13-8.96,15.32,4.82,4.56,5.53,9.89,1.32,14.47l8.17,27.45c6.12,20.56,7.59,41.14,7.15,62.67-.18,8.84-.92,17.93.94,26.56,2.74,2.35,6.82,4.62,6.12,9.86-1.83,13.69,7.88,22.26-9.3,30.16l1.92,21.59,3.42,13.6c5.74.42,9.81,3.79,11.54,9.08l1.45,13.72c.9,8.53,3.77,16.23,3.35,25.1l1.88,5.04-.63,17.1c-.13,3.63-2.58,6-6.01,7.11-8.18,2.64-16.57,4.4-25.19,5.37-14.24,1.6-26.63,5.93-40.05,10.57-20.52,7.1-42.38,8.87-63.96,6.49-6.72-.74-15.23-2.12-19.7-7.14-3.96-4.45-3.08-13.63-2.58-18.8s3.96-7.37,7.23-9.91c4.09-3.18,7.75-6.07,12.49-8.4l16.64-8.19c2-4.84,5.56-8.03,10.95-8.76,1.05-4.37,4.25-6.69,8.68-7.2,1.61-3.91,4.1-6.83,8.52-7.57,1.13-3.98,3.62-6.97,7.94-7.92.09-5.23,2.66-8.08,7.5-9.21,2.45-7.72,1.33-14,11.33-15.65l-4.14-17.68-12.38-4.43c-2.66-.95-4.15-3.7-4.36-6.59-.92-12.57-9.74-19.62-.11-27.08l-17.51-65.39-14.72-63.82c-3.72-16.11-5.18-30.01.73-45.87,21.59-57.91,50.2-112.82,87.23-162.37,2.01-2.69,3.65-4.08,3.69-7.58.04-4.97,3.57-7.86,7.33-10.4,1.93-1.3,1.93-4.89,2.12-6.6l.94-3.23.11-1.79.9-3.22.06-.81.86-3.09,1.92-6.06c.65-2.06,1.09-3.69,1.12-5.42-.18-5.46-.45-10.86-.81-16.2-.78-.13-1.02.4-1.25.96-2.07,2.4-3.74.67-1.78-1.84-2.12-1.39-1.57-2.06.9-2.01.9-.8,1-2.19-.06-2.92-2.52,1.53-4.94-2.6-2.86-4.55-.49-1.91-.44-4.81,1.73-3.81l2.18.67c2.52,6.93,10.75,10.35,17.73,10.43,6.87-2.93,12.71-2.39,17.52,1.62,20.17.07,40.03-2.53,59.93-8.51.86-.02,1.71,0,2.52.19,1.11.26,2.01.47,2.13.89,1.05,3.7-19.54,8.26-23.38,9.1-13.87,3-27.62,4-41.32,4.22v19.08c32.87,1.57,64.27-5.17,94.51-17.82-2.22-3.78-4.04-7.94-5.46-12.48l-5.97-11.96c-1.69-6.08,9.82-11.37,14.78-8.57l11.47,24.14c.76.71,15.15-9.6,17.38-11.32,2.39-1.84,15.28-12.65,15.42-13.67.28-2.11-12.09-18.74-14.43-21.78.98-5.06.09-9.39-2.64-13-6.72-5.37-11.2-12.53-13.06-20.94-10.49-6.07-21.37-13.3-29.48-22.73-19.96-23.2-36.07-49.54-50.86-75.11.19-2.64.9-3.62,2.87-1.63l3.07,1.76c25.35,38.39,38.03,57.59,38.03,57.59,7.77,9.82,16.6,18.69,26.5,26.61,1.31,1.3,2.48,2.67,2.69,4.56Z" style="fill: #362d2c;"/>
          <g>
            <path d="M404.79,429.46c-.59-.5-.97-.53-1.15-1.45s.26-1.59,1.17-1.48l-.02,2.93Z" style="fill: #422e26;"/>
            <g>
              <path d="M242.94,512.04c-.47-.47-.8-1.17-.9-2.17l.09-14.03c.93.15,1.05.92,1.03,1.96l-.22,14.24Z" style="fill: #422e26;"/>
              <path d="M239.04,526.61c.09-1.13.57-2.17.86-3.09.42,1.08.37,2.79-.86,3.09Z" style="fill: #422e26;"/>
              <path d="M238.08,530.65c.07-1.16.07-2.39.9-3.22-.08,1.09.33,2.73-.9,3.22Z" style="fill: #422e26;"/>
              <path d="M237.03,535.67c.13-1.22.07-2.34.94-3.23-.07,1.12.37,2.66-.94,3.23Z" style="fill: #422e26;"/>
              <g>
                <path d="M232.71,978.72c-10.35,4.6-14.93-4.91-24.53-8.85,1.16-6.55-1.87-11.76-7.85-13.82l-7.99-2.74-3.72-17.06c14.15,1.81,27.49-.98,40.82-7.28.32,13.77,2.56,26.34,6.86,38.93,1.52,4.44.83,8.22-3.58,10.82Z" style="fill: #d08762;"/>
                <path d="M667.22,955.74c-8.3-4.11-17.79-3.82-25.8-.12s-2.83,11.74-6.08,12.48c-4.55,1.04-1.71-10.74-5.11-16.36l-11.82-19.53c13.23-4.2,24.15-10.09,34.63-19.49l9.4,23.63c4.13,10.38,16.89,16.32,12.21,31.47-4.53.96.81-8.02-7.41-12.09Z" style="fill: #d08863;"/>
              </g>
              <g>
                <path d="M483.08,756.43l2.45-1.21c.73-.36-2.94-2.78-6.86-7.06l-27.42-29.9-6.9-7.18-17.43-20.09-16-18.83-6.35-7.54-8.83-11.02-9.69-12.01-19.81-25.78c-5.9-7.68-13.29-14.62-15.05-18.41-5.83-12.59-8.1-25.78-10.72-39.19l-7.69-39.34c14.17-3.42,26.28-8.3,39.24-13.73,1.42,1.66,1.84,3.34,2.62,5.41,3.73-.11,6.45-2.17,10.21-4.04,9.7,18.79,27.56,34.35,48.59,34.18,7.16-.06,13.56-.02,20.1-3.13,1.57-.74,3.55.93,4.52,1.65,0-2.37-1.66-3.31-2.26-4.38-18,8.27-38.54,4.81-53.2-7.83-5.83-5.03-9.96-10.67-14.03-16.87-5.71-8.69-1.04-16.14.48-13.48,5.99,10.43,12.32,20.35,22.33,27.4,12.09,8.51,27.63,8.83,40.79,4.3-.35-1.51-1.04-2.49-1.75-3.23-.46-.49-1.49.23-1.87,1.82-28.69,7.76-45.18-7.71-57.86-32.57,10.46-6.67,19.57-12.82,28.03-21.3.86-.86.72-3.89,2.99-4.04,12.17,14.28,21.25,30,30.22,46.21,3.41,6.16,6.64,11.71,9.89,17.99l13.1,25.27,13.53,30.19,29.96,73.17c5.76,14.07,11.56,27.08,19.35,40.96-5.05-1.9-7.15-7.21-9.91-11.57,4.2,17.01,11.58,12.02,16.01,14.61s6.99,6.8,5.18,11.76c7.11,10.55,13.63,21,23.16,29.39.72,2.93,3.29,3.91,5.01,5.64,14.63,14.69,24.94,31.1,34.35,49.3,10.31,19.95,19.37,39.68,27.52,60.57,1.85,4.74,5.37,8.8,4.93,14.67l-11.11-23.3,8.2,21.49c1.28,3.35,1.21,5.65-1.56,8.2-11.71,10.82-26.2,17.98-41.65,21.62-5.84,1.37-6.98-1.99-9.78-5.75-6.02-8.11-12.78-15.45-18.31-24.1-1.25-1.96-4.46-2.97-4.98-6.02-.38-2.2-2.87-3.35-3.97-4.96l-20.55-30.08c-3.21-4.7-6.49-8.77-8.39-14.38l-2.91-2.94-9.18-15.43c1.17-1.07,2.35-1.04,4.05-1.41l-14.73-12.03-5.16-6.61-4.86-8.94-5.49-3.54c-5.46-2.25-9.18-6.59-10.55-12.56Z" style="fill: #47484c;"/>
                <path d="M223.54,884.09l-1.08-11.29-1.01-13.96-.61-11.33c-.49-9.06-1.38-17.94-4.29-26.47l2.65,23.94c.34,3.06-.04,6.04,1.14,9l.23,13.61,2.88,31.43c-14.11,7.12-30.1,9.52-45.4,5.27-4.09-1.14-5.93-3.27-7-7.27l-11.04-41.3c-1.13-4.24-1.33-8.07-1.22-12.22-1.11.02-1.62-.04-1.95-.33-.48-.41-.73-1.49-.9-2.27l-4.75-21.91-2.27-8.58-6.26-27.86c2.34-3.08,1.68-6.54-1.32-8.32-8.89-19.82-6.21-40.09,2.01-59.49l13.92-32.85,2.63-6.45c13.46-28.81,27.8-56.69,45.86-82.85l23.7-34.33,13.73.1c6.24.05,13.3-3.87,15.93-9.97-8.62,9.26-25.01,11.84-28.53,7.01-.97-1.33-.53-5.68,1.11-5.16,9.56,3.03,16.49.16,22.09-7.11,4.47-5.8,8.45-11.85,9.63-19.35,5.47,7.51-.08,12.18-.27,18.9,2.45-3.44,3.29-7.27,4.11-11.88l9.52-1.17-.96-5.98,34.63-.73c3.51,18.14,6.6,35.76,11.95,53.28,2.59,8.48,6.8,14.92,14.09,19.82,1.5,1.01.14,4.9-1.15,5.89,5.69-2.48,10.47-.43,16.76,3.24-7.46,5.17-12.51,11.02-18.13,17.37l-33.49,37.84-18.28,19.45-10.61,11.04-14.54,14.55-15.93,15.82c-6.61,6.56-11.53,14.48-19.92,20.19,1.53,1.88,2.54,2.78,2.41,3.95-.69,6.61-8.1,9.48-16.28,10.55,1.9-4.52,3.69-8.25,2.76-13.22-2.87,6.36-.52,12.17-8.7,14.22l.24,5.73c-6.38.27-11.23-2.41-17.29-3.97,4.65,5.77,12.81,4.68,18.79,7.29,5.99,5.88-2.34,14.62,4.17,22.63-2.02-8.59.68-16.49-2.51-23.46,7.72-1.44,13.33-9.37,14.37-2.54.83,5.48-2.36,6.23-2.89,8.59-.34,1.5,1.16,2.49,1.54,3.88l6.43,23.48c5.33,19.45,6.6,39.1,7.1,59.32l.88,35.37c-2.35,2.52-4.55,4.38-8.04,4.74l-.62-13.86Z" style="fill: #47484c;"/>
                <path d="M598.61,930.24c-2.34-9.78-11.63-15.14-10.99-22.45l6.55.67c18.24-2.92,35.26-11.08,48.2-23.96,3-2.99,4.69-6.58,4.46-10.74,2.4.07,4.09,1.86,4.82,4.07,4.94,14.97,12.68,17.42,4.26,27-11.44,13.01-25.92,21.88-43.13,25.28-4.65.92-8.99,1.78-14.17.13Z" style="fill: #47484c;"/>
                <path d="M177.29,929.86c-1.78-.8-3.13-3.12-5.63-2.39l-2.71-14.19c-.69-3.61-2.92-6.52-1.51-11,19.02,11.72,44.42,7.66,63.88-4.49,2.92-1.82,3.61-4.32,4.71-8.06,3.49,4.32,2.74,8.99,2.9,13.77l.43,12.91c.24,7.26-18.96,13.9-29.04,15.92-10.78,2.16-22.32,2.33-33.03-2.47Z" style="fill: #47484c;"/>
                <path d="M348.29,598.88c-12.82-3.68-20.87-13.71-24.39-26.25-4.64-16.53-7.87-32.77-11.03-50.12l17.56-2.89c4.76,27.21,9.33,53.39,17.87,79.26Z" style="fill: #46474b;"/>
                <path d="M260.29,521.06c-2.37,14.5-10.14,28.6-25.17,27.22,7.15-7.72,3.8-20.88,10.46-31.3l14.71,4.08Z" style="fill: #47484b;"/>
                <path d="M204.49,762.79c-1.75-.12-2.65-3.84-1.39-4.04l11.52-1.86c-1.45,4.23-5.82,6.19-10.14,5.9Z" style="fill: #47484c;"/>
              </g>
              <g>
                <path d="M384.42,503.31c-2.16,3.17-5.28,4.13-8.37,4.57-3.49-11.69-7.44-22.17-13.45-32.64,2.79-2.02,5.23-3.34,8.38-4.13,5.47,10.29,9.76,20.46,13.44,32.2Z" style="fill: #46474b;"/>
                <path d="M261.9,518.87c-5.64-1.15-10.79-2.68-15.67-5.23-.09-7.28-1.19-14.16-1.04-20.83,5.45,1.94,10.22,3.25,16.43,3.78-.86,7.46-.89,14.32.28,22.28Z" style="fill: #46474b;"/>
                <path d="M274.04,527.2c-2.44.98-4.4.61-6.81-.15-3.37-10.22-5.45-20.92-2.9-31.7,2.35-1.05,4.89-.8,7.34-.18-1.53,10.79-.8,20.88,2.37,32.04Z" style="fill: #46464a;"/>
                <path d="M240,492.94c.16-.72.3-2.28-.06-2.92,1.08-.12,1.3.53,1.27,1.44-.03.82-.13,1.5-1.21,1.48Z" style="fill: #422e26;"/>
              </g>
              <g>
                <path d="M620.48,1060.48c-3.16-5.67-1.9-12.19-2.42-18.26,8.8,7.79,23.68,7.39,36.59,7.52,15.01.15,33.68-1.35,43.47-11.54-.24,6.46,1.16,13.42-2.09,19.06-2.27,3.92-9.1,5.78-13.61,6.81-16.91,3.86-33.7,3.97-50.83,1.29-3.26-.51-9.41-1.81-11.11-4.87Z" style="fill: #fefefe;"/>
                <path d="M642.65,1002.62l2.8-1.07c6.29,1.42,12.66,1.79,19.09,1.11,1.87-.34,3.91-.05,6.06.92,2.25,1.01,3.27,3.16,2.17,5.33-4.11-2.37-8.46-2.79-11.53.59l9.89,3.51c1.23.44,1.9,1.5,2.36,2.12s-.23,2.82-.91,2.6c-12.11-3.98-23.71-4.09-35.74-.34.55-7.01,10.63-5.74,10.91-8.24.33-2.89-4.06-3.05-9.58-1.2-.63-3.87,2.13-4.73,4.48-5.31Z" style="fill: #fbfbfa;"/>
                <path d="M666.72,982.18c-4.02,2.42-7.71,1.04-12.22.75-3.4-.22-7.41,2.54-11.07.02.66-1.36,1.84-1.78,3.58-2.65-2.97-2.01-6.83-1.1-10.43.67-.97-.19-1.26-2.33-.68-3.38.49-.88,1.53-1.98,3.21-2.46,5.22-1.87,10.33-.36,15.32,1.81,5.38-2.24,10.76-3.72,16.23-2.29,3.13.61,5.2,2.72,4.31,6.23-3.76-2.2-7.7-2.5-12.47-1.51l4.21,2.81Z" style="fill: #f5f3f4;"/>
                <path d="M646.74,1047.57c-11.58-.46-28.3-1.25-27.48-10.7,3.09,3.37,5.83,5.22,9.98,6.22,15.52,3.76,41.43,3.33,56.52-2.23,5.18-1.91,8.8-4.97,10.71-10.84,2.02,3.21.6,6.32-1.91,8.67-9.78,9.13-32.61,9.49-47.82,8.88Z" style="fill: #f4f4f3;"/>
                <path d="M642.71,993.81l1.95-1.18c6.71,2.11,13.33,2.06,20.02-.07l3.96,1.14c1.31.47,2.86.7,3.72,1.76s1.2,2.35.34,3.89c-4.38-2.37-8.58-1.96-12.34-.07,2.13.69,3.58.97,4.1,2.3-4.21,2-13.99,1.94-18.62.22-.15-.06-.14-.54-.09-1.15.64-.5,1.54-.85,2.26-1.83-3.68-1.8-6.76-.66-9.9.93-.6-2.04-.22-3.78,1.29-4.77.83-.54,2.12-.86,3.3-1.17Z" style="fill: #fafafa;"/>
                <path d="M658.55,985.85l3.03-1.18h1.56c2.14-.72,4.48-.65,6.63.07,2.29.02,4.51,2.26,3.58,5.15-4.02-1.48-7.97-2.21-11.89.18l3.16,1.64c.06.44.08.81-.09.93-2.62,1.88-17.21,1.96-19.6.25-.53-.38.36-1.53.91-2.09.53-.27,1.73.48,3.04-.63-3.29-1.59-7.4-1.82-11.01.53-1.33-2.58.35-5.13,3.08-5.7,6.75-1.41,10.59,2.62,17.59.85Z" style="fill: #fbfafa;"/>
                <path d="M687.77,1021.42c-1.62,1.47-8.76.85-8.74-2.34.02-2.12,1.07-4.02,4.29-4.14l.11-19.2c0-1.23.62-2.61,1.36-3.1.6-.39,2.02-.85,2.79-.17,2.86,2.53.91,5.69.28,8.39-1.62,6.93,3.09,17.66-.1,20.56Z" style="fill: #f9f9f9;"/>
                <path d="M664.47,1001.57c.12.3.09.81.07,1.09l-9.8,1.81c-4.3-.65-7.98-2.76-12.1-1.84.85-.43,1.86-1.85,3.11-1.98,2.34,2.77,6,.56,8.91.72,3.52.2,6.45,2,9.8.2Z" style="fill: #666260;"/>
                <path d="M664.62,991.71c1.27.66,2.65,1.5,4.02,1.99-4.62-1.28-9.24,1.4-13.82,1.5-4.21.09-8.19-2.42-12.11-1.39.84-1.03,2.01-2.37,3.13-3-.17.35-.21,1.06-.04,1.39.54,1.04,13.32,2.2,18.82-.49Z" style="fill: #706c6a;"/>
                <path d="M631.54,1019.21c.26,1.57-3.03,2.72-4.61,2.31.64-3.57,1.2-6.79,3.34-10l1.26,7.69Z" style="fill: #dbdad9;"/>
                <path d="M669.77,984.73l-6.63-.07c1.86-1.45,4.74-1.35,6.63.07Z" style="fill: #f5f3f4;"/>
                <path d="M661.58,984.67c-.34,1.7-2.16.96-3.03,1.18.63-1.08,1.86-1.18,3.03-1.18Z" style="fill: #f5f3f4;"/>
              </g>
              <g>
                <path d="M252.94,1029.85c-.02,3.47-1.15,5.88-4.52,7.05-16.89,5.88-35.43,4.8-58.5,13.78-23.64,9.2-56.8,12.61-81.09,5.94-9.61-2.64-8.64-9.04-7.88-21.32,4.44,3.63,9,4.91,14.51,5.83,17.63,2.95,35.2,1.98,52.76-.87l.2-1.07c15.65-4.03,31.51-8.28,47.59-12.74,12.68-1.24,24.59-4.13,35.74-8.68,2.98-.56,1.69,9.81,1.19,12.07Z" style="fill: #fefffe;"/>
                <path d="M207.74,1004.58l-18.53,14.68c-6.22,4.93-15.47,3.9-21.96-.21,1.91-2.26,3.63-3.21,5.51-4.61,4.91,1.76,9.22.54,13.13-2.51l19.48-15.2c11.1-8.66,18.8,8.31,37.32-.5-.36,2.69-1.28,6.74-3.42,8.59-13.29,6.03-23.31-6.76-31.53-.24Z" style="fill: #fdfdfd;"/>
                <path d="M251.84,1016.67c-2.15,2.56-5.37,4.18-9.65,4.88-24.95,4.42-49.66,10.33-74.16,17.73l-4.47-.29c-16.65,2.37-44.82,3.84-58.69-3.21-1.96-.99-3.56-2.79-1.77-4.9,3.52,3.41,7.34,5.13,12.09,5.83,21.99,3.26,45.04,2.72,66.47-4.19,17.18-5.54,33.34-10.1,51.25-12.28,6.75-.82,12.91-2.98,19.25-5.92.74.13.52,2.07-.31,2.34Z" style="fill: #f3f2f1;"/>
                <path d="M158.99,1000.68c2.57-.46,5.92-.9,8.1.13,1.93-.28,3.32.72,4.57,1.38,1.37.72,1.5,4.07,0,4.36-3.84-.85-7.71-3.83-11.85-1.67-.71.37-1.11,2.45-.55,2.79l2.68,1.67c1.52.95,2.2,2.79,1.7,3.75-.58,1.11-2.66,1.37-3.77.56-6.29-4.6-13.55-5.98-21.42-5.41,2.79-5.2,7.56-4.52,12.7-3.24-.57-2.52-2.31-3.26-2.28-4.71.03-1.58,1.09-2.67,2.85-3.15,2.35-.64,2.04,2.91,7.28,3.55Z" style="fill: #f9f8f8;"/>
                <path d="M252.94,1029.85l.07-11.76c-6.06,3.75-12.26,5.06-19.12,6.14-16.24,2.55-31.69,5.9-47.21,11.28l-18.45,4.77c-1.24-1.28-3.1-1.25-4.67-1.28,10.07-1.43,19.82-4.09,29.84-7.63,12.96-4.57,26.07-6.58,39.6-9,6.81-1.22,13.29-2.31,18.84-5.69,2.95,1.24,3.01,9.11,1.1,13.18Z" style="fill: #47423f;"/>
                <path d="M187.74,982.97c-1.02.89-2.32.42-3.43,0-2.2.33-4.32-.46-6.38-1.87-1.89.59-3.15,1.25-5.82,1.13.35-2.22,1.67-2.77,2.59-3.95-1.43-1.84-.93-3.64-.2-4.8,2.69-4.25,4.24,3.6,10.7,2.14,8.92-2.01,18.78,2.88,15.85,6.36-2.08,2.47-7.64-2.92-15.64-1.77,1.48.82,2.58,1.98,2.33,2.76Z" style="fill: #fafafa;"/>
                <path d="M178.38,989.02c-.96.32-.17,1.68-.24,2.14-.22,1.47-7.04-1.89-13.3-.29-.04-2.14,1.02-2.74,2.01-3.92-1.11-1.91-.56-3.41.32-4.18,1.68-1.46,3.62-1.15,5.08.49,3.08,3.45,14.85-2.14,18.96,5.21.39.69-.44,2.95-1.74,2.57-3.46-1-7.09-3.35-11.1-2.03Z" style="fill: #f2f0f0;"/>
                <path d="M167.09,1000.8c-2.76.4-5.21.23-8.1-.13,1.89-1.81,4.65-.73,7.91-1.35-2.11-.9-4.22-.68-6.33-2.35-1.62.51-2.8,1.19-4.86.76.82-1.57,1.81-2.05,2.98-3.14-.69-1.31-1.01-2.75-.4-3.71.52-.82,1.84-1.54,3-1.77,1.04-.21,2.41,2.2,3.38,3.18,10.18-.88,20.45.89,16.77,6.46-3.38-.23-7.98-3.65-11.95-1.99-.53,1.32-1.06,3.36-2.38,4.05Z" style="fill: #f1f1f1;"/>
                <path d="M187.74,982.97c-.4,1.27-1.68,1.18-2.35.73l-1.08-.73h3.43Z" style="fill: #f2f0f0;"/>
              </g>
            </g>
          </g>
        </g>
        <g>
          <g>
            <path d="M381.13,319.37c-.14.21-.14.69-.28.84,2.68,11.23,3.21,22.61,3.52,34.34,2.42,15.29,13,21.28,25.71,27.44,2.85,1.88,6.3,4.41,7.91,7.49.12.24-.21.71-.68,1.25,3.83,1.55,4.82,9.74,4.39,13.96-.03.33-.52.62-1.13.9-.21,1.24-1.07,1.84-1.95.92l-1.43-.22c-2.52-4.91-8.83-12.08-14.35-13.27-1.76-.38-3.29-.34-2.49,1.55,5.04,5.43,8.62,22.48,4.01,28.28-.29.36-.9.47-1.61.5-.03.6,0,2.02-1.1,2.52-9.79-7.36-6.56-17.85-15.97-21.79l-1.7-5.49c-8.1-23.24-13.28-46.55-18.73-70.6l-13.59-49.66c-.33-1.21-.66-2.54.12-3.36.66-.68,2.45-1.46,3.72-.61l20.14,13.61c16,10.82,24.72,30.05,18.45,49.35-3.95-13.34-11.55-23.48-23.2-29.77l7.14,10.32h2.16s.93,1.5.93,1.5Z" style="fill: #663e25;"/>
            <path d="M418.62,406.51c.73.58,1.38.28,1.95-.92.18-5.06-.69-10.38-3.27-14.86-.26-2.95.44-3.2,2.27-.94,1.67,3.14,2.63,6.29,3.38,9.71.47,2.19.4,4.32-.19,6.38l-.06,1.76-.95,3.21-1.96,3.86c-1.02.78-1.76-.25-2.23-3.07-.05-.24-.12-.61-.04-.81l-.99-3.24c-3.35-6.01-7.54-11.46-15.13-13.85,7.33,9.85,8.39,21.67,3.52,32.02-.18-1.27-1.01-2.22-2.17-2.43,4.63-11.44,1.41-24.37-8.32-33.63,10.89,1.12,20.18,7.79,24.19,16.8Z" style="fill: #422e26;"/>
            <path d="M384.13,330.01l.86,4.29v6.9c.43,4.26.62,8.59.55,12.99,1.59,10.24,8.1,18.59,18.21,22.81,6.6,2.76,12.64,6.78,15.83,12.79-.79.07-1.53.3-2.27.94-6.28-10.9-22.55-9.85-31.4-26.74-5.47-10.45-1.41-22.93-4.47-36.16-.61-2.62-2.56-5.59-.58-7.63l3.28,9.81Z" style="fill: #422f28;"/>
            <path d="M385.53,354.19c-.66-4.27-.56-8.58-.56-12.99.58.11.97.85.97,1.91l-.41,11.08Z" style="fill: #663e25;"/>
            <path d="M419.8,414.71c-.36.71-.84,1.25-2.12.78l-.1-3.85,2.23,3.07Z" style="fill: #422f28;"/>
            <path d="M384.98,334.3c-1.41-.87-1.28-2.82-.86-4.29.51,1.53.86,2.64.86,4.29Z" style="fill: #663e25;"/>
            <path d="M421.76,410.86c-.43-1.17-.34-2.81.95-3.21-.04,1.24-.43,2.18-.95,3.21Z" style="fill: #422f28;"/>
            <path d="M417.53,410.83c-.91-.81-1.13-2.05-.99-3.24.54.97,1.57,1.68.99,3.24Z" style="fill: #422f28;"/>
            <path d="M418.62,406.51l1.95-.92c-.01.38.19,1.02.01,1.53-.13.37-.63.81-1.39.55s-.43-.84-.57-1.17Z" style="fill: #422f28;"/>
          </g>
          <g>
            <path d="M237.08,485.47l2.86,4.55c1.12.62.98,2.24.06,2.92-.12.55-.46,1.57-.9,2.01l-11.96,11.91c-3.59,3.58-4.5,8.8-5.25,13.65-.5,3.21-5.02,3.61-7.13,1.88-13.37-10.88-7.01-23.04-7.26-37.15-2.49,10.51-7.53,17.97-13.86,25.51-7.41,8.81-6.85,20.79.6,29.35-2.54,2.63-4.07.07-5.74-.31-14.95-3.44-14.01-14.12-14.27-14.51s-1.12-.33-1.92-.43c-1.49-6.12-.78-11.83.44-17.97l3.75-18.82c.39-1.94-.71-4.65-1.75-6.15.7,14.14-5.3,26.29-14.97,35.21-2.51,7.01-4.28,13-2.23,19.68l4.93,9.01c4.73,8.64.98,20-9.09,23.79,2.91-7.77,3.59-16.58-3.31-21.28-14.87-10.11-21.66-14.94-18.12-35.99-9.03,12.26-14.46,26.22-4.36,38.06-4.85,1.27-6.97-2.08-9.79-4.64-3.65-3.32-7.6-7.68-6.77-13.06.49-3.15-.87-4.89-1.35-7.44-1.07-5.61,2.05-11.75,3.66-16.91,5.01-16.01-1.53-30.46-14.1-40.13-6.79-5.22-12.31-12.51-15.29-20.29-2.67-6.97-1.75-14.11-2.98-21.57-4.55,12.49-4.78,28.07,1.77,39.33,7.9,13.58,11.73,31.96.57,40.98-3.96,3.2-7.4,6.46-13.04,5.96l7.01-6.05c.69-.6,2.7-.68,2.9-1.36s-.74-2.41-.76-3.34l-.27-18.53c-.61.16-2.09.13-2.39-.55-2.48-5.67-6.64-9.67-11.37-13.47-20.92-16.82-22.79-43.4-12.47-67.26l9.86-22.79-21.7,17.78-9.87,9.99c-1.04,1.05-5.58,15.19-4.65,22.43-6.36-7.3-8.53-17.16-5.46-26.62,1.56-4.81,3.6-10.04,7.12-13.65l21.04-21.57,6.65-10.62c15.78,1.44,32.38.84,47.92.86,2.63,4.47,5.77,7.8,11.32,7.05l20.72-2.78c5.33-.71,10.6.2,15.67.97,5.53.85,8.13,4.64,9.48,9.67,5.95,22.14,12.46,40.47,34.11,50.87,17.29,8.32,35.53,27.02,41.38,45.06,1.81,5.58-1.99,12.71.54,16.75Z" style="fill: #683e26;"/>
            <g>
              <path d="M380.92,402.99c-7.41-5.61-14.68-11.41-21.11-18.84l-9.64-11.12-11.53-16.3-12.84-19.89c-5.34-8.27-11.21-15.82-15.16-24.37-.98-2.12-2.45-3.57-5.41-3.17-1.98-.97-1.75-3.17.71-6.6.5-2.64-.32-5.24-2.46-7.8l.39-2.17c-3.02,1.88-4.99,1.63-5.92-.74l-13.29-29.86,1.23-2.12c-1.35-.79-1.87-2.13-1.56-4.02-.37-3.14-1.51-5.85-3.42-8.11l.95-1.86c-4.11,1.52-6.93-2.54-4.68-5.44l-.28-2.64c-1.22-1.86.2-2.71,1.57-4.03,7.38-7.12,13.53-14.99,19.3-23.38,2.44-3.54,3.63-7.48,4.19-11.84,12.23-6.33,25.42-8.84,38.89-11.84l13.44-6.22c.68,23.25,8.25,45.57,21.37,64.57,1.43,2.06,3.99,2.92,4.59,5.73-12.8,7.46-30.48,16.36-34.43,29.79,1.37.04,1.79-1.16,2.86-2.32l5.99,22.61c3.44,12.99,7.27,25.25,10.23,38.45,4.56,20.28,9.27,39.82,15.69,59.59.45,1.37,1.98,2.61.32,3.96Z" style="fill: #fffffe;"/>
              <path d="M366.2,250.13c-12.59-18.25-21.46-40.38-21.47-62.84,3.63,22.62,9.07,43.43,22.41,61.64-.16.6.12.93.39,1.08.79.82,2.05,1.3,2.74,3.55-1.44.42-2.64-1.17-2.99-2.75-.13-.59-.59-.87-1.08-.68Z" style="fill: #8b7f79;"/>
              <path d="M324.57,272.53c-3.4-1.59-6.02-4.78-7.11-8.83,2.85,2.59,4.86,5,7.11,8.83Z" style="fill: #aaa5a3;"/>
              <path d="M330.09,278.75c-2.27-.43-4.47-2.29-4.71-5.04,1.96,1.31,3.45,2.38,4.71,5.04Z" style="fill: #b2aead;"/>
            </g>
          </g>
          <g>
            <path d="M254.98,251.11l-8.96,9.84c1.68-4.56,5.2-8.05,8.29-10.92.08.36.1.67.67,1.07Z" style="fill: #453d3b;"/>
            <g>
              <path d="M381.13,319.37c-1.55,1.02-3.08.52-4.57-.37-2.33-1.4-10.03-13.2-3.74-12.6,5.95.57,19.09,17.56,20.92,23.83,1.46-9.83-.98-19.61-6.46-27.85-5.43-8.17-23.71-21.6-32.92-26.44-.23-.12-.9.18-1.14.33l13.96,51.25c5.5,25.22,11.72,50.56,20.02,74.79l-1.53,1.77c-1.87-.78-3.15.13-4.75-1.08l-3.32-6.85c-10.12-38.47-20.09-76.38-29.89-113.72-3.35-.5-4.2-1.99-2.78-5.03,7.72-11.9,18.61-20.98,32.68-27.24-15.86-18.05-23.03-42.72-25.59-66.3-10.22,4.76-21.16,8.17-32.84,10.22l-15.79,5.76c.44.55.29,1.17.11,1.8-3.87,14.2-16.22,26.27-26.59,36.3.44,1.61.38,3.01-.18,4.2-2.41-1.74-4.08-1.59-4.99.45,2.09,1.91,1.84,4.26-1.14,3.44-.31.75-.82,1.4-1.64,1.53-4.87.77-7.47,2.04-11.88,4.7l-2.09-1.14c-1.68,1.2-2.15.49-.67-1.07-1.76-1.47-1.1-2.09,1.98-1.84-.15-.48-.24-.89-.09-1.01,2.09-1.74,8.4-6.83,10.41-7.97.39-.22.94-.14,1.54.01l17.68-17.37c1.33-2.07,1.95-3.82,1.86-5.26l-.75-1.16c-10.07,11.63-21.1,22.13-33.09,31.5.08.61.09,1.13-.17,1.36-10.97,9.85-22.07,19.77-33.85,28.67,11.18-.5,20.8-5.61,28.86-15.35,6.6-4.3,13.6-8.05,21.01-11.25l2.5.59c.41-2.02,1.15-2.02,1.61-.01.63-1.32,1.87-2.38,2.76-1.03,1.82-.85,3.87-.41,3.1,1.67-.39,1.07-13.34,8.27-15.34,9.11l-2.2-1.05c-.22,1.03-.63,1.1-1.22.22-.38,1.14-1.38,1.46-3,.97.37.53,0,.87-1.13,1.02-.49,1.4-1.3,2.78-2.43,4.16.48,44.13-56.3,68.74-78.89,25.29-2.52.35-3.77,2.04-3.75,5.07.96,1-.79,1.89-2.03,2.14.27,1.8-.45,1.87-1.27.2-1.76-.26-2.19-1.16-1.78-2.77l-10.95,6.05c.44,1.84.16,3.28-.83,4.33,1.01,2.59-.34,3.04-2.12.98-2.64-.17-2.5-1.07.03-1.78l-.89-3.75-2.21,3.18c-9.72,5.5-19.26,10.99-28.59,16.47.77,2.08.11,2.49-1.09.62-1.65,1.26-3.3,2.52-4.95,3.77,2.87,11.66,3.08,23.1.62,34.31,3.09-1.2,5.24-.88,6.45.96.73-2.02,1.35-2.13,1.93-.01l1.04-2.24c9.71-2.52,22.47-2.31,31.9,1.07,1.95-4.5,4.52-3.37,5.88,1.79l9.49,30.2c6.95,18.57,21.08,26.85,38.17,34.15l.95,2.6c2.32,1.79,3.32,1.77,3.02-.06-.83-.17-1.62-.4-2.25-.85-5.53-3.94-14.48-19.87-18.06-26.6-3.3-6.21-9.43-17.88-10.41-24.38-.23-1.52.13-3.02.7-4.44l-.88-3.35c-.88-.26-.87-.6-.03-1.02.35-.84.68-.81,1,.07.15-.89.45-.86.88,0,4.41-.38,5.29,3.11,2.15,3.23,9.82,23.81,22.53,45.94,38.15,66.41,6.36,9.4,11.52,19.23,15.48,29.49,1.04,4.23,2.46,13.09-2.41,14.5-.35.95-1.94,1.91-1.73,3.81-1.6-.08-2.8-.63-2.78-2.21,4.69-22.67-15.83-41.73-32.92-53.85-26.85-10.65-36.99-33.23-43.49-59.48-3.87-5.05-10.18-7.06-18.93-6.04l-26.25,3.08c-4.1-.33-9.01-3.89-9.52-7.44,0,0-15.43-.1-46.28-.31l-6.05,9.62-21.17,21.72c-7.22,9.29-10.93,21.75-4.95,32.71.91-13.37,6.01-19.12,15.29-27.91,2.27-2.15,20.06-17.31,21.43-17.35,1.85-.06,2.58,1.3,2.7,3.1l-11.35,26.69c-8.22,27.16-3.8,47.68,19.61,65.18l5.71,8.04c1.31.51,2.21,1.25,2.7,2.21.21,7.36.61,14.67,1.2,21.93,12.12-11.15,4.25-29.51-2.63-41.63-3.96-7.37-5.47-28.97-1.06-35.59,2.15-3.23,2.67-3.34,4.86.04-.63,18.03,6.68,31.83,21.46,42.3,17.03,15.44,12.56,33.42,6.79,52.4l1.54,7.1c-.59,7.49,2.88,13.6,10.39,18.32-6.04-9.97-2.56-24.23,4.27-33.03,1.62-2.08,4.56-5.75,5.91-1.82-3.72,17.27,4.94,26.11,18.84,34.36,5.15,4.61,5.83,10.8,4.45,17.28,5.62-3.28,6.82-10.68,4.44-17.01-7.12-10.33-8.73-20.1-3.14-31.82,9.36-8.67,15.02-20.26,14.71-33.14,3.79-3.81,5.39.37,5.68,4.55l-4.66,24.47c-1.35,5.36-.63,9.69,2.17,12.99.62,8.22,6.92,11.67,14.2,13.46-7.76-12.89-2.97-24.97,6.76-35.16,0,0,2.14-3.87,6.43-11.62,1.48-6.73,3.5-8.32,6.04-4.8l-1.3,17.23c.21,11.57,11.68,28.05,13.62,7.86,3.72-6.5,8.69-12.29,14.91-17.37l2.39.42c.32.89.94,1.58,1.78,1.84-2.85,6.92-10.34,9.46-14.12,15.51-3.47,5.56-1.98,11.38,4.36,15.48-14.33,4.59-27.85-8.39-27.92-24.22-8.86,9.36-15.76,18.73-9.98,29.39,2.09,3.85,6.31,6.32,11.66,8.04-8.63,5.35-18.9,3.41-26.31-2.61-7.96-6.46-10.71-17.4-9.12-27.71-9.04,9.01-13.64,19.75-6.39,30.53,5.17,7.69,5.44,17.03.16,24.57-4.1,5.86-10.68,9.04-17.73,7.04,5.08-3.71,8.01-7.66,7.77-12.92-.22-4.67-3.49-8.16-7.58-11.23l-9.6-7.21c-5.6-4.21-7.52-11-7.52-17.95-6.77,10.82-4.61,24.1,6.58,30.15-6.92,4.93-21.06-3.36-25.73-13.28-4.5-9.56-3.98-20.5.17-30.14,5.32-12.36,2.57-25-6.96-34.61l-12.77-12.88c-4.67-4.71-7.4-10.26-9.19-16.6-1.09,9.38,3.24,17.3,7.61,25.06,5.25,9.33,6.78,20.18,2.52,30.02-5.44,12.57-21.04,19.27-29.57,11.57,10.34-1.05,16.42-9.15,15.99-18.73s-6.28-16.84-13.73-22.71c-26.2-20.63-23.06-51.52-9.17-80.94-18.92,11.57-30.08,24.69-23.04,46.49-14.64-9.23-17.55-27.61-10.24-42.16,7.82-15.54,23.51-22.94,31.64-37.88-11.95-.94-22.61-4.51-33.66-8.8-4.43-1.72-9.79-1.75-13.24-5.81-6.23-7.31-8.13-20.13-2.26-28.24l15.85-15.95c5.51-5.55,12.65-8.48,19.26-11.91-12.49-20.86,12.81-46.14,16.47-67.34,1.64-9.51-.25-19.3-3.4-28.39-6.33-18.29-6.66-36.64-.5-54.87,4.73-14.01,11.67-26.01,21.82-36.79,3.89-4.14,6.26-9.73,8.94-14.65,8.84-16.26,27.83-21.18,43.57-10.05,15.7-13.12,34.36-10.3,53.49-4.1,14.8,4.8,26.53,14.82,32.28,29.35l7.89,19.91c4.65,8.85,13.09,14.88,22.29,18.23l24.73,9.02c6.71,2.45,12.23,8.02,13.59,15.29,2.67,14.26-11.75,27.12,2.32,39.24,2.84-4.11,6.25-4.06,9.73-5.6,2.12-.94,3.97-4.64,7.26-3.29,1.01.42,1.98,1.87,2.89,3.71,12.01-6.47,24.64-8.99,37.99-11.61l12.87-5.92c2.49-1.15,4.47-.59,6.64,1.14l27.37-14.64,37.69-16.83c12.04-5.37,21.97-20.62,42.08-29.39l33.92-14.79c23.37-10.19,46.41-19.94,68.65-32.35l14.19-7.92,41.69-26.45c4.51-2.86,8.74-4.31,13.62-6.38,18.09-7.66,34.54-18.17,50.24-29.85,1.37-1.02,3.17-1.03,4.32-.32,3.46,2.14,1.32,9.97-4.56,15.88-8.7,8.73-18.6,15.6-29.4,22.68,2.06,1.83,4.83,2.3,7.23,3.52,3.42,1.73,4.74,4.84,3.14,8.28l-3.97,8.55c2.56,1.99,4.18,6.46,1.5,8.79-2.32,2.02-4.95,4.78-7.87,5.9-6.56,2.52-14.46,2.5-20.24,6.65-7.4,5.32-14.63,9.8-23.95,10.11l-15.96.53c-9.33,2.44-17.28,8.12-24.91,13.83-17.89,13.37-33.77,27.91-50.45,42.72-15.48,13.73-31.74,24.51-50.81,32.54-13.06,5.49-24.17,13.47-35.02,22.5-17.52,14.59-35.53,27.12-55.01,39.24.56,3.04,2.08,8.24-.48,10.3-8.97,5.78-18.23,10.26-26.21,17.91,10.16,10.22,24.69,13.98,34.29,28.29,9.52,14.19,11.71,32.36,2.21,47.49-1.42-10.48-5.33-20.11-11.7-26.81Z" style="fill: #422e26;"/>
              <g>
                <path d="M380.8,248.7c-.95-.39-2.02-2.16-2.67-3.88-.34-.94,1.83-1.39,2.17-.75.29.55.74,1.73.5,4.62Z" style="fill: #d3cfcd;"/>
                <g>
                  <path d="M214.49,428.6c2.46,3.31,5.13,6.43,6.88,10.67l-8.83-8.09c-.81-.74-1.05-1.79-1.07-2.52.85.41,2.09.49,3.02-.06Z" style="fill: #d3cfcd;"/>
                  <path d="M260.93,259.89c.23,1.09.07,2.43-.96,2.96l-.03-.98-2-1.01c.86-.78,1.85-1.16,3-.97Z" style="fill: #453d3b;"/>
                  <path d="M152.78,305.56c-1.04-.75-1.09-2.15-.89-3.75,1.2,1.21.91,2.53.89,3.75Z" style="fill: #77736f;"/>
                  <path d="M184.47,372.33c-.89-1.01-.87-2.22-.88-3.35,1.75.39.58,2.36.88,3.35Z" style="fill: #46474b;"/>
                </g>
                <g>
                  <path d="M276.91,237.94c2,3.04.62,7.35,4.96,8.08-3.97,1.98-8.17,1.31-8.05,4.94-.35-.07-1.28-.23-1.61.01.81-1.9-.28-3.6-1.62-4.93,1.11-.54.73-1.23.3-1.57l-2.21-1.8c1.57-1.4,2.92-3.51,5.37-4.4,1-.36,2.01,2.13,2.33,2.93.37-1.44-.17-2.37.53-3.26Z" style="fill: #453d3b;"/>
                  <g>
                    <path d="M119.99,322.08c4.65,8.34,7.01,29.14,3.31,37.9-.19.46-.65.81-1.19,1.13-2.84.02-5.42,1.49-9.57,1.02,3.14-6.99,3.68-13.73,2.67-20.96l-2.11-15.08c-.36-2.56,5.15-5.52,6.89-4.01Z" style="fill: #fdfdfd;"/>
                    <path d="M111.15,360.47c-.54,1.06-3.65-1.56-2.81-3.07.48-.87,2.74-.95,3.2-.54s.62,1.64-.39,3.61Z" style="fill: #f5f3f0;"/>
                  </g>
                  <g>
                    <path d="M14.84,306.38l4.25-1.66c4.77.6,9.21-.05,13.32-1.96,5.68-5.19,9.04.23,3.61,3.43l.38,2.62c.5-1.58,1.41-2.34,2.74-2.28-2.42-1.86-.87-6.39,3.26-4.63,4.07,4.17,12.82,7.34,4.07-1.16-2.05-3.86-5.46-11.36-.93-14.11.38-.06,1.09-.65,1.34-.97,1.99-.24,3.08,1.62,3.27,5.59,1.29,4.73,15.34,9.22,5.06,3.43-2.73-2.72-7.24-9.05-2.45-10.9,10.55-3.82,21.53-5.83,32.5-7.36,5.84-.05-.28,6.13-3.29,7.93l11.27-9.04,15.58-2.98c10.67-2.04,20.91-4.34,31.11-6.05.66-1.87,6.77-3.16,7.91-1.33l3.12-1.04,1.49-1.46c9.07-2.13,17.95-4.98,26.64-8.57l11.01-1.8c21.6-8.96,43.13-18.37,64.59-28.23,7.97-6.31,16.37-12.31,25.14-17.39l7.48-6.38c5.87-5.01,5.76,8.95-9.25,19.47-1.19-1.64-2.5-2.64-3.69-2.65-1.09-.01-2.49.54-3.54,1.32-10.72,7.99-21.49,14.69-33.07,21.45,5.53-.08,9.13-3.93,13.29-6.51l23.97-14.83c.87,11.01-15.83,20.21-25.58,29.05-5.9,5.35-11.43,10.12-17.75,15.05l-15.49,12.08c-6.71,4.4-13.73,6.7-21.83,4.8-14.88,5.29-28.8,11.52-42.47,19.28l-24.08,13.67-28.11,17.55c-16.76,10.46-34.68,15.48-54.21,16.71,23.85,2.91,44.78-7.25,64.8-19.89,2.6,9.16,2.66,17.55,2.08,27.21-21.3,1.44-42.48,1.94-64.03-.24-10.46-1.06-19.54-5.57-29.35-8.18-8.45-2.25-14.25-6.44-15.62-15.56-1.07-7.14.73-13.48,6.42-18.77l5.05-4.69Z" style="fill: #d48660;"/>
                    <path d="M287.69,216.61c.06,2.01-.57,3.5-2.9,2.68-5.63,6.99-12.72,15.39-19.49,21.42-2.99,2.66-7.64,6.08-11.34,7.1-.16.04,2.75-1.62,2.33.4l-1.98,1.84c-2.3,2.91-2.08,3.27.67,1.07l9.12-4.76c2.32-1.21,4.56-1.15,6.49-.32,4.03-1.32,4.32,2.77,1.62,4.93-4.39,3.61-10.62,5.45-16.12,8.07-12.28,5.85-18.07,23.71-42.83,19.4,7.57-3.46,12.54-9.18,18.76-13.74,6.02-4.42,10.55-9.78,16.4-14.4l14.36-11.35c10.02-7.92,13.89-15.59,22.75-23.93,10.37-9.77,5.87-16.28,8.96-19.16.88-.82,3.34-2.5,4.32-.63.86,1.64.6,6.21-.64,7.79l-10.47,13.59Z" style="fill: #d48763;"/>
                    <path d="M45.53,286.62c-1.15,7.83,2.39,16.35,10.28,19.53-5.81,3.65-11.89,1.08-15.64-3.84-.94,1.79-.81,3.03-1.04,4.21-.95,2.64-2.62,2.45-3.11-.34.7-.99,1.05-2.97,1.62-4.72-7.82,6.79-13.88,5.3-22.8,4.91l4.89-3.99c7.54-2.23,13.2-6.2,16.96-11.93,2.83-1.09,5.81-3.34,8.84-3.84Z" style="fill: #61574e;"/>
                    <path d="M52.74,283.77c-.74,4.27,1.68,7.87,4.49,10.01,4.13,3.13,8.45,2.34,14.2.81-2.39,3.72-7.64,4.84-12.12,4.63s-8.71-2.71-11.01-7.26l-1.43-6.3c1.23-1.61,4.14-1.26,5.87-1.88Z" style="fill: #594f47;"/>
                    <path d="M93.21,275.29c-4.37,10.31-15.37,15.4-25.88,10.63,7.85-.21,14.82-1.88,18.9-8.87.79.6-.48-.61-1-.64l7.98-1.11Z" style="fill: #63534a;"/>
                    <path d="M36.69,290.46c1.08.03,1.46.91.95,1.83-3.7,6.64-10.63,10.54-17.91,10.11,4.72-5.17,10.4-9.41,16.96-11.93Z" style="fill: #ce835d;"/>
                    <path d="M268.15,239.23c-.76,1.05-.99,2.48-2.65,3.47l-9.21,5.5c-.61-.38-1.32-.14-2.33-.4,11.19-8.76,21.53-18.03,30.83-28.52,2.42-2.49,3.54-.66,1.49,2.09l-18.14,17.87Z" style="fill: #453d3b;"/>
                    <path d="M268.15,239.23c4.81-6.62,11.43-11.93,17.35-18.36.64-.7.18-1.8-.7-1.6.72-.82,1.24-3.04,2.9-2.68s2.05-1.84,4.49-2.45c-2.43,5.52-6.33,9.03-10.34,13.12-4.4,4.49-8.63,8.84-13.69,11.96Z" style="fill: #9e684f;"/>
                    <g>
                      <path d="M179.24,288.01l15.56-6.02,8.21.18c13.62-3.53,26.21,2.77,38.92-8.52l8.1-7.2c-.26,17.4-10.07,32.34-25.14,39.61-17.99,8.68-37.15,1.24-45.65-18.05Z" style="fill: #d48560;"/>
                      <g>
                        <path d="M532.21,136.48c-16,14.25-32.09,28.42-51.97,37.35l-22.28,10.02c.11,3.12-6.6,4.47-13.8,10.48-21.31,17.8-43.55,33.94-67.53,47.93-11.26-18-17.94-37.07-19.68-57.6l32.94-17.92,25.4-11.44c6.44-2.9,13.33-5.35,18.82-9.9,9.59-7.95,18.05-16.8,29.49-22l32.8-14.91c24.81-11.27,50-20.73,73.63-34.33,5.62-3.23,10.65-5.7,16.05-9.09l44.26-27.69,26.8-12.97c12.64-6.12,23.4-14.3,35.02-23.28.54,7.77-3.8,13.51-9.14,17.46l-24.44,18.09c-8.44,6.25-16.14,12.64-22.73,21.04-.75.96-.66,3.36-1.92,3.51l-5.97.68c9.17,2.94,18.17,2.5,27.42-1.68,3.65-1.65,11.67.55,10.53,5.09-1.23,4.92-8.9,7.24-13.24,7.94-7.76,1.25-13.6,4-19.66,8.36s-13.47,6.17-20.94,6.65l-22.14,1.43,3.65,1.03c-6.74,3.19-13.32,6.4-19.67,11.15-14.6,10.9-28.05,22.43-41.7,34.59Z" style="fill: #d48661;"/>
                        <path d="M651.17,54.77l7.45-4.57-.61-.71-6.36,2.43c-.89-.77-1.92-2.01-2.86-1.91.36,1.62,1.07,2.11,1.55,2.6.62.62-.49,2.14-1.58,1.98-2.24-.34-4.19-.62-5.98-1.36l13.59-12.21c3.43,1.21,9.13,1.84,11.28,5.73,1.19,2.87-2.25,9.03-4.38,11.17-3.18.03-7.75-.57-10.88,1.36-1.21-.17-2.67-3.61-1.22-4.5Z" style="fill: #d28661;"/>
                        <path d="M650.33,59.73c-3.21,1.83-8.07,3.23-11.65,1.81-.74-2.4,1.81-5.54,3.75-5.79,3.03-.4,6.05-.91,7.9,3.98Z" style="fill: #d18660;"/>
                      </g>
                    </g>
                    <path d="M39.13,306.53c-1.21,6.34-7.02,11.86-14.46,10.58,4.46-3.4,8.34-6.65,11.35-10.92l3.11.34Z" style="fill: #5e5047;"/>
                    <g>
                      <path d="M226.76,192.58c-.97,8.37-1.5,16.88-3.46,25.93-.63,2.92,4.5,5.31,6.71,5.73,5.84,1.12,10.58-1.07,15.56-2.24,3.71-.87,5.01-1.18,7.6-3.66,3.92-3.76,10.7-4.21,15.72-5.99l8.76-5.98,2.15.09c-6.49,5.54-13.51,10.58-20.28,16.23-8.29,6.92-17.76,9.4-27.43,13.53l-41.52,17.75-10.99,1.8c-9.7,3.27-18.94,6.62-28.65,8.12l-3.12,1.04-7.91,1.33-1.87-1.76,28.98-6.65-6.53-8.6c-2.28-3.01-5.46-5.13-7.31-8.8-9.59-1.88-17.53-6.05-24.43-13.34-2.54,2.8-5.55,3.69-8.74,4.27-1.93.12-1.9-.66.04-1.17-1.87-.02-1.82-.79.1-1.12.2-2.52,3.57-3.94,5.88-2.86.31-2.99,1.17-3.78,2.58-2.37l2.6-.42c14.16,15.9,44.35,19.08,64.39,16.52,6.5-.83,15.89-3.29,18.52-9.96,4.51-11.43,7.69-22.78,8.69-35.09l2.31-3.39c1.07-1.73,1.35-.73,1.63,1.06Z" style="fill: #453027;"/>
                      <path d="M150.93,263.89c-.65,1.31-2.13.87-3.12,1.04.48-1.59,2.12-.89,3.12-1.04Z" style="fill: #663e26;"/>
                      <path d="M210.58,242.83c-8.11,3.19-15.22,7.79-23.42,9.58-5.94,1.3-11.89,1.03-17.43,4.53-3.49-5.84-7.4-10.09-12.08-14.7,18.97,2.48,48.93,6.19,58.79-7.94l5.13-11.52c8.8,7.75,16.68,1.75,19.59,6.08l-8.94,4.33c-7.1,3.44-13.84,6.56-21.63,9.63Z" style="fill: #d38762;"/>
                      <path d="M251.95,223.7c-2.43,1.93-5.09,3.17-8.72,4.28-.28-.9-.38-1.72-.32-2.79,2.98-.92,4.96-1.87,9.04-1.49Z" style="fill: #d5d1cf;"/>
                    </g>
                    <g>
                      <path d="M192.89,119.24c-.53,1.49.02,2.47,1.65,2.93,4.21,6.51,7.3,14.89,11.6,18.97,14.06,13.33,20.56,31.37,18.97,50.37-1.1,13.17-3.64,26.62-9.19,39.29-7.43,16.99-46.48,11.84-66.24,7.08-8.6-2.07-14.66-8.82-21.09-14.03-1.44.18-2,1.19-2.58,2.37-1.68,1.51-3.61,2.83-5.88,2.86-.78.85-2.13.93-4.06.22-5.15-.75-9.78-3.47-14.16-6.86l5.27-7.23c.83-1.15,2.75-.79,3.42.09s.76,2.11,2.56,3.02c-.22-2.63-1.51-4.16-3.36-6.54,8.02-10.65,13.11-23.14,13.76-35.99-.31-5.22.04-10.33,1.03-15.31,6.79-3.18,13.68-6.12,20.68-8.8.46-6.9-18.94.41-21.06,3.43-.56.25-1.47-.9-1.97-1.7l-6.63-35.38c2.66-8.18,12.2-15.63,19.99-18.66,3.88-1.51,5.79-2.43,9.14-4.31,15.03-8.44,37.04,10.12,48.13,24.2Z" style="fill: #d48661;"/>
                      <g>
                        <path d="M120.15,229.09l-.1,1.12c-1.51.72-2.88-.75-3.96-.91l4.06-.22Z" style="fill: #663e26;"/>
                        <g>
                          <path d="M128.61,223.86l-2.58,2.37c.23-1.55-.15-3.17-1.18-5.62,2.32-.49,2.64,2.33,3.76,3.24Z" style="fill: #663e26;"/>
                          <path d="M192.89,119.24c.73.92,1.04,1.99,1.65,2.93-5.19,1.69-10.55,3.94-14.67,8.03l-10.26,10.21c-2.29-2.82-3.1-6.88-1.37-9.99,4.28-7.7,14.64-15.16,21.94-10.93,1.13.65,2.11.55,2.71-.26Z" style="fill: #694027;"/>
                          <path d="M123.58,175.79l-.28-12.07c.02-3.86-.44-7.1-1.04-10.32,1.3.1,2.52-.58,3.77-1.59,3.3-2.68,7.23-3.55,11.28-4.76,4.55-1.35,9.12.78,10.47,5.54-6.68,4.6-16.01,4.81-23.56,10.59l-.63,12.61Z" style="fill: #6a3f27;"/>
                          <path d="M131.22,185.36c-3.48.19-5.95-.36-8.55-1.44,3.27-.48,3.99-1.45,5.35-3.39,6.14-8.71,17.25-14.97,27.9-9.78-10.64,1.96-20.15,4.26-24.7,14.61Z" style="fill: #4d3021;"/>
                          <path d="M192.26,143.09c-5.91,3.77-8.43,9.28-11.4,14.88-.95-8.59,4.05-17.04,12.01-19.58,2.74-.87,4.79-.74,6.86-4.04.82,2.12,1.02,6.27-.81,6.8l-6.67,1.93Z" style="fill: #4d3021;"/>
                          <path d="M191.62,184.24c.36-3.99,2.14-7.29.94-10.49-2.58-6.85-14.57-4.13-17.8-14.17,4.31,5.47,10.5,6.66,16.33,9.73,5.32,2.81,4.27,11.49.54,14.93Z" style="fill: #724331;"/>
                          <path d="M207.23,213.13c.5,9.08-14.13,13.48-15.65,11.63-1.37-1.66,11.24-.52,15.65-11.63Z" style="fill: #814d36;"/>
                          <path d="M176.74,189.62c-1.54,3.04-3.66,1.34-5.09.3-2.33-1.7-2.62-4.31-1.38-6.51.6,2.04.82,3.36,1.5,4.54.84,1.46,2.78,1.73,4.97,1.67Z" style="fill: #824e38;"/>
                          <path d="M184.53,187.01c-3.18,1.23-4.53,1.58-6.99,1.4.74-1.77,2.01-1.73,3.21-2.25,1.7-.74,2.78-.8,3.78.86Z" style="fill: #774835;"/>
                          <g>
                            <path d="M158.5,211.72c-.98.44-2.43,2.04-3.38,1.39.49-2.87,2.33-5.52,4.82-7.02l.41,1.84c.63,2.8,38.67-9.49,47.37-27.07l-.34,20.5c-.12,7.49-3.95,13.35-10.72,16.1-14.09,5.73-24.64.26-38.17-5.75Z" style="fill: #513026;"/>
                            <path d="M202.93,190.15c2.86,10.83-12.95,18.33-24.47,21.06-4.68,1.11-9.39,1.62-13.78-1.27,14.04-3.87,27.23-10.11,38.26-19.79Z" style="fill: #fbfafa;"/>
                            <path d="M203.12,209.28c-5.04,8.39-15.49,10.26-24.79,7.97,5.32-6.1,16.68-11.43,24.79-7.97Z" style="fill: #c16b65;"/>
                          </g>
                        </g>
                      </g>
                    </g>
                  </g>
                  <g>
                    <path d="M277.65,206.36c-4.61,6.38-12.8,9.33-20.48,11.62-5.7,4.88-16.71,8.8-24.25,8.55-12.56-.41-12.47-7.35-9.01-18.13.43-5.53,1.38-10.8,2.84-15.81-.58-3.65-.78-7.47-.6-11.43-1.08-10.59-4.14-20.71-9.19-30.36,4.21.11,4.63-.23,1.26-1.03l-7.91-7.74c-6.57-10.94-11.88-22.58-15.91-34.89-8.87-16.01-36.07-31.44-49.44-13.78-1.13,1.38-2.45,2.16-3.97,2.35-20.98-13.98-30.04,2.03-26.94,22.81l7.79,41.3c3.51,24.25-6.5,44.61-21.16,62.07,4.36,6.51,12.14,8.17,19.33,9.51l.33-1.1c3.17-.72,6.04-2.25,8.61-4.58,7,6.84,14.88,12.48,24.75,13.98,3.16,1.8,15.51,15.89,14.65,18.31-.5,1.42-25.01,6.54-28.69,7.23l-1.63-.72-59.44,10.35c-13.02,2.27-25.04,5.71-37.86,10.02-9.29-25.47,16.3-46.44,17.8-69.58.79-12.25-2.86-23.67-6.34-35.16-7.14-23.56,1.89-53.33,17.72-73.1,1.01,1.44.25,3.27-.17,5.03,2.89-2,3.24-5.69,5.15-8.42,3.14-4.48,5.63-8.53,6.98-14l3.13-3.55c1.49-4.36,4.98-6.33,7.8-9.14,7.06-7.02,15.83-7.63,25.03-4.17,3.05,1.15,3.79,2.34,5.65,4.33,2.65,2.86,8.13,3.41,11.56,6.4-.9-3.86-3.65-5.53-5.97-8.64,3.08-3.2,7.53-5.17,12.44-5.89,23.2-3.4,49.33,3.8,62.47,23.55,11.12,16.73,8.12,29.11,21.45,38.29,5.96,4.1,12.02,9.13,19.11,11.4l16.55,5.3c7.93,2.54,14.77,7.19,15.95,16.24,1.65,12.65-10.88,25.52,2.5,39.87l-1.91,2.72Z" style="fill: #663e26;"/>
                    <path d="M226.76,192.58l-1.63-1.06-1.8-3.07c.86-18.35-6.76-35.28-20.16-47.63-3.44-5.16-6.57-10.52-9.37-16.1l.75-2.55c-2.81.72-3.27-.67-1.65-2.93-1.38-.15-2.73-.81-4.06-2-8.22-8.63-17.98-18.16-29.74-21.47-8.45-2.37-17.81,2.4-25.24,6.53-6.74,3.75-13.06,8.31-16.11,15.67l6.26,33.91-1.73,1.52c2.31,1.04,3.29,3.43,2.94,7.17-1.62,4.67-2.16,9.74-1.62,15.22l1.76,3.05c-.44,11.26-6.59,23.62-12.93,32.72,4.78,5.9,1.22,11.48-3.75,4.86-4.23,4.26-4.15,7.03.24,8.29,3.45.94,5.84,2.47,7.2,4.59,1.47.08,2.79.38,3.96.91l-.04,1.17c-7.16,1.29-14.12-2.03-19.59-7.47-9.95,9.66-17.05,19.04-17.3,33.14-2.46-8.23.01-16.27,5.33-22.97l21.81-27.46c6.41-10.26,9.83-22.05,10.76-33.92,1.29-16.42-6.78-39.55-9.49-59.77-.67-4.98.03-9.04,1.62-13.63,2.74-7.9,9.92-12.74,18.35-10.42,3.8,1.05,6.94,3.05,10.92,5.73,2.24-6.35,7.19-10.24,14.12-10.69,14.66-.96,29.36,6.26,37.5,18.63,9.21,14,8.49,35.86,29.24,48.2,11.34,6.74,23.88,6.96,30.86,13.75l-4.19.32c3.87,5.75,6.01,12.32,4.62,18.84-2.45-11.9-3.39-21.56-15.74-23.79-7.56-1.36-13.58-4.8-20.96-8.61,7.99,13.95,10.52,27.26,8.89,41.31Z" style="fill: #4d3021;"/>
                    <path d="M68.74,268.83c-4.61-2.87-5.91-8.21-6.75-13.33-5.79-35.49,39.44-48.93,38-96.93-.13-4.44-1.82-9.04-.08-13.88,6.29,26.74-2.31,48.37-19.38,69.62-13.66,17.01-23.41,34.96-11.8,54.52Z" style="fill: #402a21;"/>
                  </g>
                </g>
              </g>
            </g>
          </g>
        </g>
        <g>
          <path d="M151.89,301.81l.89,3.75-.03,1.78c1,1.88,1.61,4.23,1.85,7.06,1.69,2.44,2.35,4.65,1.97,6.64,2.28-1.01,3.73-.57,4.34,1.34,4.38,10,8.85,19.9,13.36,29.86.31.69.41,1.48.47,2.3.06.86,0,1.74-.11,2.61-.39,2.2-.11,4.36.84,6.47,1.12,1.33,1.48,2.7,1.08,4.12,2.44.1,4.49-.27,6.15-1.11l.86,1.34.03,1.02.88,3.35c6.54,22.02,16.33,37.81,30.03,56.27.58,3.26-1.65,2.39-3.02.06l-14.95-7.17c-14.59-7-23.75-19.89-28.22-35.28-2.87-9.89-5.54-19.27-8.97-28.47-.94,2.52.18,4.04.32,6.53-6.93-6.83-25.02-5.47-35.62-3.18l-.85-.55c2.89-13.21,1.62-25.98-2.1-39.09,0-1.6,1.02-2.56,2.58-3.5,9.52-5.72,18.43-11.96,28.22-16.15Z" style="fill: #fefefe;"/>
          <path d="M262.15,259.66l16.67-9.24c-.94-.75-1.72-.33-2.24-.5-.12-.46-.18-.87,0-1.12,3.22-4.48,9.02,3.55,7.23,8.18-.66,1.71-17.37,10.14-18.83,10.01-2.47-.22-4.79-4.96-2.82-7.33Z" style="fill: #453d3b;"/>
          <path d="M285.89,260.01c-1.07,1.61-19,10.07-20.08,9.72-1.44-1.52-2.79-2.53-4.05-3.03-.94-.86-1.73-2.34-1.79-3.85-.14-1.8.18-2.79.96-2.96.34.05.95-.06,1.22-.22.19,2.28.83,4.37,2.96,6.33l15.95-7.86c1.8-.89.8-8.79-1.81-9.29-1.14-.22-1.76.74-2.67,1.08l-2.76,1.03c-3.08-4.92,4.03-6.52,8.05-4.94,2.66,3.82,5.72,9.08,4.03,13.99Z" style="fill: #7f7976;"/>
          <path d="M179.51,362.39c3.61-1.91,10.28-1.07,9.98,3.69-.67,1.57-2.27,2.45-4.06,1.96-.26-.07-.62.02-.88,0-2.61-.69-5.28-.79-8.01-.3-2.37-.89-3.74-4.88-4.05-7.56-.22-1.9,1.01-2.79,2.13-3.02,2.71-.3,4.56,2.85,4.89,5.24Z" style="fill: #847d79;"/>
          <path d="M124.04,361.09h-1.93c3.72-12.82,2.28-26.29-2.12-39.02.59.45,1.09-.13,1.09-.62,2.6,6.46,3.96,13.48,4.69,21.15l-1.73,18.49Z" style="fill: #877c78;"/>
          <path d="M184.55,368.03l-1-.07c-2.1-.15-4.91.56-7.01-.23,1.52-1.28,3.84-.61,6.03-.99-.65-1.02-1.68-1.81-1.87-2.25-.13-.29,1.4-.97,2.15-.48,1.12.86,1.18,2.88,1.7,4.03Z" style="fill: #46474b;"/>
          <path d="M305.23,309.3c-.26,1.71-1.79,3.65-1.08,6.7-2.49-1.03-3.67-2.72-4.18-3.82-6.4-2.06-1.53-9.17.63-10.78.52-2.22.25-4.77-.81-7.64.2-.98,1.56-1.32,4.09-1.03,8.48,9.6,2.13,11.5,1.36,16.57Z" style="fill: #7f7a77;"/>
          <path d="M194.82,353.12c2.4,1.57,1.5,3.41-1.3,3.01-1.6,3.71,1.15,7.88-.97,9.37-.69.49-2.32.41-3.06.57l-4.35-2.57-5.64-1.11-.22-2.26,10.52-7.24c2.43-1.79,4.1-1.71,5.01.23Z" style="fill: #f9f8f8;"/>
          <path d="M300.59,301.39c1.15.02,1.05.9.48,1.17-2.46,1.17-2.62,6.38-1.11,9.61-1.34,1.51-2.92,2.13-4.59,2.19-1.22-4.5-5.37-6.31-9.86-6.42-.21-.74-.47-1.86.01-2.17,1.3-.84,12.28-5.65,12.99-5.64.81.01,1.5.66,2.08,1.26Z" style="fill: #f9f9f9;"/>
          <path d="M285.89,260.01l13.95,31.37c.71,1.6,3.15,1.04,4.03,1.35-.51-.09-2.56.88-2.3,1.77.69,2.39,2.75,4.28,2.09,7.27-.14.38-1.41-.33-1.65-.7s-1.03.06-1.41.33l-15.08,6.55c-.41.07-.95.37-1.33.23-.56-.2-1.26-.75-1.6-1.41l-2.79-5.47-14.26-31.14-3.78-3.45c.26-1.25,1.15-.63,1.1-.25-.03.25,1.34,1.83,1.66,1.69l20.86-8.98c.32-.04.57.32.51.85Z" style="fill: #46464a;"/>
          <path d="M177.59,312.68l14.5,31.57c1.12.43,2.71.98,2.84,1.81l-.11,7.06c-1.53.29-3.02.8-4.48,1.78l-10.82,7.48c-2.72-.54-3.65-2.92-4.89-5.24-5.66-10.62-11.14-21.48-15.23-33.28-.61-1.76-1.46-2.29-2.82-2.84l19.59-10.25c.53.43,1.02,1.17,1.43,1.9Z" style="fill: #45464a;"/>
          <g>
            <path d="M256.81,261.89c.96-.56,2.18-.86,3.12-.01.42.29.42.61.03.98,1.84-.23,2.91,2.44,1.79,3.85,1.62.93,3.47,1.79,5.54,2.61l13.81,30.09-1.31,1.89c-.3,4.75,1.1,8.29,4.2,10.62,4.1.12,9.69,2.28,5.73,6.31l-46.01,24.55-44.97,19.55c-.3-2.5.1-4.62.87-5.96.53-1.48.6-2.36-1.26-2.61-.64-3.37-2.43-9.16-6.26-9.5-.79.14-1.98.31-2.29-.23-3.45-6.01-11.64-22.95-13.41-29.19l1.2-2.15c-1.51-1.93-2.1-4.03-1.74-6.29l-3.65-6.57.52-2.34c-1.57.86-2.11.4-.98-1.07-.95-1.03-2.67-3.58-1.21-4.83,1.64-1.41,4.03-1.93,6.2-2.8,4.44,9.95,11.91,18.32,22.6,21.78,11.11,3.59,22.92.98,32.46-5.35,13.09-8.68,20.27-22.33,20.47-38.01.04-3.1,1.96-5.27,4.56-5.31Z" style="fill: #fffefe;"/>
            <g>
              <path d="M259.94,261.87h-3.12s1.13-1.01,1.13-1.01c.83-.21,1.97.15,2,1.01Z" style="fill: #ada6a1;"/>
              <path d="M285.51,307.94c4.9-2.34,13.68,1.46,9.86,6.42l-1.81,3.76c-1.61-.71-2.77-.47-3.83.09-.11-1.3-.57-2.51-1.19-3.27-.96-1.17-3.32-.54-4.48-.91-5.24-1.64-7.13-8.69-4.25-12.75l2.13-.19,3.59,6.84Z" style="fill: #7c7673;"/>
              <path d="M187.04,313.43c-1.34-.53-2.62-1.17-3.57-2.86,1.99-.4,2.88.89,3.71,2.17.43.44.83.59.99.53,7.28,4,15.06,7.61,23.86,6.88,5.72-.41,10.6-2.74,16.32-3.54-12.49,7.5-28.87,6.41-40.65-2.12-.14-.62-.5-.99-.66-1.06Z" style="fill: #8d837e;"/>
              <path d="M250.01,299.55c-1.61.9-1.67.36-.81-1.21,6.25-9.08,9.05-19.25,9.12-30.61,2.55,11.38-1.65,22.55-8.3,31.82Z" style="fill: #ada6a1;"/>
              <path d="M250.01,299.55c-1.57,2.18-3.35,4.7-6.07,5.71,1.36-3.43,3.71-4.67,5.26-6.93l.81,1.21Z" style="fill: #beb9b5;"/>
              <path d="M183,310.54c-1.98-.47-3.05-2.31-4.36-3.57.37-.34.59-.65.58-.63,1.76.47,2.73,2.02,3.89,3.17.9.55-.09,1.13-.11,1.03Z" style="fill: #aba5a2;"/>
            </g>
          </g>
          <g>
            <path d="M177.59,312.68c-6.38,2.87-12.66,6.02-18.84,9.44l-2.19-1.09c-2.3-.92-6.67-10.46-3.82-13.7l2.12-.98c-1.02-2.71,7.83-7.28,10.24-8.02,1.17-.96,2.18-.71,3.33.41.29-.16.9-.28,1.27-.2,1.09-.68,2.09-1.04,3.01-1.07.84.92,1.86,1.83,2.62,3.36l2.56,5.22-.3,6.62Z" style="fill: #77736f;"/>
            <path d="M168.44,298.74l-13.57,7.61c-.86-1.45-1.59-3.41-1.02-5.13.38-1.16,9.65-7.21,14.76-7.7.36,2.03-.22,3.61-.17,5.22Z" style="fill: #463f3c;"/>
            <path d="M172.72,297.48c-.53,1.16-1.87,1.33-3.01,1.07l2.03-2.14.98,1.07Z" style="fill: #463f3c;"/>
            <path d="M173.89,309.19c-5.55,3.47-10.42,6.5-16.5,9.03-1.88-1.58-4.09-6.45-2.79-8.79,4.79-4.05,10.44-6.39,16.15-9.32,2.33,2.47,2.98,5.02,3.14,9.08Z" style="fill: #424243;"/>
          </g>
          <g>
            <path d="M310.64,312.47c-1.04-.21-1.16.64-.95,1.28l.62,1.82,20.36,32.29c8.95,14.2,18.39,27.29,29.44,40.06,6.62,7.64,15,13.45,23.37,19.22,2.27,1.57,6.1,1.78,6.82,5.1,1.49,6.85,4.95,12.74,10.25,17.48,5.05,3.67,6.26,9.32,5.01,15.6,5.96,6.94,11.16,14.14,14.41,22.72-10.12,11.81-22.54,20.2-35.45,27.4l-12.1-25.99c-4.55-.05-8.76,2.23-12.25,5.57,5.45,8.85,8.73,17.44,11.88,27.31-30.31,14.19-63.28,21.15-96.96,18.37-1.05-7.67-2.15-14.95-1.12-22.32l20.47-.77c15.92-1.92,31.56-4.39,45.6-10.54-15.09,3.13-27.95,7.77-42.57,8.55l-22.59.8c-3.99-5.59-9.2-3.35-14.44-1.93-5.53,1.5-20.06-3.14-21.64-12.83,3.11-8.38.47-16.63-3.83-24.1-5.07-8.82-9.5-17.22-15.32-25.48l-11.12-15.8c-9.72-13.82-17.68-29.25-22.61-45.32.85-.42,2.44-1.75,1.23-2.21l-1.72-.71c.74-2,2.03-2.69,4.06-1.96-.3-1.75.51-2.14,1.96-2.26-1.19-4.35-.5-6.91,2.07-7.68,1.8.14,3.43-.96,4.87-3.3,1.63.23,2.03,1.41,1.21,3.52.8.75,1.29,1.68,1.46,2.78,29.89-12.02,58.53-26.41,86.68-42.11l1.98,1.19.16-2.21c1.87-.59,3.69-1.13,5.48-1.64.59-2.54,2.22-3.14,4.59-2.19,1.84.06,2.88-.75,3.1-2.41l2.17-.46c1.72-4.11,8.11-.35,5.41,3.17Z" style="fill: #46474b;"/>
            <path d="M306.71,320.81c.99,2.59,1.95,4.91.05,7.09-1.27,1.46-3.65,2.71-6.13,1.92-2.21-.71-4.22-2.42-4.41-5.41-.21-3.21.59-5.61,3.32-6.59s5.66-.97,7.18,2.99Z" style="fill: #8c8886;"/>
            <path d="M197.27,381c-1.61-.07-2.98-1.23-3.32-1.92-.27-.54.72-1.31,1.44-1.72-2.22-.95-3.31-2.17-3.51-4.17-.16-1.59,1.02-3.81,3.21-5.01,3.33-1.82,7.1,1.3,8.04,4.54,1.06,3.68-1.13,8.48-5.86,8.28Z" style="fill: #86817e;"/>
            <path d="M199.61,356.36l.08-1.74c.16-.93-1.55-.58-.96.46-2.18,3.44-2.62,6.14-.53,10.51-5.08.57-2.85-4.34-4.68-9.47l1.3-3.01-1.97-1.08-.76-7.8c4.82-.55,10.22,7.43,7.51,12.11Z" style="fill: #867e7b;"/>
            <g>
              <path d="M259.2,458.96c-2.6-.42-4.45-2.12-5.71-4.29-9.48-16.29-19.15-31.92-29.45-47.69l-6.24-10.85c-1.1-1.92-.22-4.36,1.84-5.01,30.99-9.85,58.6-24.56,86.83-41.01l8.77,17.2c8.53,16.73,16.79,33.19,23.44,50.75,1.33,3.52.43,6.33-1.8,9.05l-15.2,18.49c-4.98,6.05-9.99,11.72-16.31,16.51-15.72.48-30.81-.68-46.18-3.15Z" style="fill: #362e2d;"/>
              <path d="M334.7,425.52c-9.24,12.46-18.98,23.4-30.07,33.95-16.11.56-31.31-.4-47.08-3.85l-24.14-39.24-14.06-22.42c30.42-10.04,58.55-23.42,85.89-40.17l9.81,18.69c7.95,15.16,15,30.27,20.98,46.38.76,2.05.15,4.65-1.34,6.66Z" style="fill: #46474a;"/>
              <g>
                <path d="M294.44,396.89c-1.02.72-2.28.67-3.8-.16l-1.87,5.18c-1.32,1.74-3.18,1.86-5.58.35l-2.22.4c-1.45.92-2.9.31-4.34-1.83-.5,6.32-4.74,15.17-10.84,16.7-.77-.04-1.61.26-3.04-.33l6.65-7.47-4.52-3.08c.99,4.89-4.35,10.44-5.61,9.38-1.1-.93-1.73-3.6-2.37-5.41l14.05-19.65,24.59,1.86c1.69.13,2.65,2.09,2.02,3.33-.41.8-2.22.77-3.14.72Z" style="fill: #17bbc4;"/>
                <path d="M294.51,417.36c1.64.92,5.21,3.31,4.51,5.53-7.21,15.6-15.01,4.36-22.4,9.57l.27,1.09c5.66.76,11.28,1.17,16.86,1.24,3.11-4.82,6.66-9.25,10.62-13.29l2.41.08c.32.73.51,1.39.27,1.81-1.88,3.34-7.91,12.92-10.44,14.82-.44.33-1.14.29-1.93.15-.22.61-.43,1.08-.61,1.07-5.55-.43-13.35-1.47-18.79-2.56-.23-.05-.36-.6-.46-1.3-1.35-2.5-6.57.12-8.48-2.05-.54-.62-.44-2.18-.82-3.03-.88-.66,2.01-8.17,2.38-8.43.49-.35,1.23-.34,2.05-.23-.18-2.19.95-2.04,3.38.46-.35,3.24,2.11,3.61,7.37,1.11-1.69-3.42,3.34-4.96,6.03-2.98.93-.81,1.15-1.81.66-3,.04-2.41,1.51-2.55,4.4-.41l2.69.38Z" style="fill: #403834;"/>
                <path d="M280.97,402.66c1.39.92,1.83,1.9,1.34,3.38,3.93-2.45,6.82-2.66,8.69-.64l-.9,4.27c-.96,2.17-2.07,3.69-3.33,4.56,2.66,7.54-.77,7.83-6.23,2.88.16,2.54-.43,4.39-1.76,5.56-2.44,4.86-5.7,2.36-7.78-2.19l-1,.77c1.77,3.56-4.56,1.36-5.17-1.43l.95-2.29c1.96-4.75,9.32-7.35,8.94-20.1,3.09,1,4.53,3.32,6.24,5.23Z" style="fill: #3d3b33;"/>
                <path d="M310.08,411.09l-12.53,5.44c-2.36,1.02-4.15-2.31-4.64-3.83-.62-1.94-.82-5.05,1.52-6.25,1.91-.98,4.97-2.28,6.95-2.22,2.05.75,2.77,3.78,3.88,6.06,1.31.06,2.83-1.8,4.82.81Z" style="fill: #753380;"/>
                <path d="M269.03,389.14c-4,7.04-8.88,13.76-14.12,20.79l3.63,9.53c.4,1.05-.57,1.8-1.2,1.86-.96.1-1.26-.34-1.77-1.36l-4.75-9.59,17.11-22.51c1.84-.97,2.39-.46,1.1,1.27Z" style="fill: #11adb4;"/>
                <path d="M290.64,396.73c.37-1.03,1.43-1.25,2.29-.88.45.2,1.28.41,1.51,1.04.88,2.45,4.48,3.14,7.32,1.8-.73-3.17-1.92-5.77-3.73-8.32l-14.29-.71c-5.23-.26-10.03-1.42-14.71-.52-.12-.79-.55-1.22-1.1-1.27,1.96-2.58,7.04-.6,10.23-.44l21.67,1.04,5.2,10.55c-4.46,1.83-8.73,1.62-12.93,2.36.71-2.32,0-3.87-1.46-4.65Z" style="fill: #c6ba41;"/>
                <path d="M290.1,409.67c-.22,1.06-1.03,3.33-.15,4.58.99,1.34,3.38,2.44,4.56,3.1-1.89,1.42-3.64.63-5.84-1.04,2.5,7.83-3.31,2.24-7.94,7.05-1.2.52-1.96.83-1.94-.69-.27-2.51-1.32-5.32-.12-8.23,3.79.6,5.39,3.02,8.07,5.35l-3.04-8.08c1.15-.09,2.92.86,3.49.51.9-1.22,1.58-2.29,2.91-2.54Z" style="fill: #e0cc54;"/>
                <path d="M274.84,435.55l19.86,2.8c2.29-.05,1.81,1.55-.07,2.29l-32.62-4.3c-1.8-.24-2.81-.93-3.53-1.93-.61-.84-1.02-2.76.56-3.23l6.13,3.92,9.67.45Z" style="fill: #728f4e;"/>
                <path d="M304.38,421.49l-10.13,14.97-16.7-2.22c-1.41,1.11-2.84-1.18-.93-1.78l15.77,1.88,7.48-9.54c1.31-1.67,2.71-3.33,4.5-3.3Z" style="fill: #d6c042;"/>
                <path d="M294.63,440.63l.07-2.29c4.75-5.02,8.37-10.97,12.1-16.78,1.29-2.02,3.01-4.28,6.26-4.95l-14.56,21.66c-.98,1.46-2.29,2.56-3.87,2.35Z" style="fill: #e8d53d;"/>
                <path d="M288.77,401.91c.71.14,1.77,1.28,2.45,1.71.87.54-.08,1.29-.22,1.78-4.43.35-7.91,2.9-12.21,3.99,1.1-2.99,1.94-4.68,2.18-6.73.1-.83.87-2.13,1.6-3.17,2.34,1.58,4.17,2.02,6.19,2.42Z" style="fill: #d8c829;"/>
                <path d="M284.44,454.3c-3.57,2.11-6.7.6-9.69-.65,3.26-.46,5.96-1.24,9.69.65Z" style="fill: #968847;"/>
                <path d="M324.29,429.86c.32-3.09,3.05-4.93,4.53-7.34.37.38.74.66.63.57-.07,3.01-2.84,4.57-4.06,6.92-.68.89-1.21-.28-1.1-.14Z" style="fill: #ab9c4c;"/>
                <path d="M275.77,378.2c-1.88,2.07-4.53,3.81-8.08,3.52,2.01-1.98,3.92-3.83,8.08-3.52Z" style="fill: #a2964c;"/>
                <path d="M299.75,365.11c-2.1,2.22-4.13,3.76-7.85,4.85,1.18-2.72,4.36-4.45,7.85-4.85Z" style="fill: #afa150;"/>
                <path d="M258.73,449.99c-2.43-1.22-4.21-4.18-4.66-7.78,2.16,2.05,3.45,3.38,4.66,7.78Z" style="fill: #b1a254;"/>
                <path d="M270.84,453.95c-2.95-.62-6.12-.56-8.92-2.11-.08.06.33-.43.53-.54l7.91,1.06c.62.34.76.98.49,1.59Z" style="fill: #ad9d4f;"/>
                <rect x="321.46" y="395.36" width="2.22" height="7.32" transform="translate(-144.39 186.38) rotate(-26.57)" style="fill: #a19553;"/>
                <rect x="279.44" y="372.9" width="8.2" height="1.77" transform="translate(-137.23 166.27) rotate(-26.57)" style="fill: #ab9d4e;"/>
                <path d="M318.93,392.35c-2.39-2.07-3.02-4.03-3.44-6.61,2.44,1.4,3.7,3.72,3.44,6.61Z" style="fill: #a39950;"/>
                <rect x="305.66" y="362.77" width="1.7" height="7.31" transform="translate(-144.84 209.92) rotate(-30.96)" style="fill: #ada057;"/>
                <rect x="316.04" y="435.46" width="6.31" height="1.4" transform="translate(-214.92 353.46) rotate(-45)" style="fill: #bcac53;"/>
                <rect x="245" y="389.46" width="6.87" height="1.77" transform="translate(-148.34 152.32) rotate(-26.57)" style="fill: #b5a54f;"/>
                <path d="M294.74,454.9c-2.2.67-4.4.35-6.53.33-.34-.22-.51-.51-.52-.57,2.52-.63,5.8-.8,7.05.24Z" style="fill: #c4b25f;"/>
                <g>
                  <path d="M278.79,422.68c.86.15,1.42.38,1.94.69-1.75,1.82-4.86,2.72-7.66,3.31-1.14-2.35-1.22-3.95-3-5.53-.51,4.44-2.58,6.78-4.52,9.32-1.06-2.4-3.15-4.85-3.47-7.96-.13-1.26,2.12-2.3,2.77-2.68,1.87-.16,3.07.39,5.13,2.08.11-1.85-.81-2.8-.5-3.37.22-.39,4.25-2.05,4.84-2.05.75,0,1.01,1.1.65,1.5-.28.3-.83.72-1.78,1.22-1.8-.11-1.38,2.19.25,1.35,1.02-.64,1.84-.69,2.39-.56.85.2.96,1.47.51,1.59s-2.45.78-2.36,1.32c.44,2.4,3.6,1.16,4.8-.23Z" style="fill: #d6c350;"/>
                  <circle cx="265.97" cy="423.53" r="1.86" style="fill: #62552c;"/>
                </g>
              </g>
            </g>
          </g>
        </g>
      </g>
    </g>
  </g>
</svg>