<?xml version="1.0" encoding="UTF-8"?>
<svg id="Calque_1" data-name="Calque 1" xmlns="http://www.w3.org/2000/svg" viewBox="0 0 984.32 1080">
  <g id="Objet_génératif" data-name="Objet génératif">
    <path d="M397.16,1080h-217.19s14.08-51.45,14.08-51.45l3.55-12.22c14.35-.56,28.32-3.17,41.36-9.16,7.66-3.52,13.95-8.51,20.01-14.29,8.5-8.1,14.69-17.77,19.84-28.5l8.38,4.66-10.81,19.19c-7.14,11.24-16.75,19.43-28.5,25.54-16.51,8.6-33.83,12.65-52.7,13.32,17.47,2.28,34.5-1.42,50.23-8.78,13.13-6.14,23.83-15.38,31.85-27.42l11.72-20.9c6.44,2.06,13.25,3.38,16.22-1.71,2.37-4.06,1.22-8.79-1.83-12.26l-14.37-16.36,2.38-4.46,16.07,13.26c9.15,7.55,22.38,15.73,30.28,5.88,1.52-1.9,1.68-4.32.84-6.61,5.66.7,11.07-3.04,11.31-8.8.02-3.84-2.16-6.66-3.99-9.86,13.87,2.82,27.02,4.81,40.75,5.61l-4.71,76.76-.46,31.4c-.19,12.8,5.13,29.82,15.7,37.18Z" style="fill: #42454a;"/>
    <path d="M605.87,1080h-187.22c2.28-12.76,3.78-25.5,4.3-38.77l2.31-44.33,2.56-61.49c19.27-.02,37.79-2.05,56.35-5.84l12.36-3.36.27,12.47c6.27.75,12.16-1.18,17.86-2.88,3.26,13.6,7.77,25.92,13.52,38.11,4.15,8.8,9.39,16.48,15.87,23.65,4.8,5.41,10.41,9.28,16.51,13.17,9.47,6.03,19.77,10.03,31.14,12.01l10.64,37.85,3.53,19.41Z" style="fill: #42454a;"/>
    <path d="M414.93,1079.99h-16.26c-8.99-9.33-14.58-21.41-14.35-34.83l.63-36.65,3.57-73.77,35.09.92-4.87,110.54-2.8,25.34-1.02,8.45Z" style="fill: #404548;"/>
    <g>
      <path d="M612.96,1080h-7.09s-1.26-.46-1.26-.46c-3.35-18.78-7.96-37.38-13.83-55.81.12-.01.35-.14.33-.15-45.71-8.47-67.75-43.69-77.03-87.1l-.35.82c-1.82,1.34-14.2,3.38-16.41,2.6-.98-.35-1.47-.64-1.68-1.7l-.38-10.43c-20.93,6.15-44.03,8.55-66.31,8.78-1.35,42.04-3.54,84.22-6.58,126.55-.24,6.07-1.48,11.7-3.71,16.91h-3.72s-1.07-.8-1.07-.8l3.73-33.1c1.66-36.42,3.23-72.86,4.72-109.32l-32.31-.85c-2.56,37.41-4.45,75.53-4.43,113.03.72,10.83,5.43,20.86,12.66,28.86l.43,2.16-1.5.02c-2.19-.31-3.18-1.1-4.69-2.51-8.37-7.87-12.14-23.5-12.18-34.67.56-35.55,2.26-71.26,5.11-107.11-12.42-.91-24.76-2.48-37.02-4.7,5.64,7.86,1.63,17.49-8.19,17.96-.23,13.49-16.23,12.91-24.71,6.67-8.23-5.93-16.18-12.08-23.84-18.46-.57.83-.93,1.67-1.07,2.51l13.98,15.92c8.86,12.89-2.53,21.03-15.07,15.87l-11.23,20.03c-14.06,21.62-39.46,34.67-64.8,37.04-5.92.55-12.37.88-17.94-.81l-14.22,51.9-1.31.37h-6.39s2.4-10.96,2.4-10.96l10.85-38.52,18.53-57.51c.26-.8-.36-1.39-.89-1.74-17.79-11.43-33.58-26.23-31.45-48.68.17-1.77-.34-2.63-1.68-3.56l-23.34-16.2-52.42-39.24-26.66-22.75c-12.34-11.32-23.19-23.44-31.88-37.82l-29.94-49.54-5.65-11.84c-3.68-7.71.37-22.57,4.1-30.66l14.12-30.58,20.81-43.01c7.71-15.93,15.33-31.18,24.74-46.18l18.38-25.75c-.27-14.63.83-29.85,5.73-43.72-8-10.2-13.92-21.85-16.15-34.7-3.09-17.8,5.61-33.55,18.52-45.35,9.85-9.01,20.44-16.55,31.17-24.5l18.04-13.37c14.48-11.84,31.42-31.77,27.78-50.79-2.94-15.37-13.8-27.59-15.07-41.16-1.03-10.89,1.72-21.38,7.39-30.87,13.31-22.3,28.68-42.64,45.33-62.56,8.22-9.83,15.14-20.05,19.7-32.03,6.88-18.07,10.79-36.34,14.49-55.33,4.28-21.96,15.16-41.61,30.03-58.14,21.88-24.32,50.42-41.07,82.07-49.08,3.8-.96,7.69-1.19,11.02-3.07l24.8-14.04c20.3-11.49,44.45-8.14,60.21,8.96,6.04,6.55,10.19,14.34,14.35,22.17.75,1.41,1.37,2.23,3.3,1.89,15.45-2.77,33.5,5.57,45.49,15.61,19.52,16.35,34.97,36.57,46.16,59.4,5.88,12,8.84,24.37,8.92,37.74.05,9.33-.09,18.29-2.44,27.26l-6.16,23.49c-5.22,15.36-4.17,31.41,1.9,46.33,2.77,6.8,5.57,12.88,9.39,19.16,7.14,11.76,14.94,22.52,23.89,33,11.36,13.3,23.7,29.48,19.73,47.02-1.92,8.5-7.29,14.94-13.72,20.58l-13.89,12.19c-10.02,8.79-7.28,24.38-.35,35.34,4.19,6.63,8.57,12.86,14.4,18.13l27.43,24.79,19.68,16.93c8.52,7.33,16.18,15,23.34,23.68,7.89,9.58,14.17,20.06,17.11,32.13,4.58,18.84.55,37.17-12.87,51.42l.55-6.93c-.37-6.26-.99-12.37-2.59-18.44-2.51-9.51-9.09-17.99-8.51-16.08l.34,1.12c3.68,21.86,3.11,42.3-6.65,62.4,4.83,11.95,8.8,23.91,10.33,36.63l2.86,23.64,15.04-9.81c9.97-6.5,19.55-12.88,28.25-21.1,9.99-9.43,18.99-19.27,27.18-30.29l20.8-27.99,9.99-14.39,6.58-9.58,6.21-17.09c1.92-5.27,4.91-9.31,8.9-13.3,9.34-9.35,20.52-16.13,32.17-22.35,6.73-3.59,12.3-8.37,17.72-13.65l20.53-20c2.24-2.18,5.1-3.06,8.11-2.17,7.03,2.1,7.07,13.41,4.1,21.23-3.93,10.37-10.98,18.5-20.08,24.64-3.95,2.66-9.51,6.76-8.79,9.23.61,2.11,8.74,3.98,13.77,4.58,10.4,1.24,20.72,1.06,31.2.59l4.21-9.4c2.97-4.78,7.64-8.15,13.36-8.55,2.05-.14,3.56,1.43,3.3,3.42l-1.38,10.46c-.54.61.06,1.36.65.82,2.83-8,6.08-15.41,11.28-21.91,5.23-6.53,14.5-10.7,18.74-5.36,2.87,3.62.12,6.76-.59,10.85,7.4-7,18.66-14.59,27.11-9.26,2.82,1.78,2.22,6.27.12,8.42-3.01,3.09-5.84,5.71-8.26,9.45,6.59-1.74,12.82-1.97,18.51,1.35,2.58,1.51,5.89,4.44,4.68,7.76s-5.16,4.89-8.07,6.3l-17.66,8.54-24.48,12.7-12.61,9.39-17.24,11.28-14.52,11.03c-2.86,2.17-5.62,5.56-9.29,6.26l-18.05,3.46-43.55,7.57c-4.35.76-7.7,3.17-9.78,7.23l-20.82,40.57-15.68,37.79-11.47,27.45c-15.39,36.84-32.47,58.48-63.71,82.6l-18.4,14.2c-5.11,3.94-10.35,8.05-16.8,9.86-7.75,2.18-16.32-.34-22.88-4.9-9.03-6.28-16.52-13.81-24.04-21.95-.3-.58-1.07.1-.38.6,9.69,33.76,13.2,66.45-20.56,85.56-4.5,2.55-12.24,6.61-13.64,4.64-1.39-1.96,6.86-10.72,10.43-20.61,5.19-14.36,4.77-29.74.23-44.58-.07-.51-1.06-.15-.61.76-.95,14.45-4.31,28.7-12.76,40.54-4.12,5.77-9.1,10.44-12.04,17.04-2.61,5.85-1.96,12.82,1.13,18.45l9.24,16.83c5.54,10.09,5.56,21.27.1,31.5l13.39,49.01,5.66,19.46,14.94,54.03,2.84,14.45Z" style="fill: #020201;"/>
      <g>
        <g>
          <path d="M332.15,911.7l-10.34-12.03c-.17-2.28.42-4.35,1.15-6.71,3.38,2.2,6.78,3.53,10.65,4.98l-1.47,13.77Z" style="fill: #3c4043;"/>
          <g>
            <g>
              <path d="M299.67,966.12c-6.45,2.55-17.02-5.76-23.64-10.64l-15.36-11.32c-9.69-7.15-17.16-4.46-27.36-3.08-14.13,1.91-26.68,3.14-37.96-7.77l-14.14-13.67-19.29-13.92-61.57-46.27-18.09-15.14c-15.45-12.93-29.24-27.16-39.67-44.47l-19.09-31.67,4,2.57c-7.35-8.08-12.9-17.08-17.92-26.77-1.68-3.24-2.87-6.17-3.28-9.59l3.13,5.69,14.99,19.27,19.35,21.84,13.49,13.9,41.97,43.25,10.52,9.91,12.72,12.21,21,17.92,33.97,28.13,10.11,8.57,14.84,12.41c13.18,11.02,30.6.26,41.39,3.99,10.93,3.78,21.34,8.8,30.47,15.87l10.84,10.13c4.12,3.85,8.64,6.42,14.64,6.02.31-.02.66.94.46,1.21-.15.19-.24.54-.95.86-1.37-.04-.36,1.66.44.57Z" style="fill: #b86d50;"/>
              <path d="M132.37,576.91c13.46,14.13,28.6,26.09,45.18,36.78l20.73,11.14c-14.41,26.44-40.61,59.93-66.27,75.02l-24,14.11c-6.64-7.38-14.3-12.62-22.78-16.59,7.05-3.43,14.44-4.44,22.02-6.72,16.85-5.06,31.23-14.76,44.01-26.83,8.29-7.83,20.09-24.81,22.65-36.38l-8.47-6.85-16.58-16.55c-7.41-7.4-13.67-15.33-18.27-24.69-1.85-1.23,0-4.27,1.77-2.44Z" style="fill: #b66a4f;"/>
              <path d="M117.1,559.05c1.57.49,2.66,2.53,3.77,3.89l11.49,13.97c-1.56.02-1.33,1.77-1.77,2.44l-2.54,3.85c-2.37,3.59-6.24,5.44-10.46,5.32-3.71-.11-7.74-1.4-9.73-5.47,4.57.28,8.44.03,11.62-2.76,2.45-2.15,4.36-5.72,4.31-9.57l-7.02-2.93c-6.89-2.88-13.57-1.06-18.91,3.87-8.1,7.48-10.45,19.36-4.83,28.93,4.06,6.91,11.36,9.79,19,7.89,6.83-1.69,12.15-5.62,15.61-11.77l5.31-9.46c1.43,8.8-.79,17.47-6.61,23.89-10.6,11.69-29.34,12.23-39.82.09-6.71-7.76-8.32-19.02-6.41-28.71.2-.99.94-1.55-.07-2.15,4.26-5.15,7.55-11.96,12.77-15.64,3.18-3.86,7.81-5.59,12.6-6.67,3.6-.81,9.05-1.96,11.67,1Z" style="fill: #5c4e43;"/>
              <path d="M215.67,947.35l-7.69,19.36c-16.16-9.2-30.31-22.69-30.11-42.46l7.75,7.24c4.18,4.26,8.56,8.18,13.71,11.2,4.88,3.11,9.99,4.6,16.34,4.65Z" style="fill: #653c24;"/>
              <path d="M326.76,953.45c-2.65-.27-5.42-.91-7.76-2.66l-13.61-10.17c-6.29-4.7-11.89-9.95-18.95-13.56-7.74-3.96-15.93-6.13-24.36-8.11-2.42-.57-4.38-2.08-6.04-3.52-.85-.74-1.37-1.97-2.05-3.52,1.89-.44,4.07-.37,6.03.34l24.7,9.03c9.71,3.55,17.78,9.59,25.87,15.92l19.12,14.93c-1,1.2-2.11.77-2.95,1.34Z" style="fill: #b76a4f;"/>
              <path d="M117.1,559.05c-7.14-2.23-18.29,1.45-24.28,5.66.27-1.34,1.22-1.84,1.92-2.63l14.21-16.04c2.48,5.26,5.98,9,8.15,13Z" style="fill: #de9871;"/>
              <path d="M318.51,890.76c.96.74.27,3.1-.57,4.22-5.76-5.31-12.28-8.7-19.79-12.08,4.35-.88,9.28-.66,12.91,2.13l7.46,5.73Z" style="fill: #424344;"/>
              <path d="M288.01,932.48c-.26,1.94-1.47,3.01-2.55,4.65l-11.5-9.81c4.97.91,9.14,2.85,14.05,5.16Z" style="fill: #464b4b;"/>
              <g>
                <path d="M130.59,579.35c2.04,1.47,3.62,3.53,4.74,6.16,11.11,16.17,25.4,29.11,39.58,41.66-3.47,14.16-13.9,29.84-24.96,39.45-16.92,14.71-33.97,24.64-56.13,28.77-2.92,1.32-5.79,1.98-8.6,1.98-1.81-.85-4.04-1.61-6.73-.84,10.39,5.61,19.08,12.54,26.86,21.35,8.23,9.32,15.55,18.82,21.18,29.91l11.73,23.12c6.79,15.46,12.97,30.78,21.35,45.52,9.2,16.16,21.18,29.86,33.35,43.74,5.92,6.76,12.41,12.26,19.15,18.1-2.75,1.79-5.91,2.56-6.59,6.14l16.34-5.35c13.84-4.53,26.66-10.73,39.67-17.09,4.67-2.28,9.1-3.23,14.3-3.09l27.18.78c4.08.12,7.73.36,10.94,2.71l17.75,13.01c5.27,3.86,10.08,7.97,14.43,12.84.81.91,1.13,2.06.8,3.04-.84,2.49-6.19,3.17-10.66,2.13-12.56-2.93-18.78-11.77-26.83-14.72-.39-.96-.08-1.83.94-2.6l-2.76-1.06-22.45.1c1.02,1.14.83,2.04-.69,1.81-3.7-1.33-7.37-2.68-11.23-5.05-.51,2.56,1.42,4.1,3.31,5.26l12.22,7.51,15.73,7.44c6.09,2.88,10.54,6.82,14.79,12.04l17.71,21.71,6.97,9.91c.89,1.26,1.16,2.8.52,4.13-.5,1.05-1.7,2.04-3.18,2.5-3.41,1.05-6.67-.52-9.15-2.98l-11.94-11.86-10.18-10.16c-5.41-5.41-11.44-9.54-18.44-12.9l-25.48-12.25c3.69,5.66,9.58,8.6,15.3,11.38l15.68,7.6,9.69,7.13c7.23,6.08,13.12,13.15,19.03,20.42l7.57,9.31c.92,1.13.74,2.77-.06,3.88-1.43,1.99-4.2,1.76-6.58,1.52l.69-1.64c-11.19-9.24-22.96-17.88-35.31-25.93-10.83-4.7-21.79-8.93-32.88-12.68-3.12-.83-4.11-.59-2.97.73l-.24,1.48c-.43,1.39.4,2.04,1.32,3,5.48,5.73,11.07,10.86,17.39,15.69,7.66,5.86,13.98,12.55,20.1,19.96,1.98,2.4,4.42,4.06,5.92,6.88.95,1.79.95,4.35-1.1,5.17-1.38.79-2.62.37-1.74-1.45-5.08-.12-9.55-2.58-13.22-5.97-12.46-12.66-28.38-24.04-46.43-26.9-5.6.42-11.2,1.02-16.8,1.81-6.83.62-13.81-.41-19.29-4.8-26.89-22.35-53.72-44.85-80.5-67.49-26.59-25.54-53.67-52.19-78.78-79.34-12.15-13.13-23.99-26.77-34.14-41.46l-2.48-6.13c-.5-4.21.39-8.35,1.85-12.7,3.98-11.86,9.12-22.81,14.62-34.15l25.24-51.99c7.5-15.44,15.18-30.19,24.71-44.08,1.31-.46,1.67.31,1.32,1.58l-5.9,19.47c-2.79,8.85-8.48,15.97-15.16,22,8.49-2.15,14.99-8.48,20.6-14.9,3.05-1.32,3.69,3.89,3.9,6.45,1.31,16.15-15.63,28.69-30.68,29.04,14.12,6.18,31.24-2.54,36.58-16.83.74-1.63,1.59-1.99,3.23-1.28,8.74,5.06,21.73,4.17,28.14-3.37-14.79-1.72-28.61-11.45-34.88-25.33-3.21-7.11-5.34-17.05-2.01-24.32l2.22-3.62c1.68-.34,1.96,1.17.85,4.52-6.11,40.7,49.51,47.3,51.29,6.28-5.11,12.9-21.45,25.34-34.79,15.92-16.17-11.42-7.58-40.3,11.4-41.77,2.85-.22,14.53,2.6,15.86,4.87,2.46,4.2-5.67,14.59-10.95,13.91-5.03-.23-3.74,1.2-.17,2.55,6.83,2.59,12.6-1.16,15.66-7.28h1.39Z" style="fill: #dc946a;"/>
                <path d="M72.7,591.47l5.14-7.49c-1.96,12.75,1.59,25.71,10.71,35.09,14.32,14.73,26.8,12.14,27.59,14.08,1,2.45-9.39,8.87-19.13,8.25-4.3-.28-8.03-2.09-12.02-3.83-2.04,4.27-4.16,8.62-7.78,12.2-6.66,6.59-16.4,9.35-25.66,8.2-2.9-.36-5.59-1.35-7.45-3.86,8.54-.32,16.46-2.48,22.73-7.77,7.66-6.47,12.11-17.15,7.86-26.44-6.4,7.95-14.15,14.65-24.54,16.68,2.06-3.92,5.49-5.82,8-8.85,4.09-4.93,7.3-10.26,9.12-16.42l5.05-17.07c.3-1.01,1.1-1.95.37-2.76Z" style="fill: #5a4d42;"/>
                <path d="M309.47,878.67c-6.43-2.35-17.83.82-24.98-1.75,1.62-.95-1.67-.8-3.17-2.95l25.82-.14c1.94-.01,3.78.57,4.76,2.34-.64,1.08-1.65,1.53-2.44,2.49Z" style="fill: #bb7054;"/>
                <path d="M84.39,669.74c-1.99,1.76-3.89,3.23-6.32,2.66,7.13-9.83,10.02-20.86,7.3-32.86,3.12.73,5.18,3.78,5.98,7.05,1.99,8.17-.54,17.46-6.96,23.15Z" style="fill: #635044;"/>
              </g>
            </g>
            <g>
              <path d="M901.38,553.17c-4.97,8.88-11.93,16.53-18.72,24.41-4.48,5.2-9.99,7.93-16.92,8.82-16.08,2.05-31.91,3.92-47.64,7.92l-16.3,4.14c-1.67.42-3.31.76-4.81,1.76,3.04,1.1,5.5.44,8.72.63l-21.51,40.92-15.12,35.5-17.29,41.35-12.81,23.82c-9.66,15.91-21.96,29.65-36.52,41.19l-27.89,22.1-14.56,8.15c-9.04.52-17.22-2.82-23.85-8.93l-9.34-8.62-6.59-6.89c-24.72-29.06-41.61-54.7-56.77-90.04-1.08-2.52-1.32-5.06-3.09-7.33,16.76-27.38,25.46-53.28,20.92-85.83l5.85-1.88,1.87,19.4-.8,27.61c-.15,5.07-.56,9.96.25,14.88l1.98,6.18c-.7.21-.83.73-.54,1.48-.15.08-.54.33-.52.74l.63,12.16c1.24,24.1,15.64,52.54,28.14,73.35,2.83,4.72,5.26,9.15,9.86,12.33,3.44,2.38,7.17,4.76,11.24,6.07,9.4,3.03,19.13,1.17,27.86-2.89,10.87-5.05,20.51-10.95,29.62-18.68,14.67-12.46,27.26-26.2,37.76-42.38l19.15-33.1,7.73-15,18.75-34.63,9.31-16.25c2.57-4.48,4.75-8.91,5.56-14.33-1.45-.97-2.74-2.14-2.74-3.74,0-6.71,13.83-11.49,21.91-12.46l37.14-4.47c8.7-1.05,16.95-2.45,24.9-6.03,2.8-1.26,4.94-3.53,6.87-5.85l9.24-11.09c2.38-2.86,4.57-5.6,7.99-7.35.15,1.36.29,2.43,1.07,2.85Z" style="fill: #b66b50;"/>
              <path d="M925.18,532.06c-1.15,2.05-2.27,4.17-3.36,6.36l-14.22,16.12c-2.02,1.13-2.03.65-1.87-1.49l2.26-14.47c.48-3.05,1.23-5.55,3.38-7.72,7.48-7.56,8.43-19.18,17.82-29.74,2.47-2.77,5.38-4.97,9.45-4.84l-6.13,16.23-7.33,19.55Z" style="fill: #dc936a;"/>
              <path d="M964.43,501.76l-2.84,1.56c-10.05,11.05-19.7,22.46-28.95,34.24-1.88,1.73-4.6,3.46-3.63-.36l8.14-20.72c1.11-2.82,4.51-4.69,6.54-6.71,6.67-6.62,14.75-14.01,23.18-10.65-.63,1.27-1.66,1.86-2.44,2.63Z" style="fill: #de976e;"/>
              <path d="M956.38,533.16l-15.49,7.91,13.56-18.93,14.1-3.27c3.99-.11,7.98.04,11.47,2.39-2.89,2.78-6.35,3.85-9.68,5.31l-13.97,6.6Z" style="fill: #d9906a;"/>
              <path d="M964.43,501.76c-6.09,6.02-11.08,12.53-16.13,19.55l-16.05,22.33c-3.82,5.31-8.99,9.37-14.33,12.9,5.48-6.13,8.33-12.31,11.09-19.34.05.53.1.92.39,1.43l2.42-1.89,4.65-5.77,10.68-13.12,11.99-13.56c1.49-1.69,3.07-2.95,5.29-2.54Z" style="fill: #bc7558;"/>
              <path d="M905.73,553.05c.13.35.05.82.44,1.35l12.69-14.31c1.9-2.15,3.63-4.14,4.76-6.87.31-.74.86-1.25,1.56-1.17-1.24,3.32-1.15,7.04-3.08,10.14-4.2,6.75-9.33,12.54-14.49,18.57-4.47,5.23-9.49,9.74-15.88,13.08,3.7-6.64,13.12-15.18,14-20.8Z" style="fill: #b77155;"/>
              <g>
                <path d="M857.68,503.33c-8.22,1.56-15.42,6.38-16.3,15.18,2.49,6.59,7.51,8.27,14.91,9.45,11.49,1.82,22.74,2.04,34.52,2-.69,3.82-1.26,7.38-2.66,10.82s-4.29,5.31-6.71,7.77l-7.46,7.6c-2.26,2.3-4.09,4.95-4.37,8.46l6.17-6.05,10.54-9.17c4-3.48,6.23-7.61,7.64-12.78l3.47-12.67c1.63-5.93,5.86-10.77,11.91-12.7-2.15,6.66-3.47,12.91-4.34,19.58l-2.22,17.04c-.24,1.87-.55,3.79-1.4,5.3-.78.59-1.53.32-2.24-.79-6.17,6.33-12.04,12.95-17.62,19.84-6.66,4.98-14.52,7.87-23.58,8.69l-46.96,5.92c-5.46,1.07-23.73,6.88-15,14.13-.04,2.26-.49,4.44-1.36,6.56-4.09,8.6-8.58,16.91-13.48,24.94-14.63,27.93-29.85,55.52-45.66,82.78-17.69,26.3-41.35,50.43-70.88,62.79-7.45,3.12-16.21,4.2-24.07,2.12-14.72-3.88-20.8-14.17-27.6-26.62-11.29-20.68-19.88-38.4-23.67-61.95-.22-1.39-1.45-16.91-.87-17.56.39-.44.98-.38,1.52-.12.33-.2.59-.34.65-.29.52.56,7.38,9.06,7.03,8.62l-7.4-9.08.26-.73c-2.1-3.16-3.29-6.57-3.56-10.22l.98-38.43-1.8-18.63,1.09-.79,12.06-4.75c12.96-5.91,25.1-12.65,37.51-20.23l11.03,20.6c5.23,9.77,8.53,19.8,11.29,30.6,3.17,13.31,5.03,26.6,6.26,40.16-12.82,10.34-23.71,23.06-28.35,38.69-2.35,7.94-4.37,15.6-4.31,24.22,1.98-1.15,1.88-3.4,2.31-5.24l2.48-10.45c5.33-14.06,13.19-26.89,24.18-37.28,7.72-7.3,16.39-12.68,25.44-18.14,9.67-5.83,18.65-11.87,27.17-19.3l17.3-17.59c11.27-12.66,21.75-25.57,31.01-39.8l16.94-26.05-1.07,12.26c1.96-2.58,2.36-5.16,3.16-7.89,2.95-10.03,5.45-19.99,10.09-29.44,2.57-5.25,6.86-9.25,11.1-13.25,12.72-11.99,28.61-15.97,44.22-31.28l21.64-21.23c.81-.8,2.29-.89,3.07-.42,1.9,1.14,2.22,7.75,1.26,11.73-1.79,7.43-5.87,13.63-10.83,19.27l-4.41,3.78Z" style="fill: #dc9369;"/>
                <path d="M857.68,503.33l-10.89,8.22c-2.42,1.82-4.31,4.19-5.41,6.96-1.01-2.68.12-5.57,1.87-8.28,2.4-3.72,6.63-5.68,10.82-7.13,1.39-.48,2.61-.71,3.61.23Z" style="fill: #b0694f;"/>
                <path d="M839.21,553.9c-12.12-2.49-23.74-3.23-35.43-.04-5.29,1.44-9.14,4.18-12.27,8.93.95-5.28,4.85-7.97,9.27-10.32,8.83-2.97,18.41-5.1,27.94-3.33,12.04,2.24,23.52,5.6,34.91,9.77l-24.43-5.01Z" style="fill: #1d0905;"/>
                <path d="M590.45,672.43l13.88,16.58c-3.14-1.45-5-3.8-7.14-5.93l-7.28-9.17c-3.41-4.29-5.91-9-7.61-14.44,1.55.79,1.97,2.5,2.59,3.9,1.54,3.48,3.33,6.39,5.56,9.06Z" style="fill: #3d140a;"/>
                <path d="M853.11,534.52c-6.17,3.74-11.81,7.86-19.09,9.99l19.97-12.03c.1.94-.16,1.61-.88,2.04Z" style="fill: #311009;"/>
              </g>
            </g>
          </g>
          <g>
            <path d="M652.47,521.88c9.51,25.97,11.94,52.01,2.16,78.3l-12.82-23.46,7-5.43c.29-2.23-.35-4.46-1.1-6.71-4.61-13.84-7.93-27.6-10.24-42.02-2.09-13.06-6.13-24.86-11.13-36.98-6.35-15.4-14.67-28.79-25.62-41.47,6.83,5.72,12.12,11.93,19.49,16.73l25.53,22.08,14.89,14.78c5.71,5.67,10.24,12.22,14.6,19.01,2.53,3.94,3.86,8.25,5.43,12.68,4.29,12.07,4.87,25.63-.69,37.91-2.96-13.71-8.27-25.23-17.1-35.26-3.27-3.47-5.95-7.05-10.41-10.14Z" style="fill: #633c24;"/>
            <g>
              <path d="M445.48,380.56c-3.51,4.26-7.45,8.11-11.94,11.6-19.38,15.08-45.86,7.65-63.47-7.69l-.32,1.3-.82.03c-1.11-2.62-2.12-5.28-3.03-7.99l-.53.49c-1.05.06-1.79-.65-2.63-1.48l-5-4.89c-7.43-6.15-13.51-13.36-17.27-22.05.32,1.23-.64,1.86-.73,2.45l.26-4.17.2-20.34c8.09,7.9,15.59,14.93,24.55,20.83l23.46,15.45c14.31,7.85,29.16,13.35,44.87,7.23l12.65-6.55-.27,15.77Z" style="fill: #b56a4e;"/>
              <path d="M409.13,153.97l-10.92-3.16c-7.39-2.14-14.69-3.02-22.48-2.47l5.07-11.81c7.45-.26,21.72.48,25.2,4.78,2.77,3.41,3.81,7.87,3.12,12.66Z" style="fill: #4b2d1a;"/>
              <g>
                <path d="M365.38,378.31c1.58,2.46,2.85,5.17,3.8,8.11l.58-.65c-.38-1.64-.3-2.55,1.61-1.69,21.6,18.7,52.82,22.16,71.71-2.49l2.4-1.04c.44,5.88,1.34,11.84,3.28,17.67.8,2.41,1.25,5.05,3.64,6.65-.47-5.25-2.27-9.28-1.84-14.7,4.78,6.36,10.86,10.23,17.85,13.34,2.57,9.37,3.98,18.68,3.68,28.48l-31.2,2.95c-5.82.55-11.68,2.29-16.31,6.62,6.06-1.88,11.03-4.12,17.29-4.63l30.15-2.44c-.64,6.84-1.24,12.94-3.12,19.23-4.74,15.89-16.48,28.29-32.13,34-16.34,5.97-33.48,6.14-50.44,1.92-14.69-3.66-27.99-10.95-39.23-21.04-7.96-7.15-14.76-15-19.79-24.34l-5.83-10.84,10.67,1.37,33.88,3.22c6.62.63,12.49,2.72,19.18,4.99-2.07-5.24-17.94-7.82-25.06-8.43l-26.87-2.27-13.08-1.29c-4.34-10.09-8.11-20.16-9.89-31.28,6.4-3.57,12.79-6.6,17.81-12.01,4.48-4.83,8.01-11.11,8.98-17.63l2.66-17.75c.33-4.35,2.21-2.93,5.63,4.27l4.23,5.72c5.51,5.25,10.76,10.57,15.76,15.97Z" style="fill: #dc9167;"/>
                <path d="M369.76,385.78l10.45,26.95,7.59,20.42c-9.22-17.58-16.35-35.96-22.42-54.83-.52-1.62-.78-3.19-.41-4.64l4.79,12.1Z" style="fill: #1d0804;"/>
                <path d="M392.93,445.71c2.85,2.13,4.81,4.99,8.19,5.94,3.65,1.72,7.62,1.36,10.88-.89l6.24-6.82c-.86,5.21-5.09,9.81-10.27,10.83-6.43,1.26-12.74-3.03-15.04-9.06Z" style="fill: #240a05;"/>
              </g>
              <g>
                <path d="M402.94,212.14c.39,5.01-3.62,9.54-8.41,11.15-7.83,4.19-18.53,4.01-26.97,1.22-4.38-1.45-9.9-3.88-12.39-7.71-3.22-2.55-5.18-6.33-4.53-10.6,2.57-16.9,20.26-27.74,36.39-21.43,6.58,2.58,10.85,8.64,13.4,14.98,1.61,3.99,2.17,8.01,2.51,12.39Z" style="fill: #fefefd;"/>
                <path d="M394.53,223.29c1.2.37.55,1-.04.97-12.57,5.54-27.41,3.74-38.13-4.68-.91-.72-1.75-2.02-1.2-2.79,11.05,8.73,25.94,11.04,39.36,6.49Z" style="fill: #1d0f0a;"/>
                <g>
                  <path d="M383.43,218.62c-6.63,5.61-16.18,3.04-20.44-4.19-4.11-6.98-3.2-16.37,1.98-22.6,3.32-3.99,8.39-5.63,13.46-4.72,4.37.78,8.15,4.25,10.14,9,3.13,7.49,1.5,16.89-5.14,22.5Z" style="fill: #100907;"/>
                  <path d="M386.34,195.53l-1.1.68c-7.56-2.8-5.19,9.06.53,3.64l1.47-.24c1.52.72,1.5,1.97,1.52,3.42.09,5.75-1.89,11.16-6.66,14.64-5.95,4.35-14.31,2.21-17.97-4.32-2.64-4.71-2.84-10.29-1.21-15.53,2.49-8.01,12.08-12.07,19.14-7.73,2.19,1.34,3.77,3.35,4.27,5.44Z" style="fill: #52301b;"/>
                  <path d="M386.34,195.53c.36,1.51,1.15,2.69.9,4.09-1.06,2.24-3.36,3.66-5.73,2.49-2.21-1.09-2.99-3.91-1.49-6,1.44-2,4.1-2.1,6.32-.58Z" style="fill: #f8f4f0;"/>
                </g>
              </g>
              <g>
                <path d="M350.64,206.2l1.06.99c-.22,3.19,1.23,6.09,3.58,8.18l-.1,1.43c4.94,6.55,16.11,9.59,24.24,9.7,4.98.07,11.14-.66,15.12-3.2l.33-1.36c3.7-1.57,6.79-4.84,6.94-9l1.14-.79c.88-.79.97-1.66,1.02-2.74.35-7.77-1.06-15.3-5.3-21.77-2.8-4.44-6.78-7.45-11.68-9.32-9.43-3.27-19.31-2.4-28.58,2.75,6.29-9.71,11.36-19.94,16.3-30.64,10.93-1.02,21.15,1.24,31.23,4.91,2.08.76,4.44.51,5.72-1.17.66-2.47.36-4.91-.05-7.39-.48-3.97-2.71-7.1-6.38-8.75-7.42-3.34-15.39-4.13-23.85-3.65l8.97-23.51c2.93-7.68,5.8-14.98,9.76-22.16,20.4-11.82,40.84-13.53,61.15-.8l7.65.45c10.63,3.14,19.82,9.98,26.14,19.07,3.64,5.23,6.86,10.29,9.49,16.11,5.46,12.05,9.11,24.53,11.05,37.69,3.42,23.24-5.26,43.21-3.52,60.37l2.05,20.3c2.55,25.23-4.54,49.75-19.63,70.03l-16.57,20.12c-12.3,13.04-26.26,24.21-42.19,32.57-5.99,3.15-12.68,5.53-19.43,4.58-10.64-1.5-20.19-5.86-29.37-11.34-21.45-12.79-46.46-33.18-60.93-53.41-10.33-14.45-12.99-33.83-15.54-51.01-1.19,2.1-1.05,4.27-1.12,6.38-.17,4.82-3.56,8.47-8.6,8.22-6.35-.31-11.87-3.58-16.07-8.19-2.67-2.92-5.29-5.68-6.17-9.85l13.13-7.29c1.64,4.47,4.26,8.02,8.56,9.74,1.68-2.67-5.52-4.77-5.27-11.54l16.74-10.49c.5.79.4,1.43,1.74,2.08-.67-3.02,1.07-3.76,2.86-5.31l21.17-18.24,6.33-7.38,6.19,6.73c.25-.89.4-1.4.73-2.1Z" style="fill: #dd9268;"/>
                <g>
                  <path d="M451.24,268.12c-1.92,2.23-3.54,4.19-6.83,4.97-5.56,1.32-11.46,1.44-16.6-1.44l-14.52-8.15c.4-.79,1.36-1.03,2.88-.73,2.54-.24,3.18-.6,1.93-1.09-1.02-.31-2.88-3.55-1.22-4.08,9.72-3.09,28.51,3.4,39.05-5.78,2.47,1.32.49,6.56-.57,8.79-1.23,2.58-2.98,4.88-5.19,6.7l1.07.82Z" style="fill: #b66b4e;"/>
                  <path d="M498.84,211.66c.28-8.88-4.82-17.69-13.44-21.34-7.46-3.16-15.9-1.11-22.02,4.04-5.57,4.69-8.35,11.23-9.82,18.01-.44-.17-.6-.55-.6-1.21.05-8.14,3.17-15.58,8.39-21.75,9.09-10.73,26.7-9.86,37.36,1.54,3.98,4.25,5.85,9.58,6.4,15.5,1.48.45,2.56.31,4.3.38-2.57,3.87-5.74,7.12-10.06,9.48.02-1.74.32-3.35-.52-4.64Z" style="fill: #040404;"/>
                  <path d="M451.24,268.12c-2.66.83-5,1.8-7.72,1.4,8.03-2.25,13.02-10.62,12.41-17.71-.17-1.94-.71-3.95-1.91-5.77l-6.45-9.76c-9.43-14.26-6.24-41.44,1.16-57.28-1.73,7.75-3.95,14.52-4.41,22.34-.43,7.37-1.94,14.98-.09,22.04,2.07,7.88,6.37,14.41,11.54,20.31,3.77,4.31,5.45,9.5,3.28,14.87-1.67,4.14-5.22,6.57-7.8,9.57Z" style="fill: #210b06;"/>
                  <path d="M439.08,329.81c-5.41,9.46-21.73,8.87-31.47,3.93-2.65-1.35-5.81-2.71-6.77-5.76,9.49,5.74,19.25,7.91,29.43,5.76,3.16-.67,5.46-2.45,8.8-3.93Z" style="fill: #250a05;"/>
                  <path d="M418.1,261.66c4.88-2.27,11.18.22,12.82,6.13-3.97-2.22-7.18-4.91-11.65-4.75-2.04.07-4.04.63-5.98.45-5.57-3.13-6.42-9.65-2.89-14.98l.78,9.56c.13,1.6,1.5,2.89,2.63,3.55,1.32.77,2.95.67,4.28.05Z" style="fill: #1c0805;"/>
                  <path d="M449.88,249.33c-3.88.41-7.62-1.69-8.77-5.89,4.82-1.85,11.2-.12,11.22,3.44,0,1.19-.93,2.29-2.44,2.45Z" style="fill: #f9d4b7;"/>
                  <g>
                    <path d="M462.36,295.56l-13.37,18.54c-9.19,12.75-32.69,13.39-46.72,5.17-8.27-4.84-15.52-11.46-20.43-19.51l-10.16-16.66-3.78-7.67c-2.69.87-4.07,2.44-6.17,4.11-2.48-4.69,6.84-7.64,13.49-8.61-1.01,1.9-2.6,2.17-4.48,3.9,17.09,9.22,39.81,12.52,59.54,14.21,14.08,1.21,27.7.07,41.28-4.14l-2.45-5.15c3.15,1.35,6.31,4.56,5.78,8.8-.1.78-2.37.07-2.42-1.61-4.28,1.81-7.4,4.86-10.1,8.61Z" style="fill: #1b0a06;"/>
                    <path d="M455.27,292.15c-3.52,6.45-7.28,9.92-15.28,10.75-18.93,1.95-38.14-2.19-54.24-12.26-2.66-1.66-3.75-4.8-5-7.7,12.66,4.87,24.82,7.47,37.96,8.86,12.3,1.3,24.23,2.11,36.57.35Z" style="fill: #fefefe;"/>
                    <path d="M436,319.33c-16.17,4.93-33.42-.05-44.26-13.33,10.02-1.66,20.24-.89,29.8,2.65,5.51,2.3,10.5,4.9,14.46,10.68Z" style="fill: #c05c5a;"/>
                    <path d="M438.52,319.12c-4.94-6.84-11.24-10.43-18.66-13.72,10.51.55,19.92.74,29.13-2.97,8-3.22,7.66-13.72,12.56-10.41l-6.14,8.65c-4.78,6.73-9.69,12.98-16.89,18.45Z" style="fill: #662a1a;"/>
                    <path d="M411.29,303.58c-5.45,1.21-10.74.13-16.44.55-1.21.09-3.29,1.2-4.4.36-3.52-2.64-5.74-6.3-8.4-9.67-3.52-4.47-6.67-8.85-8.29-14.88,7.26-.11,4.08,9.82,14,14.36,7.04,4.72,14.71,6.84,23.53,9.28Z" style="fill: #622b1f;"/>
                  </g>
                  <g>
                    <path d="M513.49,178.49c-22.9-31.91-50.95-15.54-53.58-18.06-2.07-1.98,2.34-11.75,6.25-13.91,5.72-3.17,13.57-4.41,20.2-2.94,15.91,3.55,27.69,18.26,27.13,34.91Z" style="fill: #0a0402;"/>
                    <path d="M510.42,170.87c-13.47-14.03-29.51-17.25-48.81-12.13.53-7.15,6.6-11.53,13.11-12.92,8.96-1.91,16.94-.07,23.76,5.84,5.78,5.01,11.3,10.8,11.95,19.21Z" style="fill: #4e2f1c;"/>
                  </g>
                  <g>
                    <path d="M498.84,211.66l-.17,5.32c-.09,2.86-2.33,5.76-4.41,7.36-.71,2.02-3.17,3.06-5.13,3.88-9,3.74-22.07,2.92-30.49-1.91-5.26-2.78-6.36-8.01-5.08-13.94,1.66-30.48,43.75-34.11,46.44-1.94l-1.17,1.24Z" style="fill: #fdfdfd;"/>
                    <path d="M458.65,226.31c11.03,4.59,26.26,5.23,35.62-1.97,1.14,1.18-1.97,3.68-4.92,4.7-9.32,3.22-19.38,2.92-28.44-.83-1.14-.47-1.68-1.41-2.26-1.9Z" style="fill: #140a08;"/>
                    <g>
                      <path d="M479.85,223.95c-3.39,2.75-7.66,3.75-11.99,2.4-3.18-.99-6.58-3.46-8.41-7.34-3.12-6.59-2.13-15.05,2.53-20.75,3.78-4.63,9.97-6.87,15.44-4.6,6.35,2.63,8.91,9.28,8.75,15.73-.14,5.64-1.64,10.78-6.32,14.56Z" style="fill: #110907;"/>
                      <path d="M482.18,200.68l-1.3.82c-8.41-1.25-2.3,10.77,1.63,2.94l1.33-.79c3.08,2.96,1.41,11.02-1.69,15.82-2.44,3.78-6.49,6.31-10.85,6.07-4.14-.23-7.9-2.63-10.13-6.51-4.32-7.53-2.18-17.38,4.79-22.66,2.82-2.14,6.24-2.71,9.91-1.69,2.4.66,5.51,2.93,6.29,6Z" style="fill: #4b2c1b;"/>
                      <path d="M482.18,200.68c.3,1.18.84,2.17,1.67,2.97-.18,1.79-1.18,3.55-2.66,4.22-2.05.92-3.86.1-4.87-1.33-1.17-1.65-.99-3.83.17-5.23,1.33-1.61,3.71-1.33,5.7-.64Z" style="fill: #f8f6f2;"/>
                    </g>
                  </g>
                </g>
              </g>
            </g>
          </g>
        </g>
        <g>
          <path d="M549.79,380.76c-1.3-18.27,10.17-28.03,12.79-48.21l.16-13.04c11.84,12.43,20.19,26.61,15.75,43.5,8.54-10.18,1.62-28.93-6.48-38.64l-17.96-21.53c-7.69-9.23-14.77-18.22-20.67-28.72-9.94-17.7-13.12-37.54-9.45-57.6,2.2-12.01,5.68-23.09,9.31-34.78s5.18-23.84,3.04-36.06c-2.6-14.81-8.66-28.48-17.18-40.72-9.65-13.88-26.49-26.97-43.73-24.06l-10.04,2.65c3.63-9.61,9.82-15.3,19.54-17.59,5.75-1.35,11.02-.1,16.97.56-10.9-5.2-23.65-3.87-32.03,5.49l-.68-14.09-3.1-13.18c15.65-1.63,32.88,5.91,44.68,16.33,9.8,8.66,17.83,18.38,25.75,28.82,9.59,12.64,16.82,26.37,21.86,41.42,4.28,12.77,5.04,25.45,2.7,38.65-2.44,13.76-6.06,26.62-9.94,40l-5.97,27.76c-2.22,10.31-1.75,20.68,1.81,30.59.25-12.74-.53-24.43,2.21-37.2,2.09,12.39,6.38,23.86,12.69,34.87,4.91,8.57,9.6,16.66,15.76,24.39l20.33,25.51c12.5,15.68,15.78,35.56-.78,48.25-6.5,4.98-12.51,10.11-17.95,16.26-11.62,13.14-5.27,30.94,4.37,44.62.73.39.52,1.23-.27.92l-13.13-10.32c-8.62-6.77-19.48-22.65-20.35-34.86Z" style="fill: #623d23;"/>
          <path d="M508.49,328.16c-10.49,28.05-6.14,54.42,11.95,79.01l-24.29-7.49c-6.51-8.21-8.96-18.64-9.93-28.95-1.07-11.36,1.77-21.75,3.84-33.14-3.19,6.94-5.13,14.27-6.07,21.9-1.53,12.44,1.55,29.92,9.25,40.34-2.86-.72-4.56.08-6.74.51-3.99.78-8-1.34-11.76-2.44-4.37-1.94-8.53-3.4-13.21-4.24-3.83-3.49-7.18-7.2-10-11.52-.73-2.94-.8-5.88-.55-8.92l1.02-12.09c17.77-12.62,33.3-27.79,46.07-45.49,14.93-20.71,22.52-42.09,21.36-67.62,2.78,10.21,5.33,19.17,10.4,27.95,6.96,12.06,15.12,22.71,24.4,33.05,1.5,1.67,3.57,3.47,4.21,5.6,3.62,11.95-1.13,28.12-6.5,39.76-9.24,20.02-7.87,37.3,6.69,54.21l13.32,13.4c2.88,2.9,6.66,4.42,8.7,8.94-9.18-4.71-19.27-6.91-29.61-9.52-5.89-1.49-12.14-2.18-17.29-5.39-5.47-3.41-8.52-9.32-12.54-14.06-5.6-6.61-9.12-13.82-11.78-22-3.85-11.85-4.78-23.7-2.78-36.06.84-5.19,2.11-10.09,1.85-15.73Z" style="fill: #613c22;"/>
          <path d="M518.26,231.37l-1.09-12.66c-1.38-15.99,6.68-35.97,3.35-56.11-2.33-14.08-6.63-27.4-12.25-40.45-6.85-15.9-18.43-31.05-35.05-37.4,13.15-3.25,25.79,4.03,35.33,13.87,9.49,9.79,15.83,21.35,20.41,34.18,5.38,15.08,5.79,30.52,1.25,45.95l-7.37,25.08c-2.58,8.94-3.68,17.64-4.58,27.52Z" style="fill: #4f301c;"/>
          <path d="M459.84,82.71c-18.18-10.72-38.45-9.63-56.96.59,4.11-9.47,10.46-17.57,18.98-23.32,9.05-6.11,20.16-4.59,27.8,2.89,3.17,3.11,6.21,6.11,7.48,10.5l2.7,9.35Z" style="fill: #52311a;"/>
          <path d="M94.17,508.86c-1.97-6.17-1.06-12.04.32-17.89,1.82-7.67,5.2-14.47,10.5-20.25l11.55-10.7c-9.03,16.09-16.86,31.57-22.38,48.84Z" style="fill: #fbfafa;"/>
          <g>
            <path d="M245.19,407.58c-1.92.67-3.01,2.13-3.54,4.31-7.3,2.46-15.2,3.69-22.91,5.23l-16.57,3.32c-11.3,3.32-21.16,8.87-30.69,15.7-15.8,11.32-28.32,30.99-37.85,48.09l-12.69,22.78-18.12,26.12c-.53,4.79,3.78,7.77,1.23,10.39l-14.86,15.34c-.5-11.2,1.14-21.47,4.3-31.8,5.96-19.51,13.24-38.25,22.43-56.37,3.75-7.39,8.04-13.71,13.31-19.9,4.99-5.86,9.83-11.23,15.75-16.21l22.41-18.82,29.44-23.42,14.79-14.78c6.11-6.1,16.34-21.62,15.2-30.9-2.58,7.72-6.06,14.21-10.99,20.54-5.93,7.62-12.01,14.48-19.42,20.67l-13.3,11.11-20.07,15.92-20.89,17.42-8.99,8.43c-2.84,2.66-5.33,4.99-8.69,7.08-10.27,6.4-19.26,14.19-26.55,23.86-6.46,8.57-9.62,18.52-9.44,29.24l1.27,13.54c-7.03-11.05-11.42-21.67-11.72-35.06-.49-21.46,18.87-36.93,35.61-48.87l18.67-13.31c16.42-11.7,34.48-26.84,40.6-46.49,7.87-25.27-11.66-42.68-13.65-59.27-1.08-8.98.99-17.72,5.47-25.64,9.43-16.64,20.07-31.93,32.04-46.81l18.41-22.9c6.88-8.56,12.28-17.53,16.28-27.87,6.26-16.22,10.34-32.66,13.49-49.83,2.63-14.33,6.96-27.68,14.4-40.17,7.23-12.13,15.57-23.12,26.03-32.56,17.23-15.54,38.3-27.76,60.96-34.9-1.19,3.43-4.39,4.59-7.02,6.32-4.11,2.72-8.35,4.93-11.49,9.03-.55.36.11,1.13.67.46,12.74-6.37,24.38-13.74,36.74-20.69l22.3-12.56c6.16-3.47,12.6-5.85,19.71-7.02,14.77-2.43,29.62,3.63,39.12,15.02,4.35,5.22,7.51,10.61,10.68,16.84-2.86-1.46-4.92-3.17-7.37-5.07-6.14-4.76-13.09-8.82-21.08-9.67-9.49-1.01-18.52,2.76-25.8,8.56-5.84,4.66-11,9.4-15.32,15.64-.42.82.5,1.05.81.27l6.66-6.3c10.96-10.38,26.92-19.57,41.24-12.89,6.07,2.84,12.21,5.95,17.09,10.76,9.85,9.72,16.73,27.7,11.91,41.17.45,1.05-1,1.31-.82.12l-3.3-9c-1.8-4.92-4.79-8.36-8.53-11.89-8.89-8.39-21.95-10.32-32.53-3.56-7.21,4.61-13.31,10.63-18.09,17.78-5.89,8.82-10.33,17.92-14.09,27.8l-11.21,29.44-15.19,32.99c-7.17,13.63-15.16,26.39-25.4,37.84l-11.16,11c-12.75,11.17-26.61,20.2-41.6,28.03l-20.85,12.31c-16.64,9.83-33.56,31.69-30.81,52.87l2.73,20.97c.76-5.63.05-10.77-.4-16.36-2.21-27.48,17.46-46.83,40.47-58.71,6.43,12.76,20.92,24.64,34.33,17.16,1.49,16.94,7.66,32.31,18.76,45l6.89,7.88v24.11s-1.72,17.43-1.72,17.43c-.62,6.24-2.73,12.35-6.16,17.59-3.86,5.91-9.88,9.31-16.33,11.7-.6-.63-1.26-1.46-1.87-1.65-5.34,1.12-10.05,3.27-15.03,5.72-.51,1.18-1.82-.08-.58-.54,11.2-16.13,20.71-36.02,18.03-55.47-.07-.53-.03-.88-.45-1.09-.21-.11-.61-.06-.63.54-.81,23.04-8.43,40.14-22.1,58.2-1.13,1.49-3.84,3.05-5.67,2.36-1.51-.57-2.38-2.23-4.3-1.85l-13.89,2.72,7.76-8.93c17.46-20.08,21.98-44.88,19.32-71.15l-3.29-32.54c-1.83,10.18-.46,19.72.41,29.68,1.33,15.3.88,30.29-3.64,45.03-3.45,11.23-9.61,20.92-17.46,29.56-3.1,3.41-6.1,7.23-9.93,9.7l-11.64,4.08Z" style="fill: #623c24;"/>
            <path d="M205.28,349.91l-4.47-23.72c-4.02-16.33-4.37-32.6-.8-49.07,1.38-6.36,3.17-12.26,6.73-17.73,5.24-8.04,11.25-15.23,18.52-21.49,7.08-6.1,14.2-11.34,22.21-16.16l35.51-21.36c14.36-8.64,26.53-19.06,37.13-32.04,8.39-10.28,15.14-21.27,20.59-33.41l13.86-30.83c5.18-11.52,9.88-22.78,16.31-33.65l-4.34,11.41-16.21,40.65c-5.44,13.64-12.17,26.16-20.25,38.41-10.72,16.25-25.18,30.53-41.9,40.58l-34.43,20.69c-9.6,5.77-18.35,11.8-26.88,19.03-15.71,13.31-25.49,31.88-26.83,52.55-.65,9.99.71,19.43,2.32,29.24,1.13,8.91,3.33,17.29,2.94,26.91Z" style="fill: #050201;"/>
          </g>
        </g>
        <g>
          <path d="M222.16,849.51l-12.9,19.31-11.95-11.74-4.35-5.3c13.22-24.41,14.32-50.77,3.99-76.25-4.08-10.06-10.15-18.39-16.4-27.16l-17.85-25.09-5.52-11.75c-1.7,3.63,3.52,14.25,6.41,18.45l20.79,30.19c2.17,3.15,3.44,6.21,3.43,10.1-.02,19.8-6.54,34.8-18.38,50.97-5.46-6.91-8.93-14.48-12.85-22.15-1-1.95-1.51-3.61.18-5.48,7.97-23.81-.77-47.36-16.01-66.39-4.64-5.8-8.27-11.85-11.17-19.12,24.38-14.95,41.81-32.91,58.08-55.98,5.67-8.04,10.83-15.86,15.39-24.54,2.89.9,5.34,1.77,8.15,1.72l8.68-11.8,7.35,23.82c5.86,18.99,11.94,37.28,18.91,55.87l10.3,27.49c9.39,25.06,17.98,57.81,13.17,83.86-1.85,9.99-13.67,17.81-11.19,35.24.56,3.91,1.26,10.08-1.75,13.31-3.42,3.67-8.83,5.44-13.38,7.4l-16.67,7.21c-3.2,1.38-6.92,3.1-10.41,2.83-2.37-.29-3.94-3.28-5.76-4.87l9.53-12.72,9.86-15.78c13.38-25.43,11.53-53.4,2.58-80.22l-11.33-28.19c-8.69-21.62-17.18-42.78-17.4-66.9.44-.64-.17-1.31-.83-.83-3.37,21.47,6.8,47.96,14.96,68.11l11.58,28.58c5.12,15.07,7.88,30.38,6.66,46.29-1.15,15-5.45,28.83-13.9,41.48Z" style="fill: #603c22;"/>
          <path d="M558.86,890.66l-2.38-8.93-5.87-22.49c-1.62-6.22,6.91-12.12.96-26.11-6.26-14.72-11.03-30.07-10.88-46.43.17-18.96,3.51-37.01,6.99-55.5,2.17-11.52,5-22.24,9.7-32.9,4.87,12.42,10,23.97,16.48,35.43,8.19,14.46,16.94,28.22,27.33,41.1,3.19,3.95,5.24,7.38,6.4,12.36l7.08,30.42c3.49,24.59-.15,44.94-23.63,56.95l3.58-7.75c5.7-14.52,6.38-30.14,2.25-45.25l-9.73-27.97-4.87-13.77c-.68,5.29.59,9.97,1.36,15,3.63,23.52,2.04,45.93-13.11,64.79-7.53,9.37-14.58,19.07-11.14,30.64-.21.12-.14.4.13.4,1.13,4.24,3.36,8.03,5.61,12.05l6.26,11.19c3.72,6.66,4.28,14.38,2.45,21.77-3.51-13.35-7.93-25.33-13.49-37.4-1.09-2.36-.81-5.07-1.15-7.3-.13-.09-.27-.22-.3-.32Z" style="fill: #613d23;"/>
          <polygon points="325.96 547.95 296.74 555.22 292.02 541.01 281.16 502.03 273.33 476.37 303.22 468.13 313.1 499.61 321.36 530.9 325.96 547.95" style="fill: #3f4348;"/>
          <path d="M512.05,546.58c-.28,1.76-5.15.02-5.68-.67-.56-.73-.15-9.81.06-11.35l1.2-.77.37-20.07-1.92-43.68,28.09,4.73c2.64,24.95,3.95,49.25,3.18,74,.02.79-.5,2.95-1.38,2.77l-23.91-4.95Z" style="fill: #3f4448;"/>
          <path d="M507.63,533.79l-.49,11.51,4.91,1.29c.11,1.82-1.52,2.32-2.15,3.98l-.79.7c3.42.89,6.05,2.62,7.87,5.19.94,4.22,1.72,8.4,2.33,12.52,2.51-.35,4.16.11,4.96,1.37l-3.47.43,1.44,3.1c.63,1.36,3.28.54,4.51.67.57.11.32,1.75-.09,1.72l-7.89-.58c-.47-.33-1.1-1.08-1.7-1.07-.95,0-1.13.5-.96,1.37l-1.21-.39-1.61-16.01-2.14-1.61c-6.28-2.9-14.71-8.39-7.98-15.35.17-2.73-.13-4.52-2.12-1.66-2.25,3.25-2.32,10.86.97,13.51,3.54,1.8,6.75,3.94,9.63,6.42.16,4.49.61,8.93,1.36,13.34l-.75,1.68c-1.34.75-2.09,2.2-2.48,3.79-.71-1.42-1.08-2.96-1.47-4.73l-51.31.54-40.7.87-59.16-.71-24.51-.31c.18-.35.58-.65,1.18-.64l6.36.08c-.07-1.79.66-2.59,1.51-4.3-2.34.22-4.1.62-5.26-.5l24.17.44,57.5.46,62.09-1.02,27.36-.18c.14-2.17.77-5.11-.54-6.63-2.35-2.73-12.49-4.21-11.92-14.53.19-3.53,1.04-7.15,2.67-10.26.78-1.5,3.17-1.81,4.17-2.64,1.03-2.94.95-6.08.94-9.08l-.02-10.19c.43.36.62.76.63,1.44l.24,13.22c.03,1.83,2.56,2.44,3.94,2.78Z" style="fill: #0a0a0a;"/>
          <path d="M293.25,438.7l-29.14,7.19-7.53-18.65-7.53-15.36c9.74-3.3,19.11-5.34,28.86-6.85l6.22,10.95,9.12,22.71Z" style="fill: #3f4446;"/>
          <path d="M136.77,730.61c12.71,17.6,21.27,34.72,15.67,57.63l-11.77-26.14c-7.15-15.89-16.36-30.05-27.57-43.95l11.42-6.78c3.56,6.92,7.72,12.96,12.25,19.24Z" style="fill: #fefefd;"/>
          <path d="M530.85,444.66l-28.31-5.21c-1.68-9.73-3.94-18.6-6.92-27.67-.51-1.84-1.21-3.5-1.04-5.71,4.17.3,7.69,1.59,11.43,2.89l17.52,6.52c3.36,9.19,5.83,18.51,7.32,29.18Z" style="fill: #414549;"/>
          <path d="M188.89,847.43l-16.26-21.42c7.57-9.68,13.5-20.11,17.09-31.82l2.89-14.67c8.87,23.73,7.81,45.8-3.72,67.91Z" style="fill: #fefefe;"/>
          <path d="M311.97,573.61l-3.79-8.04c-1.94-4.12-10.22-2.41-13.42-5.29l16.34-4.23,17.92-4.57c.03,3.07-7.51,5.54-7.43,10.42l.16,10.42-9.78,1.29Z" style="fill: #fdfdfd;"/>
          <path d="M509.91,550.57l3.29,1.07,19.01,3.59c2.89.55,5.64.33,8.47-.81-1.09,3.83-7.35,2.83-10.91,6.09l-1.75,9.94c-1.07.38-2.52-.05-3.73-.1l-6.32-.26-1.23-10.39c-.82-6.93-7.37-5.58-10.98-9.92,1.54.1,2.87.37,4.16.79Z" style="fill: #fdfdfd;"/>
          <path d="M314.65,594.15c-2.61-3.76-2.04-9.41,1.18-12.43,2.34-2.2,5.78-2.14,8.77-1.12,2.35.8,4.93,2.89,5.49,5.89.8,4.28-.98,8.35-4.41,10.07-3.7,1.85-8.35,1.46-11.04-2.4Z" style="fill: #767674;"/>
          <path d="M523.95,595.56c-5.58.74-10.44-3.22-10.5-8.58-.04-3.39,2.31-5.88,4.75-7.17,3.11-1.64,6.52-1,9.33,1.02,2.76,1.99,4.19,5.11,3.5,8.4-.64,3.09-3.18,5.82-7.07,6.33Z" style="fill: #787976;"/>
          <path d="M516.11,575.98c.21,1.13-.9,1.62-1.94,1.56-.93-.05-1.63-.7-1.92-1.65-1.4-4.65-1.36-9.52-1.62-14.59-4.08-3.96-10.81-4.7-11.9-9.73-1.09-5.05.21-13.34,4.5-13.26,1.83,2.33,1.7,5.92-1.23,7.12-.71,3.81,1.21,6.92,4.67,8.66,2.56,1.68,5.63,2.65,7.64,5l1.8,16.87Z" style="fill: #6f6f6e;"/>
          <path d="M328.4,565.51c.93,5.67.87,12.78-1.74,12.53-.86-.08-1.66-.99-1.74-2.04l-1.04-14.01c2.48-3.86,7.66-5.37,7.87-8.69.31-4.84-1.31-8.98-3.14-13.47,1.91-.67,4.44.35,5.28,2.43,1.72,4.26,3.11,9.27,2.33,13.9-3.05,4.65-8.68,4.12-7.82,9.35Z" style="fill: #6d6e6d;"/>
          <path d="M312.7,580.27c-2.62,4.02-7.77-1.56-9.21-7.65-.45-1.91-1.43-3.27-3.44-3.65l-6.73-1.26c-2.32-.44-3.99-1.82-4.66-4.11-1.9-6.49-3.38-13.9,1.66-14.29l1.45,11.16c.28,2.18,1.61,4.01,3.92,4.27l5.62.64c7.26.83,5.67,8.14,11.41,14.88Z" style="fill: #6b6c6a;"/>
          <path d="M532.61,578.2c-.81,1.27-3.32.18-3.05-1.07l3.51-15.78c2.63-.62,5.91-.16,7.76-2.04,2.26-2.3,1.6-6.16,1.2-8.92l.43-4.77c5.55.95,4.56,9.46,3.09,16.49-4.61,3.27-9.09,1.35-9.55,5.77-.38,3.61-1.26,6.96-3.4,10.32Z" style="fill: #6a6a69;"/>
          <path d="M521.22,598.42c4.49.98,7.76-1.9,10.69-4.7-.88,3.99-4.52,6.44-7.9,7.19-3.92.88-8.01-.42-10.53-3.7-1.95-2.54-2.85-5.91-2.24-9.38,1.35,4.68,4.49,9.38,9.98,10.58Z" style="fill: #6f706d;"/>
          <path d="M319.71,602.57c-4.82-.73-8.69-3.98-8.89-8.95,2.95,4.49,7.06,7.87,12.56,7.22,5.93-.7,9.52-5.7,10.07-11.71.74,1.66.81,3.87.14,5.69-2.06,5.66-7.7,8.68-13.89,7.75Z" style="fill: #7f7f7e;"/>
          <path d="M322.28,576.7c-.9.81-6.93,2.51-8.3-.88l8.16-.96c.38-.04.49,1.53.14,1.84Z" style="fill: #4e504f;"/>
          <g>
            <path d="M636.43,555.07c.33,1.59-.46,1.71-1.27.34l-11.94,6.78-46.37,22.52-10.87-30.22c.11-9.28.99-17.9,2.33-26.96l3.28-30.72c-2.65,4.05-2.84,8.58-3.5,13.06l-5.6,37.97c-3.93-8.27-4.61-17.28-9.73-25.18.93,9.98,3.66,19.06,6.55,28.14l5.75,18.08c9.84,30.92,16.13,55.59,5.15,87.71-2.81,8.23-6.13,15.8-10.5,23.23l-10.76,18.29,1.22-48.18-.6-18.56c-1.78-19.38-4.86-38.24-9.54-57.14-.43-1.72-2.61-3.66-1.18-5.43,1.8-2.23,8.32-2.13,9.34-6.27,1.29-5.2,1.87-11.12-.09-16.17-.92-2.38-3.49-3.22-5.46-4.72-.04-22.25-.77-43.95-3.75-65.8,2.22-.9,3.37-2.37,3.55-4.51.58-6.69.2-13.37-.98-19.96-.51-2.87-3.09-4.17-5.8-4.98l-4.67-23.55,14.02,4.01c9.93,2.84,19.99,4.77,29.29,8.85l.69,29.36c2.08-9.39,2.3-18.71,1.53-28.68,7.74,4.1,15.17,8.22,21,14.63,17.31,19.05,28.01,46.16,33.19,71.39l5.83,28.34c.33,1.62.93,3.01-.13,4.31Z" style="fill: #fefefe;"/>
            <path d="M636.43,555.07c.2-.05.95-.35,1.06-.14l3.66,13.95c-13.75,9.27-27.79,17.2-42.68,24.13l-18.02,7.2-3.1-14.16c12.27-4.19,23.53-9.26,34.89-15.14,7.67-3.97,14.62-8.13,21.29-13.62.72-.59,1.66-.88,1.65-1.87l1.27-.34Z" style="fill: #fefefe;"/>
            <g>
              <path d="M271.88,751.95l-10.51-33.34-13.89-37.15-18.29-56.57c-1.65-5.09-3.57-10.6-3.45-15.89,5.12-13.71,18.92-20.05,23.92-33.29-4.36,6.1-8.39,11.64-15.05,15.71,2.46-7.73,6.19-15.36,6.47-24.28l-10.92,21.14-5.41,10.37-16.12,23.98c-7.34-2.58-13.32-6.13-19.79-9.74-24.54-13.67-48.14-33.31-64.94-55.86-5.33-7.16-10.4-14.2-14.07-22.14l9.23-12.38,14.12-23.59,17.06-29.45c12.95-22.35,37.35-40.57,63.06-44.94l17.89-3.04,15.75-3.41c4.97,10.22,9.05,20.27,12.55,30.75-2.61,1.2-3.36,3.16-2.84,5.66,1.41,6.83,3.49,13.43,6.37,19.71.95,2.07,2.83,3.09,5.37,3.01l16.87,57.77,3.03,11.15c-1.52,1.56-4.3,3.27-4.21,5.99.15,4.39.78,8.76,1.95,12.95s5.07,6.09,9.16,6.54c1.85.2,3.55.23,5.24,1.52-1.16,2-1.81,3.98-1.94,6.24l-.77,12.91-5.71,105.06c-17.08-9.75-24.25-22.7-31.64-41.08,1.15,10.97,6.42,21.23,13.25,29.77,4.85,6.06,11,10.15,18.24,12.45l-3.18,31.35-6.32,37.91-4.78,18.74c-1.03-12.15-2.07-23.05-5.69-34.53Z" style="fill: #fefefe;"/>
              <path d="M235.3,545.4c.39,11.9.62,23.05-1.79,34.09.62-26.34-1.51-51.49-5.53-77.38-2.02-13-5.87-25.12-9.73-37.66-2.49-8.07-5.75-15.49-9.59-22.93-1.67-3.24-4.48-5.48-5.42-9.16,13.36,14.29,19.11,36.65,22.98,55.45l3.2,15.5c3.58,13.76,5.4,27.4,5.88,42.09Z" style="fill: #0b0a0a;"/>
              <path d="M207.87,604.29c1.05.38.9.78-.25.74-7.72-2.83-14.4-6.61-21.37-11.09-18.95-12.16-35.96-26.88-50.06-44.44-5.77-7.18-11.38-13.92-14.91-22.61l19.82,24.62c12.91,14.5,27.29,26.9,43.22,38,7.83,5.45,15.29,10.62,23.56,14.78Z" style="fill: #050505;"/>
              <path d="M207.62,605.03l.25-.74c1.33.67,3.09.69,4.12,2.3-1.81.15-3.01-1.07-4.37-1.56Z" style="fill: #6d6d6c;"/>
            </g>
            <g>
              <path d="M483.56,467c-.17,2.15-2.13,6.21-3.82,7.74-.5,1.03-.46,1.61.43,1.48.53-2.9,2.26-6.67,4.16-8.7,8.01-16.75,8.28-39.39,3.84-57.76-.15-.62,1.14-.78,1.52-.47s.97.57,1.19,1.47l4.92,20.04,2.09,9.21c-2.21.41-3.48,1.73-3.48,3.8,0,6.7.33,13.27,1.58,19.83.46,2.4,1.94,3.86,4.32,4.7l2.52,48.01c.31,5.85.56,11.69.76,17.52-.32,2.19-1.83,3.71-4.52,4.56-5.7,10.61-3.08,18.54,7.68,22.89,2.76,2.43,3.28,7.36.41,9.54-55.05,1.13-110.1,1.26-165.15.39l-.37-.97c-1.8.23-3.53.13-5.22-.3l-4.25-.16c-.34-1.55-1.28-4.35.02-5.48l4.92-4.32c4.23-3.71,2.25-13.15-.34-18.98-1.45-3.27-4.43-4.88-8.38-4.43l-11.32-41.51-9.17-29.41c1.36-1.91,2.13-4.05,1.56-6.54-1.49-6.41-3.81-12.46-6.41-18.49-.81-1.87-2.47-2.53-4.76-2.17l-12.76-30.67,6.52-2.64c1.49,7.08,2.25,13.93,5.11,20.4l-4.08-20.61,11.58-4.94c2.01,15.2,7.92,29.03,14.92,42.54,5.03,9.7,11.12,17.77,18.62,25.6,5.75,6.01,11.57,10.73,18.59,15.17,14.93,9.45,31.25,14.42,49.1,14.94,12.62.37,24.73-1.12,36.21-6.29,6.69-3.01,12.34-6.45,17.44-11.7,6.59-6.79,11.47-14.28,14.27-23.59,5.16-17.2,5.28-35.51.84-52.7l11.1,3.52c5,17.57,3.55,42.66-2.18,59.49Z" style="fill: #fefefe;"/>
              <path d="M484.33,467.53l-4.16,8.7c-.58.03-.72-.46-.43-1.48l3.82-7.74.77.52Z" style="fill: #656564;"/>
              <path d="M421.57,510.75c1.14-.37,3.65-.62,3.47.71l-18.63,1.25c-16.51.31-32.53-3.45-47.17-10.93-9.43-4.82-18.01-10.07-25.74-17.32-6.26-5.88-12.22-11.94-16.65-19.3l-9.98-16.59c.26-.11.46-.3.58-.47l9.64,14.47c10.58,15.89,25.06,27.72,42.05,36.42,19.43,9.95,40.92,14.15,62.44,11.75Z" style="fill: #0b0b0b;"/>
              <path d="M480.17,476.22c-5.06,13.01-23.04,27.13-36.11,30.38,15.27-7.31,27.38-17.62,35.68-31.85.34.31.51.8.43,1.48Z" style="fill: #0f100f;"/>
              <path d="M425.04,511.46c-.82-.75-2.39-.83-3.47-.71.35-.71,1.37-.4,2.27-.49l12.21-1.1c.03.12.02.33-.29.43l-10.73,1.86Z" style="fill: #777;"/>
            </g>
          </g>
          <g>
            <path d="M271.88,473.44c-2,.38-4.78.97-6.18-.1l-5.64-17.06c-.48-1.45-.64-3.01.1-4.28.61-1.04,1.95-2.16,3.55-2.72,11.34-3.94,22.95-6.49,34.79-8.52,1.39-.24,2.61.71,3.1,1.9,2.36,5.75,4.46,11.47,5.72,17.59.43,2.12-.75,3.48-2.57,4.04-10.9,3.39-21.34,6.95-32.86,9.13Z" style="fill: #707070;"/>
            <g>
              <path d="M272.85,468.7c-1.29.36-3.95.81-4.56-.32-2.05-4.08-3.53-8.63-4.07-13.33.34-1.64,3.33-2.72,4.9-3.14l25.27-6.68c5.06-1.34,7.57,8.4,8.31,15.18l-29.86,8.29Z" style="fill: #070708;"/>
              <path d="M273.92,465.65c-1.36.36-2.43,1.59-3.92,1.02l-3.29-9.48c-.19-.56-.28-1.3-.17-1.68.12-.45.73-1.05,1.52-1.25l27.34-6.91c2.49,3.54,3.63,7.19,4.79,11.31l-26.28,7Z" style="fill: #43464a;"/>
            </g>
          </g>
          <g>
            <path d="M539.72,472.7l-33.34-6c-2.63-.47-4.9-1.38-7.32-2.78-1.39-6.65-2.07-13.38-1.7-20.29.21-4.01,29.21,3.14,37.35,5.05,2.53.95,4.43,2.56,4.68,5.32.55,6.12,1.07,12.03.34,18.7Z" style="fill: #757575;"/>
            <g>
              <path d="M535.89,455.14c1.83,5.3,2.22,13.91-1.64,13.21l-22.08-3.98c-3.57-.64-6.94-1.47-10.04-3.35l-.66-12.95c-.08-1.53,1.75-1.98,3.15-1.86,9.43.84,18.39,2.81,27.46,5.14,1.9.49,3.22,2.06,3.81,3.79Z" style="fill: #060606;"/>
              <path d="M532.71,454.14c1.34,3.75,2.1,7.43,2.03,11.39l-30.38-5.94-.89-11.11,16.34,2.97,12.89,2.69Z" style="fill: #3d4044;"/>
            </g>
          </g>
          <g>
            <path d="M335.9,915.33l2.45-16.16c4,.46,7.66.15,10.79-1.88,3.71-2.4,5.08-7.05,2.54-10.52l-5.79-7.91c19.05,4.15,37.26,6.54,56.55,7.06,29.87,1.18,59.07-1.62,88.38-8.43,2.84,14.99,5.11,30.02,5.61,45.71l-36.87,6.08-41.53,2.64c-25.94-.07-51.34-2.8-76.61-7.89l-5.51-8.72Z" style="fill: #404548;"/>
            <path d="M260.47,984.24c-15.7,19.16-37.33,25.48-61.37,27.18l23.08-63.91,19.46-2.61c5.97-1.11,11.59.01,16.55,3.46l16.97,12.69c-3.74,8.52-8.66,15.82-14.7,23.18Z" style="fill: #424549;"/>
            <path d="M581.16,1001.66c-10.14-3.38-18.76-9.13-25.62-17.35-6.21-7.38-10.73-15.4-14.64-24.31-6.66-13.32-12.29-26.68-17.19-41.13,11.46-3.6,22.25-8.36,32.62-14.87,4.69,9.7,7.7,19.61,10.72,29.98l12.06,43,7,26.33-4.95-1.65Z" style="fill: #42454a;"/>
            <path d="M554.62,900.64c-11.87,6.75-24.22,11.96-37.34,16.5-.72-15.67-2.81-30.33-7.06-44.95l18.35-5.15,15.25-7.54,6.34,23.36,4.45,17.79Z" style="fill: #42444a;"/>
            <path d="M590.95,1019.95c-16.13-2.88-33.65-12.45-44.97-24.29-15.49-16.2-22.19-36.72-28.88-57.68-.61-1.93-.67-2.87-.5-5.02l.89-11.49c.09-1.11,1.61-1.83,2.6-1.44l5.51,15.85c5.01,14.4,10.73,28.17,18.51,41.27,10.37,17.46,23.82,27.15,43.68,31.21l3.17,11.58Z" style="fill: #43464a;"/>
            <path d="M500.43,935.42l-.8-25.93-3.76-27.5c-.51-3.72-1.7-6.93-3.22-10.67l12.05-2.47c1.78,3.57,3.14,7.15,3.75,11.04l4.18,26.44c1.37,8.69,1.06,17.22-.03,25.86l-12.16,3.23Z" style="fill: #414549;"/>
            <g>
              <path d="M509.77,579.68c.6,1.19-.15,2.07-.69,3.06-2.55,4.75-2.51,10.75.67,15.32,2.68,3.85,7.48,6.43,12.9,6.25,4.93-.17,9.09-3.53,11.07-7.3,2.45-4.68,1.81-9.72-.7-14.17l3.94-4.71,4.15,28.61c2.02,13.89,3.76,27.04,3.82,41.2.1,25.7-1.34,50.8-4.04,76.34l-5.68,53.69c-2.41,38.86,14.12,58.48,12.36,65.59l-3.46,13.99c-7.05,3.67-13.98,6.5-21.57,8.64l-13.25,3.74c-1.06-1.69-1.66-2.99-3.17-4.37l-16.95,3.89c-.83,1.46.37,3.92,1.2,5.61l-27.67,4.46c-37.88,6.1-84.59,3.33-122.09-4.77-9.32-7.39-18.51-13.9-28.9-19.64l-37.64-1.93c-3.26-.03-6.1.3-9.3,1.4.62-5.09.6-9.96-.15-15.02-.54-3.68.21-6.72,1.86-9.95,4.33-8.5,8.72-16.69,11.87-25.79,3.99-11.54,7.5-22.78,9.91-34.85,4-20.01,7.17-39.66,8.42-60.2l7.75-127.69,5.32,3.93-1.48,8.87c-.62,3.72,1.46,7.14,4.67,9.44,4.25,3.04,10.7,3.94,15.7,1.52,4.84-2.35,8.2-7.95,8.23-13.24.02-4.48-2.79-7.92-5.81-10.8l1.56-5.5c2.39-.34,4.84-.42,7.33-.23l.44-.83c55.7.91,111.43.75,167.2-.48,2.11.79,2.83,2.75,2.18,5.89Z" style="fill: #414449;"/>
              <g>
                <path d="M428.81,809.25c-1.8.76-3.51.7-4.95.15l-17.77-6.75c-20.62-8.8-40.15-19.07-59.52-30.27-2.12-1.23-2.99-3.44-3.12-5.75l-1.9-33.99-.95-96.77c7.41-.5,14.12-.08,21.14.28l26.24,1.37c40.28.52,80.12-.25,120.36-2.9,1.35,10.82,1.8,21.21,1.09,31.86l-2.06,30.83-2.86,35.38-3.45,31.38c-.31,2.85-1.14,6.86-3.6,8.46l-16.62,10.78c-16.72,9.93-33.89,18.26-52.01,25.94Z" style="fill: #010202;"/>
                <path d="M355.93,747.8c1.95.8,1.56-2.7,1.32-4.15l-.6-32.48-1.38-59.09,14.65,2.19,57.45,1.63,53.98-2.21,14.84-1.86-2.87,54.02-4.21,43.18-2.32,13.46c2.84-5.14,4.37-10.62,4.89-16.54l4-45.37.41-18.98,1.53-19.69c.32-4.09-.07-7.89-1.64-11.57l-34.35,2.16c-22.27,1.4-43.85,1.78-66.16,1.24l-40.2-2.77-.23-11,25.52,1.92c38.6,1.77,76.84,1.02,115.21-1.95.41,4,.03,7.04,1.93,10.31.91-3.76-.05-6.83-.2-10.5l8.31-.94-.36,23.43-3.42,45.25-1.8,23.26-2.64,23.43-2.58,14.88c-14.7,9.54-29.34,18.32-45.37,25.37l-24.03,10.58-15.41-5.82-36.2-17.12-23.39-12.56c-1.77-.95-2.66-2.83-2.76-4.84l-1.86-38.94-1.35-48.72.03-37.37,8.62.27.11,38.22,1.58,48.21.97,21.5Z" style="fill: #3f4447;"/>
                <g>
                  <path d="M355.93,747.8c.14.08.87.07,1.01-.15l.3-4c.86.89.33,2.28.36,3.52l.22,11.61c.09,4.66,20.56,14.85,27.79,18.5l15.85,8,24.85,9.39c-5.94.33-11.09-2.02-16.46-3.74-5.49-1.76-9.84-4.66-14.91-7.18-10.87-5.41-21.8-10.16-31.87-16.9-3.39-2.27-5.98-4.69-6.32-8.88l-.84-10.18Z" style="fill: #040506;"/>
                  <path d="M471.13,686.46l1.29,2.15.08,18.4c0,1.2-.26,2.33-.82,3.14-1.52-.31-3.14-.88-4.84-1.7l-6.61-.62c-5.7-.16-11.98-6.1-8.57-11.91,1.58-2.69,3.73-3.69,6.71-1.96,3.12,1.81,4.56,6.53-.36,4.54-4.6,1.94,3.19,7.39,6.32,4.64.99.61,2.37,1.25,3.11-.43.36-.81.26-11.31-.05-11.84l-39.99-23.25-.61-1.09c-1.96.01-1.42-3.82.04-4.79.35-.52.94-.45,1.78.2l42.53,24.52Z" style="fill: #f7d722;"/>
                  <path d="M471.68,710.15c.28.21,1,.35.86,1.26-1.21-.4-3.04-.75-3.79-1.42-1.1-.98-1.8-1.04-3.74-1.25l-8.58-.92c-.99-.13-1.5.06-1.52.57-.83.48-2.42.18-3.36-.19-2.82-1.13-11.2-9.36-13.41-11.74-1.81-1.96-3.32-3.75-4.41-6.16-1.44-.45-1.44-1.72.17-1.94,1.3-1.46,2.79-.37,2.01,1.36l1.77.29c2.34,2.51,4.7,4.99,7.1,7.43,1.38-7.09,13.3-8.24,16.81-2.61,2.06,3.3,1.04,6.56-2.9,5.77l1.1,1.07c1.42.24,2.61.7,3.56,1.39.5-2.32.54-4.68.12-7.09-1.22-.39-1.7-1.5-1.42-3.33.79-3.15,2.98-.98,3.6,1.59.07,12.63.35,4.08.22-2.32l-38.74-22.37-.14-1.43c-1.78.31-1.16-.51-.23-1.6l40.78,23.73c.58.04,1.79.06,1.45.76-.12.25-.84.81-.84,1.24l-.08,11.67c-2.62.37-5.28.61-8.11.11-2.44-.43-5.03-3.39-3.65-5.65.65-1.07,3.08-.3,4.43.39.14-2.42-1.9-4.77-4.13-4.9s-4.6,1.42-5.1,3.89c-.7,3.49,1.53,6.82,4.66,8.43,5.63,2.9,10.52-.28,15.49,3.96Z" style="fill: #1c2514;"/>
                  <path d="M471.13,686.46l-16.18-8.66-24.61-14.28c-1.05-.61-2.31-1.51-3.51-1.78l-.57,1.62c-15.35,8.18-30.42,16.85-45.33,25.83l.41,19.75c.74-.49,1.83-1.69,1.98-2.55-.17-5.42-.12-10.84.13-16.25,14.07-7.9,28.08-15.94,42.03-24.12l1.3.51.23,1.6.22,1.21-40.86,22.85.22,15.36-1.17.78c-.47.12-1.04,1.13-.94,1.62-1.46.88-2.68,1.75-5.28,1.35l.04-23.6,21.99-13.04,21.37-11.77c1.47-.81,3.29-2.24,5.17-1.99l31.6,18.29,11.75,7.26Z" style="fill: #11241b;"/>
                  <path d="M428.34,794.96c2.53-2.69,5.9-3.62,9.1-5.11l14.7-6.84,23.72-12.8,10.9-7.42c-1.85,3.73-5.09,6.06-8.53,8.04l-20.26,11.69c-9.36,5.4-18.91,9.5-29.64,12.45Z" style="fill: #050506;"/>
                  <path d="M462.08,692.65l-.43.65c-7-3.58-13.97-7.52-20.91-11.82l-.69-1.75c-.33.33-.84.82-1.16.67-1.43-.65-10.26-5.7-10.48-6.46-.08-.26-.03-.56.05-.86-.38-1.2-2.14-1.38-4.02-.3-11.94,6.49-23.74,13.17-35.4,20.03-.62,3.58-.71,7.33-.28,11.24,1.26.39,1.28.56.23.81-.63.15,9.14-.6,12.11-3.78.11-.12.03-.42-.1-.78,1.3-.49,1.87-1.16,1.72-2.02-2.38-3.52,2.67-5.27,3.81-1.73,2.33,7.27-13.71,11.23-18.65,11.13l-2.46.65.05-7.58c.02-3.19-.86-6.15.01-9.23l41.52-23.41,12.38,7.26,27.83,15.96-.25,10.03c-.02.71-.02,1.37-.47,1.69-.31.22-.98.26-1.8.43l-.18-9.17c-.01-.75-.25-1.3-.81-1.75-.38-.3-1-.56-1.63.07Z" style="fill: #3f4447;"/>
                  <path d="M424.37,751.34l1.7.87c4.3-.61,2.91,3.55-.46,1.42-.18.27-.34.48-.42.45-5.01-1.61-2.89-2.23.7.35.36.26.63.61.78,1.03-.37-.7.43-1.43,1.1-1.47,1.75-.11,3.63,5.44,3.33,5.95l-2.31,1.95-1.25.96c-.7.54-1.45-.45-2.19-.91l-32.81-20.58c-.18.09.18-.62.66-.6l13.5.56c6.58,2.19,12.03,6.6,17.67,10.01Z" style="fill: #f0d628;"/>
                  <path d="M462.14,741.78l-33.35,20.11c.16-.68.56-1.12,1.37-1.53l-1.39-4.09c-.13-.38-.51-.95-.78-1.1-.3-.17-.89,0-1.33.29-.72-.64-1.07-1.25-1.05-1.84.89,0,2.04.09,2.22-1.21-2.26.66-2.68-.61-3.46-1.08,2.12,1.15,3.9.5,5.94-.59l16.9-9,13.23-.58c.87-.04,1.65.37,1.69.62Z" style="fill: #cac639;"/>
                  <path d="M454.93,708.4c.01.09.16.33.19.5.08.42-.33.7-.87.33l-32.1-.14-8.8-.21c.41-.91,1.23-.67,1.76-.55,1.61-.87,3.49-1.32,5.62-1.36,4.61-3.24,6.91-4.86,6.91-4.86,1.87-2.01,3.75-3.64,5.65-4.89.14-1.01.47-1.59,1-1.75-.46-1.27-1.2-3.42-1.21-4.73,0-.14.29-.29.67-.44.64.09,1.17.53,1.69,1.2,2.67,3.44,5.56,6.34,8.84,9.18,3.37,2.92,6.36,6.45,10.65,7.71Z" style="fill: #f1ce14;"/>
                  <path d="M428.46,673.07c-.48.57-1.34.76-2.59.58l-35.65,20.15c-.36.29-.24,8.85-.02,9.26.31.57,7.76-1.23,8.56-2.41-3.14-2.47-2.04-6.78.58-9.21,4.75-4.4,11.91-2,14.37,3.63.86-.49,1.64-.2,2.36.49l7.89-12.15c1.49-2.75,3.14-3.64,4.93-2.68l5.02,7.63-.17,1.94.54,5.17c-.68.32-1.04-.27-1.08-1.75-2.11-1.27-3.23-5.02-3.44-7.53-.66,0-1.14-.56-1.46-1.71-.64.35-1.25.65-1.83.9-2.83,5.9-6.41,10.99-10.73,15.27l-2.25,1.97c-3.18,3.48-7.24,6.62-12.03,7.49l-12.95.5c-.7.03-1.37-.81-1.21-1.14l.49-.52c2.93.06,5.87.23,8.8.5l.98-1.18c6.01.09,16.34-5.24,12.75-12.32-1.24-2.45-3.94-3.87-6.67-3.2,3.16-.19,4.69,2.27,4.73,5.17.08,7.22-13.39,11.62-19.37,10.43-.15.8-.94.75-1.15-.05.07-.15.03-.48.01-.62l11.81-3.23c2.9-.79,5.69-2.88,6.36-5.91.37-1.66-.18-2.88-1.6-3.2-.9-.2-2.25.54-1.87,1.69.46,0,1.94.81,1.58,1.32-4.02,5.75-8.7,6.79-15.64,7.11l-.15-4.76c-.07-2.23-1.33-5.53,0-7.55,1.5-2.26,4.32-3.2,6.6-4.46l27.6-15.34c4.33-2.41,6.95-2.19,5.89-.29Z" style="fill: #092929;"/>
                  <path d="M429.77,686.19c.45,3.3,1.07,6.55,1.87,9.76l-.92.99c-.6.76-1.25.82-1.62-.06-2.87,3.92-8.13,10.81-13.36,10.9-.27,0-.54-.13-.81-.29l3.96-3.1c.84-.66.29-2.15-.24-3.38l-3.94,2.12c.34-.73.82-1.43,1.19-1.75,4.13-5.14,7.72-10.59,10.78-16.35l1.62-.55c.94.21,1.05,1.16,1.46,1.71Z" style="fill: #1d2924;"/>
                  <path d="M434.29,695.47c.25,2.35-7.91,10.02-12.62,12.37-2.01,1-4.63.29-6.55.5.06-.21.13-.54-.18-.85,6.37-2.18,10.71-7.23,14.32-13.15.86.76.49,2.33,1.47,2.61,1.14-.31,1.57-1.16,1.31-2.55l1.18-.68c.12.63.67,1.3,1.08,1.75Z" style="fill: #4a764b;"/>
                  <path d="M456.44,707.82c-.45.24-1.1.69-1.52.57-2.5-2.37-5.78-3.62-7.45-6.72-.88-1.64-.83-4.02.39-5.53.89-1.09,2.39-2.56,4.75-2.2-3.76,3.36-3.34,8.66.42,11.37l3.4,2.51Z" style="fill: #3f4447;"/>
                  <path d="M428.31,684.48c-.03.77.03,1.29.34,2.48l-1.65-1.4-2.78,5.1c-2.28,4.18-4.93,7.73-8.32,10.71l-.16-.72c2.52-2.21,4.03-5.45,5.91-8.5l5.56-9.03c.78.41.93.97,1.09,1.36Z" style="fill: #65a994;"/>
                  <path d="M389.02,708.36c2.37.16,4.73.02,7.11-.41.33,0,.49.94.48,1.52l-9.3.02.56-1.17c.3-.02.89-.09,1.15.05Z" style="fill: #3f4447;"/>
                  <path d="M426.83,661.74l-.04,4.79-4.11,2.84-22.74,12.69-15.54,8.53.06,16.01c-.62,1.84-1.98,3.51-4.34,4.11l-.36-22.19,24.78-14.62,22.29-12.16Z" style="fill: #09b3ae;"/>
                  <g>
                    <path d="M392.54,741.36c.91-.18,1.94.01,3.09.57l31.26,19.73c.73-.38,1.36-.3,1.9.23.89-.7,1.44-1.48,1.65-2.35l22.31-13.46c3-2.37,6.13-3.81,9.39-4.31l6.84-2.36,5.31-4.5c3.72-3.15.61-5.34,3.12-6.88,1.26-.77,3.77-2.52,5.37-1.34.39,2.38.93,6.27.02,8.7-1.11,2.97-5.21,4.02-7.47,5.65l-3.13,2.26-28.29,17.44-17.18,10.11-44.2-27.53c-2.35-1.46-4.03-2.9-6.7-3.94-1.34-.52-3.53-1.8-4.26-3.08-.56-3.39-.38-6.93.55-9.97,1.99-.26,4.49.3,5.86,2.27.77,1.11.02,2.76.06,4.02,2.44,1.72,4.89,5.24,7.56,6.23s4.77,1.12,6.96,2.49Z" style="fill: #161607;"/>
                    <path d="M427.27,764.64c.79,1.16.16,4.34-1.49,4.28l-45.7-28.17,8.83-.45,25.08,16.21,13.28,8.14Z" style="fill: #6d9c5c;"/>
                    <path d="M425.77,768.92c.42-1.22.33-3.49,1.49-4.28l38.52-23.62c2.39-.48,5.02-.31,7.8.13l-25.5,15.73-20,12.08c-.37.22-1.25.4-1.61.49-.29.07-.6-.13-.71-.54Z" style="fill: #f0d51b;"/>
                    <path d="M470.48,739.13l9.43-7.89-2.32.24c-.7.07-.61-1.65-.16-2.13,1.2-1.29,2.73-2.07,4.36-2.51.74,2.8,1.35,5.75.17,8.37-1.5,3.33-6.58,5.45-11.48,3.92Z" style="fill: #716833;"/>
                    <path d="M383.24,738.77c-4.19,1.82-9.59-.62-10.47-2.95-1.07-2.86.02-5.92-.02-8.95,3.2.76,5.41,2.67,4.61,4.34-.23.47-1.44-.45-2.83-.2l8.71,7.76Z" style="fill: #75b86e;"/>
                  </g>
                  <path d="M428.46,673.07l11.59,6.65c1.82,1.6,1.59,8.83.16,10.28-.74.75-3.49.61-4.28-.28-.44-.48-1.32-1.31-2.01-1.36-.32.06-1.14.29-1.48-.22l-4.78-7.17c-2.24,1.92-3.41,4.22-4.88,6.47l-7.36,11.27c-.54-1.42.03-2.43-.58-3.32-.57,1.8-.16,3.18-1.33,4.43-.09-3.25-1.14-5.7-3.12-7.4-2.01-1.73-4.97-2.66-7.54-1.73s-4.15,2.7-4.75,5.19c-.53,2.21.69,3.83,2.86,4.66-3.66,2.94-7.64,3.77-11.92,3.72l.02-11.11,15.87-9,20.46-11.54c1.03-.58,2.41.05,3.07.48Z" style="fill: #10ced4;"/>
                  <path d="M462.08,692.65c1.76.46,1.07,2.32,1.42,3.33.26,2.32.53,4.79-.12,7.09-2.58.84-5.77-.38-6.24-3.53,1.11-1.28,2.8.51,3.93-.17.34-.21.77-.88.62-1.51-.92-3.89-4.41-5.59-8.2-5.39-2.41.12-4.36.69-5.84,2.17-1.61,1.61-2.01,3.47-1.93,5.69l-9.8-10.6,4.07-.72.06-9.28,22.03,12.93Z" style="fill: #0abcb4;"/>
                  <path d="M463.38,703.07l.12-7.09c.86,2.5.73,6.81-.12,7.09Z" style="fill: #3f4447;"/>
                  <path d="M425.62,753.63c.59.08,1.18,1.18,1.05,1.84l-8.63-4.71-10.48-5.46.42-.52,13.32,6.76c1.56.79,2.71,1.86,4.32,2.09Z" style="fill: #836603;"/>
                  <path d="M396.6,709.46c-1.91-1.43-5.28.3-7.59-1.1,8.67-.88,21.08-5.77,17.62-12.96-.57-1.18-2.09-1.75-3.16-1.43-.88.26-1.59.93-2.12,2.02l.88,2.66c-.45.95-2.04.56-2.52-.13-.36-.53-.99-1.29-.81-2.41.36-2.2,2.17-3.69,3.69-4.23,2.1-.75,3.95-.56,5.92.53,3.52,1.96,4.94,7.12,2.43,10.53-3.41,4.64-9.02,6.53-14.35,6.53Z" style="fill: #12b1ae;"/>
                  <path d="M433.21,693.72l-.09,2.92c-.01.67-.83,1.44-1.24,1.14l-1.16-.83c-1.08-3.6-2.33-8.79-.96-10.75,1.69,2.25,2.91,4.76,3.44,7.53Z" style="fill: #65a994;"/>
                  <g>
                    <path d="M415.91,701.38c.52.54-1,1.82-1.15,1.71-.36-.28,6.05-6.01,5.68.53-1.62,1.58-3.45,2.88-5.5,3.87,1.24-.21,1.34.28.18.85,2.75.77,5.95.33,8.79-.39l27.48.12c1.47.63,2.65.74,3.55.34-.3-1.19.54-.94,1.52-.57.08-.38.16-.67.24-.67,1.35,0,11.33,1.41,12.15,2.01.11.08.04.42-.08.83-1.13,1.02-.98,2.58-1.68,3.88-1,1.85-1.9,4.12-.19,6.23l5.15,6.34c1.1,1.36,3.94,1.04,5.38,1.61,1.39,4.99-3.73,9.94-7.84,12.36-1.44.85-6.4,2.77-7.43,1.38-4.84.72-9.72,1.07-14.65,1.07l-18.69,9.86c-1.48-.11-2.95-.56-4.42-1.37l-1.06.26c-5.42-3.46-11.04-6.51-16.87-9.14-4.71.04-9.34-.32-13.91-1.09l-1.23.64c-5.97-1.14-10.25-4.39-14.23-8.84.59-2.81-.07-4.58-1.96-5.32-1.33-.12-2.34-.62-3.02-1.48.27-.87,1.57-1.9,2.33-2.16,1.93-.65,3.43,2.79,5.49,2.1,2.18-.74,1.92-3.93,1.96-6.23s4.96-4.47,2.6-10.12c-1.47-.3-.13-2.52.94-1.62.13-1.69,1.54-2.15,2.46-.65.54.21.53.42-.01.62,1.29.65.61.88-.56,1.17,2.47.86,6.57.66,9.33.41,9.17-.83,9.85-1.51,16.1-8.13.8-.85,1.91-1.95,3.01-1.1.71-.39.77-.15.16.72Z" style="fill: #3a3d3d;"/>
                    <g>
                      <path d="M412.21,723.77l-6.81.12c-.35,1.71-.39,3.09-.13,4.76l7.8-.04c.35.52,0,2.69-.99,2.69h-10.05s-.07-16.77-.07-16.77l10.94.03c.21.97.21,1.62,0,2.56h-7.54c-.34,1.56-.28,2.93-.04,4.34l6.83.09c.25.28.29,1.8.06,2.22Z" style="fill: #f2d724;"/>
                      <path d="M444.4,731.16c-.93.43-2.89.56-3.65-.24l-5.68-5.99c-.43-.45-1.89-1.04-1.89-.53l-.06,6.61c-.85.32-2.03.41-3.03-.12l-.03-16.2,2.76-.11.37,7.31,6.61-6.97c.58-.62,2.33-.49,3.39-.08l-6.59,7.39,7.8,8.93Z" style="fill: #f9de2b;"/>
                      <path d="M449.4,727.14c4.18,3.36,9.4-2.13,9.45,1.24.04,2.72-6.63,4.21-9.7,2.33-2.8-1.71-4.61-4.33-4.75-7.17-.16-3.13.92-6.62,3.87-8.25,3.25-1.8,7.54-1.58,10.62.4.93.6.19,2.96-.73,3.03-2.65-1.53-6.29-2.37-8.9-.08-2.32,2.04-2.49,6.38.14,8.49Z" style="fill: #a523af;"/>
                      <path d="M464.44,714.69c.25,4.41.47,8.87.66,13.38l6.32.16c.34.72.26,2.32-.31,2.95l-9.94.08.26-16.1c.67-.67,2.3-.55,3.01-.47Z" style="fill: #a120a6;"/>
                      <path d="M465.1,728.07c-.5-.01-.62-.55-.62-1.1l-.04-12.28c.19.02.68.01.68.59l-.02,12.8Z" style="fill: #3f4447;"/>
                      <g>
                        <path d="M425.31,728.35c-2.24-.49-4.35-.17-6.61-.12-1.33.02-1.13,1.53-2.82,3.19-.36.35-2.06,0-1.94-.45l5.73-14.64c.25-.63.45-1.14.68-1.46.32-.44,1.81-.59,2.08.08l6.51,15.67c.22.63-1.67,1.19-2.3.73s-1.32-1.17-1.34-3.01Z" style="fill: #f9e22e;"/>
                        <path d="M423.9,725.67c-1.93.32-3.3.3-5.35.05l2.69-6.01c1.28,1.69,1.62,3.35,2.65,5.97Z" style="fill: #514718;"/>
                      </g>
                      <g>
                        <path d="M390.25,725.24l-.3,5.68c-.04.73-2.76.53-2.78-.46l-.27-15.78,7.38-.02c2.53,0,4.47,1.98,4.95,4.08.52,2.28-.27,4.77-2.6,5.86-1.83.86-3.69.83-6.38.64Z" style="fill: #eace24;"/>
                        <path d="M395.2,722.28c-1.63.73-3.32.56-5.02.41v-5.54c3.15-.49,5.65-.1,6.24,2.06.27.99.1,2.47-1.22,3.06Z" style="fill: #363321;"/>
                      </g>
                    </g>
                  </g>
                </g>
              </g>
            </g>
          </g>
        </g>
      </g>
    </g>
  </g>
</svg>