<?xml version="1.0" encoding="UTF-8"?>
<svg id="Calque_2" data-name="Calque 2" xmlns="http://www.w3.org/2000/svg" xmlns:xlink="http://www.w3.org/1999/xlink" viewBox="0 0 1360 420">
  <defs>
    <linearGradient id="Dégradé_sans_nom_14" data-name="Dégradé sans nom 14" x1="-.32" y1="210" x2="1359.2" y2="210" gradientTransform="translate(.32)" gradientUnits="userSpaceOnUse">
      <stop offset=".08" stop-color="#94d4ff"/>
      <stop offset="1" stop-color="#6191ff"/>
    </linearGradient>
    <linearGradient id="Dégradé_sans_nom_2" data-name="Dégradé sans nom 2" x1="592.81" y1="-58.64" x2="989.08" y2="385.27" gradientUnits="userSpaceOnUse">
      <stop offset="0" stop-color="#875fd5"/>
      <stop offset=".17" stop-color="#6a47b3"/>
      <stop offset=".44" stop-color="#442887"/>
      <stop offset=".67" stop-color="#291267"/>
      <stop offset=".87" stop-color="#180454"/>
      <stop offset="1" stop-color="#13004d"/>
    </linearGradient>
    <linearGradient id="Dégradé_sans_nom_2-2" data-name="Dégradé sans nom 2" x1="416.35" y1="98.89" x2="812.62" y2="542.8" xlink:href="#Dégradé_sans_nom_2"/>
    <linearGradient id="Dégradé_sans_nom_2-3" data-name="Dégradé sans nom 2" x1="459.05" y1="60.77" x2="855.32" y2="504.68" xlink:href="#Dégradé_sans_nom_2"/>
    <linearGradient id="Dégradé_sans_nom_2-4" data-name="Dégradé sans nom 2" x1="542.04" y1="-13.32" x2="938.31" y2="430.59" xlink:href="#Dégradé_sans_nom_2"/>
    <linearGradient id="Dégradé_sans_nom_2-5" data-name="Dégradé sans nom 2" x1="500.29" y1="23.96" x2="896.55" y2="467.87" xlink:href="#Dégradé_sans_nom_2"/>
  </defs>
  <g id="Calque_1-2" data-name="Calque 1">
    <rect width="1360" height="420" style="fill: url(#Dégradé_sans_nom_14);"/>
    <g>
      <path d="M887.22,191.71c-.5-.1-1.02-.16-1.55-.16h-86.71c-4.25,0-7.69,3.44-7.69,7.69v8.66h0v25.75s0,0,0,0v8.82c0,3.72,2.64,6.82,6.14,7.53.5.1,1.02.16,1.55.16h86.71c3.19,0,5.92-1.94,7.09-4.7.01-.03.02-.07.03-.1.36-.89.57-1.87.57-2.89v-8.66h0v-25.75h0v-8.82c0-3.72-2.64-6.82-6.14-7.53ZM841.01,213.82c0,1.58-1.28,2.87-2.86,2.87h-7.86c-2.1,0-3.8,1.72-3.8,3.82h0c0,2.1,1.7,3.79,3.8,3.79h7.86c1.58.01,2.86,1.29,2.86,2.88v4.2c0,1.58-1.28,2.87-2.87,2.87h-27.32c-1.58,0-2.87-1.29-2.87-2.87v-21.83c0-1.58,1.28-2.87,2.87-2.87h27.32c1.58,0,2.87,1.28,2.87,2.87v4.26ZM879.15,231.39c0,1.58-1.28,2.87-2.87,2.87h-27.32c-1.58,0-2.87-1.28-2.87-2.87v-21.83c0-1.58,1.28-2.87,2.87-2.87h16.95c1.34,0,2.42,1.08,2.42,2.42v14.29c.01,1.04.85,1.88,1.89,1.88h6.06c1.58.01,2.86,1.29,2.86,2.88v3.23Z" style="fill: url(#Dégradé_sans_nom_2);"/>
      <g>
        <path d="M557.27,191.92h-57.95c-3.36,0-6.08,2.74-6.08,6.12l.43,52.8c0,3.38,2.72,6.12,6.08,6.12h22.59c1.72,0,3.12-1.4,3.12-3.14v-.83c0-1.06.86-1.93,1.92-1.93h30.33c3.36,0,6.05-.66,6.08-6.12l-.4-46.91c0-2.81-2.76-6.12-6.12-6.12ZM528.73,231.46h0c-1.66,0-3.01-1.36-3.01-3.03l-.25-7.99c0-1.67,1.35-3.03,3.01-3.03h0c1.66,0,3.01,1.36,3.01,3.03l.25,7.99c0,1.67-1.35,3.03-3.01,3.03Z" style="fill: url(#Dégradé_sans_nom_2-2);"/>
        <path d="M631.55,231.61l-13.29-.02c-4,0-3.66-3.06-3.66-3.68s.24-3.39,4-2.9l15.06,1.36c2.15.19,4-1.5,4-3.65v-3.15c0-1.8-1.54-3.21-3.33-3.05,0,0-13.79,1.25-15.1,1.36-1.32.11-1.91.06-2.59-.37-2.31-1.46-2.24-5.1.32-6.06.4-.15.83-.23,1.27-.23l13.32-.02c3.38,0,6.11-2.75,6.11-6.12v-7.02c0-3.38-2.74-6.12-6.12-6.12h-58.31c-3.38,0-6.12,2.74-6.12,6.12v46.58c0,3.38,2.74,6.12,6.12,6.12h58.31c3.38,0,6.12-2.74,6.12-6.12v-6.89c0-3.38-2.73-6.12-6.11-6.12Z" style="fill: url(#Dégradé_sans_nom_2-3);"/>
        <path d="M786.74,244.58v-9.51c0-1.58-.7-3.08-1.91-4.1l-9.29-7.81c-1.05-.88-1.05-2.5,0-3.38l9.29-7.81c1.21-1.02,1.91-2.52,1.91-4.1v-9.87c0-3.38-2.73-6.12-6.1-6.12h-15.7c-1.26,0-2.48.45-3.45,1.27l-11.89,10.44c-.62.53-1.57.09-1.58-.72l-.08-5.96c-.03-2.93-2.41-5.29-5.33-5.29h-20.1c-3.37,0-6.1,2.74-6.1,6.12l-.24,46.81c0,3.38,2.73,6.12,6.1,6.12h20.19c2.94,0,5.33-2.39,5.33-5.34l.24-4.52c0-.83.98-1.27,1.59-.72l10.28,9.25c.98.87,2.24,1.36,3.55,1.36h17.17c3.37,0,6.1-2.74,6.1-6.12Z" style="fill: url(#Dégradé_sans_nom_2-4);"/>
        <path d="M673.64,246.65v-4.9c.02-.59.49-1.07,1.09-1.07h3.76c.59,0,1.07.48,1.07,1.08v4.85c-.02,2.37,1.87,4.31,4.24,4.35h21.82c3.42.06,6.23-2.7,6.23-6.12v-46.79c0-3.38-2.74-6.12-6.12-6.12h-58.31c-3.38,0-6.12,2.74-6.12,6.12v46.79c0,3.34,2.68,6.06,6.02,6.12h21.92c2.41.04,4.4-1.9,4.41-4.31ZM679.56,217.27v15.54c0,.5-.41.91-.91.91h-4.07c-.5,0-.91-.41-.91-.91v-15.54c0-1.63,1.32-2.95,2.95-2.95h0s0,0,0,0c1.63,0,2.95,1.32,2.95,2.95Z" style="fill: url(#Dégradé_sans_nom_2-5);"/>
      </g>
    </g>
  </g>
</svg>