<?xml version="1.0" encoding="UTF-8"?>
<svg id="Calque_2" data-name="Calque 2" xmlns="http://www.w3.org/2000/svg" xmlns:xlink="http://www.w3.org/1999/xlink" viewBox="0 0 452.21 480">
  <defs>
    <radialGradient id="Dégradé_sans_nom_4" data-name="Dégradé sans nom 4" cx="705.59" cy="235.74" fx="705.59" fy="235.74" r="229.51" gradientTransform="translate(-488.97) scale(1.01)" gradientUnits="userSpaceOnUse">
      <stop offset="0" stop-color="#360099"/>
      <stop offset="1" stop-color="#13004d"/>
    </radialGradient>
    <clipPath id="clippath">
      <rect width="452.21" height="480" style="fill: none;"/>
    </clipPath>
    <linearGradient id="Dégradé_sans_nom_13" data-name="Dégradé sans nom 13" x1="173.22" y1="202.69" x2="-16" y2="24.34" gradientUnits="userSpaceOnUse">
      <stop offset=".08" stop-color="#94d4ff"/>
      <stop offset="1" stop-color="#6191ff"/>
    </linearGradient>
    <linearGradient id="Dégradé_sans_nom_6" data-name="Dégradé sans nom 6" x1="216.02" y1="178.12" x2="626.56" y2="-127.51" gradientUnits="userSpaceOnUse">
      <stop offset="0" stop-color="#babaff"/>
      <stop offset=".41" stop-color="#a493ed"/>
      <stop offset="1" stop-color="#875fd5"/>
    </linearGradient>
    <linearGradient id="Dégradé_sans_nom_7" data-name="Dégradé sans nom 7" x1="495.9" y1="379.57" x2="265.35" y2="242.55" gradientUnits="userSpaceOnUse">
      <stop offset="0" stop-color="#97f0f7"/>
      <stop offset="1" stop-color="#97f0f7"/>
    </linearGradient>
    <linearGradient id="Dégradé_sans_nom_6-2" data-name="Dégradé sans nom 6" x1="234.15" y1="269.88" x2="-119.38" y2="616.56" xlink:href="#Dégradé_sans_nom_6"/>
    <linearGradient id="Dégradé_sans_nom_15" data-name="Dégradé sans nom 15" x1="254.09" y1="296.56" x2="549.89" y2="616.28" gradientUnits="userSpaceOnUse">
      <stop offset="0" stop-color="#f2eb96"/>
      <stop offset=".14" stop-color="#f2e587"/>
      <stop offset=".5" stop-color="#f2d966"/>
      <stop offset=".8" stop-color="#f2d252"/>
      <stop offset="1" stop-color="#f2d04b"/>
    </linearGradient>
    <linearGradient id="Dégradé_sans_nom_15-2" data-name="Dégradé sans nom 15" x1="199.08" y1="347.46" x2="494.88" y2="667.18" xlink:href="#Dégradé_sans_nom_15"/>
    <clipPath id="clippath-1">
      <path d="M194.66-8.22L9.86-4.99C-.86-4.8-9.39,4.03-9.21,14.75l4.38,250.77c.19,10.72,9.03,19.25,19.74,19.06l72.04-1.26c5.49-.1,9.86-4.62,9.77-10.11l-.05-2.62c-.06-3.37,2.63-6.16,6-6.22l96.71-1.69c10.72-.19,19.25-9.03,19.06-19.74l-4.05-232.1c-.19-10.72-9.03-19.25-19.74-19.06Z" style="fill: none;"/>
    </clipPath>
    <clipPath id="clippath-2">
      <path d="M437.59,113.36l-42.11.66c-6.43.1-11.72-5.04-11.81-11.47l-.02-1.3c-.09-6.81,5.67-12.24,12.46-11.75l47.82,3.47c6.81.49,12.58-4.97,12.46-11.8l-.04-2.33c-.12-6.83-6.07-12.09-12.87-11.35l-47.79,5.14c-6.81.73-12.78-4.56-12.87-11.41h0c-.08-6.39,5.01-11.65,11.4-11.77l42.22-.81c10.7-.21,19.22-9.04,19.03-19.74l-.39-22.25c-.19-10.72-9.03-19.25-19.74-19.06l-184.8,3.23c-10.72.19-19.25,9.03-19.06,19.74l2.58,147.62c.19,10.72,9.03,19.25,19.74,19.06l184.8-3.22c10.72-.19,19.25-9.03,19.06-19.74l-.38-21.85c-.19-10.7-9-19.23-19.71-19.06Z" style="fill: none;"/>
    </clipPath>
    <clipPath id="clippath-3">
      <path d="M461.42,368.85l-.63-35.89c-.09-5.01-2.39-9.73-6.29-12.88l-29.97-24.22c-3.39-2.74-3.48-7.87-.19-10.73l29.1-25.25c3.79-3.29,5.92-8.08,5.84-13.09l-.63-35.9c-.19-10.72-9.03-19.25-19.74-19.06l-43.32.76c-4.02.07-7.88,1.56-10.89,4.22l-43.76,38.48c-1.94,1.7-4.98.38-5.05-2.2l-.64-22.68c-.26-9.28-7.94-16.62-17.23-16.46l-63.91,1.11c-10.72.19-19.25,9.03-19.06,19.74l2.76,157.97c.19,10.72,9.03,19.25,19.74,19.06l64.21-1.12c9.35-.16,16.81-7.88,16.64-17.23l-.35-20.14c-.05-2.63,3.04-4.08,5.03-2.36l39.9,34.37c3.15,2.71,7.19,4.18,11.35,4.1l48.01-.84c10.72-.19,19.25-9.03,19.06-19.74Z" style="fill: none;"/>
    </clipPath>
    <linearGradient id="Dégradé_sans_nom_15-3" data-name="Dégradé sans nom 15" x1="343.22" y1="377.24" x2="437.13" y2="507.9" xlink:href="#Dégradé_sans_nom_15"/>
    <linearGradient id="Dégradé_sans_nom_15-4" data-name="Dégradé sans nom 15" x1="275.58" y1="425.85" x2="369.49" y2="556.51" xlink:href="#Dégradé_sans_nom_15"/>
    <clipPath id="clippath-4">
      <path d="M101.26,468.61l-.13-9.89c-.02-1.87,1.47-3.41,3.34-3.44l11.91-.21c1.88-.03,3.43,1.47,3.46,3.35l.14,10.55c.1,7.51,6.21,13.54,13.72,13.54h69.19c10.85,0,19.59-8.9,19.4-19.74l-2.52-144.67c-.19-10.72-9.03-19.25-19.74-19.06l-184.8,3.22c-10.72.19-19.25,9.03-19.06,19.74l2.47,141.45c.18,10.58,8.82,19.07,19.4,19.07h69.5c7.65,0,13.82-6.26,13.72-13.91Z" style="fill: none;"/>
    </clipPath>
  </defs>
  <g id="Calque_1-2" data-name="Calque 1">
    <rect width="452.21" height="480" style="fill: url(#Dégradé_sans_nom_4);"/>
    <g style="clip-path: url(#clippath);">
      <g>
        <path d="M194.66-8.22L9.86-4.99C-.86-4.8-9.39,4.03-9.21,14.75l4.38,250.77c.19,10.72,9.03,19.25,19.74,19.06l72.04-1.26c5.49-.1,9.86-4.62,9.77-10.11l-.05-2.62c-.06-3.37,2.63-6.16,6-6.22l96.71-1.69c10.72-.19,19.25-9.03,19.06-19.74l-4.05-232.1c-.19-10.72-9.03-19.25-19.74-19.06Z" style="fill: url(#Dégradé_sans_nom_13);"/>
        <path d="M437.59,113.36l-42.11.66c-6.43.1-11.72-5.04-11.81-11.47l-.02-1.3c-.09-6.81,5.67-12.24,12.46-11.75l47.82,3.47c6.81.49,12.58-4.97,12.46-11.8l-.04-2.33c-.12-6.83-6.07-12.09-12.87-11.35l-47.79,5.14c-6.81.73-12.78-4.56-12.87-11.41h0c-.08-6.39,5.01-11.65,11.4-11.77l42.22-.81c10.7-.21,19.22-9.04,19.03-19.74l-.39-22.25c-.19-10.72-9.03-19.25-19.74-19.06l-184.8,3.23c-10.72.19-19.25,9.03-19.06,19.74l2.58,147.62c.19,10.72,9.03,19.25,19.74,19.06l184.8-3.22c10.72-.19,19.25-9.03,19.06-19.74l-.38-21.85c-.19-10.7-9-19.23-19.71-19.06Z" style="fill: url(#Dégradé_sans_nom_6);"/>
        <path d="M461.42,368.85l-.63-35.89c-.09-5.01-2.39-9.73-6.29-12.88l-29.97-24.22c-3.39-2.74-3.48-7.87-.19-10.73l29.1-25.25c3.79-3.29,5.92-8.08,5.84-13.09l-.63-35.9c-.19-10.72-9.03-19.25-19.74-19.06l-43.32.76c-4.02.07-7.88,1.56-10.89,4.22l-43.76,38.48c-1.94,1.7-4.98.38-5.05-2.2l-.64-22.68c-.26-9.28-7.94-16.62-17.23-16.46l-63.91,1.11c-10.72.19-19.25,9.03-19.06,19.74l2.76,157.97c.19,10.72,9.03,19.25,19.74,19.06l64.21-1.12c9.35-.16,16.81-7.88,16.64-17.23l-.35-20.14c-.05-2.63,3.04-4.08,5.03-2.36l39.9,34.37c3.15,2.71,7.19,4.18,11.35,4.1l48.01-.84c10.72-.19,19.25-9.03,19.06-19.74Z" style="fill: url(#Dégradé_sans_nom_7);"/>
        <path d="M423.35,482.52l31.8-.56c4.34-.08,7.79-3.65,7.72-7.99l-.26-14.88c-.09-5.03-4.34-9.03-9.49-8.94l-13.23.23c-5.15.09-9.4-3.91-9.49-8.94l-.46-26.64c-.08-4.34-3.65-7.79-7.99-7.72l-62.69,1.1c-4.34.08-7.79,3.65-7.72,7.99l1.02,58.62c.07,4.28,3.57,7.72,7.86,7.72h62.95Z" style="fill: #f2eb96;"/>
        <path d="M331.87,482.52c4.44,0,8.02-3.64,7.94-8.08l-.17-9.57c-.09-5.37-4.92-9.5-10.4-8.88l-18.48,2.08c-5.48.61-10.3-3.51-10.4-8.88l-.08-4.49c-.09-5.37,4.58-9.66,10.08-9.24l18.54,1.43c5.49.42,10.17-3.86,10.08-9.24l-.19-11.17c-.08-4.38-3.69-7.88-8.08-7.8l-81.8,1.43c-5.79.1-10.41,4.88-10.31,10.67l.9,51.42c.1,5.72,4.77,10.31,10.49,10.31h81.87Z" style="fill: #f2eb96;"/>
        <path d="M101.26,468.61l-.13-9.89c-.02-1.87,1.47-3.41,3.34-3.44l11.91-.21c1.88-.03,3.43,1.47,3.46,3.35l.14,10.55c.1,7.51,6.21,13.54,13.72,13.54h69.19c10.85,0,19.59-8.9,19.4-19.74l-2.52-144.67c-.19-10.72-9.03-19.25-19.74-19.06l-184.8,3.22c-10.72.19-19.25,9.03-19.06,19.74l2.47,141.45c.18,10.58,8.82,19.07,19.4,19.07h69.5c7.65,0,13.82-6.26,13.72-13.91Z" style="fill: url(#Dégradé_sans_nom_6-2);"/>
        <path d="M423.35,482.52l31.8-.56c4.34-.08,7.79-3.65,7.72-7.99l-.26-14.88c-.09-5.03-4.34-9.03-9.49-8.94l-13.23.23c-5.15.09-9.4-3.91-9.49-8.94l-.46-26.64c-.08-4.34-3.65-7.79-7.99-7.72l-62.69,1.1c-4.34.08-7.79,3.65-7.72,7.99l1.02,58.62c.07,4.28,3.57,7.72,7.86,7.72h62.95Z" style="fill: #f2eb96;"/>
        <path d="M331.87,482.52c4.44,0,8.02-3.64,7.94-8.08l-.17-9.57c-.09-5.37-4.92-9.5-10.4-8.88l-18.48,2.08c-5.48.61-10.3-3.51-10.4-8.88l-.08-4.49c-.09-5.37,4.58-9.66,10.08-9.24l18.54,1.43c5.49.42,10.17-3.86,10.08-9.24l-.19-11.17c-.08-4.38-3.69-7.88-8.08-7.8l-81.8,1.43c-5.79.1-10.41,4.88-10.31,10.67l.9,51.42c.1,5.72,4.77,10.31,10.49,10.31h81.87Z" style="fill: #f2eb96;"/>
        <path d="M423.35,482.52l31.8-.56c4.34-.08,7.79-3.65,7.72-7.99l-.26-14.88c-.09-5.03-4.34-9.03-9.49-8.94l-13.23.23c-5.15.09-9.4-3.91-9.49-8.94l-.46-26.64c-.08-4.34-3.65-7.79-7.99-7.72l-62.69,1.1c-4.34.08-7.79,3.65-7.72,7.99l1.02,58.62c.07,4.28,3.57,7.72,7.86,7.72h62.95Z" style="fill: url(#Dégradé_sans_nom_15);"/>
        <path d="M331.87,482.52c4.44,0,8.02-3.64,7.94-8.08l-.17-9.57c-.09-5.37-4.92-9.5-10.4-8.88l-18.48,2.08c-5.48.61-10.3-3.51-10.4-8.88l-.08-4.49c-.09-5.37,4.58-9.66,10.08-9.24l18.54,1.43c5.49.42,10.17-3.86,10.08-9.24l-.19-11.17c-.08-4.38-3.69-7.88-8.08-7.8l-81.8,1.43c-5.79.1-10.41,4.88-10.31,10.67l.9,51.42c.1,5.72,4.77,10.31,10.49,10.31h81.87Z" style="fill: url(#Dégradé_sans_nom_15-2);"/>
        <g style="clip-path: url(#clippath-1);">
          <g>
            <path d="M399.67,1148.18l-8.15-6.07c-17.08-19.56-33.11-39.31-47.81-60.8l-13.12-22.74c5.34-4.99,9.27-11.21,6.82-17.86l-14.02-38.16c-2.29-6.24-7.4-8.58-12.79-10.54l-24.1-63.37,7.01-79.96c4.49-51.2,4.89-101.33,4.29-152.74l-4.41-73.02c-1.94-32.07-10.52-62.68-20.84-92.95l-10.91-22.22c22.48.5,42.73-4.04,53.95-24.36,13.56-24.58,14.81-52.86,5.23-80.1l-3.09-7.17c-12.68-31.94-29.82-59.01-55.16-81.82,11.65-9.01,20.35-18.68,29.75-29.24,19.47-24.74,35.38-51.55,46.7-81.05,8.74-22.17,12.57-43.83,15.61-67.38,9.92-76.89,12.15-138.97-29.42-206.34-23.49-38.06-47.55-62.77-90.87-77.16-15.29-5.08-30.68-5.72-46.35-2.37-23.18-17.49-52.41-25.43-80.6-20.43-45.44,8.07-71.89,26.19-101.99,60.68C-28.3-70.36-50.3-23.37-57.35,27.63c-2.97,21.49-5.23,41.66-3.44,62.94l7.01,83.17c3.22,38.16-4.16,90.39-21.04,124.17,0,0,17.96-2.2,30.99-18.78,0,0-11.17,108.95,28.77,190.11l7.28,14.44c7.52,14.91,20.76,24.99,37.34,26.92l-2.71,15c-20.86,60.62-16.33,122.74,5.09,182.82l29.36,69.82,33.88,68.07,55.21,108.85,11.13,60.06c-1.55,3.36-4.19,8.01-3.31,12.71l5.92,31.8c.87,4.7,5.23,7.59,9.49,10.31l-.67,72.01c-.22,24.06-2.55,42.96,16.48,53.67,17.21,9.68,35.98,15.36,55.4,19.92,3.3,13.17,6.57,25.71,15.95,35.36,7.78,8.01,18.93,12.98,30.2,13.02l34.29.1c25.11-3.37,49.54-10.43,71.22-24.79,6.38-4.22,16.06-9.19,18.92-16.66,9.83-25.68,2.03-54.67-15.77-74.48ZM337.89,1119.38c.15,1.84-1.53,4.42-4.39,4.54-21.74.85-41.8,7.9-59.42,20.57-2.22,1.59-4.65,1.27-5.94-.76-1.12-1.75-.69-4.41,1.79-6.49,27.06-22.58,67.25-26.51,67.96-17.86ZM265.35,1121.62c-2.14-1.69-2.75-5.16-.42-7.14,23.11-19.61,61.43-26.59,63.78-17.1.42,1.69-.89,4.73-3.41,4.72-36.9-.17-55.16,23.3-59.95,19.51ZM291.26,695.97c.86,72.88-2.59,144.44-10.52,216.95l-20.48-55.43-25.68-69.42-37.68-101.13,22.05-17.62c.79-.63.71-2.56.39-3.1-.58-.96-2.35-1.71-3.89-.64l-16.5,11.5-4.38-35.94c4.45-1.79,8.39-3.99,8.52-8.8-4.38-.65-6.17,2.64-9.26,5.7l-10.94-61.2-7.09-27.56,19.62-2.13c.24,3.97,1.24,7.59,4.8,8.45,1.55-3.8-.15-6.34-.59-10.05l29.84-6.52c10.85,23.13,28.33,41.06,51.95,49.49,5.81,36.08,9.41,70.72,9.84,107.45ZM166.36,543.33l-49.48-.29c-2.04-11.25-1.38-22.41,1.42-34.38l43.85.81c-.7,11.64.33,21.12,4.2,33.85ZM99,499.81c23.42-9.16,46.62-18.34,67.48-32.62,14.49,12.28,29.42,20.6,47.51,29.36-37.38,7.79-75.63,8.71-114.99,3.26ZM110.62,541.1c-2.33,1.87-5.42,1.3-7.86-.11-2.65-11.06-1.21-22.08,1.67-33.14,3.18-.62,5.76-.24,8.65.82-3.61,10.28-4.53,20.41-2.46,32.43ZM96.83,539.87c-20.87-2.31-41.58-8.25-62.53-15.96-.79-4.26.23-7.89.97-12.44,17.04,1.55,33.1-1.65,49.28-6.92l14.71,2.02c-2.83,10.36-4.14,19.34-2.44,33.3ZM90.4,546.05c-4.5,17.5-12.08,33.95-23.78,48.53-8.78,10.61-17.99,18.83-31.39,24.63-1.51-28.3,1.94-56.41,11.71-83.82,14.62,4.9,28.09,8.28,43.46,10.66ZM219.47,501.66c4.7,9.14,6.96,18.15,7.62,30.54-17.85,5.89-35.58,8.67-54.77,10.73-3.98-10.59-5.25-21.56-5.76-33.46,18.46-1.14,35.22-3.49,52.91-7.81ZM224.7,500.52c2.69.15,6.81.85,8.08,2.87,6.96,11.11,9.96,28.48-.68,27.08-.46-10.81-2.52-20.51-7.4-29.95ZM262.35,523.87c8.59,18.78,13.3,37.45,17.18,57.3-20.77-9.28-35.36-25.41-44.04-44.68,10.07-3.24,18.26-6.91,26.86-12.62ZM240,504.54c5.08,1.34,10.41.69,14.7,3.15,2.8,1.93,3.15,7.28,4.41,10.86-4.61,2.93-9.04,5.26-14.77,6.96-.38-7.98-2-14.06-4.34-20.97ZM312.99,474c-10.89,25.26-33.46,30.07-60.48,26.18-27.26-3.93-51.14-15.34-73.39-31.3-20.69-14.84-39.07-31-58.19-47.84-1.12-.99-3.1-1.55-2.95-3,.13-1.26,1.91-2.67.98-6.08-17.83,6.67-35.52,12.91-55.32,12.73-9.42-.09-18.38-8.91-18.59-17.98-.21-8.74,6.11-15.36,12.9-19.73,11.24-7.22,24.12-9.43,37.49-9.5,11.99-.06,22.92,2.45,34.31,5.75l27.98,8.1c29.15,6.22,56.52,15.33,84.58,25.26l39.07,13.83c1.54.54,3.12-.64,3.56-1.54.45-.93.38-2.92-1.43-3.77l-10.76-5.09c8.2-8.9,5.99-21.19-.61-33.17,11.23-3.8,22.05-3.88,33.37-1.73,15.82,29.05,20.66,58.28,7.48,88.87ZM201.2,395.42c10.69-7.83,21.78-14.13,34.74-16.18,16.51-2.61,32.27,6.92,35.59,23.15,1.23,6-.53,11.98-6.13,15.38l-64.2-22.36ZM301.53,377.93c-11.45-1.3-22.86-1.32-33.78,3.77l-8.44-6.13c16.78-7.04,39.99-14.33,42.22,2.36ZM294.01,362.6c-13.33-.51-25.91,1.73-36.89,8.63-4.32,2.72-9.14,3.63-13.19-.29l-4.45-20.26c-.3-1.36-1.89-2.91-2.82-2.88-1.49.06-2.98,1.77-3.02,3.58l4.68,20.59c-17,3-31.29,10.33-44.97,21.24l-47.78-11.97c-14.58-3.65-27.76-9.73-43.44-10.29-4.33-20.97-10.18-40.97-20.16-59.73l-14.62-27.51c3.15-3.01,7.26-4.26,11.76-5.59,6.92,17.09,12.09,33.82,15.34,52.8,31.19,7.86,80.45,9.96,108.49-2.86,3.1-1.42,4.62-4.89,4.23-8.21l-3.86-33.13,17.17,6.01c2.84.99,5.21,8.29,3.36,10.8-10.8,14.61-21.53,28.22-29.95,44.34-6.22,11.91-14.79,34.47-10.77,37.84.68.57,2.9.5,3.79-.74,12.93-17.96,28.56-32.6,46.04-46.12l25.18-19.48c13.93,12.84,25.57,26.95,35.9,43.23ZM115.82,236.8c19.61,7.45,39.11,10.46,59.38,9.94-2.46,10.09-1.85,19.52,4.19,27.53-4.47,10.29-13.67,16.55-25.46,18-19.78,2.43-37.87-5.82-47.95-22.11.12-2.92,3.22-3.91,4.39-5.62,5.59-8.22,6.16-17.56,5.45-27.74ZM158,298.39c11.15-2.07,20.31-8.59,26.18-18.76,1.28-2.23,5.6-.09,4.96,1.58-6.74,17.57-23.96,27.23-42.96,26.17-22-1.23-42.33-13.92-53.44-33.12-.71-1.23,3.62-2.93,4.84-2.65,1.65.37,2.38,1.96,3.73,3.92,12.47,18.18,34.95,26.89,56.68,22.86ZM153.11,313.11c18.85-1.24,33.44-11.08,41.93-29.39,3.41,12.43,5.32,25.14,5.28,39.21-32.78,10.41-67.07,9.65-100.64,2.6-1.9-17.78-8.78-31.87-13.74-49.85,14.57,23.37,38.96,39.28,67.18,37.42ZM48.62-24.67c12.04-28.51,33.9-52.16,63.21-63.27,23.72-8.99,49.88-2.73,70.09,11.14l16.78,13.21c21.39-12.95,47.26-17.04,67.96-4.12,19.63,12.25,32.07,30.4,41.16,51.25,20.33,46.61,12.11,74.74,2.06,122.14l-2.98,34.3c-2.34,26.86-13.64,49.14-35.13,65.65-73.74,56.67-167.22,41.68-228.83-25.89-3.85-4.23-10.02-8.01-11.56-13.56C18.77,106.18,24.71,31.93,48.62-24.67ZM36.26,306.55c20.56,23.14,44.73,34.58,58,64.3-10.96.08-20.4,2.01-30.66,6.2l-1.92-25.64c-.33-1.9-1.77-3.52-2.71-3.66-.92-.14-2.94,1.39-2.85,2.75l1.65,25.76c-19.21-7.9-39.44-8.49-60.21-3.45,8.85-25.92,20.07-46.85,38.7-66.26ZM-4.53,379c19.09-5.57,39.58-6.35,58.9,1.59-1.56,2.52-3.99,4.09-7.26,6.64-17.99-4.93-35.79-4.17-53.57,1.63l1.92-9.86ZM-16.79,65.4c-3.09-5.88-6.97-9.61-13.14-9.27-4.05.22-8.19,3.06-6.8,7.86,3.41-1.67,7.39-3.43,10.35-1.21,3.52,2.64,5.67,6.51,7.64,11.15-8.71,3.46-12.27,13.11-6.36,20.4,2.21-5.52.23-11.78,7.28-15.07l-1.05,38.8c-22.27-15.79-34.02-42.06-20.55-65.24,2.78-4.79,6.99-7.32,11.73-7.68,4.48-.34,10.84,1.48,12.4,6.47,1.41,4.53-.29,9.87-1.5,13.81ZM-.84,482.18c-15.45-28.12-13.01-54.63-7.58-85.82,16.31-5.93,33.16-8.13,50.59-3.55-7.87,14.83-4.38,25.31,10.07,34.77l-22.44,6.96c-1.45.45-2.34,2.19-2.3,3.11.08,1.84,2.34,2.93,4.53,1.86l31.87-7.85c16.77-.78,32.83-3.7,47.65-10.85l49.04,43.03c-28.92,16.89-58.44,28.98-89.83,37.73-12.8,3.57-25.84,4.42-38.69,3-14.79-1.63-26.06-9.92-32.92-22.39ZM88.92,819.52c-16.04-31.35-30.49-61.71-43.57-94.3-26.33-65.58-33.99-127.46-13.13-195.89l10.55,4.27c-12.59,35.43-16.09,73.4-8.47,109.91.24,1.14,1.47,1.88,1.89,2.18,3.01,2.14.75-5.92,1.68-7.86.77-1.61,5.67-1.28,7.88-4.73.38-.6-.22-2.18-1.15-2.69-1.84-.99-6.15,3.16-7.68,1.98-.95-.73-1.37-3.77-1.1-5.96l19.86-11.9c20.99-17.3,35.11-41.26,40.57-67.61,25.42,4.42,49.75,4.52,74.54,2.9,11.36,43.53,18.07,86.63,23.43,130.72l-13.44,13.91c-.85.88-1.03,2.17-.65,2.74.79,1.16,2.23,1.33,3.58.23l7.58-6.13,19.12,50.16,60.3,163.29,36.16,96.07c-22.04,28.35-52.01,40.89-87.37,48.49l-26.63-50.08-39.74-85.35c-.44-.94-1.2-1.9-1.2-2.43,0-1.09-4.2-.34-3.65.84l47.41,101.94,18.26,34.56c-1.73,2.52-6.27.95-7.92-2.1l-17.47-32.36-99.66-194.82ZM160.67,976.43l22.09,40.41c-5.73.71-10.08-.29-15.08-2.18l-7.01-38.23ZM170.23,1057.65l-6-36.93c7.42,1.93,13.35,3.41,21.49,2.63l12.27,23.38c-1.61,6.11-3.89,11.97,1.47,20.24-11.71-.56-28.08-2.23-29.23-9.32ZM193.08,1190.59c-15.52-7.07-13.27-25.24-13.61-44.75,18.07,14.12,37.83,23.2,60.12,26.6l3.44,35.9c-17.99-3.54-33.98-9.72-49.95-17.75ZM230.29,1103.52c-.09-1.31,1.42-1.57,2.12-1.11.57.38,1.38.64,1.51,2.05l5.6,60.5c.1,1.06-2.88.99-3.61-.03-.56-.79-1.29-1.64-1.43-3.55l-4.19-57.86ZM224.78,1095.83l-12.91-19.79c-4.43-6.79-7.83-12.89-9.56-21.68,7.07,1.42,13.54,1.85,20.81.44,34.64-6.71,73.64-23.58,91.56-55.61l17.26,46.39c-7.43,11.97-17.06,20.59-28.45,27.78-23.34,15.74-50.28,24.35-78.71,22.46ZM297.47,1146.87c29.33-12.62,64.29-13.78,92.56,2.37,9.54,5.45,15.05,17.65,18.28,27.13,1.49,4.36-2.42,8.38-4.57,10.87-10.37,12.02-23.19,19.37-38.16,26.07-29.56,13.22-60.68,17.64-91.72,9.37-7.56-2.01-19.83-7.33-21.01-15.81-3.3-23.7,21.61-50.11,44.62-60.01ZM412.04,1212.04c-.72,7.07-3.87,11.46-9.59,15.57-31.42,22.54-69.56,33.73-108.54,30.41-24.76-2.11-35.74-14.72-41.26-39.18,11.47,8.11,23.83,11.99,38.01,13.49,37.82,3.99,75.55-7.31,106.14-29.68,5.94-4.34,10.11-8.91,14.82-15.49,2.55,8.03,1.28,16.39.41,24.89Z" style="fill: #13004d;"/>
            <path d="M109.94-17.66c-33.15-6.37-46.02,12.14-49.64,9.71-10.78-7.23,38.54-38.25,75.96-8.11,5.64,4.54,11.57,10.25,10.81,17.91-12.45-8.64-22.71-16.75-37.14-19.52Z" style="fill: #13004d;"/>
            <path d="M311.21,12.33c1.47,6.37-21.85-16.94-52.47-4.48l-18.53,7.54c-1.25-2.72.12-5.45,2.3-7.42,24.38-22.09,64.22-15,68.7,4.36Z" style="fill: #13004d;"/>
            <path d="M212.79,149.75c2.37,5.92-4.36,9.94-9.77,11.9-32.28,11.74-58.46-20.24-51.79-23.8,1.19-.63,3.47-.13,4.67,1.75,12.09,18.86,36.69,24.74,56.89,10.15Z" style="fill: #13004d;"/>
            <path d="M129.25,43.26c-15.24-10.56-29.4-15.27-47.81-12.36,15.34-10.2,39.37-4.72,47.81,12.36Z" style="fill: #13004d;"/>
            <path d="M200.1,113.77c-7.15-8.37-16.25,3.3-18.38,2.94-1.25-.21-1.98-2.15-1.05-3.61,4.39-6.9,13.76-9.97,21.06-5.61,5.88,3.52,7.83,12.35,2.7,17.37l-4.33-11.09Z" style="fill: #13004d;"/>
            <path d="M279.23,39.37c-13.91.37-25.25,3.27-37.88,12.9,5.06-13.7,24.03-19.98,37.88-12.9Z" style="fill: #13004d;"/>
            <path d="M185.82,180.47c-7.69,4.09-18.41,2.27-22.72-6.36,7.73,3.22,14,4.62,22.72,6.36Z" style="fill: #13004d;"/>
            <path d="M124.05,54.49c-11.97-14.4-29.9-15.26-46.78-11.06-7.35,1.48-13.68-7.48-19.48-12.05-1.27,7.06,4.71,12.5,9.54,17.98-9.48,2.05-15.95-2.76-23.73-8.58,1.15,7.59,6.3,13.76,12.72,17.94,7.1,4.62,16.3-5.55,26.12-5.49-19.01,20.12-16.69,52.07,4.06,66.12,13.77,9.32,32.17,3.7,40.91-10.15,10.68-16.93,9.34-39.44-3.36-54.71ZM92.99,81.35c-4.74,0-8.59-3.85-8.59-8.59s3.85-8.59,8.59-8.59,8.59,3.85,8.59,8.59-3.85,8.59-8.59,8.59Z" style="fill: #13004d;"/>
            <path d="M297.7,58.81c5.26-4.02,10.18-8.41,9.5-15-5.03,3.03-10.91,10.69-17.12,9.06-11.57-3.04-22.23-4.72-33.66,1.02-24.58,12.34-33.26,43.99-16.74,66.5,5.29,7.21,13.63,10.69,21.77,10.81,8.16.12,16.25-3.76,21.98-10.79,13.83-16.96,12.87-40.94.87-57.9,9.29.24,11.72,5.41,17.65,6.81,7.82-1.84,14.03-7.47,15.52-15.55-6.5,4.7-12.82,7.39-19.77,5.04ZM253.64,92.24c-5.18-.75-6.71-5.36-6.79-8.71-.1-4.02,1.32-8.74,6.19-9.89,5.59-1.33,9.83,3.82,10.13,8.67.3,4.77-3.4,10.82-9.53,9.94Z" style="fill: #13004d;"/>
            <path d="M239.67,366.27s-5.64-27.49-7.75-35.95" style="fill: #13004d;"/>
            <path d="M59.41,360.5s-3.02-48.62-5.13-57.08" style="fill: #13004d;"/>
          </g>
        </g>
        <g style="clip-path: url(#clippath-2);">
          <g>
            <path d="M399.67,1148.18l-8.15-6.07c-17.08-19.56-33.11-39.31-47.81-60.8l-13.12-22.74c5.34-4.99,9.27-11.21,6.82-17.86l-14.02-38.16c-2.29-6.24-7.4-8.58-12.79-10.54l-24.1-63.37,7.01-79.96c4.49-51.2,4.89-101.33,4.29-152.74l-4.41-73.02c-1.94-32.07-10.52-62.68-20.84-92.95l-10.91-22.22c22.48.5,42.73-4.04,53.95-24.36,13.56-24.58,14.81-52.86,5.23-80.1l-3.09-7.17c-12.68-31.94-29.82-59.01-55.16-81.82,11.65-9.01,20.35-18.68,29.75-29.24,19.47-24.74,35.38-51.55,46.7-81.05,8.74-22.17,12.57-43.83,15.61-67.38,9.92-76.89,12.15-138.97-29.42-206.34-23.49-38.06-47.55-62.77-90.87-77.16-15.29-5.08-30.68-5.72-46.35-2.37-23.18-17.49-52.41-25.43-80.6-20.43-45.44,8.07-71.89,26.19-101.99,60.68C-28.3-70.36-50.3-23.37-57.35,27.63c-2.97,21.49-5.23,41.66-3.44,62.94l7.01,83.17c3.22,38.16-4.16,90.39-21.04,124.17,0,0,17.96-2.2,30.99-18.78,0,0-11.17,108.95,28.77,190.11l7.28,14.44c7.52,14.91,20.76,24.99,37.34,26.92l-2.71,15c-20.86,60.62-16.33,122.74,5.09,182.82l29.36,69.82,33.88,68.07,55.21,108.85,11.13,60.06c-1.55,3.36-4.19,8.01-3.31,12.71l5.92,31.8c.87,4.7,5.23,7.59,9.49,10.31l-.67,72.01c-.22,24.06-2.55,42.96,16.48,53.67,17.21,9.68,35.98,15.36,55.4,19.92,3.3,13.17,6.57,25.71,15.95,35.36,7.78,8.01,18.93,12.98,30.2,13.02l34.29.1c25.11-3.37,49.54-10.43,71.22-24.79,6.38-4.22,16.06-9.19,18.92-16.66,9.83-25.68,2.03-54.67-15.77-74.48ZM337.89,1119.38c.15,1.84-1.53,4.42-4.39,4.54-21.74.85-41.8,7.9-59.42,20.57-2.22,1.59-4.65,1.27-5.94-.76-1.12-1.75-.69-4.41,1.79-6.49,27.06-22.58,67.25-26.51,67.96-17.86ZM265.35,1121.62c-2.14-1.69-2.75-5.16-.42-7.14,23.11-19.61,61.43-26.59,63.78-17.1.42,1.69-.89,4.73-3.41,4.72-36.9-.17-55.16,23.3-59.95,19.51ZM291.26,695.97c.86,72.88-2.59,144.44-10.52,216.95l-20.48-55.43-25.68-69.42-37.68-101.13,22.05-17.62c.79-.63.71-2.56.39-3.1-.58-.96-2.35-1.71-3.89-.64l-16.5,11.5-4.38-35.94c4.45-1.79,8.39-3.99,8.52-8.8-4.38-.65-6.17,2.64-9.26,5.7l-10.94-61.2-7.09-27.56,19.62-2.13c.24,3.97,1.24,7.59,4.8,8.45,1.55-3.8-.15-6.34-.59-10.05l29.84-6.52c10.85,23.13,28.33,41.06,51.95,49.49,5.81,36.08,9.41,70.72,9.84,107.45ZM166.36,543.33l-49.48-.29c-2.04-11.25-1.38-22.41,1.42-34.38l43.85.81c-.7,11.64.33,21.12,4.2,33.85ZM99,499.81c23.42-9.16,46.62-18.34,67.48-32.62,14.49,12.28,29.42,20.6,47.51,29.36-37.38,7.79-75.63,8.71-114.99,3.26ZM110.62,541.1c-2.33,1.87-5.42,1.3-7.86-.11-2.65-11.06-1.21-22.08,1.67-33.14,3.18-.62,5.76-.24,8.65.82-3.61,10.28-4.53,20.41-2.46,32.43ZM96.83,539.87c-20.87-2.31-41.58-8.25-62.53-15.96-.79-4.26.23-7.89.97-12.44,17.04,1.55,33.1-1.65,49.28-6.92l14.71,2.02c-2.83,10.36-4.14,19.34-2.44,33.3ZM90.4,546.05c-4.5,17.5-12.08,33.95-23.78,48.53-8.78,10.61-17.99,18.83-31.39,24.63-1.51-28.3,1.94-56.41,11.71-83.82,14.62,4.9,28.09,8.28,43.46,10.66ZM219.47,501.66c4.7,9.14,6.96,18.15,7.62,30.54-17.85,5.89-35.58,8.67-54.77,10.73-3.98-10.59-5.25-21.56-5.76-33.46,18.46-1.14,35.22-3.49,52.91-7.81ZM224.7,500.52c2.69.15,6.81.85,8.08,2.87,6.96,11.11,9.96,28.48-.68,27.08-.46-10.81-2.52-20.51-7.4-29.95ZM262.35,523.87c8.59,18.78,13.3,37.45,17.18,57.3-20.77-9.28-35.36-25.41-44.04-44.68,10.07-3.24,18.26-6.91,26.86-12.62ZM240,504.54c5.08,1.34,10.41.69,14.7,3.15,2.8,1.93,3.15,7.28,4.41,10.86-4.61,2.93-9.04,5.26-14.77,6.96-.38-7.98-2-14.06-4.34-20.97ZM312.99,474c-10.89,25.26-33.46,30.07-60.48,26.18-27.26-3.93-51.14-15.34-73.39-31.3-20.69-14.84-39.07-31-58.19-47.84-1.12-.99-3.1-1.55-2.95-3,.13-1.26,1.91-2.67.98-6.08-17.83,6.67-35.52,12.91-55.32,12.73-9.42-.09-18.38-8.91-18.59-17.98-.21-8.74,6.11-15.36,12.9-19.73,11.24-7.22,24.12-9.43,37.49-9.5,11.99-.06,22.92,2.45,34.31,5.75l27.98,8.1c29.15,6.22,56.52,15.33,84.58,25.26l39.07,13.83c1.54.54,3.12-.64,3.56-1.54.45-.93.38-2.92-1.43-3.77l-10.76-5.09c8.2-8.9,5.99-21.19-.61-33.17,11.23-3.8,22.05-3.88,33.37-1.73,15.82,29.05,20.66,58.28,7.48,88.87ZM201.2,395.42c10.69-7.83,21.78-14.13,34.74-16.18,16.51-2.61,32.27,6.92,35.59,23.15,1.23,6-.53,11.98-6.13,15.38l-64.2-22.36ZM301.53,377.93c-11.45-1.3-22.86-1.32-33.78,3.77l-8.44-6.13c16.78-7.04,39.99-14.33,42.22,2.36ZM294.01,362.6c-13.33-.51-25.91,1.73-36.89,8.63-4.32,2.72-9.14,3.63-13.19-.29l-4.45-20.26c-.3-1.36-1.89-2.91-2.82-2.88-1.49.06-2.98,1.77-3.02,3.58l4.68,20.59c-17,3-31.29,10.33-44.97,21.24l-47.78-11.97c-14.58-3.65-27.76-9.73-43.44-10.29-4.33-20.97-10.18-40.97-20.16-59.73l-14.62-27.51c3.15-3.01,7.26-4.26,11.76-5.59,6.92,17.09,12.09,33.82,15.34,52.8,31.19,7.86,80.45,9.96,108.49-2.86,3.1-1.42,4.62-4.89,4.23-8.21l-3.86-33.13,17.17,6.01c2.84.99,5.21,8.29,3.36,10.8-10.8,14.61-21.53,28.22-29.95,44.34-6.22,11.91-14.79,34.47-10.77,37.84.68.57,2.9.5,3.79-.74,12.93-17.96,28.56-32.6,46.04-46.12l25.18-19.48c13.93,12.84,25.57,26.95,35.9,43.23ZM115.82,236.8c19.61,7.45,39.11,10.46,59.38,9.94-2.46,10.09-1.85,19.52,4.19,27.53-4.47,10.29-13.67,16.55-25.46,18-19.78,2.43-37.87-5.82-47.95-22.11.12-2.92,3.22-3.91,4.39-5.62,5.59-8.22,6.16-17.56,5.45-27.74ZM158,298.39c11.15-2.07,20.31-8.59,26.18-18.76,1.28-2.23,5.6-.09,4.96,1.58-6.74,17.57-23.96,27.23-42.96,26.17-22-1.23-42.33-13.92-53.44-33.12-.71-1.23,3.62-2.93,4.84-2.65,1.65.37,2.38,1.96,3.73,3.92,12.47,18.18,34.95,26.89,56.68,22.86ZM153.11,313.11c18.85-1.24,33.44-11.08,41.93-29.39,3.41,12.43,5.32,25.14,5.28,39.21-32.78,10.41-67.07,9.65-100.64,2.6-1.9-17.78-8.78-31.87-13.74-49.85,14.57,23.37,38.96,39.28,67.18,37.42ZM48.62-24.67c12.04-28.51,33.9-52.16,63.21-63.27,23.72-8.99,49.88-2.73,70.09,11.14l16.78,13.21c21.39-12.95,47.26-17.04,67.96-4.12,19.63,12.25,32.07,30.4,41.16,51.25,20.33,46.61,12.11,74.74,2.06,122.14l-2.98,34.3c-2.34,26.86-13.64,49.14-35.13,65.65-73.74,56.67-167.22,41.68-228.83-25.89-3.85-4.23-10.02-8.01-11.56-13.56C18.77,106.18,24.71,31.93,48.62-24.67ZM36.26,306.55c20.56,23.14,44.73,34.58,58,64.3-10.96.08-20.4,2.01-30.66,6.2l-1.92-25.64c-.33-1.9-1.77-3.52-2.71-3.66-.92-.14-2.94,1.39-2.85,2.75l1.65,25.76c-19.21-7.9-39.44-8.49-60.21-3.45,8.85-25.92,20.07-46.85,38.7-66.26ZM-4.53,379c19.09-5.57,39.58-6.35,58.9,1.59-1.56,2.52-3.99,4.09-7.26,6.64-17.99-4.93-35.79-4.17-53.57,1.63l1.92-9.86ZM-16.79,65.4c-3.09-5.88-6.97-9.61-13.14-9.27-4.05.22-8.19,3.06-6.8,7.86,3.41-1.67,7.39-3.43,10.35-1.21,3.52,2.64,5.67,6.51,7.64,11.15-8.71,3.46-12.27,13.11-6.36,20.4,2.21-5.52.23-11.78,7.28-15.07l-1.05,38.8c-22.27-15.79-34.02-42.06-20.55-65.24,2.78-4.79,6.99-7.32,11.73-7.68,4.48-.34,10.84,1.48,12.4,6.47,1.41,4.53-.29,9.87-1.5,13.81ZM-.84,482.18c-15.45-28.12-13.01-54.63-7.58-85.82,16.31-5.93,33.16-8.13,50.59-3.55-7.87,14.83-4.38,25.31,10.07,34.77l-22.44,6.96c-1.45.45-2.34,2.19-2.3,3.11.08,1.84,2.34,2.93,4.53,1.86l31.87-7.85c16.77-.78,32.83-3.7,47.65-10.85l49.04,43.03c-28.92,16.89-58.44,28.98-89.83,37.73-12.8,3.57-25.84,4.42-38.69,3-14.79-1.63-26.06-9.92-32.92-22.39ZM88.92,819.52c-16.04-31.35-30.49-61.71-43.57-94.3-26.33-65.58-33.99-127.46-13.13-195.89l10.55,4.27c-12.59,35.43-16.09,73.4-8.47,109.91.24,1.14,1.47,1.88,1.89,2.18,3.01,2.14.75-5.92,1.68-7.86.77-1.61,5.67-1.28,7.88-4.73.38-.6-.22-2.18-1.15-2.69-1.84-.99-6.15,3.16-7.68,1.98-.95-.73-1.37-3.77-1.1-5.96l19.86-11.9c20.99-17.3,35.11-41.26,40.57-67.61,25.42,4.42,49.75,4.52,74.54,2.9,11.36,43.53,18.07,86.63,23.43,130.72l-13.44,13.91c-.85.88-1.03,2.17-.65,2.74.79,1.16,2.23,1.33,3.58.23l7.58-6.13,19.12,50.16,60.3,163.29,36.16,96.07c-22.04,28.35-52.01,40.89-87.37,48.49l-26.63-50.08-39.74-85.35c-.44-.94-1.2-1.9-1.2-2.43,0-1.09-4.2-.34-3.65.84l47.41,101.94,18.26,34.56c-1.73,2.52-6.27.95-7.92-2.1l-17.47-32.36-99.66-194.82ZM160.67,976.43l22.09,40.41c-5.73.71-10.08-.29-15.08-2.18l-7.01-38.23ZM170.23,1057.65l-6-36.93c7.42,1.93,13.35,3.41,21.49,2.63l12.27,23.38c-1.61,6.11-3.89,11.97,1.47,20.24-11.71-.56-28.08-2.23-29.23-9.32ZM193.08,1190.59c-15.52-7.07-13.27-25.24-13.61-44.75,18.07,14.12,37.83,23.2,60.12,26.6l3.44,35.9c-17.99-3.54-33.98-9.72-49.95-17.75ZM230.29,1103.52c-.09-1.31,1.42-1.57,2.12-1.11.57.38,1.38.64,1.51,2.05l5.6,60.5c.1,1.06-2.88.99-3.61-.03-.56-.79-1.29-1.64-1.43-3.55l-4.19-57.86ZM224.78,1095.83l-12.91-19.79c-4.43-6.79-7.83-12.89-9.56-21.68,7.07,1.42,13.54,1.85,20.81.44,34.64-6.71,73.64-23.58,91.56-55.61l17.26,46.39c-7.43,11.97-17.06,20.59-28.45,27.78-23.34,15.74-50.28,24.35-78.71,22.46ZM297.47,1146.87c29.33-12.62,64.29-13.78,92.56,2.37,9.54,5.45,15.05,17.65,18.28,27.13,1.49,4.36-2.42,8.38-4.57,10.87-10.37,12.02-23.19,19.37-38.16,26.07-29.56,13.22-60.68,17.64-91.72,9.37-7.56-2.01-19.83-7.33-21.01-15.81-3.3-23.7,21.61-50.11,44.62-60.01ZM412.04,1212.04c-.72,7.07-3.87,11.46-9.59,15.57-31.42,22.54-69.56,33.73-108.54,30.41-24.76-2.11-35.74-14.72-41.26-39.18,11.47,8.11,23.83,11.99,38.01,13.49,37.82,3.99,75.55-7.31,106.14-29.68,5.94-4.34,10.11-8.91,14.82-15.49,2.55,8.03,1.28,16.39.41,24.89Z" style="fill: #13004d;"/>
            <path d="M109.94-17.66c-33.15-6.37-46.02,12.14-49.64,9.71-10.78-7.23,38.54-38.25,75.96-8.11,5.64,4.54,11.57,10.25,10.81,17.91-12.45-8.64-22.71-16.75-37.14-19.52Z" style="fill: #13004d;"/>
            <path d="M311.21,12.33c1.47,6.37-21.85-16.94-52.47-4.48l-18.53,7.54c-1.25-2.72.12-5.45,2.3-7.42,24.38-22.09,64.22-15,68.7,4.36Z" style="fill: #13004d;"/>
            <path d="M212.79,149.75c2.37,5.92-4.36,9.94-9.77,11.9-32.28,11.74-58.46-20.24-51.79-23.8,1.19-.63,3.47-.13,4.67,1.75,12.09,18.86,36.69,24.74,56.89,10.15Z" style="fill: #13004d;"/>
            <path d="M129.25,43.26c-15.24-10.56-29.4-15.27-47.81-12.36,15.34-10.2,39.37-4.72,47.81,12.36Z" style="fill: #13004d;"/>
            <path d="M200.1,113.77c-7.15-8.37-16.25,3.3-18.38,2.94-1.25-.21-1.98-2.15-1.05-3.61,4.39-6.9,13.76-9.97,21.06-5.61,5.88,3.52,7.83,12.35,2.7,17.37l-4.33-11.09Z" style="fill: #13004d;"/>
            <path d="M279.23,39.37c-13.91.37-25.25,3.27-37.88,12.9,5.06-13.7,24.03-19.98,37.88-12.9Z" style="fill: #13004d;"/>
            <path d="M185.82,180.47c-7.69,4.09-18.41,2.27-22.72-6.36,7.73,3.22,14,4.62,22.72,6.36Z" style="fill: #13004d;"/>
            <path d="M124.05,54.49c-11.97-14.4-29.9-15.26-46.78-11.06-7.35,1.48-13.68-7.48-19.48-12.05-1.27,7.06,4.71,12.5,9.54,17.98-9.48,2.05-15.95-2.76-23.73-8.58,1.15,7.59,6.3,13.76,12.72,17.94,7.1,4.62,16.3-5.55,26.12-5.49-19.01,20.12-16.69,52.07,4.06,66.12,13.77,9.32,32.17,3.7,40.91-10.15,10.68-16.93,9.34-39.44-3.36-54.71ZM92.99,81.35c-4.74,0-8.59-3.85-8.59-8.59s3.85-8.59,8.59-8.59,8.59,3.85,8.59,8.59-3.85,8.59-8.59,8.59Z" style="fill: #13004d;"/>
            <path d="M297.7,58.81c5.26-4.02,10.18-8.41,9.5-15-5.03,3.03-10.91,10.69-17.12,9.06-11.57-3.04-22.23-4.72-33.66,1.02-24.58,12.34-33.26,43.99-16.74,66.5,5.29,7.21,13.63,10.69,21.77,10.81,8.16.12,16.25-3.76,21.98-10.79,13.83-16.96,12.87-40.94.87-57.9,9.29.24,11.72,5.41,17.65,6.81,7.82-1.84,14.03-7.47,15.52-15.55-6.5,4.7-12.82,7.39-19.77,5.04ZM253.64,92.24c-5.18-.75-6.71-5.36-6.79-8.71-.1-4.02,1.32-8.74,6.19-9.89,5.59-1.33,9.83,3.82,10.13,8.67.3,4.77-3.4,10.82-9.53,9.94Z" style="fill: #13004d;"/>
            <path d="M239.67,366.27s-5.64-27.49-7.75-35.95" style="fill: #13004d;"/>
            <path d="M59.41,360.5s-3.02-48.62-5.13-57.08" style="fill: #13004d;"/>
          </g>
        </g>
        <g style="clip-path: url(#clippath-3);">
          <g>
            <path d="M399.67,1148.18l-8.15-6.07c-17.08-19.56-33.11-39.31-47.81-60.8l-13.12-22.74c5.34-4.99,9.27-11.21,6.82-17.86l-14.02-38.16c-2.29-6.24-7.4-8.58-12.79-10.54l-24.1-63.37,7.01-79.96c4.49-51.2,4.89-101.33,4.29-152.74l-4.41-73.02c-1.94-32.07-10.52-62.68-20.84-92.95l-10.91-22.22c22.48.5,42.73-4.04,53.95-24.36,13.56-24.58,14.81-52.86,5.23-80.1l-3.09-7.17c-12.68-31.94-29.82-59.01-55.16-81.82,11.65-9.01,20.35-18.68,29.75-29.24,19.47-24.74,35.38-51.55,46.7-81.05,8.74-22.17,12.57-43.83,15.61-67.38,9.92-76.89,12.15-138.97-29.42-206.34-23.49-38.06-47.55-62.77-90.87-77.16-15.29-5.08-30.68-5.72-46.35-2.37-23.18-17.49-52.41-25.43-80.6-20.43-45.44,8.07-71.89,26.19-101.99,60.68C-28.3-70.36-50.3-23.37-57.35,27.63c-2.97,21.49-5.23,41.66-3.44,62.94l7.01,83.17c3.22,38.16-4.16,90.39-21.04,124.17,0,0,17.96-2.2,30.99-18.78,0,0-11.17,108.95,28.77,190.11l7.28,14.44c7.52,14.91,20.76,24.99,37.34,26.92l-2.71,15c-20.86,60.62-16.33,122.74,5.09,182.82l29.36,69.82,33.88,68.07,55.21,108.85,11.13,60.06c-1.55,3.36-4.19,8.01-3.31,12.71l5.92,31.8c.87,4.7,5.23,7.59,9.49,10.31l-.67,72.01c-.22,24.06-2.55,42.96,16.48,53.67,17.21,9.68,35.98,15.36,55.4,19.92,3.3,13.17,6.57,25.71,15.95,35.36,7.78,8.01,18.93,12.98,30.2,13.02l34.29.1c25.11-3.37,49.54-10.43,71.22-24.79,6.38-4.22,16.06-9.19,18.92-16.66,9.83-25.68,2.03-54.67-15.77-74.48ZM337.89,1119.38c.15,1.84-1.53,4.42-4.39,4.54-21.74.85-41.8,7.9-59.42,20.57-2.22,1.59-4.65,1.27-5.94-.76-1.12-1.75-.69-4.41,1.79-6.49,27.06-22.58,67.25-26.51,67.96-17.86ZM265.35,1121.62c-2.14-1.69-2.75-5.16-.42-7.14,23.11-19.61,61.43-26.59,63.78-17.1.42,1.69-.89,4.73-3.41,4.72-36.9-.17-55.16,23.3-59.95,19.51ZM291.26,695.97c.86,72.88-2.59,144.44-10.52,216.95l-20.48-55.43-25.68-69.42-37.68-101.13,22.05-17.62c.79-.63.71-2.56.39-3.1-.58-.96-2.35-1.71-3.89-.64l-16.5,11.5-4.38-35.94c4.45-1.79,8.39-3.99,8.52-8.8-4.38-.65-6.17,2.64-9.26,5.7l-10.94-61.2-7.09-27.56,19.62-2.13c.24,3.97,1.24,7.59,4.8,8.45,1.55-3.8-.15-6.34-.59-10.05l29.84-6.52c10.85,23.13,28.33,41.06,51.95,49.49,5.81,36.08,9.41,70.72,9.84,107.45ZM166.36,543.33l-49.48-.29c-2.04-11.25-1.38-22.41,1.42-34.38l43.85.81c-.7,11.64.33,21.12,4.2,33.85ZM99,499.81c23.42-9.16,46.62-18.34,67.48-32.62,14.49,12.28,29.42,20.6,47.51,29.36-37.38,7.79-75.63,8.71-114.99,3.26ZM110.62,541.1c-2.33,1.87-5.42,1.3-7.86-.11-2.65-11.06-1.21-22.08,1.67-33.14,3.18-.62,5.76-.24,8.65.82-3.61,10.28-4.53,20.41-2.46,32.43ZM96.83,539.87c-20.87-2.31-41.58-8.25-62.53-15.96-.79-4.26.23-7.89.97-12.44,17.04,1.55,33.1-1.65,49.28-6.92l14.71,2.02c-2.83,10.36-4.14,19.34-2.44,33.3ZM90.4,546.05c-4.5,17.5-12.08,33.95-23.78,48.53-8.78,10.61-17.99,18.83-31.39,24.63-1.51-28.3,1.94-56.41,11.71-83.82,14.62,4.9,28.09,8.28,43.46,10.66ZM219.47,501.66c4.7,9.14,6.96,18.15,7.62,30.54-17.85,5.89-35.58,8.67-54.77,10.73-3.98-10.59-5.25-21.56-5.76-33.46,18.46-1.14,35.22-3.49,52.91-7.81ZM224.7,500.52c2.69.15,6.81.85,8.08,2.87,6.96,11.11,9.96,28.48-.68,27.08-.46-10.81-2.52-20.51-7.4-29.95ZM262.35,523.87c8.59,18.78,13.3,37.45,17.18,57.3-20.77-9.28-35.36-25.41-44.04-44.68,10.07-3.24,18.26-6.91,26.86-12.62ZM240,504.54c5.08,1.34,10.41.69,14.7,3.15,2.8,1.93,3.15,7.28,4.41,10.86-4.61,2.93-9.04,5.26-14.77,6.96-.38-7.98-2-14.06-4.34-20.97ZM312.99,474c-10.89,25.26-33.46,30.07-60.48,26.18-27.26-3.93-51.14-15.34-73.39-31.3-20.69-14.84-39.07-31-58.19-47.84-1.12-.99-3.1-1.55-2.95-3,.13-1.26,1.91-2.67.98-6.08-17.83,6.67-35.52,12.91-55.32,12.73-9.42-.09-18.38-8.91-18.59-17.98-.21-8.74,6.11-15.36,12.9-19.73,11.24-7.22,24.12-9.43,37.49-9.5,11.99-.06,22.92,2.45,34.31,5.75l27.98,8.1c29.15,6.22,56.52,15.33,84.58,25.26l39.07,13.83c1.54.54,3.12-.64,3.56-1.54.45-.93.38-2.92-1.43-3.77l-10.76-5.09c8.2-8.9,5.99-21.19-.61-33.17,11.23-3.8,22.05-3.88,33.37-1.73,15.82,29.05,20.66,58.28,7.48,88.87ZM201.2,395.42c10.69-7.83,21.78-14.13,34.74-16.18,16.51-2.61,32.27,6.92,35.59,23.15,1.23,6-.53,11.98-6.13,15.38l-64.2-22.36ZM301.53,377.93c-11.45-1.3-22.86-1.32-33.78,3.77l-8.44-6.13c16.78-7.04,39.99-14.33,42.22,2.36ZM294.01,362.6c-13.33-.51-25.91,1.73-36.89,8.63-4.32,2.72-9.14,3.63-13.19-.29l-4.45-20.26c-.3-1.36-1.89-2.91-2.82-2.88-1.49.06-2.98,1.77-3.02,3.58l4.68,20.59c-17,3-31.29,10.33-44.97,21.24l-47.78-11.97c-14.58-3.65-27.76-9.73-43.44-10.29-4.33-20.97-10.18-40.97-20.16-59.73l-14.62-27.51c3.15-3.01,7.26-4.26,11.76-5.59,6.92,17.09,12.09,33.82,15.34,52.8,31.19,7.86,80.45,9.96,108.49-2.86,3.1-1.42,4.62-4.89,4.23-8.21l-3.86-33.13,17.17,6.01c2.84.99,5.21,8.29,3.36,10.8-10.8,14.61-21.53,28.22-29.95,44.34-6.22,11.91-14.79,34.47-10.77,37.84.68.57,2.9.5,3.79-.74,12.93-17.96,28.56-32.6,46.04-46.12l25.18-19.48c13.93,12.84,25.57,26.95,35.9,43.23ZM115.82,236.8c19.61,7.45,39.11,10.46,59.38,9.94-2.46,10.09-1.85,19.52,4.19,27.53-4.47,10.29-13.67,16.55-25.46,18-19.78,2.43-37.87-5.82-47.95-22.11.12-2.92,3.22-3.91,4.39-5.62,5.59-8.22,6.16-17.56,5.45-27.74ZM158,298.39c11.15-2.07,20.31-8.59,26.18-18.76,1.28-2.23,5.6-.09,4.96,1.58-6.74,17.57-23.96,27.23-42.96,26.17-22-1.23-42.33-13.92-53.44-33.12-.71-1.23,3.62-2.93,4.84-2.65,1.65.37,2.38,1.96,3.73,3.92,12.47,18.18,34.95,26.89,56.68,22.86ZM153.11,313.11c18.85-1.24,33.44-11.08,41.93-29.39,3.41,12.43,5.32,25.14,5.28,39.21-32.78,10.41-67.07,9.65-100.64,2.6-1.9-17.78-8.78-31.87-13.74-49.85,14.57,23.37,38.96,39.28,67.18,37.42ZM48.62-24.67c12.04-28.51,33.9-52.16,63.21-63.27,23.72-8.99,49.88-2.73,70.09,11.14l16.78,13.21c21.39-12.95,47.26-17.04,67.96-4.12,19.63,12.25,32.07,30.4,41.16,51.25,20.33,46.61,12.11,74.74,2.06,122.14l-2.98,34.3c-2.34,26.86-13.64,49.14-35.13,65.65-73.74,56.67-167.22,41.68-228.83-25.89-3.85-4.23-10.02-8.01-11.56-13.56C18.77,106.18,24.71,31.93,48.62-24.67ZM36.26,306.55c20.56,23.14,44.73,34.58,58,64.3-10.96.08-20.4,2.01-30.66,6.2l-1.92-25.64c-.33-1.9-1.77-3.52-2.71-3.66-.92-.14-2.94,1.39-2.85,2.75l1.65,25.76c-19.21-7.9-39.44-8.49-60.21-3.45,8.85-25.92,20.07-46.85,38.7-66.26ZM-4.53,379c19.09-5.57,39.58-6.35,58.9,1.59-1.56,2.52-3.99,4.09-7.26,6.64-17.99-4.93-35.79-4.17-53.57,1.63l1.92-9.86ZM-16.79,65.4c-3.09-5.88-6.97-9.61-13.14-9.27-4.05.22-8.19,3.06-6.8,7.86,3.41-1.67,7.39-3.43,10.35-1.21,3.52,2.64,5.67,6.51,7.64,11.15-8.71,3.46-12.27,13.11-6.36,20.4,2.21-5.52.23-11.78,7.28-15.07l-1.05,38.8c-22.27-15.79-34.02-42.06-20.55-65.24,2.78-4.79,6.99-7.32,11.73-7.68,4.48-.34,10.84,1.48,12.4,6.47,1.41,4.53-.29,9.87-1.5,13.81ZM-.84,482.18c-15.45-28.12-13.01-54.63-7.58-85.82,16.31-5.93,33.16-8.13,50.59-3.55-7.87,14.83-4.38,25.31,10.07,34.77l-22.44,6.96c-1.45.45-2.34,2.19-2.3,3.11.08,1.84,2.34,2.93,4.53,1.86l31.87-7.85c16.77-.78,32.83-3.7,47.65-10.85l49.04,43.03c-28.92,16.89-58.44,28.98-89.83,37.73-12.8,3.57-25.84,4.42-38.69,3-14.79-1.63-26.06-9.92-32.92-22.39ZM88.92,819.52c-16.04-31.35-30.49-61.71-43.57-94.3-26.33-65.58-33.99-127.46-13.13-195.89l10.55,4.27c-12.59,35.43-16.09,73.4-8.47,109.91.24,1.14,1.47,1.88,1.89,2.18,3.01,2.14.75-5.92,1.68-7.86.77-1.61,5.67-1.28,7.88-4.73.38-.6-.22-2.18-1.15-2.69-1.84-.99-6.15,3.16-7.68,1.98-.95-.73-1.37-3.77-1.1-5.96l19.86-11.9c20.99-17.3,35.11-41.26,40.57-67.61,25.42,4.42,49.75,4.52,74.54,2.9,11.36,43.53,18.07,86.63,23.43,130.72l-13.44,13.91c-.85.88-1.03,2.17-.65,2.74.79,1.16,2.23,1.33,3.58.23l7.58-6.13,19.12,50.16,60.3,163.29,36.16,96.07c-22.04,28.35-52.01,40.89-87.37,48.49l-26.63-50.08-39.74-85.35c-.44-.94-1.2-1.9-1.2-2.43,0-1.09-4.2-.34-3.65.84l47.41,101.94,18.26,34.56c-1.73,2.52-6.27.95-7.92-2.1l-17.47-32.36-99.66-194.82ZM160.67,976.43l22.09,40.41c-5.73.71-10.08-.29-15.08-2.18l-7.01-38.23ZM170.23,1057.65l-6-36.93c7.42,1.93,13.35,3.41,21.49,2.63l12.27,23.38c-1.61,6.11-3.89,11.97,1.47,20.24-11.71-.56-28.08-2.23-29.23-9.32ZM193.08,1190.59c-15.52-7.07-13.27-25.24-13.61-44.75,18.07,14.12,37.83,23.2,60.12,26.6l3.44,35.9c-17.99-3.54-33.98-9.72-49.95-17.75ZM230.29,1103.52c-.09-1.31,1.42-1.57,2.12-1.11.57.38,1.38.64,1.51,2.05l5.6,60.5c.1,1.06-2.88.99-3.61-.03-.56-.79-1.29-1.64-1.43-3.55l-4.19-57.86ZM224.78,1095.83l-12.91-19.79c-4.43-6.79-7.83-12.89-9.56-21.68,7.07,1.42,13.54,1.85,20.81.44,34.64-6.71,73.64-23.58,91.56-55.61l17.26,46.39c-7.43,11.97-17.06,20.59-28.45,27.78-23.34,15.74-50.28,24.35-78.71,22.46ZM297.47,1146.87c29.33-12.62,64.29-13.78,92.56,2.37,9.54,5.45,15.05,17.65,18.28,27.13,1.49,4.36-2.42,8.38-4.57,10.87-10.37,12.02-23.19,19.37-38.16,26.07-29.56,13.22-60.68,17.64-91.72,9.37-7.56-2.01-19.83-7.33-21.01-15.81-3.3-23.7,21.61-50.11,44.62-60.01ZM412.04,1212.04c-.72,7.07-3.87,11.46-9.59,15.57-31.42,22.54-69.56,33.73-108.54,30.41-24.76-2.11-35.74-14.72-41.26-39.18,11.47,8.11,23.83,11.99,38.01,13.49,37.82,3.99,75.55-7.31,106.14-29.68,5.94-4.34,10.11-8.91,14.82-15.49,2.55,8.03,1.28,16.39.41,24.89Z" style="fill: #13004d;"/>
            <path d="M109.94-17.66c-33.15-6.37-46.02,12.14-49.64,9.71-10.78-7.23,38.54-38.25,75.96-8.11,5.64,4.54,11.57,10.25,10.81,17.91-12.45-8.64-22.71-16.75-37.14-19.52Z" style="fill: #13004d;"/>
            <path d="M311.21,12.33c1.47,6.37-21.85-16.94-52.47-4.48l-18.53,7.54c-1.25-2.72.12-5.45,2.3-7.42,24.38-22.09,64.22-15,68.7,4.36Z" style="fill: #13004d;"/>
            <path d="M212.79,149.75c2.37,5.92-4.36,9.94-9.77,11.9-32.28,11.74-58.46-20.24-51.79-23.8,1.19-.63,3.47-.13,4.67,1.75,12.09,18.86,36.69,24.74,56.89,10.15Z" style="fill: #13004d;"/>
            <path d="M129.25,43.26c-15.24-10.56-29.4-15.27-47.81-12.36,15.34-10.2,39.37-4.72,47.81,12.36Z" style="fill: #13004d;"/>
            <path d="M200.1,113.77c-7.15-8.37-16.25,3.3-18.38,2.94-1.25-.21-1.98-2.15-1.05-3.61,4.39-6.9,13.76-9.97,21.06-5.61,5.88,3.52,7.83,12.35,2.7,17.37l-4.33-11.09Z" style="fill: #13004d;"/>
            <path d="M279.23,39.37c-13.91.37-25.25,3.27-37.88,12.9,5.06-13.7,24.03-19.98,37.88-12.9Z" style="fill: #13004d;"/>
            <path d="M185.82,180.47c-7.69,4.09-18.41,2.27-22.72-6.36,7.73,3.22,14,4.62,22.72,6.36Z" style="fill: #13004d;"/>
            <path d="M124.05,54.49c-11.97-14.4-29.9-15.26-46.78-11.06-7.35,1.48-13.68-7.48-19.48-12.05-1.27,7.06,4.71,12.5,9.54,17.98-9.48,2.05-15.95-2.76-23.73-8.58,1.15,7.59,6.3,13.76,12.72,17.94,7.1,4.62,16.3-5.55,26.12-5.49-19.01,20.12-16.69,52.07,4.06,66.12,13.77,9.32,32.17,3.7,40.91-10.15,10.68-16.93,9.34-39.44-3.36-54.71ZM92.99,81.35c-4.74,0-8.59-3.85-8.59-8.59s3.85-8.59,8.59-8.59,8.59,3.85,8.59,8.59-3.85,8.59-8.59,8.59Z" style="fill: #13004d;"/>
            <path d="M297.7,58.81c5.26-4.02,10.18-8.41,9.5-15-5.03,3.03-10.91,10.69-17.12,9.06-11.57-3.04-22.23-4.72-33.66,1.02-24.58,12.34-33.26,43.99-16.74,66.5,5.29,7.21,13.63,10.69,21.77,10.81,8.16.12,16.25-3.76,21.98-10.79,13.83-16.96,12.87-40.94.87-57.9,9.29.24,11.72,5.41,17.65,6.81,7.82-1.84,14.03-7.47,15.52-15.55-6.5,4.7-12.82,7.39-19.77,5.04ZM253.64,92.24c-5.18-.75-6.71-5.36-6.79-8.71-.1-4.02,1.32-8.74,6.19-9.89,5.59-1.33,9.83,3.82,10.13,8.67.3,4.77-3.4,10.82-9.53,9.94Z" style="fill: #13004d;"/>
            <path d="M239.67,366.27s-5.64-27.49-7.75-35.95" style="fill: #13004d;"/>
            <path d="M59.41,360.5s-3.02-48.62-5.13-57.08" style="fill: #13004d;"/>
          </g>
        </g>
        <path d="M423.35,482.52l31.8-.56c4.34-.08,7.79-3.65,7.72-7.99l-.26-14.88c-.09-5.03-4.34-9.03-9.49-8.94l-13.23.23c-5.15.09-9.4-3.91-9.49-8.94l-.46-26.64c-.08-4.34-3.65-7.79-7.99-7.72l-62.69,1.1c-4.34.08-7.79,3.65-7.72,7.99l1.02,58.62c.07,4.28,3.57,7.72,7.86,7.72h62.95Z" style="fill: url(#Dégradé_sans_nom_15-3);"/>
        <path d="M331.87,482.52c4.44,0,8.02-3.64,7.94-8.08l-.17-9.57c-.09-5.37-4.92-9.5-10.4-8.88l-18.48,2.08c-5.48.61-10.3-3.51-10.4-8.88l-.08-4.49c-.09-5.37,4.58-9.66,10.08-9.24l18.54,1.43c5.49.42,10.17-3.86,10.08-9.24l-.19-11.17c-.08-4.38-3.69-7.88-8.08-7.8l-81.8,1.43c-5.79.1-10.41,4.88-10.31,10.67l.9,51.42c.1,5.72,4.77,10.31,10.49,10.31h81.87Z" style="fill: url(#Dégradé_sans_nom_15-4);"/>
        <g style="clip-path: url(#clippath-4);">
          <g>
            <path d="M399.67,1148.18l-8.15-6.07c-17.08-19.56-33.11-39.31-47.81-60.8l-13.12-22.74c5.34-4.99,9.27-11.21,6.82-17.86l-14.02-38.16c-2.29-6.24-7.4-8.58-12.79-10.54l-24.1-63.37,7.01-79.96c4.49-51.2,4.89-101.33,4.29-152.74l-4.41-73.02c-1.94-32.07-10.52-62.68-20.84-92.95l-10.91-22.22c22.48.5,42.73-4.04,53.95-24.36,13.56-24.58,14.81-52.86,5.23-80.1l-3.09-7.17c-12.68-31.94-29.82-59.01-55.16-81.82,11.65-9.01,20.35-18.68,29.75-29.24,19.47-24.74,35.38-51.55,46.7-81.05,8.74-22.17,12.57-43.83,15.61-67.38,9.92-76.89,12.15-138.97-29.42-206.34-23.49-38.06-47.55-62.77-90.87-77.16-15.29-5.08-30.68-5.72-46.35-2.37-23.18-17.49-52.41-25.43-80.6-20.43-45.44,8.07-71.89,26.19-101.99,60.68C-28.3-70.36-50.3-23.37-57.35,27.63c-2.97,21.49-5.23,41.66-3.44,62.94l7.01,83.17c3.22,38.16-4.16,90.39-21.04,124.17,0,0,17.96-2.2,30.99-18.78,0,0-11.17,108.95,28.77,190.11l7.28,14.44c7.52,14.91,20.76,24.99,37.34,26.92l-2.71,15c-20.86,60.62-16.33,122.74,5.09,182.82l29.36,69.82,33.88,68.07,55.21,108.85,11.13,60.06c-1.55,3.36-4.19,8.01-3.31,12.71l5.92,31.8c.87,4.7,5.23,7.59,9.49,10.31l-.67,72.01c-.22,24.06-2.55,42.96,16.48,53.67,17.21,9.68,35.98,15.36,55.4,19.92,3.3,13.17,6.57,25.71,15.95,35.36,7.78,8.01,18.93,12.98,30.2,13.02l34.29.1c25.11-3.37,49.54-10.43,71.22-24.79,6.38-4.22,16.06-9.19,18.92-16.66,9.83-25.68,2.03-54.67-15.77-74.48ZM337.89,1119.38c.15,1.84-1.53,4.42-4.39,4.54-21.74.85-41.8,7.9-59.42,20.57-2.22,1.59-4.65,1.27-5.94-.76-1.12-1.75-.69-4.41,1.79-6.49,27.06-22.58,67.25-26.51,67.96-17.86ZM265.35,1121.62c-2.14-1.69-2.75-5.16-.42-7.14,23.11-19.61,61.43-26.59,63.78-17.1.42,1.69-.89,4.73-3.41,4.72-36.9-.17-55.16,23.3-59.95,19.51ZM291.26,695.97c.86,72.88-2.59,144.44-10.52,216.95l-20.48-55.43-25.68-69.42-37.68-101.13,22.05-17.62c.79-.63.71-2.56.39-3.1-.58-.96-2.35-1.71-3.89-.64l-16.5,11.5-4.38-35.94c4.45-1.79,8.39-3.99,8.52-8.8-4.38-.65-6.17,2.64-9.26,5.7l-10.94-61.2-7.09-27.56,19.62-2.13c.24,3.97,1.24,7.59,4.8,8.45,1.55-3.8-.15-6.34-.59-10.05l29.84-6.52c10.85,23.13,28.33,41.06,51.95,49.49,5.81,36.08,9.41,70.72,9.84,107.45ZM166.36,543.33l-49.48-.29c-2.04-11.25-1.38-22.41,1.42-34.38l43.85.81c-.7,11.64.33,21.12,4.2,33.85ZM99,499.81c23.42-9.16,46.62-18.34,67.48-32.62,14.49,12.28,29.42,20.6,47.51,29.36-37.38,7.79-75.63,8.71-114.99,3.26ZM110.62,541.1c-2.33,1.87-5.42,1.3-7.86-.11-2.65-11.06-1.21-22.08,1.67-33.14,3.18-.62,5.76-.24,8.65.82-3.61,10.28-4.53,20.41-2.46,32.43ZM96.83,539.87c-20.87-2.31-41.58-8.25-62.53-15.96-.79-4.26.23-7.89.97-12.44,17.04,1.55,33.1-1.65,49.28-6.92l14.71,2.02c-2.83,10.36-4.14,19.34-2.44,33.3ZM90.4,546.05c-4.5,17.5-12.08,33.95-23.78,48.53-8.78,10.61-17.99,18.83-31.39,24.63-1.51-28.3,1.94-56.41,11.71-83.82,14.62,4.9,28.09,8.28,43.46,10.66ZM219.47,501.66c4.7,9.14,6.96,18.15,7.62,30.54-17.85,5.89-35.58,8.67-54.77,10.73-3.98-10.59-5.25-21.56-5.76-33.46,18.46-1.14,35.22-3.49,52.91-7.81ZM224.7,500.52c2.69.15,6.81.85,8.08,2.87,6.96,11.11,9.96,28.48-.68,27.08-.46-10.81-2.52-20.51-7.4-29.95ZM262.35,523.87c8.59,18.78,13.3,37.45,17.18,57.3-20.77-9.28-35.36-25.41-44.04-44.68,10.07-3.24,18.26-6.91,26.86-12.62ZM240,504.54c5.08,1.34,10.41.69,14.7,3.15,2.8,1.93,3.15,7.28,4.41,10.86-4.61,2.93-9.04,5.26-14.77,6.96-.38-7.98-2-14.06-4.34-20.97ZM312.99,474c-10.89,25.26-33.46,30.07-60.48,26.18-27.26-3.93-51.14-15.34-73.39-31.3-20.69-14.84-39.07-31-58.19-47.84-1.12-.99-3.1-1.55-2.95-3,.13-1.26,1.91-2.67.98-6.08-17.83,6.67-35.52,12.91-55.32,12.73-9.42-.09-18.38-8.91-18.59-17.98-.21-8.74,6.11-15.36,12.9-19.73,11.24-7.22,24.12-9.43,37.49-9.5,11.99-.06,22.92,2.45,34.31,5.75l27.98,8.1c29.15,6.22,56.52,15.33,84.58,25.26l39.07,13.83c1.54.54,3.12-.64,3.56-1.54.45-.93.38-2.92-1.43-3.77l-10.76-5.09c8.2-8.9,5.99-21.19-.61-33.17,11.23-3.8,22.05-3.88,33.37-1.73,15.82,29.05,20.66,58.28,7.48,88.87ZM201.2,395.42c10.69-7.83,21.78-14.13,34.74-16.18,16.51-2.61,32.27,6.92,35.59,23.15,1.23,6-.53,11.98-6.13,15.38l-64.2-22.36ZM301.53,377.93c-11.45-1.3-22.86-1.32-33.78,3.77l-8.44-6.13c16.78-7.04,39.99-14.33,42.22,2.36ZM294.01,362.6c-13.33-.51-25.91,1.73-36.89,8.63-4.32,2.72-9.14,3.63-13.19-.29l-4.45-20.26c-.3-1.36-1.89-2.91-2.82-2.88-1.49.06-2.98,1.77-3.02,3.58l4.68,20.59c-17,3-31.29,10.33-44.97,21.24l-47.78-11.97c-14.58-3.65-27.76-9.73-43.44-10.29-4.33-20.97-10.18-40.97-20.16-59.73l-14.62-27.51c3.15-3.01,7.26-4.26,11.76-5.59,6.92,17.09,12.09,33.82,15.34,52.8,31.19,7.86,80.45,9.96,108.49-2.86,3.1-1.42,4.62-4.89,4.23-8.21l-3.86-33.13,17.17,6.01c2.84.99,5.21,8.29,3.36,10.8-10.8,14.61-21.53,28.22-29.95,44.34-6.22,11.91-14.79,34.47-10.77,37.84.68.57,2.9.5,3.79-.74,12.93-17.96,28.56-32.6,46.04-46.12l25.18-19.48c13.93,12.84,25.57,26.95,35.9,43.23ZM115.82,236.8c19.61,7.45,39.11,10.46,59.38,9.94-2.46,10.09-1.85,19.52,4.19,27.53-4.47,10.29-13.67,16.55-25.46,18-19.78,2.43-37.87-5.82-47.95-22.11.12-2.92,3.22-3.91,4.39-5.62,5.59-8.22,6.16-17.56,5.45-27.74ZM158,298.39c11.15-2.07,20.31-8.59,26.18-18.76,1.28-2.23,5.6-.09,4.96,1.58-6.74,17.57-23.96,27.23-42.96,26.17-22-1.23-42.33-13.92-53.44-33.12-.71-1.23,3.62-2.93,4.84-2.65,1.65.37,2.38,1.96,3.73,3.92,12.47,18.18,34.95,26.89,56.68,22.86ZM153.11,313.11c18.85-1.24,33.44-11.08,41.93-29.39,3.41,12.43,5.32,25.14,5.28,39.21-32.78,10.41-67.07,9.65-100.64,2.6-1.9-17.78-8.78-31.87-13.74-49.85,14.57,23.37,38.96,39.28,67.18,37.42ZM48.62-24.67c12.04-28.51,33.9-52.16,63.21-63.27,23.72-8.99,49.88-2.73,70.09,11.14l16.78,13.21c21.39-12.95,47.26-17.04,67.96-4.12,19.63,12.25,32.07,30.4,41.16,51.25,20.33,46.61,12.11,74.74,2.06,122.14l-2.98,34.3c-2.34,26.86-13.64,49.14-35.13,65.65-73.74,56.67-167.22,41.68-228.83-25.89-3.85-4.23-10.02-8.01-11.56-13.56C18.77,106.18,24.71,31.93,48.62-24.67ZM36.26,306.55c20.56,23.14,44.73,34.58,58,64.3-10.96.08-20.4,2.01-30.66,6.2l-1.92-25.64c-.33-1.9-1.77-3.52-2.71-3.66-.92-.14-2.94,1.39-2.85,2.75l1.65,25.76c-19.21-7.9-39.44-8.49-60.21-3.45,8.85-25.92,20.07-46.85,38.7-66.26ZM-4.53,379c19.09-5.57,39.58-6.35,58.9,1.59-1.56,2.52-3.99,4.09-7.26,6.64-17.99-4.93-35.79-4.17-53.57,1.63l1.92-9.86ZM-16.79,65.4c-3.09-5.88-6.97-9.61-13.14-9.27-4.05.22-8.19,3.06-6.8,7.86,3.41-1.67,7.39-3.43,10.35-1.21,3.52,2.64,5.67,6.51,7.64,11.15-8.71,3.46-12.27,13.11-6.36,20.4,2.21-5.52.23-11.78,7.28-15.07l-1.05,38.8c-22.27-15.79-34.02-42.06-20.55-65.24,2.78-4.79,6.99-7.32,11.73-7.68,4.48-.34,10.84,1.48,12.4,6.47,1.41,4.53-.29,9.87-1.5,13.81ZM-.84,482.18c-15.45-28.12-13.01-54.63-7.58-85.82,16.31-5.93,33.16-8.13,50.59-3.55-7.87,14.83-4.38,25.31,10.07,34.77l-22.44,6.96c-1.45.45-2.34,2.19-2.3,3.11.08,1.84,2.34,2.93,4.53,1.86l31.87-7.85c16.77-.78,32.83-3.7,47.65-10.85l49.04,43.03c-28.92,16.89-58.44,28.98-89.83,37.73-12.8,3.57-25.84,4.42-38.69,3-14.79-1.63-26.06-9.92-32.92-22.39ZM88.92,819.52c-16.04-31.35-30.49-61.71-43.57-94.3-26.33-65.58-33.99-127.46-13.13-195.89l10.55,4.27c-12.59,35.43-16.09,73.4-8.47,109.91.24,1.14,1.47,1.88,1.89,2.18,3.01,2.14.75-5.92,1.68-7.86.77-1.61,5.67-1.28,7.88-4.73.38-.6-.22-2.18-1.15-2.69-1.84-.99-6.15,3.16-7.68,1.98-.95-.73-1.37-3.77-1.1-5.96l19.86-11.9c20.99-17.3,35.11-41.26,40.57-67.61,25.42,4.42,49.75,4.52,74.54,2.9,11.36,43.53,18.07,86.63,23.43,130.72l-13.44,13.91c-.85.88-1.03,2.17-.65,2.74.79,1.16,2.23,1.33,3.58.23l7.58-6.13,19.12,50.16,60.3,163.29,36.16,96.07c-22.04,28.35-52.01,40.89-87.37,48.49l-26.63-50.08-39.74-85.35c-.44-.94-1.2-1.9-1.2-2.43,0-1.09-4.2-.34-3.65.84l47.41,101.94,18.26,34.56c-1.73,2.52-6.27.95-7.92-2.1l-17.47-32.36-99.66-194.82ZM160.67,976.43l22.09,40.41c-5.73.71-10.08-.29-15.08-2.18l-7.01-38.23ZM170.23,1057.65l-6-36.93c7.42,1.93,13.35,3.41,21.49,2.63l12.27,23.38c-1.61,6.11-3.89,11.97,1.47,20.24-11.71-.56-28.08-2.23-29.23-9.32ZM193.08,1190.59c-15.52-7.07-13.27-25.24-13.61-44.75,18.07,14.12,37.83,23.2,60.12,26.6l3.44,35.9c-17.99-3.54-33.98-9.72-49.95-17.75ZM230.29,1103.52c-.09-1.31,1.42-1.57,2.12-1.11.57.38,1.38.64,1.51,2.05l5.6,60.5c.1,1.06-2.88.99-3.61-.03-.56-.79-1.29-1.64-1.43-3.55l-4.19-57.86ZM224.78,1095.83l-12.91-19.79c-4.43-6.79-7.83-12.89-9.56-21.68,7.07,1.42,13.54,1.85,20.81.44,34.64-6.71,73.64-23.58,91.56-55.61l17.26,46.39c-7.43,11.97-17.06,20.59-28.45,27.78-23.34,15.74-50.28,24.35-78.71,22.46ZM297.47,1146.87c29.33-12.62,64.29-13.78,92.56,2.37,9.54,5.45,15.05,17.65,18.28,27.13,1.49,4.36-2.42,8.38-4.57,10.87-10.37,12.02-23.19,19.37-38.16,26.07-29.56,13.22-60.68,17.64-91.72,9.37-7.56-2.01-19.83-7.33-21.01-15.81-3.3-23.7,21.61-50.11,44.62-60.01ZM412.04,1212.04c-.72,7.07-3.87,11.46-9.59,15.57-31.42,22.54-69.56,33.73-108.54,30.41-24.76-2.11-35.74-14.72-41.26-39.18,11.47,8.11,23.83,11.99,38.01,13.49,37.82,3.99,75.55-7.31,106.14-29.68,5.94-4.34,10.11-8.91,14.82-15.49,2.55,8.03,1.28,16.39.41,24.89Z" style="fill: #13004d;"/>
            <path d="M109.94-17.66c-33.15-6.37-46.02,12.14-49.64,9.71-10.78-7.23,38.54-38.25,75.96-8.11,5.64,4.54,11.57,10.25,10.81,17.91-12.45-8.64-22.71-16.75-37.14-19.52Z" style="fill: #13004d;"/>
            <path d="M311.21,12.33c1.47,6.37-21.85-16.94-52.47-4.48l-18.53,7.54c-1.25-2.72.12-5.45,2.3-7.42,24.38-22.09,64.22-15,68.7,4.36Z" style="fill: #13004d;"/>
            <path d="M212.79,149.75c2.37,5.92-4.36,9.94-9.77,11.9-32.28,11.74-58.46-20.24-51.79-23.8,1.19-.63,3.47-.13,4.67,1.75,12.09,18.86,36.69,24.74,56.89,10.15Z" style="fill: #13004d;"/>
            <path d="M129.25,43.26c-15.24-10.56-29.4-15.27-47.81-12.36,15.34-10.2,39.37-4.72,47.81,12.36Z" style="fill: #13004d;"/>
            <path d="M200.1,113.77c-7.15-8.37-16.25,3.3-18.38,2.94-1.25-.21-1.98-2.15-1.05-3.61,4.39-6.9,13.76-9.97,21.06-5.61,5.88,3.52,7.83,12.35,2.7,17.37l-4.33-11.09Z" style="fill: #13004d;"/>
            <path d="M279.23,39.37c-13.91.37-25.25,3.27-37.88,12.9,5.06-13.7,24.03-19.98,37.88-12.9Z" style="fill: #13004d;"/>
            <path d="M185.82,180.47c-7.69,4.09-18.41,2.27-22.72-6.36,7.73,3.22,14,4.62,22.72,6.36Z" style="fill: #13004d;"/>
            <path d="M124.05,54.49c-11.97-14.4-29.9-15.26-46.78-11.06-7.35,1.48-13.68-7.48-19.48-12.05-1.27,7.06,4.71,12.5,9.54,17.98-9.48,2.05-15.95-2.76-23.73-8.58,1.15,7.59,6.3,13.76,12.72,17.94,7.1,4.62,16.3-5.55,26.12-5.49-19.01,20.12-16.69,52.07,4.06,66.12,13.77,9.32,32.17,3.7,40.91-10.15,10.68-16.93,9.34-39.44-3.36-54.71ZM92.99,81.35c-4.74,0-8.59-3.85-8.59-8.59s3.85-8.59,8.59-8.59,8.59,3.85,8.59,8.59-3.85,8.59-8.59,8.59Z" style="fill: #13004d;"/>
            <path d="M297.7,58.81c5.26-4.02,10.18-8.41,9.5-15-5.03,3.03-10.91,10.69-17.12,9.06-11.57-3.04-22.23-4.72-33.66,1.02-24.58,12.34-33.26,43.99-16.74,66.5,5.29,7.21,13.63,10.69,21.77,10.81,8.16.12,16.25-3.76,21.98-10.79,13.83-16.96,12.87-40.94.87-57.9,9.29.24,11.72,5.41,17.65,6.81,7.82-1.84,14.03-7.47,15.52-15.55-6.5,4.7-12.82,7.39-19.77,5.04ZM253.64,92.24c-5.18-.75-6.71-5.36-6.79-8.71-.1-4.02,1.32-8.74,6.19-9.89,5.59-1.33,9.83,3.82,10.13,8.67.3,4.77-3.4,10.82-9.53,9.94Z" style="fill: #13004d;"/>
            <path d="M239.67,366.27s-5.64-27.49-7.75-35.95" style="fill: #13004d;"/>
            <path d="M59.41,360.5s-3.02-48.62-5.13-57.08" style="fill: #13004d;"/>
          </g>
        </g>
      </g>
    </g>
  </g>
</svg>