<?xml version="1.0" encoding="UTF-8"?>
<svg xmlns="http://www.w3.org/2000/svg" xmlns:xlink="http://www.w3.org/1999/xlink" viewBox="0 0 683 721.69">
  <defs>
    <radialGradient id="Dégradé_sans_nom_108" data-name="Dégradé sans nom 108" cx="341.5" cy="360.84" fx="341.5" fy="360.84" r="718.47" gradientUnits="userSpaceOnUse">
      <stop offset=".62" stop-color="#fff"/>
      <stop offset="1" stop-color="#babaff"/>
    </radialGradient>
    <clipPath id="clippath">
      <rect x="2.04" width="680" height="715" style="fill: none;"/>
    </clipPath>
    <filter id="drop-shadow-1" x="-224.9" y="-197.98" width="1115.84" height="1154.55" filterUnits="userSpaceOnUse">
      <feOffset dx="7.04" dy="7.04"/>
      <feGaussianBlur result="blur" stdDeviation="35.19"/>
      <feFlood flood-color="#1d1d1b" flood-opacity=".32"/>
      <feComposite in2="blur" operator="in"/>
      <feComposite in="SourceGraphic"/>
    </filter>
    <linearGradient id="Dégradé_sans_nom_14" data-name="Dégradé sans nom 14" x1="324.66" y1="-57.3" x2="-630.04" y2="-898.13" gradientTransform="translate(-2.53 474.02) rotate(-13.54)" gradientUnits="userSpaceOnUse">
      <stop offset=".08" stop-color="#94d4ff"/>
      <stop offset="1" stop-color="#6191ff"/>
    </linearGradient>
    <linearGradient id="Dégradé_sans_nom_6" data-name="Dégradé sans nom 6" x1="394.38" y1="-149.24" x2="852.63" y2="-555.23" gradientTransform="translate(-2.53 474.02) rotate(-13.54)" gradientUnits="userSpaceOnUse">
      <stop offset="0" stop-color="#babaff"/>
      <stop offset=".41" stop-color="#a493ed"/>
      <stop offset="1" stop-color="#875fd5"/>
    </linearGradient>
    <linearGradient id="Dégradé_sans_nom_240" data-name="Dégradé sans nom 240" x1="963.31" y1="439.3" x2="439.61" y2="-99.8" gradientTransform="translate(-2.53 474.02) rotate(-13.54)" gradientUnits="userSpaceOnUse">
      <stop offset="0" stop-color="#4dafc9"/>
      <stop offset="1" stop-color="#97f0f7"/>
    </linearGradient>
    <linearGradient id="Dégradé_sans_nom_15" data-name="Dégradé sans nom 15" x1="537.76" y1="518.5" x2="786.82" y2="698.15" gradientUnits="userSpaceOnUse">
      <stop offset="0" stop-color="#f2eb96"/>
      <stop offset=".14" stop-color="#f2e587"/>
      <stop offset=".5" stop-color="#f2d966"/>
      <stop offset=".8" stop-color="#f2d252"/>
      <stop offset="1" stop-color="#f2d04b"/>
    </linearGradient>
    <linearGradient id="Dégradé_sans_nom_15-2" data-name="Dégradé sans nom 15" x1="450.95" y1="638.84" x2="700.01" y2="818.5" xlink:href="#Dégradé_sans_nom_15"/>
    <linearGradient id="Dégradé_sans_nom_6-2" data-name="Dégradé sans nom 6" x1="317.61" y1="9.8" x2="-156.72" y2="695.17" xlink:href="#Dégradé_sans_nom_6"/>
    <linearGradient id="Dégradé_sans_nom_8" data-name="Dégradé sans nom 8" x1="-45.98" y1="-5.96" x2="804.94" y2="498.8" gradientUnits="userSpaceOnUse">
      <stop offset="0" stop-color="#360099"/>
      <stop offset="1" stop-color="#13004d"/>
    </linearGradient>
    <linearGradient id="Dégradé_sans_nom_8-2" data-name="Dégradé sans nom 8" x1="-90.76" y1="69.53" x2="760.16" y2="574.3" xlink:href="#Dégradé_sans_nom_8"/>
    <linearGradient id="Dégradé_sans_nom_8-3" data-name="Dégradé sans nom 8" x1="-117.7" y1="114.95" x2="733.22" y2="619.71" xlink:href="#Dégradé_sans_nom_8"/>
    <linearGradient id="Dégradé_sans_nom_8-4" data-name="Dégradé sans nom 8" x1="-131.26" y1="137.8" x2="719.67" y2="642.56" xlink:href="#Dégradé_sans_nom_8"/>
    <linearGradient id="Dégradé_sans_nom_8-5" data-name="Dégradé sans nom 8" x1="-116.32" y1="112.61" x2="734.61" y2="617.38" xlink:href="#Dégradé_sans_nom_8"/>
    <linearGradient id="Dégradé_sans_nom_8-6" data-name="Dégradé sans nom 8" x1="-101.43" y1="87.52" x2="749.49" y2="592.28" xlink:href="#Dégradé_sans_nom_8"/>
    <linearGradient id="Dégradé_sans_nom_8-7" data-name="Dégradé sans nom 8" x1="-133.13" y1="140.95" x2="717.8" y2="645.71" xlink:href="#Dégradé_sans_nom_8"/>
    <linearGradient id="Dégradé_sans_nom_8-8" data-name="Dégradé sans nom 8" x1="-123.02" y1="123.9" x2="727.91" y2="628.67" xlink:href="#Dégradé_sans_nom_8"/>
    <linearGradient id="Dégradé_sans_nom_8-9" data-name="Dégradé sans nom 8" x1="-126.28" y1="129.41" x2="724.65" y2="634.17" xlink:href="#Dégradé_sans_nom_8"/>
    <linearGradient id="Dégradé_sans_nom_8-10" data-name="Dégradé sans nom 8" x1="-108.58" y1="99.58" x2="742.34" y2="604.34" xlink:href="#Dégradé_sans_nom_8"/>
    <linearGradient id="Dégradé_sans_nom_8-11" data-name="Dégradé sans nom 8" x1="-138.61" y1="150.2" x2="712.32" y2="654.96" xlink:href="#Dégradé_sans_nom_8"/>
    <linearGradient id="Dégradé_sans_nom_8-12" data-name="Dégradé sans nom 8" x1="-131.16" y1="137.63" x2="719.77" y2="642.4" xlink:href="#Dégradé_sans_nom_8"/>
    <linearGradient id="Dégradé_sans_nom_8-13" data-name="Dégradé sans nom 8" x1="-113.12" y1="107.22" x2="737.81" y2="611.98" xlink:href="#Dégradé_sans_nom_8"/>
    <linearGradient id="Dégradé_sans_nom_8-14" data-name="Dégradé sans nom 8" x1="-143.5" y1="158.43" x2="707.43" y2="663.19" xlink:href="#Dégradé_sans_nom_8"/>
    <linearGradient id="Dégradé_sans_nom_8-15" data-name="Dégradé sans nom 8" x1="-88.79" y1="66.21" x2="762.14" y2="570.97" xlink:href="#Dégradé_sans_nom_8"/>
    <linearGradient id="Dégradé_sans_nom_8-16" data-name="Dégradé sans nom 8" x1="-142.36" y1="156.51" x2="708.57" y2="661.27" xlink:href="#Dégradé_sans_nom_8"/>
  </defs>
  <g style="isolation: isolate;">
    <g id="Calque_2" data-name="Calque 2">
      <g id="Calque_1-2" data-name="Calque 1">
        <rect width="683" height="721.69" style="fill: url(#Dégradé_sans_nom_108);"/>
        <g style="mix-blend-mode: multiply;">
          <g style="clip-path: url(#clippath);">
            <g style="filter: url(#drop-shadow-1);">
              <path d="M174.47-88.54L-168.35.38c-19.88,5.16-31.81,25.45-56.55-78.82l120.66,465.2c35.05,144.03,55.35,155.96,75.23,150.81l133.64-34.66c10.18-2.64,16.3-13.04,13.66-23.22l-1.26-4.85c-1.62-6.26,2.14-12.65,8.4-14.28l179.41-46.53c19.88-5.16,31.81-25.45,26.66-45.33L219.8-61.88c-5.16-19.88-25.45-31.81-45.33-26.66ZM97.63,318.61h-.01c-9.83,2.55-19.87-3.35-22.42-13.18l-36.48-140.65c-2.55-9.83,3.35-19.87,13.18-22.42h0c9.83-2.55,19.87,3.35,22.42,13.18l36.49,140.65c2.55,9.83-3.35,19.87-13.18,22.42Z" style="fill: url(#Dégradé_sans_nom_14);"/>
              <g>
                <path d="M683.29,32.44l-76.8,19.77c-11.73,3.02-23.68-4.06-26.67-15.79l-.6-2.37c-3.17-12.43,4.99-24.9,17.64-27l89.06-14.73c12.69-2.1,20.84-14.64,17.62-27.09l-1.1-4.24c-3.23-12.45-16.45-19.45-28.56-15.11l-85.22,30.48c-12.15,4.35-25.4-2.71-28.58-15.21h0c-2.97-11.66,4.04-23.53,15.68-26.57l76.93-20.1c19.5-5.09,31.19-25.01,26.13-44.52l-10.52-40.57c-5.07-19.53-25.01-31.26-44.54-26.19l-336.85,87.37c-19.53,5.07-31.26,25.01-26.19,44.54l69.79,269.08c5.07,19.53,25.01,31.26,44.54,26.19l336.85-87.36c19.53-5.07,31.26-25.01,26.19-44.54l-10.33-39.82c-5.06-19.51-24.96-31.23-44.47-26.21Z" style="fill: url(#Dégradé_sans_nom_6);"/>
                <path d="M839.53,489.61l-16.97-65.43c-2.37-9.14-8.66-16.75-17.19-20.8l-65.53-31.13c-7.41-3.52-9.83-12.88-5.07-19.55l42.14-59.06c5.48-7.68,7.28-17.4,4.91-26.54l-16.97-65.43c-5.07-19.53-25.01-31.26-44.54-26.19l-78.96,20.48c-7.32,1.9-13.73,6.34-18.08,12.52l-63.14,89.74c-2.79,3.97-8.95,2.89-10.22-1.8l-11.16-41.24c-4.57-16.88-21.87-26.93-38.79-22.54l-116.49,30.21c-19.53,5.07-31.26,25.01-26.19,44.54l74.68,287.94c5.07,19.53,25.01,31.26,44.54,26.19l117.05-30.36c17.05-4.42,27.29-21.83,22.87-38.88l-9.52-36.72c-1.24-4.79,3.77-8.8,8.17-6.54l88.18,45.32c6.97,3.58,15.01,4.47,22.59,2.51l87.52-22.7c19.53-5.07,31.26-25.01,26.19-44.54Z" style="fill: url(#Dégradé_sans_nom_240);"/>
              </g>
              <path d="M820.66,723.06l59-15.3c8.05-2.09,12.88-10.3,10.79-18.35l-7.16-27.6c-2.42-9.33-12.13-14.87-21.7-12.39l-24.54,6.37c-9.56,2.48-19.27-3.07-21.69-12.39l-12.82-49.42c-2.09-8.05-10.3-12.88-18.35-10.79l-116.3,30.17c-8.05,2.09-12.88,10.3-10.79,18.35l28.2,108.74c2.06,7.95,10.11,12.78,18.1,10.86l117.26-28.24Z" style="fill: url(#Dégradé_sans_nom_15);"/>
              <path d="M650.25,764.1c8.27-1.99,13.3-10.38,11.16-18.61l-4.61-17.76c-2.59-9.97-13.42-15.48-23.35-11.88l-33.49,12.16c-9.93,3.6-20.76-1.91-23.35-11.88l-2.16-8.33c-2.59-9.97,4.2-20.05,14.63-21.73l35.18-5.65c10.42-1.67,17.22-11.76,14.63-21.73l-5.37-20.72c-2.11-8.13-10.41-13.02-18.55-10.91l-151.75,39.36c-10.75,2.79-17.2,13.76-14.41,24.51l24.74,95.39c2.75,10.62,13.51,17.07,24.17,14.5l152.52-36.73Z" style="fill: url(#Dégradé_sans_nom_15-2);"/>
              <path d="M214.39,841.65l-4.68-18.36c-.89-3.47,1.2-7.01,4.68-7.91l22.1-5.73c3.49-.91,7.05,1.2,7.94,4.69l4.99,19.59c3.55,13.94,17.65,22.44,31.64,19.07l128.89-31.04c20.21-4.87,32.51-25.36,27.29-45.49l-69.61-268.38c-5.16-19.88-25.45-31.81-45.33-26.66L-20.51,570.36c-19.88,5.16-31.81,25.45-7.76,123.81l68.05,262.39c-13.81-58.85,6.08-46.92,25.8-51.67l129.48-31.18c14.25-3.43,22.95-17.86,19.33-32.06ZM207.11,670.35l23.69,91.34c.77,2.97-1.01,6-3.98,6.77l-23.96,6.21c-2.97.77-6-1.01-6.77-3.98l-23.69-91.34c-2.49-9.58,3.27-19.36,12.85-21.85h0s0,0,0,0c9.58-2.49,19.36,3.27,21.85,12.85Z" style="fill: url(#Dégradé_sans_nom_6-2);"/>
            </g>
          </g>
        </g>
        <path d="M174.74,368.74c-15.3-6.89-22.95-28.31-16.07-46.67,6.89-18.36,57.38-61.21,92.58-52.79,35.2,8.42,63.51,67.33,44.38,110.94-19.13,43.61-17.57,45.27-17.57,45.27,0,0,36.53,33.25,20.55,62.85-15.98,29.61-53.62-4.29-53.62-4.29,0,0-30.46,22.41-58.01,14.76-27.54-7.65-12.24-130.07-12.24-130.07Z" style="fill: #fff;"/>
        <g>
          <g>
            <path d="M517.9,316.94l-21.4.33c-3.27.05-5.96-2.56-6-5.83v-.66c-.05-3.46,2.87-5.51,6.32-5.26l24.29,1.76c3.46.25,6.39-2.52,6.33-5.99l-.02-4.01c-.06-3.47-3.09-6.14-6.54-5.77l-24.28,2.61c-3.46.37-6.49-1.61-6.54-5.09h0c-.04-3.25,2.55-5.92,5.79-5.98l21.45-.41c5.44-.1,9.76-4.59,9.67-10.03l-.2-11.44c-.1-5.44-4.59-9.78-10.03-9.69l-93.89,1.64c-5.44.1-9.78,4.59-9.69,10.03l1.31,76.68c.09,5.44,4.59,9.78,10.03,9.69l93.89-1.64c5.44-.09,9.78-4.59,9.69-10.03l-.19-11.23c-.09-5.44-4.57-9.77-10.01-9.69Z" style="fill: url(#Dégradé_sans_nom_8);"/>
            <path d="M530.01,443.28l-.32-18.37c-.04-2.55-1.21-4.94-3.19-6.54l-15.22-12.31c-1.72-1.39-1.77-4-.1-5.45l14.79-12.83c1.92-1.67,3.01-4.1,2.96-6.65l-.32-19.08c-.1-5.44-4.59-9.78-10.03-9.69l-22.01.38c-2.04.04-4,.79-5.53,2.14l-22.23,19.55c-.98.87-2.53.19-2.57-1.12l-.32-11.52c-.13-4.72-4.04-8.45-8.75-8.36l-32.47.57c-5.44.09-9.78,4.59-9.69,10.03l1.4,81.23c.1,5.44,4.59,9.78,10.03,9.69l32.62-.57c4.75-.08,8.54-4,8.46-8.76l-.18-9.53c-.02-1.34,1.54-2.07,2.56-1.2l20.27,16.75c1.6,1.38,3.65,2.12,5.77,2.08l24.39-.43c5.44-.1,9.78-4.59,9.69-10.03Z" style="fill: url(#Dégradé_sans_nom_8-2);"/>
            <path d="M510.66,498.02l16.16-.28c2.2-.04,3.96-1.86,3.92-4.06l-.13-7.56c-.04-2.55-2.2-4.59-4.82-4.54l-6.72.12c-2.62.05-4.78-1.99-4.82-4.54l-.24-15.22c-.04-2.2-1.86-3.96-4.06-3.92l-31.85.56c-2.2.04-3.96,1.86-3.92,4.06l.52,31.46c.04,2.18,1.81,3.92,3.99,3.92h31.98Z" style="fill: url(#Dégradé_sans_nom_8-3);"/>
            <path d="M464.19,498.02c2.26,0,4.07-1.85,4.03-4.1l-.09-5.7c-.05-2.73-2.5-4.82-5.28-4.51l-9.39,1.05c-2.78.31-5.23-1.78-5.28-4.51l-.04-2.28c-.05-2.73,2.33-4.91,5.12-4.69l9.42.73c2.79.22,5.17-1.96,5.12-4.69l-.1-6.52c-.04-2.23-1.88-4-4.1-3.96l-41.56.72c-2.94.05-5.29,2.48-5.24,5.42l.46,27.81c.05,2.91,2.42,5.24,5.33,5.24h41.59Z" style="fill: url(#Dégradé_sans_nom_8-4);"/>
            <g>
              <path d="M215.45,304.66c-12.45-1.79-16.91,5.32-18.3,4.48-4.14-2.5,13.67-14.91,28.12-4.35,2.18,1.59,4.48,3.61,4.34,6.47-4.78-3-8.74-5.83-14.16-6.61Z" style="fill: url(#Dégradé_sans_nom_8-5);"/>
              <path d="M290.86,312.28c.66,2.34-8.43-5.92-19.6-.75l-6.76,3.13c-.51-.99-.05-2.03.73-2.8,8.68-8.64,23.63-6.71,25.63.42Z" style="fill: url(#Dégradé_sans_nom_8-6);"/>
              <path d="M256.65,365.13c.99,2.16-1.45,3.77-3.43,4.6-11.8,4.93-22.1-6.51-19.69-7.95.43-.26,1.29-.11,1.77.57,4.83,6.81,14.08,8.56,21.34,2.78Z" style="fill: url(#Dégradé_sans_nom_8-7);"/>
              <path d="M223.7,326.98c-5.85-3.66-11.2-5.16-18-3.76,5.53-4.06,14.56-2.45,18,3.76Z" style="fill: url(#Dégradé_sans_nom_8-8);"/>
              <path d="M251.3,351.97c-2.81-2.99-5.99,1.51-6.79,1.41-.47-.06-.77-.76-.45-1.32,1.51-2.64,4.94-3.95,7.74-2.45,2.25,1.2,3.13,4.46,1.31,6.42l-1.81-4.05Z" style="fill: url(#Dégradé_sans_nom_8-9);"/>
              <path d="M279.44,322.9c-5.17.38-9.33,1.66-13.87,5.46,1.64-5.19,8.59-7.85,13.87-5.46Z" style="fill: url(#Dégradé_sans_nom_8-10);"/>
              <path d="M247.16,377.04c-2.79,1.66-6.81,1.17-8.56-1.97,2.93,1.06,5.29,1.47,8.56,1.97Z" style="fill: url(#Dégradé_sans_nom_8-11);"/>
              <path d="M221.97,331.25c-4.7-5.15-11.39-5.15-17.6-3.3-2.71.68-5.22-2.54-7.46-4.14-.35,2.65,1.97,4.57,3.86,6.52-3.49.93-5.98-.75-8.98-2.78.56,2.8,2.58,5.01,5.05,6.45,2.72,1.59,5.97-2.35,9.62-2.5-6.72,7.82-5.3,19.67,2.67,24.53,5.29,3.23,12.03.81,15.04-4.49,3.68-6.49,2.78-14.84-2.21-20.3ZM210.88,341.79c-1.76.08-3.26-1.28-3.35-3.04s1.28-3.26,3.04-3.35,3.26,1.28,3.35,3.04-1.28,3.26-3.04,3.35Z" style="fill: url(#Dégradé_sans_nom_8-12);"/>
              <path d="M286.65,329.81c1.89-1.59,3.64-3.31,3.27-5.75-1.82,1.21-3.87,4.17-6.21,3.67-4.36-.93-8.35-1.36-12.5.97-8.93,5.02-11.6,16.95-5.06,25.03,2.09,2.59,5.26,3.74,8.29,3.64,3.04-.1,5.98-1.68,7.99-4.4,4.85-6.55,4.07-15.46-.69-21.56,3.46-.07,4.45,1.81,6.69,2.22,2.88-.82,5.09-3.02,5.5-6.06-2.34,1.86-4.64,2.97-7.27,2.22ZM270.84,343.02c-1.94-.19-2.59-1.88-2.68-3.12-.11-1.49.34-3.27,2.13-3.79,2.06-.59,3.72,1.25,3.92,3.05.19,1.77-1.08,4.08-3.37,3.86Z" style="fill: url(#Dégradé_sans_nom_8-13);"/>
              <path d="M294.63,281.52c-8.97-14.04-18.79-22.52-35.16-27.11-5.78-1.62-11.51-1.59-17.28-.07-8.93-6.1-19.94-8.54-30.34-6.19-16.76,3.8-26.29,11.01-36.88,24.37-11.86,14.96-19.22,32.83-20.95,51.93-.73,8.05-1.21,15.59-.17,23.48l4.07,30.82c1.87,14.14.04,33.7-5.65,46.56,0,0,6.64-1.13,11.2-7.53,0,0-2.24,40.73,14.04,70.22l2.96,5.24c3.06,5.42,8.16,8.93,14.36,9.36l2.14.22c6.37.28,12.28-1.19,18.21-3.44l5.29-2.02c8.55-3.82,17.02-7.64,24.53-13.32,5.6,4.31,11.31,7.15,18.19,10.09,0,0,12.36,3.93,17.93,3.33,8.37-.21,15.83-2.25,19.64-10.01,4.61-9.38,4.58-19.93.54-29.89l-1.28-2.61c-5.28-11.66-12.13-21.43-21.96-29.47,4.18-3.55,29.35-29.8,29.01-67.01-.1-11.44-.62-58.44-12.45-76.95ZM162.32,337.6c1.24-.68,2.69-1.41,3.83-.63,1.35.92,2.22,2.32,3.04,4.01-3.18,1.44-4.33,5.09-2.01,7.7.73-2.09-.12-4.39,2.44-5.74l.29,14.45c-8.56-5.48-13.39-15.05-8.79-23.91.95-1.83,2.47-2.85,4.23-3.06,1.66-.21,4.06.36,4.73,2.19.6,1.66.06,3.68-.32,5.16-1.25-2.13-2.76-3.45-5.05-3.22-1.5.15-2.99,1.28-2.39,3.04ZM193.73,426.57c2.25,2.3,4.59,4.26,6.91,6.13.62,4.56,1.26,10.1,1.65,13.65h.02s.65,5.78.65,5.78c-7.29-2.6-14.82-2.47-22.46-.23,2.84-9.8,6.64-17.78,13.24-25.33ZM222.1,399.22c7.43,2.43,14.74,3.21,22.27,2.66-.74,3.8-.35,7.29,2.04,10.17-1.48,3.91-4.8,6.4-9.16,7.14-7.32,1.25-14.19-1.5-18.23-7.38,0-1.09,1.13-1.51,1.53-2.17,1.93-3.16,1.98-6.64,1.54-10.42ZM238.88,421.4c4.11-.97,7.4-3.55,9.41-7.44.44-.85,2.08-.13,1.87.5-2.2,6.66-8.43,10.55-15.52,10.49-8.21-.07-15.99-4.44-20.46-11.38-.29-.45,1.3-1.15,1.76-1.07.62.11.92.69,1.46,1.39,4.96,6.55,13.48,9.39,21.49,7.51ZM237.32,426.96c6.99-.79,12.25-4.71,15.08-11.67,1.49,4.57,2.42,9.26,2.65,14.5-12.01,4.45-24.78,4.77-37.4,2.73-1.02-6.58-3.82-11.7-5.99-18.3,5.83,8.44,15.18,13.93,25.65,12.74ZM215.8,434.61c11.74,2.38,30.1,2.29,40.31-2.97,1.13-.58,1.63-1.9,1.43-3.13l-2.02-12.26,6.49,1.93c1.07.32,2.08,2.99,1.44,3.96-3.76,5.62-7.52,10.87-10.37,17.02-2.11,4.54-4.9,13.08-3.34,14.27.26.2,1.09.13,1.4-.34,4.36-6.7,9.73-12.29,15.77-17.49.86,2.68,3.14,11.75,3.14,11.75-6.27,1.42-11.46,4.39-16.36,8.69l-17.99-3.62c-5.49-1.1-10.5-3.13-16.34-3.07-1.98-7.73-4.51-15.06-8.55-21.87l-5.92-9.98c1.12-1.17,2.63-1.71,4.28-2.29,2.87,6.24,5.09,12.37,6.63,19.37ZM282.94,458.1c.56,2.21.01,4.47-2.01,5.83l-24.28-7.19c3.84-3.1,7.85-5.64,12.64-6.63,6.1-1.26,12.13,2.01,13.64,7.99ZM216.43,449.47c-4.08.22-7.55,1.11-11.3,2.85,0,0-1.22-9.71-1.26-9.81-.26-2.21-.6-5.14-.98-8.01,5.18,4.12,10.1,8.16,13.54,14.98ZM179.82,454.24c7-2.41,14.61-3.06,21.94-.44-.54.97-1.41,1.59-2.58,2.6-6.78-1.52-13.39-.92-19.9,1.55l.54-3.7ZM209.98,498.52c-4.7,1.55-9.54,2.1-14.34,1.79-5.53-.35-9.87-3.23-12.64-7.75-6.24-10.19-5.8-20.1-4.32-31.8,5.96-2.49,12.2-3.61,18.76-2.21-2.67,5.66-1.19,9.49,4.36,12.76l-8.23,2.98c-.53.19-.83.86-.8,1.2.06.68.92,1.05,1.72.61l11.72-3.48c6.23-.59,12.15-1.95,17.54-4.87l19,15.15c-10.46,6.79-21.23,11.81-32.76,15.61ZM299.62,484.01c-3.61,9.59-11.92,11.78-22.04,10.8-10.21-.98-19.3-4.81-27.85-10.36-7.96-5.16-15.08-10.85-22.49-16.78-.44-.35-1.18-.52-1.15-1.06.03-.47.66-1.03.26-2.28-6.52,2.8-12.99,5.43-20.36,5.71-3.51.13-6.99-2.99-7.23-6.36-.23-3.25,2-5.82,4.45-7.57,4.06-2.88,8.81-3.93,13.78-4.19,4.46-.23,8.57.51,12.87,1.54l10.55,2.52c10.96,1.8,21.3,4.71,31.91,7.92l14.78,4.46c.58.18,1.15-.29,1.3-.64.15-.35.09-1.09-.6-1.38l-4.09-1.7c2.89-3.46,1.86-7.99-.81-12.33,4.11-1.61,8.14-1.83,12.38-1.23,6.4,10.53,8.71,21.32,4.34,32.93ZM293.67,448.47c-4.28-.28-8.53-.09-12.5,1.99l-3.25-2.13c6.12-2.91,14.63-6.03,15.75.14ZM290.6,442.9c-4.97.04-9.61,1.1-13.57,3.86-1.56,1.09-3.34,1.51-4.91.12,0,0-2.29-9.45-3.52-12.72l7.89-6.72c5.41,4.53,9.99,9.58,14.11,15.45ZM292,347.03l-.51,12.81c-.4,10.03-4.21,18.52-11.92,25.04-26.44,22.38-61.48,18.44-85.59-5.62-1.51-1.5-3.87-2.8-4.54-4.84-5.75-22.1-4.84-49.82,3.07-71.3,3.98-10.82,11.7-20,22.41-24.65,8.67-3.76,18.51-1.89,26.27,2.92l6.48,4.62c7.73-5.19,17.28-7.17,25.21-2.73,7.52,4.21,12.46,10.75,16.21,18.34,8.38,16.98,5.82,27.59,2.91,45.4Z" style="fill: url(#Dégradé_sans_nom_8-14);"/>
            </g>
            <path d="M408.23,263.31c-.1-5.44-4.59-9.78-10.03-9.69l-93.89,1.64c-5.44.1-9.78,4.59-9.69,10.03l2.22,127.41c.03,1.61.45,3.12,1.16,4.45,7.24-16,10.79-35.23,8.58-69.02,6.55,34.3.22,58.17-6.11,72.03,1.74,1.43,3.98,2.27,6.41,2.23l36.6-.64c2.79-.05,5.01-2.35,4.96-5.14l-.02-1.33c-.03-1.71,1.34-3.13,3.05-3.16l49.13-.86c5.44-.1,9.78-4.59,9.69-10.03l-2.06-117.92ZM353.12,353.8h0c-2.69.05-4.91-2.1-4.96-4.79l-.67-38.52c-.05-2.69,2.1-4.91,4.79-4.96,2.69-.05,4.91,2.1,4.96,4.79l.68,38.52c.05,2.69-2.1,4.91-4.79,4.96Z" style="fill: url(#Dégradé_sans_nom_8-15);"/>
          </g>
          <path d="M410.96,414.49c-.1-5.44-4.59-9.78-10.03-9.69l-93.89,1.64c-5.44.1-9.78,4.59-9.69,10.03l.69,39.43c4.04,11.24,4.54,24.33.54,31.05l.02,1.38c.09,5.38,4.48,9.69,9.86,9.69h35.31c3.89,0,7.02-3.18,6.97-7.07l-.07-5.02c-.01-.95.75-1.73,1.7-1.75l6.05-.11c.96-.02,1.74.75,1.76,1.7l.07,5.36c.05,3.81,3.16,6.88,6.97,6.88h35.15c5.51,0,9.95-4.52,9.86-10.03l-1.28-73.5ZM358.5,472.86l-6.56.11c-.81.01-1.48-.63-1.5-1.45l-.44-25.02c-.05-2.62,2.04-4.79,4.67-4.83h0c2.62-.05,4.79,2.04,4.83,4.67l.44,25.02c.01.81-.63,1.48-1.45,1.5Z" style="fill: url(#Dégradé_sans_nom_8-16);"/>
        </g>
      </g>
    </g>
  </g>
</svg>